<?xml version="1.0" encoding="utf-8"?>
<!-- Generator: Adobe Illustrator 22.1.0, SVG Export Plug-In . SVG Version: 6.00 Build 0)  -->
<svg version="1.1" id="Layer_1" xmlns="http://www.w3.org/2000/svg" xmlns:xlink="http://www.w3.org/1999/xlink" x="0px" y="0px"
	 viewBox="0 0 720 494" style="enable-background:new 0 0 720 494;" xml:space="preserve">
<style type="text/css">
	.st0{fill:#2F8B42;}
	.st1{fill:#2F8B42;stroke:#000000;stroke-miterlimit:10;}
	.st2{fill:none;stroke:#000000;stroke-miterlimit:10;}
	.st3{fill:#18753B;stroke:#000000;stroke-miterlimit:10;}
</style>
<path class="st0" d="M47.5,36.8v20.5c0,4.6-3.7,8.3-8.3,8.3l0,0c-4.6,0-8.3-3.7-8.3-8.3V36.8c0-4.6,3.7-8.3,8.3-8.3l0,0
	C43.8,28.5,47.5,32.2,47.5,36.8z"/>
<path class="st0" d="M11.9,155.9v86c0,6.6,5.4,12,12,12h1.7c6.6,0,12-5.4,12-12v-86c0-6.6-5.4-12-12-12h-1.7
	C17.3,143.9,11.9,149.3,11.9,155.9z"/>
<path class="st0" d="M36.9,213.1L36.9,213.1c0,3,2.5,5.5,5.5,5.5h14.4c3,0,5.5-2.5,5.5-5.5l0,0c0-3-2.5-5.5-5.5-5.5H42.4
	C39.4,207.6,36.9,210.1,36.9,213.1z"/>
<path class="st0" d="M46.6,187.7L46.6,187.7c0,6.6-5.4,12-12,12h-8c-6.6,0-12-5.4-12-12l0,0c0-6.6,5.4-12,12-12h8.1
	C41.2,175.7,46.6,181.1,46.6,187.7z"/>
<path class="st0" d="M35.1,67.3v78.9c0,5.2-4.2,9.4-9.4,9.4l0,0c-5.2,0-9.4-4.2-9.4-9.4V67.3c0-5.2,4.2-9.4,9.4-9.4l0,0
	C30.9,57.9,35.1,62.2,35.1,67.3z"/>
<path class="st0" d="M46.8,101.3v31.9c0,4.3-3.5,7.7-7.7,7.7l0,0c-4.3,0-7.7-3.5-7.7-7.7v-31.9c0-4.3,3.5-7.7,7.7-7.7l0,0
	C43.3,93.6,46.8,97,46.8,101.3z"/>
<path class="st0" d="M10.6,153.1V99.8c0-6.6,5.4-12,12-12h4.5c6.6,0,12,5.4,12,12v53.3c0,6.6-5.4,12-12,12h-4.5
	C16,165.1,10.6,159.7,10.6,153.1z"/>
<path class="st0" d="M23.6,20.2c-0.1,0.2-0.3,0.4-0.5,0.7c-2,2.1-4.1,4.3-5.2,7.1c-1.1,2.8-0.9,5.5-1.3,8.4c0,0.2-0.1,0.4-0.1,0.5
	c0.7,0.5,1.2,1.5,0.6,2.5c-1.2,2.2-1.9,4.6-2.3,7.1c1.7-0.8,3.1-2.2,4.6-3.4c0.6-0.4,1.3,0.4,0.9,0.9c-1.2,2-2.6,3.9-4.3,5.6v0.1
	c-1.1,2.6-3.2,3.7-6,3.5c-0.3,0-0.6-0.1-0.9-0.1v30.8c0,6.6,5.4,12,12,12h7.8c6.6,0,12-5.4,12-12V14C34.4,15.2,28.8,16.9,23.6,20.2z
	"/>
<path class="st0" d="M23.5,20.2c-0.1,0.2-0.3,0.4-0.5,0.6c-2,2.1-4.1,4.3-5.2,7.1s-0.9,5.5-1.3,8.4c0,0.2-0.1,0.4-0.1,0.5
	c0.7,0.5,1.2,1.5,0.6,2.5c-1.2,2.2-1.9,4.6-2.3,7.1c1.7-0.8,3.1-2.2,4.6-3.4c0.6-0.4,1.3,0.4,0.9,0.9c-1.2,2-2.6,3.9-4.3,5.6v0.1
	c-1.1,2.6-3.2,3.7-6,3.5c-0.6,0-1.2-0.2-1.8-0.3c-0.3,0-0.6-0.1-0.8-0.1c-1-0.2-1.9-0.1-2.8,0.5C4,53.5,3.6,54,3.2,54.5
	c-0.4,1.2-0.9,2.4-1.2,3.6v37.5c0.4,0,0.7,0.2,0.7,0.7c0.2,8,2.3,15.4,4,23.1c0.4,2,0.8,4.4,0.3,6.5c0,0.5-0.1,1-0.5,1.5
	c-3.2,4.6-3.9,10-3.3,15.3c2,3.9,6,6.7,10.7,6.7h10.8c6.6,0,12-5.4,12-12V14.9C32.1,16,27.7,17.6,23.5,20.2z"/>
<path class="st1" d="M30.2,72.2c0,0,3.6,9.6,19.9,6.8C50.1,79.1,38.5,65.1,30.2,72.2z"/>
<path class="st1" d="M28.9,61.1c0,0,5.8,5.3,17.9,2.6c0,0-7.3-11.4-13-11.8S28.9,61.1,28.9,61.1z"/>
<path class="st1" d="M45.6,50.7c0,0,11,14.1,8.8,20.1c0,0-7.6-4.1-10.1-10.5"/>
<path class="st1" d="M36.7,94.7c0,0,10-7.1,20.2,0c0,0-12.2,7.1-14.3,5.4s-4-4.1-4-4.1L36.7,94.7z"/>
<path class="st1" d="M42.6,100.1c-2-0.2-8.3,8.5-8.3,8.5s-0.6,1.6,1.5,1.9"/>
<path class="st1" d="M46.8,99.6c0,0,5.7,0.1,7.2,2.9s4.8,6.9,6.6,6.9s-11.1,8.2-13.9,5.6"/>
<path class="st1" d="M35.8,110.5c0,0,7.8-2.1,11.1,6.1c3.3,8.2,5.1,5.5,5.1,5.5s-13,2.3-15.1-1.8C34.5,116.3,33,112,35.8,110.5z"/>
<path class="st1" d="M34.3,133.7c0,0-3.2-7.6,17-7.8c0,0-0.3,6.4-3.8,6.4C44,132.4,36.7,130,34.3,133.7z"/>
<path class="st1" d="M34.3,133.7c0,0-2.1,10.4,21.1,7.5c0,0-9.4-7.4-7.9-8.9"/>
<path class="st1" d="M43.7,64.8l2.2,0.5c-2.2-0.5-2.8,0.3-2.8,0.3c-11.2,8.8-18.8-1.8-18.8-1.8c-2.6-7.9,4.6-5.6,4.6-5.6
	s1.2,4.8,14.9,6"/>
<path class="st1" d="M44.3,141.6c3.4,0.3,3.2,8.9,3.2,8.9c-16.4,2.1-15.9-7.3-15.9-7.3c0.3-3.9,3.3-6.2,3.3-6.2
	S35.9,140.7,44.3,141.6z"/>
<path class="st1" d="M32.1,158.1c0,0-0.6,9.6,17.6,3.8c0,0-7.4-5.6-11.9-7.8C33.4,151.9,32.1,158.1,32.1,158.1z"/>
<path class="st1" d="M36.5,165.1c0,0,4.9,6.6,6.1,12.4c1.2,5.8,4.8,4.9,4.8,4.9s-7.2,4.7-11-1s-4.4-11.8-2.2-14
	C36.5,165.1,36.5,165.1,36.5,165.1z"/>
<path class="st1" d="M38.4,189.1c0,0,18,14.3,17.7,17.8c0,0-5.8,7.2-16.6-6.8C28.8,186.2,38.4,189.1,38.4,189.1z"/>
<path class="st1" d="M44.3,194c0,0,0.9,0.8,3.2-0.8s8.6-2.3,8.6-2.3s-5.8-9.8-8.6-8.5"/>
<path class="st1" d="M54.7,208c0,0,5.3,7.8,16.6-7.7c0,0-13.5,0.5-20.1-1.4c-1.2-0.4-2.2-0.8-2.9-1.4"/>
<path class="st1" d="M49,208.2c4,1.5,4.2,3.7,4.2,3.7s4.6,0.1-4.9,1c-9.4,0.9-12.8-8.5-12.8-8.5c-1.8-6.1,4.1-4.3,4.1-4.3
	S44.4,206.5,49,208.2z"/>
<path class="st1" d="M48.2,212.9c2.6,0,5.3,3.3,7.3,6.1c2,2.9,3.3,5.6,3.3,5.6C37.6,225,36.5,218,36.5,218c-2-4.3,1.1-9.9,1.1-9.9
	S41.6,212.8,48.2,212.9z"/>
<path class="st1" d="M61.7,209.3c0,0,5.5,4.2,10.1,3.7c0,0-5.2,7.1-16.2,6c0,0-4.3-5.7-5.3-6s4-1.2,4-1.2l-2.7-2.5h3.9
	C55.4,209.3,59.1,210.8,61.7,209.3z"/>
<path class="st1" d="M38.4,222.2c0,0,17.4,13.5,17.7,20.8c0,0-16.2,3.6-18.5-1.4C35.4,236.6,30.5,218.2,38.4,222.2z"/>
<path class="st1" d="M35.1,258.5c0,0,11.4-4.4,13.2-8.8c0,0-3.2,0.9-4.6,0s-14.9-1-13,4.4C32.6,259.5,35.1,258.5,35.1,258.5z"/>
<path class="st1" d="M27.2,71.5c0,0,18,14.3,17.7,17.8c0,0-5.8,7.2-16.6-6.8S27.2,71.5,27.2,71.5z"/>
<path class="st1" d="M19,77.6c0,0-5.9-1.9-4.1,4.3c0,0,3.4,9.4,12.8,8.5s4.9-1,4.9-1s-2.2,0.1-4.2-3.7"/>
<path class="st1" d="M27.7,90.3c2.6,0.3,5.3,3.3,7.3,6.1c2,2.9,3.3,5.6,3.3,5.6C17.1,102.4,16,95.4,16,95.4c-2-4.3,1.1-9.9,1.1-9.9
	S19,90.4,29.7,90"/>
<path class="st1" d="M32.6,240.5c0,0,5.5,4.2,10.1,3.7c0,0-5.2,7.1-16.2,6c0,0-7.7-2-1.6-9.9"/>
<path class="st1" d="M36.5,238.7c-3.8,4.2-13,1.1-13,1.1s-2.3-1.3-1.8-4.2c0,0,0.4-2.7,1.8-3.3c0,0,10.6-0.9,12.4,4.2"/>
<path class="st1" d="M45.5,91.6"/>
<path class="st1" d="M20.9,212.9c0,0,0.7,5.8,5.3,7.7s5.6-1.5,9-0.3c0,0-1.7-9.5-9-10.5s-10.9,3-10.9,3"/>
<path class="st1" d="M22.9,206.1c0,0,5.5,2.3,8.1-3.3s4.5-4.6,4.5-4.6s-11.5-5.4-15.3,1.6s-5.9,3.2-5.9,3.2"/>
<path class="st1" d="M19.4,179.1c0,0-4.1,6.4,1.2,8.5s7.6-1.9,8.5-1.1c1,0.9,1,2.3,0.6,2.7c0,0,2.7-3.6,0.8-5.9
	c-1.9-2.3-7.2-5.8-9.3-2.9"/>
<path class="st1" d="M25.7,177.4c0,0,3.7-1,5-7s4.4-5.9,4.4-5.9s-9.4-2.8-9.9,3.1c-0.5,5.9,1.6,5.3,1.6,5.3"/>
<path class="st1" d="M23.7,146.9c0,0,5.2-1.7,6.8,0.8c1.5,2.5,1.2,3,3.7,4.1s3.4,0.3,3.4,0.3s-5.9,5.7-8.3,4.1
	c-2.4-1.6-4.2-3.2-4.2-7.1"/>
<path class="st1" d="M25.1,138.5"/>
<path class="st1" d="M26.8,139.2c0,0,5.3,0.9,5.3-7.6s4.9-4.8,4.9-4.8s-4-6.4-9.4-2.6s-2.9,10.7-1.6,10.3s0.7-1.6,0.7-1.6"/>
<path class="st1" d="M24.4,104.8c0,0,7.9,3,6.7,7.9c-1.1,4.9-0.6,5.1,0.5,6.5c1.1,1.4,2.9,0.4,2.9,0.4l-3.4,2.2c0,0-5.1,1.6-6-4
	s2.4-7.7-0.3-10.2"/>
<path class="st1" d="M14.6,71.3c0,0,3.5,5,5.8,2.9s1.8-5.4,4-5.3s3.5,2,3.5,2s-3.7-6.3-6.7-6.9s-10-0.1-10.6,7.8"/>
<path class="st1" d="M15.3,59.7c0,0,3.7,4.1,10.9-3.9l2-2.9c0,0-1.3,5.3-5,2.9s-0.8-6.4-4.7-6.4c-3.9,0.1-4.3,6.2-1.1,6.5"/>
<path class="st1" d="M15.2,108.6c-4.5-0.9-4.5-0.9-4.5-0.9l-5.3,5.9c0.5,2,0.9,4,1.3,6c0,0.2,0.1,0.4,0.1,0.6c1.4,2.3,3.7,4.4,7.3,4
	c7.9-0.8,6.2,4,7.6,1S19.7,109.5,15.2,108.6z"/>
<path class="st1" d="M9.2,157.6c0,0,3.5,13,9.4,9.5s5.8-6.3,8.1-5.3c2.4,1,3.1,0,1.4-1.5s-6.5-9-10.4-5.8"/>
<path class="st1" d="M10.6,54.2c-0.7-0.5-1.4-0.9-2-1.1C8.4,53.1,8.2,53,8,53c-0.1,0-0.3,0-0.4-0.1c-0.1,0-0.2,0-0.3-0.1
	c-2.1,0-4,1.6-5.3,6.1l1,15c0,0,6.1,0.1,7.6-10.4c0,0-0.2-5.2,1.3-5.3C13.4,58.1,13.9,56.6,10.6,54.2z"/>
<path class="st1" d="M6,83.8c0,0,9.6,0.5,8.1,13.6c0,0-0.2,2.6,1.6,2.9s-1.2,2.8-3.8,2.9s-7.4-1.5-9.9-9.4"/>
<path class="st1" d="M7.6,133.7l-4.5,6.5c0,1.1,0.1,2.2,0.3,3.2c2.7,3.1,9,8.7,14.5,2.9c2.4-2.6,3.8-3.7,4.6-4
	C20.6,138.6,15.4,130.7,7.6,133.7z"/>
<path class="st1" d="M2,184.2c0,0,3.3,9.3,9.9,10s9.7,0,9.7,0s2.5-3-11-13.2"/>
<path class="st0" d="M49.2,185L49.2,185c0,1.3-1.1,2.4-2.4,2.4h-0.5c-1.3,0-2.4-1.1-2.4-2.4l0,0c0-1.3,1.1-2.4,2.4-2.4h0.5
	C48.1,182.6,49.2,183.7,49.2,185z"/>
<path class="st1" d="M45.1,194.1c0,0-6.2-4.8-8.7-5.3c0,0-2.7-7.7,1.3-6.2"/>
<path class="st1" d="M36.5,181.4c0,0,2.6,5.7,11.8,0.9c0,0-4.4,1.5-5.6-4.8"/>
<path class="st1" d="M35.7,183.1"/>
<path class="st0" d="M47.4,190.9l-2.1,2.7l-6.1-4.1l-1.2-5.8l1.6,0.7c0,0,4.7,1,7.8-1V190.9z"/>
<rect x="172.4" y="22" transform="matrix(0.9924 -0.1233 0.1233 0.9924 -2.1159 26.6121)" class="st0" width="83.1" height="16.8"/>
<path class="st0" d="M165,26l-5.8-6.3c-4.5-4.8-12.1-5.2-17-0.7l0,0c-4.8,4.5-5.2,12.1-0.7,17l5.8,6.3c4.5,4.8,12.1,5.2,17,0.7l0,0
	C169.2,38.5,169.5,30.8,165,26z"/>
<path class="st0" d="M161.7,39.6L161.7,39.6c4.3,4.7,11.7,5,16.4,0.7l3.5-3.2c4.7-4.3,5-11.7,0.7-16.4l0,0c-4.3-4.7-11.7-5-16.4-0.7
	l-3.5,3.2C157.6,27.6,157.3,34.9,161.7,39.6z"/>
<path class="st0" d="M172,47.6l0.6,0.6c3.2,3.5,8.6,3.7,12.1,0.5l0.6-0.6c3.5-3.2,3.7-8.6,0.5-12.1l-0.6-0.6
	c-3.2-3.5-8.6-3.7-12.1-0.5l-0.6,0.6C169,38.7,168.8,44.1,172,47.6z"/>
<path class="st0" d="M174.8,45.2l-0.5-4.4c-0.2-1.8-1.9-3.1-3.7-2.9l-22.1,2.7c-1.8,0.2-3.1,1.9-2.9,3.7l0.5,4.4
	c0.2,1.8,1.9,3.1,3.7,2.9l22.1-2.7C173.7,48.7,175,47,174.8,45.2z"/>
<path class="st0" d="M140.6,29.3L83.4,17.2c-4.5-0.9-8.9,1.9-9.8,6.4l0,0c-0.9,4.5,1.9,8.9,6.4,9.8l57.2,12.1
	c4.5,0.9,8.9-1.9,9.8-6.4l0,0C147.9,34.7,145,30.2,140.6,29.3z"/>
<path class="st0" d="M123.7,38.2l-16.2-4c-2.8-0.7-5.6,1-6.3,3.8l-1.8,7.1c-0.7,2.8,1,5.6,3.8,6.3l16.2,4c2.8,0.7,5.6-1,6.3-3.8
	l1.8-7.1C128.2,41.8,126.5,38.9,123.7,38.2z"/>
<path class="st0" d="M92.6,40.7l-3.3-3.6c-1.8-1.9-1.6-4.9,0.3-6.7l0,0c1.9-1.8,4.9-1.6,6.7,0.3l3.3,3.6c1.8,1.9,1.6,4.9-0.3,6.7
	l0,0C97.4,42.7,94.4,42.6,92.6,40.7z"/>
<path class="st0" d="M190.1,40.6L190.1,40.6c-2.5-2.7-2.3-7,0.4-9.5l7.4-6.8c2.7-2.5,7-2.3,9.5,0.4l0,0c2.5,2.7,2.3,7-0.4,9.5
	l-7.4,6.8C196.9,43.5,192.6,43.4,190.1,40.6z"/>
<path class="st0" d="M194.4,25.8l-9.7-3.5c-0.6-0.2-1.2,0.1-1.4,0.7l-0.5,1.3c-0.2,0.6,0.1,1.2,0.7,1.4l9.7,3.5
	c0.6,0.2,1.2-0.1,1.4-0.7l0.5-1.3C195.3,26.6,195,26,194.4,25.8z"/>
<path class="st0" d="M164.3,22.8l-1.5-1.6c-0.9-0.9-2.4-1-3.3-0.1l0,0c-0.9,0.9-1,2.4-0.1,3.3l1.5,1.6c0.9,0.9,2.4,1,3.3,0.1l0,0
	C165.2,25.2,165.2,23.7,164.3,22.8z"/>
<path class="st0" d="M128.3,29.7L128.3,29.7c-1.4-1.6-1.3-4,0.2-5.5l1.6-1.5c1.6-1.4,4-1.3,5.5,0.2l0,0c1.4,1.6,1.3,4-0.2,5.5
	l-1.6,1.5C132.2,31.3,129.8,31.3,128.3,29.7z"/>
<path class="st0" d="M87.8,32.8L79.7,24c-1.1-1.2-3-1.3-4.2-0.2L75.3,24c-1.2,1.1-1.3,3-0.2,4.2l8.1,8.8c1.1,1.2,3,1.3,4.2,0.2
	l0.2-0.2C88.8,35.9,88.9,34,87.8,32.8z"/>
<path class="st0" d="M79.9,19.7l-21-6.5c-2-0.6-4.2,0.5-4.9,2.6l-0.3,1.1c-0.6,2,0.5,4.2,2.6,4.9l21,6.5c2,0.6,4.2-0.5,4.9-2.6
	l0.3-1.1C83.1,22.5,81.9,20.3,79.9,19.7z"/>
<path class="st0" d="M76.1,31.2l9.4,10.2c2.1,2.3,5.8,2.5,8.1,0.3l0,0c2.3-2.1,2.5-5.8,0.3-8.1l-9.4-10.2c-2.1-2.3-5.8-2.5-8.1-0.3
	l0,0C74.1,25.2,73.9,28.9,76.1,31.2z"/>
<path class="st0" d="M74,30.3l-6.8-7.4c-0.4-0.4-0.4-1.1,0.1-1.5l0,0c0.4-0.4,1.1-0.4,1.5,0.1l6.8,7.4c0.4,0.4,0.4,1.1-0.1,1.5l0,0
	C75.1,30.8,74.4,30.8,74,30.3z"/>
<path class="st0" d="M97.2,48l-1.8-2c-1.6-1.8-1.5-4.5,0.2-6.1l0,0c1.8-1.6,4.5-1.5,6.1,0.2l1.8,2c1.6,1.8,1.5,4.5-0.2,6.1l0,0
	C101.5,49.9,98.8,49.8,97.2,48z"/>
<path class="st0" d="M117.3,58.9L117.3,58.9c-0.9-0.9-0.8-2.4,0.1-3.2l7.8-7.2c0.9-0.9,2.4-0.8,3.2,0.1l0,0c0.9,0.9,0.8,2.4-0.1,3.2
	l-7.8,7.2C119.6,59.8,118.1,59.8,117.3,58.9z"/>
<path class="st0" d="M112.8,55.4l-0.7-0.8c-1.3-1.4-1.2-3.5,0.2-4.8l0,0c1.4-1.3,3.5-1.2,4.8,0.2l0.7,0.8c1.3,1.4,1.2,3.5-0.2,4.8
	l0,0C116.2,56.8,114.1,56.8,112.8,55.4z"/>
<path class="st1" d="M137.3,56.2l-6.5,8.7c0,0-1.1,1.3-1.1-1.6s2-11.3,2-11.3s5.4-4.3,6.9-2.2S137.3,56.2,137.3,56.2"/>
<path class="st2" d="M58.2,26.1c0,0,3.3,2.6,6,0.8"/>
<path class="st1" d="M57.4,25.4c0,0,4.1,4,6.8,1.4"/>
<path class="st1" d="M78.1,19.7c0,0-4.7,3.2-10.7,2.9c-4.5-0.3-9.8-4.8-12.1-7.1c-0.8-0.8-1.2-1.2-1.2-1.2
	c-6.3-0.6-11.5-0.4-15.8,0.3c-3.1,0.7-6.1,1.5-8.9,2.7c-11.7,5.6-12.1,16.1-12.1,16.1C19,28.3,27.9,27,27.9,27
	c-6.8,3-12.5,18.6-12.5,18.6c1.2-0.5,2.6-1.4,4-2.3c0.1,0,0.1-0.1,0.2-0.1s0.1-0.1,0.2-0.1c3.2-2,6.2-4.3,6.2-4.3
	c-5.3,5.1-2.1,14.7-2.1,14.7c5.6-4,12.6-19,12.6-19c-3.5,7.5,0,14.3,0,14.3C50.8,38,48,25.7,48,25.7l5.6-4.7
	c1.8,2.5,3.3,4.2,4.7,5.2c3,2.3,5,1.6,6,0.8c0.6-0.5,0.9-1,0.9-1c2.1,9.1,7.6-2.2,16.6,4c9,6.1,12-1.3,12-1.3
	C90,19.1,78.1,19.7,78.1,19.7z"/>
<path class="st1" d="M106.2,38.9c0,0-9.9-2.8-19.9,1.8s-13,0.4-13,0.4s5.8,5.8,13.4,4.9c7.6-0.9,11.3,0.4,11.3,0.4L106.2,38.9z"/>
<path class="st1" d="M120.1,45.8c0,0-18.8-0.4-28.4,13.3c0,0,20.6-0.7,30.5-7.8C122.2,51.3,116.7,50,120.1,45.8z"/>
<path class="st1" d="M136.3,47.4c0,0-3,8.4-14.1,3.9C111.1,46.9,134.2,39.3,136.3,47.4z"/>
<path class="st2" d="M25.8,38.8c0,0,23.4-17.1,19.3-18.8"/>
<path class="st3" d="M47.9,25.6c0,0-9.1,4-11.6,8.9"/>
<path class="st1" d="M102.3,24.1c0,0-7.5-7.9-14.9-7.5s-7.7-6.6-14.1-5c0,0,4.3,7.3,8.4,8.4C85.9,21.1,95.8,21.3,102.3,24.1z"/>
<path class="st1" d="M126.9,22.7c0,0-7.5,2.3-17.5-5.2c-10-7.4-21.6-6.8-21.6-6.8s9.7,3.2,17.1,9.7s20,10.6,20,10.6l6.6-6.1
	L126.9,22.7z"/>
<path class="st1" d="M145.3,19.3c0,0-9.2,0.6-18-5.7S112,12.1,112,12.1s13,5.9,14.8,10.6s27.5,6.4,27.5,6.4S141.1,14.9,139.2,15
	c-1.8,0.1,13-3.5,25.9,8.6l4.3,4.7c0,0-4-1.5-7.8-0.3c0,0,3.5,4.3,7.3,6.7c2.4,1.5,5,2.2,7,0.7c5.2-4,6.7-6.2,6.7-6.2
	s-1.3-4.5-9-1.9S162,16.2,162,16.2s9.9,3.8,12.8,7.7"/>
<path class="st1" d="M90.1,23.5c0,0,11.7,17.7,27,12.9c0,0-10.1-10.8-14.9-12.4"/>
<path class="st1" d="M142.9,42.3c0,0-5.8-5.8-13.6-6.4c-7.8-0.6-16.9-7-16.9-7s11,14.8,15.6,15c0,0,4.1-0.5,5.7,0.7"/>
<path class="st1" d="M27.8,26.9C38.4,20.5,56.9,17,56.9,17l-3.3,3.9"/>
<path class="st1" d="M59.6,27c0,0,1.8,9.1,16.6,0.9"/>
<path class="st1" d="M101.3,34.1c0,0-8.9,2.4-14.1,0.1c-5.2-2.3-6.4,1.4-6.4,1.4s2.4,4.7,5.6,5c0,0,7.1-4.4,19.9-1.8"/>
<path class="st1" d="M71.5,30c0,0,8,2.1,9.2,5.6"/>
<path class="st1" d="M98,46.5c0,0-3-0.9-7.2,4.4c0,0,5.7,2.9,10.9-0.5"/>
<path class="st1" d="M123.9,41.7c0,0-12.9-7.3-17.7-2.8s3.2,8.4,3.2,8.4"/>
<path class="st1" d="M129.3,52.5c0,0-7.2,7.2-11.4,8.3c-4.2,1.2-13.4,2.4-13.4,2.4c-0.7-3.7,2.9-6.2,2.9-6.2"/>
<path class="st1" d="M116.6,61.2c-6.9,0.6-9,13.7-9,13.7c4.2-4.7,15.2-5.2,15.2-5.2s11.5-5.3,1.7-12.8
	C124.6,56.9,118,61.1,116.6,61.2z"/>
<path class="st1" d="M150.9,47.1c0,0-9.8-3.2-16,14.7C134.9,61.8,151.2,60.9,150.9,47.1z"/>
<path class="st1" d="M139,39.3c0,0,2,0.6,5.2,0.2c2.4-0.3,5.4-1.1,8.7-3.1c0,0-2.5-7.4-10.8-8.7c-14-2.1-17.4,3.2-17.4,3.2
	c5.2-0.9,12.3,7.2,12.3,7.2L139,39.3z"/>
<path class="st1" d="M154.3,29.1c0,0,7.8,9.3,14.7,5.6"/>
<path class="st1" d="M173.7,36.3c0,0-2.1,5.8-8.7,5.5c-3-0.1-7-1.5-12.1-5.3"/>
<path class="st1" d="M208.5,18.2c0,0-12.7-2.7-19.2,4.2c0,0,3.4,3.5,6.3,4.2"/>
<path class="st1" d="M167.4,18.6c0,0,4.7-5.4,11.2-0.8s13.3,7.4,13.3,7.4"/>
<path class="st1" d="M215.1,38.6c0,0-20.4,10.9-16.6-0.4c0,0,6.5,1.2,9.5-2.2"/>
<path class="st1" d="M188.6,35.1c0,0,5.7,3.1,10,3.2"/>
<path class="st1" d="M187,36.7c0,0,1.2,8.8-5.1,13.4c0,0,10.9,0.8,16.8-7.6"/>
<path class="st1" d="M174.5,43.6c0,0-1.2,2.4-3,5.6c-1.1,2-2.4,4.4-3.8,6.6c-3.6,5.8,14.1-5.7,14.1-5.7"/>
<path class="st1" d="M150.7,49.7c0,0,2.6,6.1,20.9-0.5"/>
<path class="st1" d="M156.5,42.9c0,0-8-6.6-18.9,5.8l2.5,3.2"/>
<path class="st1" d="M250,24.2c0,0-1.9,5.3-3.2,7.2c-4.4,6.4,19.6-12,22.8-16.4c3.2-4.5-8-4.5-8-4.5c2-4.3,7.8-8.2,7.8-8.2
	c-5.8-1.2-9.3-0.5-12.8,2.8s-3.5,10.2-5.8,17.6s-21.1,11.5-21.1,11.5c0.5-3.8,2.9-9,6.2-10.8s13.3-12.8,13.3-12.8
	c-9.3,7.1-21.1,4.1-26.5,5.4c-2.9,0.7-4.8,2.3-6.2,3.6c-1.2,1.2-2,2.2-2.5,2.2c-1.2,0.1-4.4,4.6-4.4,4.6c3.4-2.6,20.9-0.1,20.9-0.1
	s-2.7,3.3-7.8,10.1s-19.3-3.2-19.3-3.2l2.9-4.2c-11.9-8.4-22.6,5.4-22.6,5.4c5-0.5,5,0.7,5,0.7c-10,10.8-17.6,9.4-23.5,6.7
	c-6-2.8-14.2,5.4-14.2,5.4"/>
<path class="st2" d="M43.5,20.4c0,0,5-1.4,0.3,3.2"/>
<path class="st1" d="M96.9,15c0,0-14.3-2.4-3.6,2.8s12.8,3.7,12.8,3.7L96.9,15z"/>
<path class="st1" d="M81.7,29.8c0,0-2.5-4.3-14.2-0.3c0,0-2.4,0.5-2.4-3.7c0,0-0.8-2.3,4.8-3.3s8.2-2.8,8.2-2.8S72.2,9.4,54,14.3"/>
<path class="st1" d="M58.2,26.1c0,0,3.3,2.7,6,0.8"/>
<line class="st2" x1="54.7" y1="19.4" x2="52.7" y2="21.5"/>
<path class="st1" d="M50.3,60.9"/>
<rect x="19.8" y="247.9" transform="matrix(0.9924 -0.1233 0.1233 0.9924 -35.4741 5.6857)" class="st0" width="16.8" height="83.1"/>
<path class="st0" d="M23.9,338.2l-6.3,5.8c-4.8,4.5-5.2,12.1-0.7,17l0,0c4.5,4.8,12.1,5.2,17,0.7l6.3-5.8c4.8-4.5,5.2-12.1,0.7-17
	l0,0C36.4,334,28.8,333.7,23.9,338.2z"/>
<path class="st0" d="M37.6,341.6L37.6,341.6c4.7-4.3,5-11.7,0.7-16.4l-3.2-3.5c-4.3-4.7-11.7-5-16.4-0.7l0,0
	c-4.7,4.3-5,11.7-0.7,16.4l3.2,3.5C25.5,345.6,32.9,345.9,37.6,341.6z"/>
<path class="st0" d="M45.5,331.2l0.6-0.6c3.5-3.2,3.7-8.6,0.5-12.1l-0.6-0.6c-3.2-3.5-8.6-3.7-12.1-0.5l-0.6,0.6
	c-3.5,3.2-3.7,8.6-0.5,12.1l0.6,0.6C36.6,334.2,42.1,334.4,45.5,331.2z"/>
<path class="st0" d="M43.1,328.5l-4.4,0.5c-1.8,0.2-3.1,1.9-2.9,3.7l2.7,22.1c0.2,1.8,1.9,3.1,3.7,2.9l4.4-0.5
	c1.8-0.2,3.1-1.9,2.9-3.7l-2.7-22.1C46.6,329.5,44.9,328.2,43.1,328.5z"/>
<path class="st0" d="M27.2,362.6l-12.1,57.2c-0.9,4.5,1.9,8.9,6.4,9.8l0,0c4.5,0.9,8.9-1.9,9.8-6.4L43.4,366
	c0.9-4.5-1.9-8.9-6.4-9.8l0,0C32.6,355.3,28.2,358.2,27.2,362.6z"/>
<path class="st0" d="M36.2,379.6l-4,16.2c-0.7,2.8,1,5.6,3.8,6.3l7.1,1.8c2.8,0.7,5.6-1,6.3-3.8l4-16.2c0.7-2.8-1-5.6-3.8-6.3
	l-7.1-1.8C39.7,375.1,36.9,376.8,36.2,379.6z"/>
<path class="st0" d="M38.6,410.6l-3.6,3.3c-1.9,1.8-4.9,1.6-6.7-0.3l0,0c-1.8-1.9-1.6-4.9,0.3-6.7l3.6-3.3c1.9-1.8,4.9-1.6,6.7,0.3
	l0,0C40.6,405.8,40.5,408.8,38.6,410.6z"/>
<path class="st0" d="M38.6,313.2L38.6,313.2c-2.7,2.5-7,2.3-9.5-0.4l-6.8-7.4c-2.5-2.7-2.3-7,0.4-9.5l0,0c2.7-2.5,7-2.3,9.5,0.4
	l6.8,7.4C41.5,306.4,41.3,310.6,38.6,313.2z"/>
<path class="st0" d="M23.7,308.8l-3.5,9.7c-0.2,0.6,0.1,1.2,0.7,1.4l1.3,0.5c0.6,0.2,1.2-0.1,1.4-0.7l3.5-9.7
	c0.2-0.6-0.1-1.2-0.7-1.4l-1.3-0.5C24.6,307.9,24,308.2,23.7,308.8z"/>
<path class="st0" d="M20.7,338.9l-1.6,1.5c-0.9,0.9-1,2.4-0.1,3.3l0,0c0.9,0.9,2.4,1,3.3,0.1l1.6-1.5c0.9-0.9,1-2.4,0.1-3.3l0,0
	C23.1,338.1,21.7,338,20.7,338.9z"/>
<path class="st0" d="M27.6,374.9L27.6,374.9c-1.6,1.4-4,1.3-5.5-0.2l-1.5-1.6c-1.4-1.6-1.3-4,0.2-5.5l0,0c1.6-1.4,4-1.3,5.5,0.2
	l1.5,1.6C29.3,371,29.2,373.5,27.6,374.9z"/>
<path class="st0" d="M30.8,415.4l-8.8,8.1c-1.2,1.1-1.3,3-0.2,4.2l0.2,0.2c1.1,1.2,3,1.3,4.2,0.2L35,420c1.2-1.1,1.3-3,0.2-4.2
	l-0.2-0.2C33.9,414.4,32,414.3,30.8,415.4z"/>
<path class="st0" d="M17.6,423.4l-6.5,21c-0.6,2,0.5,4.2,2.6,4.9l1.1,0.3c2,0.6,4.2-0.5,4.9-2.6l6.5-21c0.6-2-0.5-4.2-2.6-4.9
	l-1.1-0.3C20.5,420.2,18.3,421.3,17.6,423.4z"/>
<path class="st0" d="M29.2,427.1l10.2-9.4c2.3-2.1,2.5-5.8,0.3-8.1l0,0c-2.1-2.3-5.8-2.5-8.1-0.3l-10.2,9.4
	c-2.3,2.1-2.5,5.8-0.3,8.1l0,0C23.2,429.1,26.8,429.3,29.2,427.1z"/>
<path class="st0" d="M28.3,429.2l-7.4,6.8c-0.4,0.4-1.1,0.4-1.5-0.1l0,0c-0.4-0.4-0.4-1.1,0.1-1.5l7.4-6.8c0.4-0.4,1.1-0.4,1.5,0.1
	l0,0C28.8,428.1,28.7,428.8,28.3,429.2z"/>
<path class="st0" d="M46,406.1l-2,1.8c-1.8,1.6-4.5,1.5-6.1-0.2l0,0c-1.6-1.8-1.5-4.5,0.2-6.1l2-1.8c1.8-1.6,4.5-1.5,6.1,0.2l0,0
	C47.8,401.7,47.7,404.5,46,406.1z"/>
<path class="st0" d="M56.8,386L56.8,386c-0.9,0.9-2.4,0.8-3.2-0.1l-7.2-7.8c-0.9-0.9-0.8-2.4,0.1-3.2l0,0c0.9-0.9,2.4-0.8,3.2,0.1
	l7.2,7.8C57.8,383.7,57.7,385.1,56.8,386z"/>
<path class="st0" d="M53.4,390.4l-0.8,0.7c-1.4,1.3-3.5,1.2-4.8-0.2l0,0c-1.3-1.4-1.2-3.5,0.2-4.8l0.8-0.7c1.4-1.3,3.5-1.2,4.8,0.2
	l0,0C54.8,387,54.7,389.2,53.4,390.4z"/>
<path class="st1" d="M54.1,366l8.7,6.5c0,0,1.3,1.1-1.6,1.1c-2.9,0-11.3-2-11.3-2s-4.3-5.4-2.2-6.9S54.1,366,54.1,366"/>
<path class="st2" d="M24,445.1c0,0,2.6-3.3,0.8-6"/>
<path class="st1" d="M23.4,445.9c0,0,4-4.1,1.4-6.8"/>
<path class="st1" d="M23.6,455.4c0,0,12.4-2.8,23.1,11.5c0,0-6.7,3.5-14.3,0c0,0,15,7.1,19,12.6c0,0-9.6,3.2-14.7-2.1
	c0,0,5,6.6,6.8,10.5c0,0-15.6-5.7-18.6-12.5c0,0,1.3,8.9,6.4,10.6c0,0-22.6-1-19.1-36.8c0,0,0.5-0.5,1.2-1.2
	c2.3-2.3,6.8-7.6,7.1-12.1c0.4-6-2.9-10.7-2.9-10.7s-0.6-11.9,8.8-15.6c0,0,7.4,3,1.3,12s5.1,14.5-4,16.6c0,0,0.5,0.3,1,0.9
	c0.8,1,1.6,3-0.8,6c-1,1.3-2.7,2.9-5.2,4.7L23.6,455.4z"/>
<path class="st1" d="M36.8,397c0,0-2.8,9.9,1.8,19.9s0.4,13,0.4,13s5.8-5.8,4.9-13.4c-0.9-7.6,0.4-11.3,0.4-11.3L36.8,397z"/>
<path class="st1" d="M43.7,383.2c0,0-0.4,18.8,13.3,28.4c0,0-0.7-20.6-7.8-30.5C49.3,381,47.9,386.6,43.7,383.2z"/>
<path class="st1" d="M45.3,367c0,0,8.4,3,3.9,14.1C44.8,392.1,37.3,369.1,45.3,367z"/>
<path class="st1" d="M22.1,401c0,0-7.9,7.5-7.5,14.9s-6.6,7.7-5,14.1c0,0,7.3-4.3,8.4-8.4C19,417.4,19.2,407.4,22.1,401z"/>
<path class="st1" d="M20.7,376.4c0,0,2.3,7.5-5.2,17.5c-7.4,10-6.8,21.6-6.8,21.6s3.2-9.7,9.7-17.1c6.4-7.4,10.6-20,10.6-20
	l-6.1-6.6L20.7,376.4z"/>
<path class="st1" d="M17.3,357.9c0,0,0.6,9.2-5.7,18s-1.5,15.3-1.5,15.3s5.9-13,10.6-14.8s6.4-27.5,6.4-27.5S12.9,362.1,13,364
	s-3.5-13,8.6-25.9l4.7-4.3c0,0-1.5,4-0.3,7.8c0,0,4.3-3.5,6.7-7.3c1.5-2.4,2.2-5,0.7-7c-4-5.2-6.2-6.7-6.2-6.7s-4.5,1.3-1.9,9
	s-11.1,11.6-11.1,11.6s3.8-9.9,7.7-12.8"/>
<path class="st1" d="M21.5,413.1c0,0,17.7-11.7,12.9-27c0,0-10.8,10.1-12.4,14.9"/>
<path class="st1" d="M40.3,360.3c0,0-5.8,5.8-6.4,13.6s-7,16.9-7,16.9s14.8-11,15-15.6c0,0-0.5-4.1,0.7-5.7"/>
<path class="st1" d="M24.9,443.7c0,0,9.1-1.8,0.9-16.6"/>
<path class="st1" d="M32.1,402c0,0,2.4,8.9,0.1,14.1c-2.3,5.2,1.4,6.4,1.4,6.4s4.7-2.4,5-5.6c0,0-4.4-7.1-1.8-19.9"/>
<path class="st1" d="M28,431.7c0,0,2.1-8,5.6-9.2"/>
<path class="st1" d="M44.4,405.2c0,0-0.9,3,4.4,7.2c0,0,2.9-5.7-0.5-10.9"/>
<path class="st1" d="M39.7,379.3c0,0-7.3,12.9-2.8,17.7c4.5,4.8,8.4-3.2,8.4-3.2"/>
<path class="st1" d="M50.5,374c0,0,7.2,7.2,8.3,11.4c1.2,4.2,2.4,13.4,2.4,13.4c-3.7,0.7-6.2-2.9-6.2-2.9"/>
<path class="st1" d="M59.2,386.6c0.6,6.9,13.7,9,13.7,9c-4.7-4.2-5.2-15.2-5.2-15.2s-5.3-11.5-12.8-1.7
	C54.9,378.6,59,385.2,59.2,386.6z"/>
<path class="st1" d="M45,352.4c0,0-3.2,9.8,14.7,16C59.8,368.3,58.9,352,45,352.4z"/>
<path class="st1" d="M37.3,364.2c0,0,0.6-2,0.2-5.2c-0.3-2.4-1.1-5.4-3.1-8.7c0,0-7.4,2.5-8.7,10.8c-2.1,14,3.2,17.4,3.2,17.4
	c-0.9-5.2,7.2-12.3,7.2-12.3L37.3,364.2z"/>
<path class="st1" d="M27.1,348.9c0,0,9.3-7.8,5.6-14.7"/>
<path class="st1" d="M34.2,329.5c0,0,5.8,2.1,5.5,8.7c-0.1,3-1.5,7-5.3,12.1"/>
<path class="st1" d="M16.1,294.8c0,0-2.7,12.7,4.2,19.2c0,0,3.5-3.4,4.2-6.3"/>
<path class="st1" d="M16.5,335.9c0,0-5.4-4.7-0.8-11.2s7.4-13.3,7.4-13.3"/>
<path class="st1" d="M36.6,288.1c0,0,10.9,20.4-0.4,16.6c0,0,1.2-6.5-2.2-9.5"/>
<path class="st1" d="M33,314.7c0,0,3.1-5.7,3.2-10"/>
<path class="st1" d="M34.6,316.2c0,0,8.8-1.2,13.4,5.1c0,0,0.8-10.9-7.6-16.8"/>
<path class="st1" d="M41.5,328.7c0,0,2.4,1.2,5.6,3c2,1.1,4.4,2.4,6.6,3.8c5.8,3.6-5.7-14.1-5.7-14.1"/>
<path class="st1" d="M47.7,352.5c0,0,6.1-2.6-0.5-20.9"/>
<path class="st1" d="M40.9,346.7c0,0-6.6,8,5.8,18.9l3.2-2.5"/>
<path class="st1" d="M22.2,253.2c0,0,5.3,1.9,7.2,3.2c6.4,4.4-12-19.6-16.4-22.8s-4.5,8-4.5,8c-4.3-2-8.2-7.8-8.2-7.8
	c-1.2,5.8-0.5,9.3,2.8,12.8c3.2,3.5,10.2,3.5,17.6,5.8s11.5,21.1,11.5,21.1c-3.8-0.5-9-2.9-10.8-6.2C19.6,264,8.6,254,8.6,254
	c7.1,9.3,4.1,21.1,5.4,26.5c0.7,2.9,2.3,4.8,3.6,6.2c1.2,1.2,2.2,2,2.2,2.5c0.1,1.2,4.6,4.4,4.6,4.4c-2.6-3.4-0.1-20.9-0.1-20.9
	s3.3,2.7,10.1,7.8c6.8,5.1-3.2,19.3-3.2,19.3l-4.2-2.9c-8.4,11.9,5.4,22.6,5.4,22.6c-0.5-5,0.7-5,0.7-5c10.8,10,9.4,17.6,6.7,23.5
	c-2.8,6,5.4,14.2,5.4,14.2"/>
<path class="st1" d="M12.9,406.4c0,0-2.4,14.3,2.8,3.6s3.7-12.8,3.7-12.8L12.9,406.4z"/>
<path class="st1" d="M27.7,421.6c0,0-4.3,2.5-0.3,14.2c0,0,0.5,2.4-3.7,2.4c0,0-2.3,0.8-3.3-4.8s-2.8-8.2-2.8-8.2
	s-10.3,5.9-5.4,24.1"/>
<path class="st1" d="M24,445.1c0,0,2.7-3.3,0.8-6"/>
<rect x="302" y="-16.1" transform="matrix(0.1601 -0.9871 0.9871 0.1601 235.6045 327.7179)" class="st0" width="16.8" height="83.1"/>
<path class="st0" d="M284.6,28.7L284.6,28.7c-1.7-3.3-0.3-7.4,3-9.1l9-4.5c3.3-1.7,7.4-0.3,9.1,3l0,0c1.7,3.3,0.3,7.4-3,9.1l-9,4.5
	C290.3,33.4,286.3,32,284.6,28.7z"/>
<path class="st0" d="M292.9,15.6l-8.4-6.1c-0.5-0.4-1.2-0.3-1.6,0.2l-0.8,1.1c-0.4,0.5-0.3,1.2,0.2,1.6l8.4,6.1
	c0.5,0.4,1.2,0.3,1.6-0.2l0.8-1.1C293.6,16.7,293.4,16,292.9,15.6z"/>
<path class="st1" d="M308.6,12.3c0,0-11.5-6.1-19.6-1.4c0,0,2.3,4.4,4.9,5.8"/>
<path class="st1" d="M269,1.1c0,0,6-3.9,11,2.3s10.7,10.9,10.7,10.9"/>
<path class="st1" d="M309.2,33.8c0,0-22.6,4.7-15.8-5c0,0,6,2.9,9.8,0.6"/>
<path class="st1" d="M284.7,22.9c0,0,4.6,4.6,8.7,5.9"/>
<path class="st1" d="M282.8,24c0,0-1.3,8.8-8.7,11.4c0,0,10.3,3.9,18.2-2.6"/>
<path class="st1" d="M346.7,29.7c0,0-3.3,4.6-5.1,6c-6,4.9,22.2-6,26.5-9.4s-6.5-6.6-6.5-6.6c3.2-3.6,9.7-5.7,9.7-5.7
	c-5.3-2.8-8.8-3-13-0.9c-4.3,2.1-6.2,8.8-10.5,15.3s-23.4,5.1-23.4,5.1c1.5-3.5,5.3-7.8,9-8.6c3.6-0.8,16.4-8.6,16.4-8.6
	c-11,4.2-21.4-2-26.9-2.2c-2.9-0.1-5.3,0.8-7,1.7c-1.5,0.8-2.5,1.5-3.1,1.4c-1.1-0.2-5.5,3.2-5.5,3.2c4-1.6,20.1,5.8,20.1,5.8
	s-3.6,2.4-10.4,7.5s-17.6-8.5-17.6-8.5l4-3.2c-9.1-11.4-23.2-1.2-23.2-1.2c4.9,0.9,4.6,2,4.6,2c-12.6,7.6-19.5,4.1-24.5-0.2
	s-15.1,1.2-15.1,1.2"/>
<path class="st0" d="M672.7,457v-20.5c0-4.6,3.7-8.3,8.3-8.3l0,0c4.6,0,8.3,3.7,8.3,8.3V457c0,4.6-3.7,8.3-8.3,8.3l0,0
	C676.4,465.3,672.7,461.6,672.7,457z"/>
<path class="st0" d="M708.3,337.9v-86c0-6.6-5.4-12-12-12h-1.7c-6.6,0-12,5.4-12,12v86c0,6.6,5.4,12,12,12h1.7
	C702.9,349.9,708.3,344.5,708.3,337.9z"/>
<path class="st0" d="M683.3,280.7L683.3,280.7c0-3-2.5-5.5-5.5-5.5h-14.4c-3,0-5.5,2.5-5.5,5.5l0,0c0,3,2.5,5.5,5.5,5.5h14.4
	C680.8,286.2,683.3,283.7,683.3,280.7z"/>
<path class="st0" d="M673.6,306.1L673.6,306.1c0-6.6,5.4-12,12-12h8c6.6,0,12,5.4,12,12l0,0c0,6.6-5.4,12-12,12h-8.1
	C679,318.1,673.6,312.7,673.6,306.1z"/>
<path class="st0" d="M685.1,426.5v-78.9c0-5.2,4.2-9.4,9.4-9.4l0,0c5.2,0,9.4,4.2,9.4,9.4v78.9c0,5.2-4.2,9.4-9.4,9.4l0,0
	C689.3,435.9,685.1,431.6,685.1,426.5z"/>
<path class="st0" d="M673.4,392.5v-31.9c0-4.3,3.5-7.7,7.7-7.7l0,0c4.3,0,7.7,3.5,7.7,7.7v31.9c0,4.3-3.5,7.7-7.7,7.7l0,0
	C676.9,400.2,673.4,396.8,673.4,392.5z"/>
<path class="st0" d="M709.6,340.7V394c0,6.6-5.4,12-12,12h-4.5c-6.6,0-12-5.4-12-12v-53.3c0-6.6,5.4-12,12-12h4.5
	C704.2,328.7,709.6,334.1,709.6,340.7z"/>
<path class="st0" d="M696.6,473.6c0.1-0.2,0.3-0.4,0.5-0.7c2-2.1,4.1-4.3,5.2-7.1c1.1-2.8,0.9-5.5,1.3-8.4c0-0.2,0.1-0.4,0.1-0.5
	c-0.7-0.5-1.2-1.5-0.6-2.5c1.2-2.2,1.9-4.6,2.3-7.1c-1.7,0.8-3.1,2.2-4.6,3.4c-0.6,0.4-1.3-0.4-0.9-0.9c1.2-2,2.6-3.9,4.3-5.6v-0.1
	c1.1-2.6,3.2-3.7,6-3.5c0.3,0,0.6,0.1,0.9,0.1v-30.8c0-6.6-5.4-12-12-12h-7.8c-6.6,0-12,5.4-12,12v69.9
	C685.8,478.6,691.4,476.9,696.6,473.6z"/>
<path class="st0" d="M696.7,473.6c0.1-0.2,0.3-0.4,0.5-0.6c2-2.1,4.1-4.3,5.2-7.1c1.1-2.8,0.9-5.5,1.3-8.4c0-0.2,0.1-0.4,0.1-0.5
	c-0.7-0.5-1.2-1.5-0.6-2.5c1.2-2.2,1.9-4.6,2.3-7.1c-1.7,0.8-3.1,2.2-4.6,3.4c-0.6,0.4-1.3-0.4-0.9-0.9c1.2-2,2.6-3.9,4.3-5.6v-0.1
	c1.1-2.6,3.2-3.7,6-3.5c0.6,0,1.2,0.2,1.8,0.3c0.3,0,0.6,0.1,0.8,0.1c1,0.2,1.9,0.1,2.8-0.5c0.5-0.3,0.9-0.8,1.3-1.3
	c0.4-1.2,0.9-2.4,1.2-3.6v-37.5c-0.4,0-0.7-0.2-0.7-0.7c-0.2-8-2.3-15.4-4-23.1c-0.4-2-0.8-4.4-0.3-6.5c0-0.5,0.1-1,0.5-1.5
	c3.2-4.6,3.9-10,3.3-15.3c-2-3.9-6-6.7-10.7-6.7h-10.8c-6.6,0-12,5.4-12,12v122.5C688.1,477.8,692.5,476.2,696.7,473.6z"/>
<path class="st1" d="M690,421.6c0,0-3.6-9.6-19.9-6.8C670.1,414.7,681.7,428.7,690,421.6z"/>
<path class="st1" d="M691.3,432.7c0,0-5.8-5.3-17.9-2.6c0,0,7.3,11.4,13,11.8S691.3,432.7,691.3,432.7z"/>
<path class="st1" d="M674.6,443.1c0,0-11-14.1-8.8-20.1c0,0,7.6,4.1,10.1,10.5"/>
<path class="st1" d="M683.5,399.1c0,0-10,7.1-20.2,0c0,0,12.2-7.1,14.3-5.4c2.1,1.7,4,4.1,4,4.1L683.5,399.1z"/>
<path class="st1" d="M677.6,393.7c2,0.2,8.3-8.5,8.3-8.5s0.6-1.6-1.5-1.9"/>
<path class="st1" d="M673.4,394.2c0,0-5.7-0.1-7.2-2.9c-1.5-2.8-4.8-6.9-6.6-6.9s11.1-8.2,13.9-5.6"/>
<path class="st1" d="M684.4,383.3c0,0-7.8,2.1-11.1-6.1c-3.3-8.2-5.1-5.5-5.1-5.5s13-2.3,15.1,1.8
	C685.7,377.5,687.2,381.8,684.4,383.3z"/>
<path class="st1" d="M685.9,360.1c0,0,3.2,7.6-17,7.8c0,0,0.3-6.4,3.8-6.4C676.2,361.4,683.5,363.8,685.9,360.1z"/>
<path class="st1" d="M685.9,360.1c0,0,2.1-10.4-21.1-7.5c0,0,9.4,7.4,7.9,8.9"/>
<path class="st1" d="M676.5,429l-2.2-0.5c2.2,0.5,2.8-0.3,2.8-0.3c11.2-8.8,18.8,1.8,18.8,1.8c2.6,7.9-4.6,5.6-4.6,5.6
	s-1.2-4.8-14.9-6"/>
<path class="st1" d="M675.9,352.2c-3.4-0.3-3.2-8.9-3.2-8.9c16.4-2.1,15.9,7.3,15.9,7.3c-0.3,3.9-3.3,6.2-3.3,6.2
	S684.3,353.1,675.9,352.2z"/>
<path class="st1" d="M688.1,335.7c0,0,0.6-9.6-17.6-3.8c0,0,7.4,5.6,11.9,7.8C686.8,341.9,688.1,335.7,688.1,335.7z"/>
<path class="st1" d="M683.7,328.7c0,0-4.9-6.6-6.1-12.4s-4.8-4.9-4.8-4.9s7.2-4.7,11,1c3.8,5.7,4.4,11.8,2.2,14
	C683.7,328.7,683.7,328.7,683.7,328.7z"/>
<path class="st1" d="M681.8,304.7c0,0-18-14.3-17.7-17.8c0,0,5.8-7.2,16.6,6.8C691.4,307.6,681.8,304.7,681.8,304.7z"/>
<path class="st1" d="M675.9,299.8c0,0-0.9-0.8-3.2,0.8c-2.3,1.6-8.6,2.3-8.6,2.3s5.8,9.8,8.6,8.5"/>
<path class="st1" d="M665.5,285.8c0,0-5.3-7.8-16.6,7.7c0,0,13.5-0.5,20.1,1.4c1.2,0.4,2.2,0.8,2.9,1.4"/>
<path class="st1" d="M671.2,285.6c-4-1.5-4.2-3.7-4.2-3.7s-4.6-0.1,4.9-1c9.4-0.9,12.8,8.5,12.8,8.5c1.8,6.1-4.1,4.3-4.1,4.3
	S675.8,287.3,671.2,285.6z"/>
<path class="st1" d="M672,280.9c-2.6,0-5.3-3.3-7.3-6.1c-2-2.9-3.3-5.6-3.3-5.6c21.2-0.4,22.3,6.6,22.3,6.6c2,4.3-1.1,9.9-1.1,9.9
	S678.6,281,672,280.9z"/>
<path class="st1" d="M658.5,284.5c0,0-5.5-4.2-10.1-3.7c0,0,5.2-7.1,16.2-6c0,0,4.3,5.7,5.3,6c1,0.3-4,1.2-4,1.2l2.7,2.5h-3.9
	C664.8,284.5,661.1,283,658.5,284.5z"/>
<path class="st1" d="M681.8,271.6c0,0-17.4-13.5-17.7-20.8c0,0,16.2-3.6,18.5,1.4C684.8,257.2,689.7,275.6,681.8,271.6z"/>
<path class="st1" d="M685.1,235.3c0,0-11.4,4.4-13.2,8.8c0,0,3.2-0.9,4.6,0c1.4,0.9,14.9,1,13-4.4
	C687.6,234.3,685.1,235.3,685.1,235.3z"/>
<path class="st1" d="M693,422.3c0,0-18-14.3-17.7-17.8c0,0,5.8-7.2,16.6,6.8S693,422.3,693,422.3z"/>
<path class="st1" d="M701.2,416.2c0,0,5.9,1.9,4.1-4.3c0,0-3.4-9.4-12.8-8.5c-9.4,0.9-4.9,1-4.9,1s2.2-0.1,4.2,3.7"/>
<path class="st1" d="M692.5,403.5c-2.6-0.3-5.3-3.3-7.3-6.1c-2-2.9-3.3-5.6-3.3-5.6c21.2-0.4,22.3,6.6,22.3,6.6
	c2,4.3-1.1,9.9-1.1,9.9s-1.9-4.9-12.6-4.5"/>
<path class="st1" d="M687.6,253.3c0,0-5.5-4.2-10.1-3.7c0,0,5.2-7.1,16.2-6c0,0,7.7,2,1.6,9.9"/>
<path class="st1" d="M683.7,255.1c3.8-4.2,13-1.1,13-1.1s2.3,1.3,1.8,4.2c0,0-0.4,2.7-1.8,3.3c0,0-10.6,0.9-12.4-4.2"/>
<path class="st1" d="M674.7,402.2"/>
<path class="st1" d="M699.3,280.9c0,0-0.7-5.8-5.3-7.7c-4.6-1.9-5.6,1.5-9,0.3c0,0,1.7,9.5,9,10.5c7.3,1,10.9-3,10.9-3"/>
<path class="st1" d="M697.3,287.7c0,0-5.5-2.3-8.1,3.3c-2.6,5.6-4.5,4.6-4.5,4.6s11.5,5.4,15.3-1.6c3.8-7,5.9-3.2,5.9-3.2"/>
<path class="st1" d="M700.8,314.7c0,0,4.1-6.4-1.2-8.5s-7.6,1.9-8.5,1.1c-1-0.9-1-2.3-0.6-2.7c0,0-2.7,3.6-0.8,5.9
	c1.9,2.3,7.2,5.8,9.3,2.9"/>
<path class="st1" d="M694.5,316.4c0,0-3.7,1-5,7c-1.3,6-4.4,5.9-4.4,5.9s9.4,2.8,9.9-3.1c0.5-5.9-1.6-5.3-1.6-5.3"/>
<path class="st1" d="M696.5,346.9c0,0-5.2,1.7-6.8-0.8c-1.5-2.5-1.2-3-3.7-4.1s-3.4-0.3-3.4-0.3s5.9-5.7,8.3-4.1
	c2.4,1.6,4.2,3.2,4.2,7.1"/>
<path class="st1" d="M695.1,355.3"/>
<path class="st1" d="M693.4,354.6c0,0-5.3-0.9-5.3,7.6s-4.9,4.8-4.9,4.8s4,6.4,9.4,2.6c5.4-3.8,2.9-10.7,1.6-10.3
	c-1.3,0.4-0.7,1.6-0.7,1.6"/>
<path class="st1" d="M695.8,389c0,0-7.9-3-6.7-7.9c1.1-4.9,0.6-5.1-0.5-6.5c-1.1-1.4-2.9-0.4-2.9-0.4l3.4-2.2c0,0,5.1-1.6,6,4
	c0.9,5.6-2.4,7.7,0.3,10.2"/>
<path class="st1" d="M705.6,422.5c0,0-3.5-5-5.8-2.9c-2.3,2.1-1.8,5.4-4,5.3s-3.5-2-3.5-2s3.7,6.3,6.7,6.9s10,0.1,10.6-7.8"/>
<path class="st1" d="M704.9,434.1c0,0-3.7-4.1-10.9,3.9l-2,2.9c0,0,1.3-5.3,5-2.9c3.7,2.4,0.8,6.4,4.7,6.4c3.9-0.1,4.3-6.2,1.1-6.5"
	/>
<path class="st1" d="M705,385.2c4.5,0.9,4.5,0.9,4.5,0.9l5.3-5.9c-0.5-2-0.9-4-1.3-6c0-0.2-0.1-0.4-0.1-0.6c-1.4-2.3-3.7-4.4-7.3-4
	c-7.9,0.8-6.2-4-7.6-1C697.1,371.6,700.5,384.3,705,385.2z"/>
<path class="st1" d="M711,336.2c0,0-3.5-13-9.4-9.5s-5.8,6.3-8.1,5.3c-2.4-1-3.1,0-1.4,1.5s6.5,9,10.4,5.8"/>
<path class="st1" d="M709.6,439.6c0.7,0.5,1.4,0.9,2,1.1c0.2,0,0.4,0.1,0.6,0.1c0.1,0,0.3,0,0.4,0.1c0.1,0,0.2,0,0.3,0.1
	c2.1,0,4-1.6,5.3-6.1l-1-15c0,0-6.1-0.1-7.6,10.4c0,0,0.2,5.2-1.3,5.3C706.8,435.7,706.3,437.2,709.6,439.6z"/>
<path class="st1" d="M714.2,410c0,0-9.6-0.5-8.1-13.6c0,0,0.2-2.6-1.6-2.9c-1.8-0.3,1.2-2.8,3.8-2.9c2.6-0.1,7.4,1.5,9.9,9.4"/>
<path class="st1" d="M712.6,360.1l4.5-6.5c0-1.1-0.1-2.2-0.3-3.2c-2.7-3.1-9-8.7-14.5-2.9c-2.4,2.6-3.8,3.7-4.6,4
	C699.6,355.2,704.8,363.1,712.6,360.1z"/>
<path class="st1" d="M718.2,309.6c0,0-3.3-9.3-9.9-10c-6.6-0.7-9.7,0-9.7,0s-2.5,3,11,13.2"/>
<path class="st0" d="M671,308.8L671,308.8c0-1.3,1.1-2.4,2.4-2.4h0.5c1.3,0,2.4,1.1,2.4,2.4l0,0c0,1.3-1.1,2.4-2.4,2.4h-0.5
	C672.1,311.2,671,310.1,671,308.8z"/>
<path class="st1" d="M675.1,299.7c0,0,6.2,4.8,8.7,5.3c0,0,2.7,7.7-1.3,6.2"/>
<path class="st1" d="M683.7,312.4c0,0-2.6-5.7-11.8-0.9c0,0,4.4-1.5,5.6,4.8"/>
<path class="st1" d="M684.5,310.7"/>
<path class="st0" d="M672.8,302.9l2.1-2.7l6.1,4.1l1.2,5.8l-1.6-0.7c0,0-4.7-1-7.8,1V302.9z"/>
<rect x="464.7" y="455" transform="matrix(0.9924 -0.1233 0.1233 0.9924 -53.2725 65.9509)" class="st0" width="83.1" height="16.8"/>
<path class="st0" d="M555.2,467.8l5.8,6.3c4.5,4.8,12.1,5.2,17,0.7l0,0c4.8-4.5,5.2-12.1,0.7-17l-5.8-6.3c-4.5-4.8-12.1-5.2-17-0.7
	l0,0C551,455.3,550.7,463,555.2,467.8z"/>
<path class="st0" d="M558.5,454.2L558.5,454.2c-4.3-4.7-11.7-5-16.4-0.7l-3.5,3.2c-4.7,4.3-5,11.7-0.7,16.4l0,0
	c4.3,4.7,11.7,5,16.4,0.7l3.5-3.2C562.6,466.2,562.9,458.9,558.5,454.2z"/>
<path class="st0" d="M548.2,446.2l-0.6-0.6c-3.2-3.5-8.6-3.7-12.1-0.5l-0.6,0.6c-3.5,3.2-3.7,8.6-0.5,12.1l0.6,0.6
	c3.2,3.5,8.6,3.7,12.1,0.5l0.6-0.6C551.2,455.1,551.4,449.7,548.2,446.2z"/>
<path class="st0" d="M545.4,448.6l0.5,4.4c0.2,1.8,1.9,3.1,3.7,2.9l22.1-2.7c1.8-0.2,3.1-1.9,2.9-3.7l-0.5-4.4
	c-0.2-1.8-1.9-3.1-3.7-2.9l-22.1,2.7C546.5,445.1,545.2,446.8,545.4,448.6z"/>
<path class="st0" d="M579.6,464.5l57.2,12.1c4.5,0.9,8.9-1.9,9.8-6.4l0,0c0.9-4.5-1.9-8.9-6.4-9.8L583,448.3
	c-4.5-0.9-8.9,1.9-9.8,6.4l0,0C572.3,459.1,575.2,463.6,579.6,464.5z"/>
<path class="st0" d="M596.5,455.6l16.2,4c2.8,0.7,5.6-1,6.3-3.8l1.8-7.1c0.7-2.8-1-5.6-3.8-6.3l-16.2-4c-2.8-0.7-5.6,1-6.3,3.8
	l-1.8,7.1C592,452,593.7,454.9,596.5,455.6z"/>
<path class="st0" d="M627.6,453.1l3.3,3.6c1.8,1.9,1.6,4.9-0.3,6.7l0,0c-1.9,1.8-4.9,1.6-6.7-0.3l-3.3-3.6c-1.8-1.9-1.6-4.9,0.3-6.7
	l0,0C622.8,451.1,625.8,451.2,627.6,453.1z"/>
<path class="st0" d="M530.1,453.2L530.1,453.2c2.5,2.7,2.3,7-0.4,9.5l-7.4,6.8c-2.7,2.5-7,2.3-9.5-0.4l0,0c-2.5-2.7-2.3-7,0.4-9.5
	l7.4-6.8C523.3,450.3,527.6,450.4,530.1,453.2z"/>
<path class="st0" d="M525.8,468l9.7,3.5c0.6,0.2,1.2-0.1,1.4-0.7l0.5-1.3c0.2-0.6-0.1-1.2-0.7-1.4l-9.7-3.5
	c-0.6-0.2-1.2,0.1-1.4,0.7l-0.5,1.3C524.9,467.2,525.2,467.8,525.8,468z"/>
<path class="st0" d="M555.9,471l1.5,1.6c0.9,0.9,2.4,1,3.3,0.1l0,0c0.9-0.9,1-2.4,0.1-3.3l-1.5-1.6c-0.9-0.9-2.4-1-3.3-0.1l0,0
	C555,468.6,555,470.1,555.9,471z"/>
<path class="st0" d="M591.9,464.1L591.9,464.1c1.4,1.6,1.3,4-0.2,5.5l-1.6,1.5c-1.6,1.4-4,1.3-5.5-0.2l0,0c-1.4-1.6-1.3-4,0.2-5.5
	l1.6-1.5C588,462.5,590.4,462.5,591.9,464.1z"/>
<path class="st0" d="M632.4,461l8.1,8.8c1.1,1.2,3,1.3,4.2,0.2l0.2-0.2c1.2-1.1,1.3-3,0.2-4.2l-8.1-8.8c-1.1-1.2-3-1.3-4.2-0.2
	l-0.2,0.2C631.4,457.9,631.3,459.8,632.4,461z"/>
<path class="st0" d="M640.3,474.1l21,6.5c2,0.6,4.2-0.5,4.9-2.6l0.3-1.1c0.6-2-0.5-4.2-2.6-4.9l-21-6.5c-2-0.6-4.2,0.5-4.9,2.6
	l-0.3,1.1C637.1,471.3,638.3,473.5,640.3,474.1z"/>
<path class="st0" d="M644.1,462.6l-9.4-10.2c-2.1-2.3-5.8-2.5-8.1-0.3l0,0c-2.3,2.1-2.5,5.8-0.3,8.1l9.4,10.2
	c2.1,2.3,5.8,2.5,8.1,0.3l0,0C646.1,468.6,646.3,464.9,644.1,462.6z"/>
<path class="st0" d="M646.2,463.5l6.8,7.4c0.4,0.4,0.4,1.1-0.1,1.5l0,0c-0.4,0.4-1.1,0.4-1.5-0.1l-6.8-7.4c-0.4-0.4-0.4-1.1,0.1-1.5
	l0,0C645.1,463,645.8,463,646.2,463.5z"/>
<path class="st0" d="M623,445.8l1.8,2c1.6,1.8,1.5,4.5-0.2,6.1l0,0c-1.8,1.6-4.5,1.5-6.1-0.2l-1.8-2c-1.6-1.8-1.5-4.5,0.2-6.1l0,0
	C618.7,443.9,621.4,444,623,445.8z"/>
<path class="st0" d="M602.9,434.9L602.9,434.9c0.9,0.9,0.8,2.4-0.1,3.2l-7.8,7.2c-0.9,0.9-2.4,0.8-3.2-0.1l0,0
	c-0.9-0.9-0.8-2.4,0.1-3.2l7.8-7.2C600.6,434,602.1,434,602.9,434.9z"/>
<path class="st0" d="M607.4,438.4l0.7,0.8c1.3,1.4,1.2,3.5-0.2,4.8l0,0c-1.4,1.3-3.5,1.2-4.8-0.2l-0.7-0.8c-1.3-1.4-1.2-3.5,0.2-4.8
	l0,0C604,437,606.1,437,607.4,438.4z"/>
<path class="st1" d="M582.9,437.6l6.5-8.7c0,0,1.1-1.3,1.1,1.6c0,2.9-2,11.3-2,11.3s-5.4,4.3-6.9,2.2
	C580.1,441.9,582.9,437.6,582.9,437.6"/>
<path class="st2" d="M662,467.7c0,0-3.3-2.6-6-0.8"/>
<path class="st1" d="M662.8,468.4c0,0-4.1-4-6.8-1.4"/>
<path class="st1" d="M642.1,474.1c0,0,4.7-3.2,10.7-2.9c4.5,0.3,9.8,4.8,12.1,7.1c0.8,0.8,1.2,1.2,1.2,1.2
	c6.3,0.6,11.5,0.4,15.8-0.3c3.1-0.7,6.1-1.5,8.9-2.7c11.7-5.6,12.1-16.1,12.1-16.1c-1.7,5.1-10.6,6.4-10.6,6.4
	c6.8-3,12.5-18.6,12.5-18.6c-1.2,0.5-2.6,1.4-4,2.3c-0.1,0-0.1,0.1-0.2,0.1s-0.1,0.1-0.2,0.1c-3.2,2-6.2,4.3-6.2,4.3
	c5.3-5.1,2.1-14.7,2.1-14.7c-5.6,4-12.6,19-12.6,19c3.5-7.5,0-14.3,0-14.3c-14.3,10.8-11.5,23.1-11.5,23.1l-5.6,4.7
	c-1.8-2.5-3.3-4.2-4.7-5.2c-3-2.3-5-1.6-6-0.8c-0.6,0.5-0.9,1-0.9,1c-2.1-9.1-7.6,2.2-16.6-4c-9-6.1-12,1.3-12,1.3
	C630.2,474.7,642.1,474.1,642.1,474.1z"/>
<path class="st1" d="M614,454.9c0,0,9.9,2.8,19.9-1.8c10-4.6,13-0.4,13-0.4s-5.8-5.8-13.4-4.9c-7.6,0.9-11.3-0.4-11.3-0.4L614,454.9
	z"/>
<path class="st1" d="M600.1,448c0,0,18.8,0.4,28.4-13.3c0,0-20.6,0.7-30.5,7.8C598,442.5,603.5,443.8,600.1,448z"/>
<path class="st1" d="M583.9,446.4c0,0,3-8.4,14.1-3.9C609.1,446.9,586,454.5,583.9,446.4z"/>
<path class="st2" d="M694.4,455c0,0-23.4,17.1-19.3,18.8"/>
<path class="st3" d="M672.3,468.2c0,0,9.1-4,11.6-8.9"/>
<path class="st1" d="M617.9,469.7c0,0,7.5,7.9,14.9,7.5c7.4-0.4,7.7,6.6,14.1,5c0,0-4.3-7.3-8.4-8.4
	C634.3,472.7,624.4,472.5,617.9,469.7z"/>
<path class="st1" d="M593.3,471.1c0,0,7.5-2.3,17.5,5.2c10,7.4,21.6,6.8,21.6,6.8s-9.7-3.2-17.1-9.7c-7.4-6.5-20-10.6-20-10.6
	l-6.6,6.1L593.3,471.1z"/>
<path class="st1" d="M574.9,474.5c0,0,9.2-0.6,18,5.7c8.8,6.3,15.3,1.5,15.3,1.5s-13-5.9-14.8-10.6c-1.8-4.7-27.5-6.4-27.5-6.4
	s13.2,14.2,15.1,14.1c1.8-0.1-13,3.5-25.9-8.6l-4.3-4.7c0,0,4,1.5,7.8,0.3c0,0-3.5-4.3-7.3-6.7c-2.4-1.5-5-2.2-7-0.7
	c-5.2,4-6.7,6.2-6.7,6.2s1.3,4.5,9,1.9c7.7-2.6,11.6,11.1,11.6,11.1s-9.9-3.8-12.8-7.7"/>
<path class="st1" d="M630.1,470.3c0,0-11.7-17.7-27-12.9c0,0,10.1,10.8,14.9,12.4"/>
<path class="st1" d="M577.3,451.5c0,0,5.8,5.8,13.6,6.4c7.8,0.6,16.9,7,16.9,7s-11-14.8-15.6-15c0,0-4.1,0.5-5.7-0.7"/>
<path class="st1" d="M692.4,466.9c-10.6,6.4-29.1,9.9-29.1,9.9l3.3-3.9"/>
<path class="st1" d="M660.6,466.8c0,0-1.8-9.1-16.6-0.9"/>
<path class="st1" d="M618.9,459.7c0,0,8.9-2.4,14.1-0.1c5.2,2.3,6.4-1.4,6.4-1.4s-2.4-4.7-5.6-5c0,0-7.1,4.4-19.9,1.8"/>
<path class="st1" d="M648.7,463.8c0,0-8-2.1-9.2-5.6"/>
<path class="st1" d="M622.2,447.3c0,0,3,0.9,7.2-4.4c0,0-5.7-2.9-10.9,0.5"/>
<path class="st1" d="M596.3,452.1c0,0,12.9,7.3,17.7,2.8c4.8-4.5-3.2-8.4-3.2-8.4"/>
<path class="st1" d="M590.9,441.3c0,0,7.2-7.2,11.4-8.3c4.2-1.2,13.4-2.4,13.4-2.4c0.7,3.7-2.9,6.2-2.9,6.2"/>
<path class="st1" d="M603.6,432.6c6.9-0.6,9-13.7,9-13.7c-4.2,4.7-15.2,5.2-15.2,5.2s-11.5,5.3-1.7,12.8
	C595.6,436.9,602.2,432.7,603.6,432.6z"/>
<path class="st1" d="M569.3,446.7c0,0,9.8,3.2,16-14.7C585.3,432,569,432.9,569.3,446.7z"/>
<path class="st1" d="M581.2,454.5c0,0-2-0.6-5.2-0.2c-2.4,0.3-5.4,1.1-8.7,3.1c0,0,2.5,7.4,10.8,8.7c14,2.1,17.4-3.2,17.4-3.2
	c-5.2,0.9-12.3-7.2-12.3-7.2L581.2,454.5z"/>
<path class="st1" d="M565.9,464.7c0,0-7.8-9.3-14.7-5.6"/>
<path class="st1" d="M546.5,457.5c0,0,2.1-5.8,8.7-5.5c3,0.1,7,1.5,12.1,5.3"/>
<path class="st1" d="M511.7,475.6c0,0,12.7,2.7,19.2-4.2c0,0-3.4-3.5-6.3-4.2"/>
<path class="st1" d="M552.8,475.2c0,0-4.7,5.4-11.2,0.8c-6.5-4.6-13.3-7.4-13.3-7.4"/>
<path class="st1" d="M505.1,455.2c0,0,20.4-10.9,16.6,0.4c0,0-6.5-1.2-9.5,2.2"/>
<path class="st1" d="M531.6,458.7c0,0-5.7-3.1-10-3.2"/>
<path class="st1" d="M533.2,457.1c0,0-1.2-8.8,5.1-13.4c0,0-10.9-0.8-16.8,7.6"/>
<path class="st1" d="M545.7,450.2c0,0,1.2-2.4,3-5.6c1.1-2,2.4-4.4,3.8-6.6c3.6-5.8-14.1,5.7-14.1,5.7"/>
<path class="st1" d="M569.5,444.1c0,0-2.6-6.1-20.9,0.5"/>
<path class="st1" d="M563.7,450.9c0,0,8,6.6,18.9-5.8l-2.5-3.2"/>
<path class="st1" d="M470.2,469.6c0,0,1.9-5.3,3.2-7.2c4.4-6.4-19.6,12-22.8,16.4c-3.2,4.5,8,4.5,8,4.5c-2,4.3-7.8,8.2-7.8,8.2
	c5.8,1.2,9.3,0.5,12.8-2.8c3.5-3.3,3.5-10.2,5.8-17.6c2.3-7.4,21.1-11.5,21.1-11.5c-0.5,3.8-2.9,9-6.2,10.8
	c-3.3,1.8-13.3,12.8-13.3,12.8c9.3-7.1,21.1-4.1,26.5-5.4c2.9-0.7,4.8-2.3,6.2-3.6c1.2-1.2,2-2.2,2.5-2.2c1.2-0.1,4.4-4.6,4.4-4.6
	c-3.4,2.6-20.9,0.1-20.9,0.1s2.7-3.3,7.8-10.1c5.1-6.8,19.3,3.2,19.3,3.2l-2.9,4.2c11.9,8.4,22.6-5.4,22.6-5.4c-5,0.5-5-0.7-5-0.7
	c10-10.8,17.6-9.4,23.5-6.7c6,2.8,14.2-5.4,14.2-5.4"/>
<path class="st2" d="M676.7,473.4c0,0-5,1.4-0.3-3.2"/>
<path class="st1" d="M623.3,478.8c0,0,14.3,2.4,3.6-2.8c-10.7-5.2-12.8-3.7-12.8-3.7L623.3,478.8z"/>
<path class="st1" d="M638.5,464c0,0,2.5,4.3,14.2,0.3c0,0,2.4-0.5,2.4,3.7c0,0,0.8,2.3-4.8,3.3c-5.6,1-8.2,2.8-8.2,2.8
	s5.9,10.3,24.1,5.4"/>
<path class="st1" d="M662,467.7c0,0-3.3-2.7-6-0.8"/>
<line class="st2" x1="665.5" y1="474.4" x2="667.5" y2="472.3"/>
<path class="st1" d="M669.9,432.9"/>
<rect x="683.6" y="162.8" transform="matrix(0.9924 -0.1233 0.1233 0.9924 -19.9143 86.8773)" class="st0" width="16.8" height="83.1"/>
<path class="st0" d="M696.3,155.6l6.3-5.8c4.8-4.5,5.2-12.1,0.7-17l0,0c-4.5-4.8-12.1-5.2-17-0.7l-6.3,5.8c-4.8,4.5-5.2,12.1-0.7,17
	l0,0C683.8,159.8,691.4,160.1,696.3,155.6z"/>
<path class="st0" d="M682.6,152.2L682.6,152.2c-4.7,4.3-5,11.7-0.7,16.4l3.2,3.5c4.3,4.7,11.7,5,16.4,0.7l0,0
	c4.7-4.3,5-11.7,0.7-16.4l-3.2-3.5C694.7,148.2,687.3,147.9,682.6,152.2z"/>
<path class="st0" d="M674.7,162.6l-0.6,0.6c-3.5,3.2-3.7,8.6-0.5,12.1l0.6,0.6c3.2,3.5,8.6,3.7,12.1,0.5l0.6-0.6
	c3.5-3.2,3.7-8.6,0.5-12.1l-0.6-0.6C683.6,159.6,678.1,159.4,674.7,162.6z"/>
<path class="st0" d="M677.1,165.3l4.4-0.5c1.8-0.2,3.1-1.9,2.9-3.7l-2.7-22.1c-0.2-1.8-1.9-3.1-3.7-2.9l-4.4,0.5
	c-1.8,0.2-3.1,1.9-2.9,3.7l2.7,22.1C673.6,164.3,675.3,165.6,677.1,165.3z"/>
<path class="st0" d="M693,131.2L705.1,74c0.9-4.5-1.9-8.9-6.4-9.8l0,0c-4.5-0.9-8.9,1.9-9.8,6.4l-12.1,57.2
	c-0.9,4.5,1.9,8.9,6.4,9.8l0,0C687.6,138.5,692,135.6,693,131.2z"/>
<path class="st0" d="M684,114.2l4-16.2c0.7-2.8-1-5.6-3.8-6.3l-7.1-1.8c-2.8-0.7-5.6,1-6.3,3.8l-4,16.2c-0.7,2.8,1,5.6,3.8,6.3
	l7.1,1.8C680.5,118.7,683.3,117,684,114.2z"/>
<path class="st0" d="M681.6,83.2l3.6-3.3c1.9-1.8,4.9-1.6,6.7,0.3l0,0c1.8,1.9,1.6,4.9-0.3,6.7l-3.6,3.3c-1.9,1.8-4.9,1.6-6.7-0.3
	l0,0C679.6,88,679.7,85,681.6,83.2z"/>
<path class="st0" d="M681.6,180.6L681.6,180.6c2.7-2.5,7-2.3,9.5,0.4l6.8,7.4c2.5,2.7,2.3,7-0.4,9.5l0,0c-2.7,2.5-7,2.3-9.5-0.4
	l-6.8-7.4C678.7,187.4,678.9,183.2,681.6,180.6z"/>
<path class="st0" d="M696.5,185l3.5-9.7c0.2-0.6-0.1-1.2-0.7-1.4l-1.3-0.5c-0.6-0.2-1.2,0.1-1.4,0.7l-3.5,9.7
	c-0.2,0.6,0.1,1.2,0.7,1.4l1.3,0.5C695.6,185.9,696.2,185.6,696.5,185z"/>
<path class="st0" d="M699.5,154.9l1.6-1.5c0.9-0.9,1-2.4,0.1-3.3l0,0c-0.9-0.9-2.4-1-3.3-0.1l-1.6,1.5c-0.9,0.9-1,2.4-0.1,3.3l0,0
	C697.1,155.7,698.5,155.8,699.5,154.9z"/>
<path class="st0" d="M692.6,118.9L692.6,118.9c1.6-1.4,4-1.3,5.5,0.2l1.5,1.6c1.4,1.6,1.3,4-0.2,5.5l0,0c-1.6,1.4-4,1.3-5.5-0.2
	l-1.5-1.6C690.9,122.8,691,120.3,692.6,118.9z"/>
<path class="st0" d="M689.4,78.4l8.8-8.1c1.2-1.1,1.3-3,0.2-4.2l-0.2-0.2c-1.1-1.2-3-1.3-4.2-0.2l-8.8,8.1c-1.2,1.1-1.3,3-0.2,4.2
	l0.2,0.2C686.3,79.4,688.2,79.5,689.4,78.4z"/>
<path class="st0" d="M702.6,70.4l6.5-21c0.6-2-0.5-4.2-2.6-4.9l-1.1-0.3c-2-0.6-4.2,0.5-4.9,2.6l-6.5,21c-0.6,2,0.5,4.2,2.6,4.9
	l1.1,0.3C699.7,73.6,701.9,72.5,702.6,70.4z"/>
<path class="st0" d="M691,66.7l-10.2,9.4c-2.3,2.1-2.5,5.8-0.3,8.1l0,0c2.1,2.3,5.8,2.5,8.1,0.3l10.2-9.4c2.3-2.1,2.5-5.8,0.3-8.1
	l0,0C697,64.7,693.4,64.5,691,66.7z"/>
<path class="st0" d="M691.9,64.6l7.4-6.8c0.4-0.4,1.1-0.4,1.5,0.1l0,0c0.4,0.4,0.4,1.1-0.1,1.5l-7.4,6.8c-0.4,0.4-1.1,0.4-1.5-0.1
	l0,0C691.4,65.7,691.5,65,691.9,64.6z"/>
<path class="st0" d="M674.2,87.7l2-1.8c1.8-1.6,4.5-1.5,6.1,0.2l0,0c1.6,1.8,1.5,4.5-0.2,6.1l-2,1.8c-1.8,1.6-4.5,1.5-6.1-0.2l0,0
	C672.4,92.1,672.5,89.3,674.2,87.7z"/>
<path class="st0" d="M663.4,107.8L663.4,107.8c0.9-0.9,2.4-0.8,3.2,0.1l7.2,7.8c0.9,0.9,0.8,2.4-0.1,3.2l0,0
	c-0.9,0.9-2.4,0.8-3.2-0.1l-7.2-7.8C662.4,110.1,662.5,108.7,663.4,107.8z"/>
<path class="st0" d="M666.8,103.4l0.8-0.7c1.4-1.3,3.5-1.2,4.8,0.2l0,0c1.3,1.4,1.2,3.5-0.2,4.8l-0.8,0.7c-1.4,1.3-3.5,1.2-4.8-0.2
	l0,0C665.4,106.8,665.5,104.6,666.8,103.4z"/>
<path class="st1" d="M666.1,127.8l-8.7-6.5c0,0-1.3-1.1,1.6-1.1c2.9,0,11.3,2,11.3,2s4.3,5.4,2.2,6.9
	C670.4,130.6,666.1,127.8,666.1,127.8"/>
<path class="st2" d="M696.2,48.7c0,0-2.6,3.3-0.8,6"/>
<path class="st1" d="M696.8,47.9c0,0-4,4.1-1.4,6.8"/>
<path class="st1" d="M696.6,38.4c0,0-12.4,2.8-23.1-11.5c0,0,6.7-3.5,14.3,0c0,0-15-7.1-19-12.6c0,0,9.6-3.2,14.7,2.1
	c0,0-5-6.6-6.8-10.5c0,0,15.6,5.7,18.6,12.5c0,0-1.3-8.9-6.4-10.6c0,0,22.6,1,19.1,36.8c0,0-0.5,0.5-1.2,1.2
	c-2.3,2.3-6.8,7.6-7.1,12.1c-0.4,6,2.9,10.7,2.9,10.7s0.6,11.9-8.8,15.6c0,0-7.4-3-1.3-12c6.1-9-5.1-14.5,4-16.6c0,0-0.5-0.3-1-0.9
	c-0.8-1-1.6-3,0.8-6c1-1.3,2.7-2.9,5.2-4.7L696.6,38.4z"/>
<path class="st1" d="M683.4,96.8c0,0,2.8-9.9-1.8-19.9s-0.4-13-0.4-13s-5.8,5.8-4.9,13.4c0.9,7.6-0.4,11.3-0.4,11.3L683.4,96.8z"/>
<path class="st1" d="M676.5,110.6c0,0,0.4-18.8-13.3-28.4c0,0,0.7,20.6,7.8,30.5C670.9,112.8,672.3,107.2,676.5,110.6z"/>
<path class="st1" d="M674.9,126.8c0,0-8.4-3-3.9-14.1C675.4,101.7,682.9,124.7,674.9,126.8z"/>
<path class="st1" d="M698.1,92.8c0,0,7.9-7.5,7.5-14.9s6.6-7.7,5-14.1c0,0-7.3,4.3-8.4,8.4C701.2,76.4,701,86.4,698.1,92.8z"/>
<path class="st1" d="M699.5,117.4c0,0-2.3-7.5,5.2-17.5c7.4-10,6.8-21.6,6.8-21.6s-3.2,9.7-9.7,17.1c-6.4,7.4-10.6,20-10.6,20
	l6.1,6.6L699.5,117.4z"/>
<path class="st1" d="M702.9,135.9c0,0-0.6-9.2,5.7-18s1.5-15.3,1.5-15.3s-5.9,13-10.6,14.8c-4.7,1.8-6.4,27.5-6.4,27.5
	s14.2-13.2,14.1-15.1c-0.1-1.9,3.5,13-8.6,25.9l-4.7,4.3c0,0,1.5-4,0.3-7.8c0,0-4.3,3.5-6.7,7.3c-1.5,2.4-2.2,5-0.7,7
	c4,5.2,6.2,6.7,6.2,6.7s4.5-1.3,1.9-9c-2.6-7.7,11.1-11.6,11.1-11.6s-3.8,9.9-7.7,12.8"/>
<path class="st1" d="M698.7,80.7c0,0-17.7,11.7-12.9,27c0,0,10.8-10.1,12.4-14.9"/>
<path class="st1" d="M679.9,133.5c0,0,5.8-5.8,6.4-13.6c0.6-7.8,7-16.9,7-16.9s-14.8,11-15,15.6c0,0,0.5,4.1-0.7,5.7"/>
<path class="st1" d="M695.3,50.1c0,0-9.1,1.8-0.9,16.6"/>
<path class="st1" d="M688.1,91.8c0,0-2.4-8.9-0.1-14.1c2.3-5.2-1.4-6.4-1.4-6.4s-4.7,2.4-5,5.6c0,0,4.4,7.1,1.8,19.9"/>
<path class="st1" d="M692.2,62.1c0,0-2.1,8-5.6,9.2"/>
<path class="st1" d="M675.8,88.6c0,0,0.9-3-4.4-7.2c0,0-2.9,5.7,0.5,10.9"/>
<path class="st1" d="M680.5,114.5c0,0,7.3-12.9,2.8-17.7c-4.5-4.8-8.4,3.2-8.4,3.2"/>
<path class="st1" d="M669.7,119.8c0,0-7.2-7.2-8.3-11.4C660.2,104.2,659,95,659,95c3.7-0.7,6.2,2.9,6.2,2.9"/>
<path class="st1" d="M661,107.2c-0.6-6.9-13.7-9-13.7-9c4.7,4.2,5.2,15.2,5.2,15.2s5.3,11.5,12.8,1.7
	C665.3,115.2,661.2,108.6,661,107.2z"/>
<path class="st1" d="M675.2,141.4c0,0,3.2-9.8-14.7-16C660.4,125.5,661.3,141.8,675.2,141.4z"/>
<path class="st1" d="M682.9,129.6c0,0-0.6,2-0.2,5.2c0.3,2.4,1.1,5.4,3.1,8.7c0,0,7.4-2.5,8.7-10.8c2.1-14-3.2-17.4-3.2-17.4
	c0.9,5.2-7.2,12.3-7.2,12.3L682.9,129.6z"/>
<path class="st1" d="M693.1,144.9c0,0-9.3,7.8-5.6,14.7"/>
<path class="st1" d="M686,164.3c0,0-5.8-2.1-5.5-8.7c0.1-3,1.5-7,5.3-12.1"/>
<path class="st1" d="M704.1,199c0,0,2.7-12.7-4.2-19.2c0,0-3.5,3.4-4.2,6.3"/>
<path class="st1" d="M703.7,157.9c0,0,5.4,4.7,0.8,11.2c-4.6,6.5-7.4,13.3-7.4,13.3"/>
<path class="st1" d="M683.6,205.7c0,0-10.9-20.4,0.4-16.6c0,0-1.2,6.5,2.2,9.5"/>
<path class="st1" d="M687.2,179.1c0,0-3.1,5.7-3.2,10"/>
<path class="st1" d="M685.6,177.6c0,0-8.8,1.2-13.4-5.1c0,0-0.8,10.9,7.6,16.8"/>
<path class="st1" d="M678.7,165.1c0,0-2.4-1.2-5.6-3c-2-1.1-4.4-2.4-6.6-3.8c-5.8-3.6,5.7,14.1,5.7,14.1"/>
<path class="st1" d="M672.5,141.3c0,0-6.1,2.6,0.5,20.9"/>
<path class="st1" d="M679.3,147.1c0,0,6.6-8-5.8-18.9l-3.2,2.5"/>
<path class="st1" d="M698,240.6c0,0-5.3-1.9-7.2-3.2c-6.4-4.4,12,19.6,16.4,22.8c4.4,3.2,4.5-8,4.5-8c4.3,2,8.2,7.8,8.2,7.8
	c1.2-5.8,0.5-9.3-2.8-12.8c-3.2-3.5-10.2-3.5-17.6-5.8c-7.4-2.3-11.5-21.1-11.5-21.1c3.8,0.5,9,2.9,10.8,6.2
	c1.8,3.3,12.8,13.3,12.8,13.3c-7.1-9.3-4.1-21.1-5.4-26.5c-0.7-2.9-2.3-4.8-3.6-6.2c-1.2-1.2-2.2-2-2.2-2.5
	c-0.1-1.2-4.6-4.4-4.6-4.4c2.6,3.4,0.1,20.9,0.1,20.9s-3.3-2.7-10.1-7.8C679,208.2,689,194,689,194l4.2,2.9
	c8.4-11.9-5.4-22.6-5.4-22.6c0.5,5-0.7,5-0.7,5c-10.8-10-9.4-17.6-6.7-23.5c2.8-6-5.4-14.2-5.4-14.2"/>
<path class="st1" d="M707.3,87.4c0,0,2.4-14.3-2.8-3.6c-5.2,10.7-3.7,12.8-3.7,12.8L707.3,87.4z"/>
<path class="st1" d="M692.5,72.2c0,0,4.3-2.5,0.3-14.2c0,0-0.5-2.4,3.7-2.4c0,0,2.3-0.8,3.3,4.8s2.8,8.2,2.8,8.2s10.3-5.9,5.4-24.1"
	/>
<path class="st1" d="M696.2,48.7c0,0-2.7,3.3-0.8,6"/>
<rect x="401.4" y="426.8" transform="matrix(0.1601 -0.9871 0.9871 0.1601 -118.1552 797.9108)" class="st0" width="16.8" height="83.1"/>
<path class="st0" d="M435.6,465.1L435.6,465.1c1.7,3.3,0.3,7.4-3,9.1l-9,4.5c-3.3,1.7-7.4,0.3-9.1-3l0,0c-1.7-3.3-0.3-7.4,3-9.1
	l9-4.5C429.9,460.4,433.9,461.8,435.6,465.1z"/>
<path class="st0" d="M427.3,478.2l8.4,6.1c0.5,0.4,1.2,0.3,1.6-0.2l0.8-1.1c0.4-0.5,0.3-1.2-0.2-1.6l-8.4-6.1
	c-0.5-0.4-1.2-0.3-1.6,0.2l-0.8,1.1C426.6,477.1,426.8,477.8,427.3,478.2z"/>
<path class="st1" d="M411.6,481.5c0,0,11.5,6.1,19.6,1.4c0,0-2.3-4.4-4.9-5.8"/>
<path class="st1" d="M451.2,492.7c0,0-6,3.9-11-2.3s-10.7-10.9-10.7-10.9"/>
<path class="st1" d="M411,460c0,0,22.6-4.7,15.8,5c0,0-6-2.9-9.8-0.6"/>
<path class="st1" d="M435.5,470.9c0,0-4.6-4.6-8.7-5.9"/>
<path class="st1" d="M437.4,469.8c0,0,1.3-8.8,8.7-11.4c0,0-10.3-3.9-18.2,2.6"/>
<path class="st1" d="M373.5,464.1c0,0,3.3-4.6,5.1-6c6-4.9-22.2,6-26.5,9.4c-4.3,3.4,6.5,6.6,6.5,6.6c-3.2,3.6-9.7,5.7-9.7,5.7
	c5.3,2.8,8.8,3,13,0.9c4.3-2.1,6.2-8.8,10.5-15.3s23.4-5.1,23.4-5.1c-1.5,3.5-5.3,7.8-9,8.6c-3.6,0.8-16.4,8.6-16.4,8.6
	c11-4.2,21.4,2,26.9,2.2c2.9,0.1,5.3-0.8,7-1.7c1.5-0.8,2.5-1.5,3.1-1.4c1.1,0.2,5.5-3.2,5.5-3.2c-4,1.6-20.1-5.8-20.1-5.8
	s3.6-2.4,10.4-7.5c6.8-5.1,17.6,8.5,17.6,8.5l-4,3.2c9.1,11.4,23.2,1.2,23.2,1.2c-4.9-0.9-4.6-2-4.6-2c12.6-7.6,19.5-4.1,24.5,0.2
	c5,4.3,15.1-1.2,15.1-1.2"/>
</svg>
