<?xml version="1.0" encoding="utf-8"?>
<!-- Generator: Adobe Illustrator 22.1.0, SVG Export Plug-In . SVG Version: 6.00 Build 0)  -->
<svg version="1.1" id="Layer_1" xmlns="http://www.w3.org/2000/svg" xmlns:xlink="http://www.w3.org/1999/xlink" x="0px" y="0px"
	 viewBox="0 0 1109 930.6" style="enable-background:new 0 0 1109 930.6;" xml:space="preserve">
<style type="text/css">
	.st0{fill:#4AA853;}
	.st1{fill:#EF414E;}
	.st2{fill:#BFBBBC;}
	.st3{fill:#2F8B43;}
	.st4{fill:#2F8B43;stroke:#000000;stroke-width:2;stroke-miterlimit:10;}
	.st5{fill:none;stroke:#000000;stroke-width:2;stroke-miterlimit:10;}
	.st6{fill:none;stroke:#000000;stroke-width:5;stroke-miterlimit:10;}
	.st7{fill:none;stroke:#000000;stroke-width:4;stroke-miterlimit:10;}
</style>
<path class="st0" d="M141.9,587.6c0,0-30.3,1.1-40.4,9.7c-10,8.6-33,32.3-33,32.3l-7.9,5l-1.8,18.9l9.6,22.8l4.3,13.3l1.4,10.6
	l8.6,11.6l16,6.3c0,0,8.6-22.5,23.6-28.4s31.6-14,37.1-14.1s25,0.2,37-17.5s36.9-57,46.6-64.8s56.6-54.4,56.6-54.4l15.6-10.3
	c0,0-5.4,12.4-8.7,17.5c-3.3,5-28,34.4-28,34.4L264.2,601l-8.8,26.3l-5.9,26.1l23.7-56.2c0,0,8.1-10.4,14.7-15.6
	s11.7-10.2,16.9-21.8c5.2-11.6,35.6-31.7,35.6-31.7l24.1-2.1c0,0,5.8,4.4,14.6,5c8.8,0.6,32.3-0.1,32.3-0.1s29.3-16.8,32.4-15.2
	c3.1,1.6,23.2,21.3,23.2,21.3l-10.8-18.2l34.1-3.1l20.2,10.4l-28,13c0,0-30.1,23-32.4,29.3s-33.8,26.3-39.6,50.5l-18.4,19.7
	l-18.4,26l-14.3,21.5l-22.3,12.2l-6.6-25.3c0,0-4.6-29.7,6.4-39.7c0,0-35.5,10.1-8.7,76.6l-3.9,9.9l-5.6,8.3l-3.5,36.8l6.1,2.9
	l33.7-30.9l16.4-12.3l2.2-9.2l27.5,5.6v10.8l15.6-9.2l13.7,2l22.6-8.4l53.8-13.6l8.2,15.1l7.6-22.2l11.4,5.8l0.1,21.2l18,5.6
	l-7.9,8.5l-28.1,13c0,0-6.8,32.9,5.7,30.9s60.1-52,60.1-52l9.1-12.8l9.6-0.9l5.5,19.5l7.1,2l-2.5-18.9c0,0,6.5-3.2,9.2,2.4
	c2.6,5.6,6.3,16.5,6.3,16.5s-1.4-19.7,5.3-14.9s15.8,18.6,15.8,18.6l21.9,10.7c0,0,6.3,11.7,11.3,27.6c4.9,15.9,6.7,23.2,18.3,23.9
	c11.6,0.7,23.3,1.8,28.5-15.5l-25.1-8c0,0-18.1-15.8-17.1-25.7c0.9-10,10.3-13.9,1.9-18.6c-8.3-4.7-12,4.6-12,4.6l-64.3-45.5
	l-8.8-2.1l11.4-15.2l3.5-3.2l-11.6-0.2l2-21.5c0,0,112.1,49.2,122.1,66.1s30,37.9,30,37.9s16.2,6.7,13.6-2.4s-12.2-43-12.2-43
	L712.6,674l10.3-13.9l-8-3.4l-28-2.9l-44.1-22.3l-55.5,19.1l-7.1,27l-2.4,6.1l-45.3,2.8L583,653l64.1-26.6l5.7-7.2l-7.7-14l13.4,1.4
	l10.5,4c0,0,17.3-9.4,17.8-16.4s43.9,14.7,52.1,30.6s37.2,37.6,49.1,24.2s-0.5-87.2-14.5-99.3c-14-12.2-42.2-29.1-42.2-29.1
	l17.4-12.3l33.3,37.6l23.6,20.1c0,0,17.8,27,18.4,31.5s4.9,19.3,4.9,19.3l1.8-10.8c0,0-9.7-34.3-14.7-38.4c0,0,11.9,1.5,26.2,18
	c14.3,16.5,14.8,31.2,14.8,31.2s-0.9-25.9-17.3-42.1c0,0-0.1-10-3.2-14.7c-3-4.8-9.2-13.3-25.2-14.4s-31.2-15.9-35-19.3
	c-3.8-3.5-18.1-17-17.2-25.4c0.9-8.3,17.2-11.5,17.2-11.5l68-27.2l22.1-5.4l33.5-26.7l18.6,14.1l-8.4-18.6l13-8.8l-1.8-8.3
	l-19.4,7.1l4.4-18.8l-7.2,1.8l-4,20.3l-21.7,17.7l-0.4-12.3l-5.3,1.4l-0.2,22.2l-25,5.9c0,0,33.4-40.2,48.7-45.1s-17.7,2.5-17.7,2.5
	l24.1-23.6l8.9-2.9l6.3,2.2l-2.2-9.9l-20.8,11.4l-25.1,22.5v-35.2l-5.5,3.2l-4,43.8l-32,35.4l-30.9,0.5l82.1-90.4
	c0,0,13.7-5.9,22.2-9.9s44.4-21.2,44.4-21.2s35.1-16.8,51.1-9.2s12.4,3.2,12.4,3.2l-17.6-10l9.9-12l14.9-6.2l24.5-16.5l36.4-33.7
	l-7-3.3c0,0-15.2,21.4-25.9,25.6c-10.7,4.3-13.3,6.2-13.3,6.2s5.1-24.4,4-23.3c-1.1,1.1-4-0.7-4-0.7l-7.2,20.5l-18.5,17.6l-57.4,29
	l-16.2,9.4l-3.2-5.3l-11.8,10.7l-24.8,9.2c0,0,2.2-20.2,30-40.1s57.5-56.3,57.5-56.3s35.6-30.1,27.5-76c0,0,1-14.8,9.5-20.4v-36.8
	l-18.9,27.7c0,0-8.5,14.6-6.6,50.1c0,0-1.7,9.2-8.4,18.9c-6.7,9.7-36.1,34-36.1,34l3.5,23.2c0,0-17.3-3.6-23.5-10.3l-20.4,20.5l9,3
	c0,0,3,0.4-2.1,4.7c-5.1,4.3-21.2,11.3-27.3,10.5l-70.7,76.8c0,0-2-45.9,9.8-58.7c11.8-12.8,55.3-53.3,55.3-53.3l-35.1,17L816,312.1
	c0,0-6.8-19.9,3.4-32.1c10.2-12.2,15-16,15-16s-23.1,15.3-29.1,29.8s-1.4,25.3-1.4,25.3l-9.8,14.8v48c0,0-20,35.5-24.5,37.8
	c-4.5,2.2-4.5,2.2-4.5,2.2l8.2,15.5l-15.4-7.8l-29.8,22.9c0,0,10.5,19.9,14.5,22.9s7,6.8,7,6.8s-11.9,3.3-17.6,1.7
	c-5.8-1.6-17.2-7.1-25.2-19.1l-44.1,40.4l-23.6-24.9l-46.6-37.1l-24.7-11.6c0,0-50.6,22.5-43.2,41.5c7.3,19-36.8,12.7-36.8,12.7
	l-13.4,15.9l56.2,37.4l61.8-37.5l-15.8-19.3c0,0-12.7-24.3-8.9-32.3c0,0,20.7,5.4,25,18.9s-0.3,44.3-0.3,44.3l43.1,70.7l-1.9,14.6
	c0,0-0.1-5.5-10.7-7.6s-13.8-1.5-13.8-1.5l7.7,20.6l5.9,23.8l-17.8,6.7c0,0-13.9-6-12.3-14.1s-5.1-0.1-5.1-0.1L567,605.1
	c0,0-7-17-7.4-26.6l-19.2,8.2l4,24.5c0,0-14.6-5.9-16.9-9c-2.4-3.1-9.9-16.5-9.9-16.5s-9.2,0.7-13.8-5.5s-7.2,10.5-7.2,10.5
	s31.2,13.4,42.6,31.9l0.8,5.8c0,0-20-0.2-25.7-5.1c0,0,5.3,10.6,5.7,16.5c0.4,5.9-5.7,45.9-5.7,45.9s-11.5-19.1-12.6-22.8
	c-1-3.8-1.2-20.6,2.2-29.2s5.4-13.7,5.4-13.7l-9.8-12.4l-13.4,7.5c0,0,4.2,8.6,0.8,19.6c-3.4,11.1-12.2,28.2-12.2,28.2
	s-12.5-18.2-12.9-25.3c-0.5-7.1-7.1-2.8-7.1-2.8h-16.3c0,0,17,8.4,18.3,21.7c1.2,13.3,1.9,37.4,1.9,37.4s-2.5,15.3-8.1,15.2
	c-5.6-0.1-2.8-11.1-2.8-11.1s-19-33.2-18.5-42.9c0.5-9.6,2.3-17.5,2.3-17.5l14.4-11.7l-2.4-18.3l28.7-29.3c0,0,32.9-29.4,44.3-30.6
	c11.4-1.3,14.5-4.3,14.5-4.3l-60.3-4.7l-17-38.7c0,0-14.8-4.7-26.6-0.9c-11.8,3.8-22.1,3.3-22.1,3.3l6.3-31l18.8-13.8l11.2-7.7
	l50.9,16.5l28,2.4l58.5-45.8l27.2-9.3c0,0,9.9,8.7,9.9,13s38.3-26.7,38.3-26.7l22-16.5c0,0,44.9-6.1,55.2-1.3s7.8,4.9,7.8,4.9
	l-7-10.2l46.6-5.2l-9.7-5.5l-22.2-3.2c0,0-38.6,0.9-41.8-2.2c-3.2-3-0.3-10.6,5-13c5.3-2.3,38.5-29.3,38.5-29.3l-23.1-7.7l-8.3-7.6
	l-9.8,20.6l-8.1,8.6l-16.3,7l-14.1,11.5l-15.9,9.9l-5.3-0.1c0,0-3.8-33.1-13-44.6S605.9,290,605.9,290l-3.8,3.3
	c0,0,30.5,29.7,33.9,49.1s9.7,24-0.8,34.3s-36.3,26.4-36.3,26.4L534,434.6l-6.2,1.5l10.3-53.8l4.3-0.7l-3.1-19.5
	c0,0-4.4-5.9-10.2-1.1c-5.8,4.8-44.9,3.7-44.9,3.7l14-20.2v-13.6l24.3-31l2.4-11.3l8.7-11c0,0,5.4-10-7.3-19.8
	c-12.7-9.8-36-39.7-36-39.7v-23.5l-5.3,13.3l-8-6.5l-14.9-40.3l-2.3,10.9l7.7,26.2c0,0,20.5,33.4,42.8,59
	c22.4,25.6,8.2,13.7,8.2,13.7l-7.7,17.1l5.6,7l-23.1,26.3l-6-2.4l-6.5,22.8c0,0-7.8,12.8-15.6,21c-7.8,8.2-14.4,19.2-14.4,19.2
	l-4.6,1.9L421.4,372c0,0-4.8-51.7,7.8-61.2s29.7-41.2,28.1-47.8s-25,34.8-25,34.8l4.9-29.3l-4.9-2.9c0,0-16.9,31.9-16,36.7
	c0.9,4.9-12.8,26.3-12.8,26.3l-7.7,22.7l-12.1-3.1L367.2,337l-23.1,6c0,0-1.3-11.9,2.4-14.4s-16.5-12-16.5-12l-4.6,12l-12.5,18.8
	l10.6,8.4l30.1-0.6l-16.4,2.5c0,0,18.9,14.6,16.4,45.6c0,0-29.8-17.5-22.8-43.3l-35.8-0.9c0,0,11.8,17.8-2.8,31c0,0,7.9,11.5,7,13.2
	s7.5,4.3,7.5,4.3s14.3-28.5,16-17.5s-1.1,23.8-1.1,23.8s6.6-4,15.9-1.7s25.4,8.6,25.4,8.6l-8.6,8.9L319,442.2l-36.6,30.5l-40.5,17.4
	l-12.8-14.4l0.3-16l-1.8-5l2.7-9.4c0,0,9.1-20.9,18.3-22.8l3.8-2.2l-6.6-4.3v-4.3c0,0,0.4-3,6.2-1.9c5.8,1.1,17.8,4.5,17.8,4.5
	s-4.6-6.9-5-15.7c-0.4-8.8-0.4-6.4-0.4-6.4l-5.3,0.1c0,0-9.3,8.6-16.3,11s-10.8,1.6-10.8,1.6s-15-11.4-15.6-14.7
	c-0.6-3.3-9.6,13.2-9.6,13.2s17.7-0.5,20.1,6.6s3.5,19.7-5.9,27l-14.2-18.2c0,0-7-3.7-4.7-11c2.4-7.3,32-41.6,32-41.6l82.3-8.3
	l21.9-4.4h-47.9l-41.8-0.9l-4.1,1.2l18.6-30.1c0,0,4.6,9.6,15.8,13.2c11.1,3.5,26.5,9.8,26.5,9.8s7.9-34.8,14.6-36.7
	c6.7-1.9-27.1-11.2-27.1-11.2l-4.8-3.6l13.7-15l9.2-5.7l-9.2-15.6l-31.3,40.3l-5.8-15.8l-25.5-10l19.8-13.9l35.7-5.3l-25-3.3
	c0,0,21.3-14.8,32-17.2s25.6-16.3,25.6-16.3s-32.1,18.8-45,18.8c-13,0-43,24.5-43,24.5l-12.9,7.5l-2.7-7.5c0,0,14-41.7,15.6-52
	S247,196,247,196l1.6-11.7l38.1-64.2l-27.3,20.7l8.5,2.9c0,0-8.1,11.3-23.4,10.3c0,0-5.9,39.6-15.1,41.8s-9-35.7-9-35.7l-6.4,5
	c0,0,9.2,27.4,8.1,33.2s-4.7,42.4-4.7,42.4l-4,10.5l-20.6-21.8l-7-61l16.7-18.4l-3.7-3.3l-14.1,7.4l-4.1-34l-10,29.3
	c0,0-15.6,27.5-8.9,46.7c6.8,19.2,10.1,30.2,10.1,30.2l-11.2,1.1l-18.7-6.9l26.1,29.3l29.2,41.1l-10.4,42.2l-9.2-39.4l-14-6.9
	l-6.8,8.8l2.9,5.3l7.5,1l8.3,21.6L156.4,336l-3.5,12.2h10.8l15.7,37.1l3.3,26.3l0.4,3.3l7.4-17.9l7-47.1l5.3-2.3
	c0,0,10.8,10.9,7.5,25.8l-5.8,2.3l-6.9-6.6l-17.1,49.5l5,13.2l24.8,19.8l2.1,9.2l-22.7,12.7c0,0-16.9,7.4-39.7-3.6
	c-22.7-11-35.9-11.1-35.9-11.1s-11.3-7.1-9.7-10.2s-4.5-25.3-4.5-25.3l-0.5,26L86,425.4v22.8c0,0,4.7,8.9,35.8,20.9
	s30.9,19.4,30.9,19.4l-42.5-0.2l-30.5,15c0,0-17.1,18.7-19.9,27.5c-2.8,8.8-6.2,21.9-14,27.2c-7.7,5.2-14.8,12.9-14.8,12.9
	s23.1-1.1,28.8-16s18.4-42.2,33.1-46.8c14.8-4.6,30.8-9.6,30.8-9.6l-22.3,29.1l25.9-23.9c0,0,56.2-9.3,62.1-14.9c6-5.5,6.3,0,6.3,0
	l-7.7,15.5L177.3,523l-17.7,31.6l-13.7,18.1L128.4,600l6.9,33.3l62.7-102l20.6-32.5l5.8,11.5l-30.1,34.9"/>
<path class="st0" d="M519.5,361.5l40-77.4l1.9,11.7l-8.7,37.2l65.7-74.8l-7.6-44.7l-14-23.5c0,0-2.3-20,1.5-26.3
	s32.8-35.5,29.1-44.7c-3.7-9.2-20.5-35.1-27.4-35.6c-6.8-0.5,7.7-11.4,16.8-0.4s22,26.3,22,26.3l4.2-24.2l-4.2-22.8l-3.1-13.7
	l12.7,7.5c0,0,9,36.8,3.8,44.6l28.6,0.8l-28.6,8l-37.1,47.7l-5.6,15l14,24.4l14,41.9l23.6-17.7l-5.4-51.9c0,0,12.2,33.8,9.8,46.4
	l51.4-40.9l0.7,4.7c0,0-52.7,42-55.5,49.9s-20.6,28.4-20.6,28.4s62.3-8.9,81.1-3.2l19.3-1.1l18.3-16.8c0,0,48.1-23.2,52.3-26.6
	c4.2-3.4,17.4-33.1,17.4-33.1s-3.6-18.3-3.6-23.5s3-13.8-5-18.8S782,105,778.1,106.9c-3.9,1.9-7.4,5.2-7.4,5.2l-4.8-9.7l-14.6-1.8
	c0,0-5.2-1.7-13-22.4s-7.8-20.7-7.8-20.7l15.8,28l7.1-13.8c0,0,2.7,21.7,24.7,27.4S791,94,791,94s4.8,13.1,14.2,12.2
	c9.3-0.9,18.8,17.6,18.8,17.6l5.9,5.5V87.8l14.9-5.2l-6.5,17.8c0,0,1.8,25.6-0.1,41.8s-3,49.7-3,49.7l13-8.1l25.3-8.5l30.8,12.8
	l-7.8,12.7l-55.4,23.5l-49.9,27.1l-21.8,19.2L778,281l-14.6-4l-6.1,11.6l-9.6,30.2l-8.9-21.2c0,0-6.7-11.7-14.2-13.1l11.4-24h-28.1
	l-46-1.8l-15,6.6l6.5,24.8l-3,15.9h-11.6l-5,10.2l-7.9,20.5l-33,32.3l-2.9,48.1c0,0-7.9,4.6-5.7,12.4s7.9,13.1,7.9,13.1L567.5,431
	l0.2-63.4c0,0-9.3-7.6-15.1-7.5c-5.8,0.1,12.2-23.5,12.2-23.5l13.8-15.4l13.5,15.4c0,0,22.9-19.6,23.1-23.6c0.3-4-14-19.8-14-19.8
	l-19.6,18.6l-9.7,15l9.5-4.2"/>
<polygon class="st0" points="524.4,361.5 548.1,359.9 563.6,333.3 525.3,350.3 "/>
<polygon class="st0" points="364.4,526.1 342.8,555.5 341.9,585.4 347.4,597.9 334.9,616.9 334.9,628.7 343.5,627.4 362.2,587.7 
	394.8,555.5 404.4,528.6 "/>
<path class="st0" d="M131.3,346.7c0,0-7.4,7.2-16.2,8.8l-8.9,5c0,0-16.3,6.9-20.8,1.6c0,0-2.9,2.4-2.7,4.5s8.1,6.6,8.1,6.6l-0.6,6.6
	c0,0-10.5,10.3-12.2,12.8s-5.3,14.5-5.3,14.5l1.7,3l31.7-34.1l22.4-14.5l4.8-2.1L131.3,346.7z"/>
<polyline class="st0" points="453.1,500.4 474.3,506.6 487.6,506.6 503.4,521.1 456.1,518.9 "/>
<polygon class="st0" points="496.2,460.7 485.1,488.8 527.1,484.3 530.4,466.1 "/>
<path class="st0" d="M510.4,526.1l-28,13l29.2,10.5l18.9-5.8c0,0,5.8,14,14,18.4s8.1,4.3,8.1,4.3L543,543l34.7,3.8l11.7,8.8l4.8,6.6
	c0,0,17.8-14.7,36.9,12.7c19.1,27.4-5.3-21.9-5.3-21.9l-24.2-7l-24.4-13.1l9.9-14.1l-19,14.1c0,0-39.4-2.8-53.2-14
	c-13.8-11.3-13.8-11.3-13.8-11.3l23.3-23.3"/>
<path class="st0" d="M592.3,566l-18.2,7.3c0,0,14.2,15.5,16.3,32.8s6.4,7.4,6.4,7.4l12.2-24c0,0-10.1-1.8-11.4-7.2
	s0.9-19.9,0.9-19.9L592.3,566z"/>
<polyline class="st0" points="549.5,530.4 616.5,550 595.7,500.9 582.9,500.4 544.1,528.6 "/>
<path class="st1" d="M594.2,749.6l-10.3,31.5l-14.8,7.3c0,0-27.7,14.5-46.2,12.5l-19.5,9.3l3.4,15l-3.4,14.8l-7,1.1l3.3,11.3
	l1.7,4.9l21.5-10.8l43-17.6l44.6-11.2l9.8-14.2l4.9-19.7l16.7-27.2l-8.1-3.7l-2.5-6.4l-10.4,6.4l-5.6-4.7L594.2,749.6z"/>
<polygon class="st1" points="788.4,708.7 766.7,722.5 772.8,752.9 779.8,756.3 796.8,765.6 792.7,778.5 773.5,838.6 768.4,868.3 
	790.9,876.1 811.7,865.1 825.4,815.9 844.9,771.5 847.2,742.3 798,710.9 "/>
<path class="st2" d="M921.4,467.3c0,0-18.5-9.7-26.1-9.2s-30.1,12.3-30.1,12.3l-23.9,24.4c0,0-8.8,17.3-3.8,27.5
	c5.1,10.2,15.2,14.7,15.2,14.7s1.7-18.7,3.9-15.8c2.1,2.8,13.1,37,13.1,37h3.3l8.9-8.1l8.7,4.9c0,0-7-31.7-4.3-39s9.1-6.3,9.1-6.3
	l12.2,9.6l-0.9-16.4l-10.2-15.6l-5.3,13.9l-0.2-15.4l5.5-10.3L921.4,467.3z"/>
<path class="st3" d="M935.8,384.9c0,0,10.8,19.9,27.9,22.6c17,2.7,20.5-0.6,20.5-0.6s-6,1.4-8.5-1.9s-9.3-18-13.4-21.1
	s-17.9-9.9-26.5-2.4"/>
<polygon class="st3" points="538.6,362.6 550.8,390.4 566.3,410.2 568.4,370.4 544.1,360.1 536.4,362.6 "/>
<polygon class="st3" points="628.2,331.3 614.5,348.5 614.7,392.7 640.1,368.3 "/>
<polygon class="st3" points="633.9,331.3 640.1,360.1 630.4,357.8 626,333.9 "/>
<polyline class="st3" points="592.7,374.4 611.9,397.2 590.1,407.6 593,369.6 603.3,382.8 603.5,394.9 "/>
<path class="st3" d="M246.9,363.6c0,0-0.6,26.1,16.8,28.9s8.3-14,8.3-14S264.6,356,246.9,363.6z"/>
<polyline class="st3" points="294.1,359.4 278,384 291.4,393.9 298.9,382.1 296.2,362 "/>
<polygon class="st3" points="322.7,385.6 319.7,387.2 305.9,407.9 314.9,416.5 318.3,414.7 320.8,414.3 322.5,403.6 "/>
<polygon class="st3" points="189.4,488.8 176.2,493.8 179.4,501 186.9,506.3 192.7,488.8 "/>
<polyline class="st3" points="162.7,472.9 170.2,478.5 201.8,467.4 184.4,457.2 177.4,463.4 "/>
<polyline class="st3" points="394.8,555.5 392,562.1 394.8,573.7 417.7,562.4 410.7,545.9 404.4,539.1 "/>
<polyline class="st3" points="474.2,576.4 451.9,594.3 458.7,604.3 463.1,620.9 475.1,597.3 476.4,582.2 476.2,574.1 "/>
<polyline class="st3" points="441.7,515.1 424.6,526.1 424.6,531.4 456.9,528.6 443.7,515.8 "/>
<polygon class="st3" points="499.1,556.8 504.8,554.4 514.9,562.1 517.8,589.4 "/>
<polygon class="st3" points="494.7,559.9 502,555.5 511.2,574.8 508.5,578.7 "/>
<path class="st4" d="M818.2,473.3c0,0,44.2,7,28.7,13.6c-15.5,6.7-32.8,5-43.3-6.6"/>
<path class="st4" d="M759.4,502.9c0,0,1.5,8.3,9,16s13.1,11.8,23.7,20.8s35.9,2.2,44.4,20.5s-4,6.3,8.5,22.2
	c12.5,15.9,12,34.7,12,34.7s-10-42.7-41-49.2c0,0,21.3,37.3,12.9,49.2c0,0-8.8-39.6-29.1-54.8c-20.3-15.3-51.2-53.7-51.2-53.7"/>
<path class="st4" d="M790.9,585.9c0,0,0.5-22.7,12.7-20.5c12.3,2.2,1.4,32.4-11.6,40.6"/>
<path class="st4" d="M843.9,619.3c0,0,25.3,20.1,32,11.6s16.7-23,23.8-20.8c7.2,2.3-3.5,22.8-17.8,22.6c-14.3-0.2-14.3-0.2-14.3-0.2
	"/>
<path class="st4" d="M917.4,650.7c0,0,27.2-24.6,28.3-19.8c1.2,4.7-3,29.7-11.4,29.2S916.9,658.8,917.4,650.7z"/>
<path class="st4" d="M917.4,686.7c0,0-5.8-4.2,0-36c0,0-10,1.9-17.7-7.6c-3.8-4.8-8.3-7.3-11.8-8.7c-3.5-1.4-6-1.6-6-1.6"/>
<path class="st4" d="M897.5,660.1c0,0-16.5,1.3-9.6-25.8C887.9,634.4,904.7,640.6,897.5,660.1z"/>
<path class="st4" d="M847.5,683.1c0,0,1.8-41.8,11-41.5s16.5,31.3,6.1,35.5S847.5,683.1,847.5,683.1z"/>
<path class="st4" d="M823.9,651.3c0,0,9,25.6,23.6,31.8c4.6,2,8.5,3.7,11.6,5.2c6.8,3.2,10.1,5.4,10.6,6.6
	c0.7,1.7-16.5-5.3-25.8-5.5s-20-16.1-20-16.1L823.9,651.3L823.9,651.3z"/>
<path class="st4" d="M869.7,673c0,0,16.5-18.6,27.8-12.9c0,0,0.8,34.4-38.4,28.2"/>
<path class="st4" d="M869.7,694.9c0,0,3.2,30.5,32.3,29.7c0,0-9.4-28.2-28.6-35.9"/>
<path class="st4" d="M855.1,691.3c0,0,7.2,8,9.5,29.7c2.3,21.8,8.8,22.5,8.8,22.5s15.4-19,9.8-24.3"/>
<path class="st4" d="M818.2,586.9c0,0,3.6,24.4,0,30c-3.6,5.7-8-16-17.9-19.3"/>
<path class="st4" d="M823.9,656.7c0,0,2.6-20.1,12.8-32.6c10.2-12.5,7.2-24.1,7.2-24.1s4.1,11.3-15.1,16.9c0,0-10.8,3.8-9,10.5
	s4.1,23.9,4.1,23.9s-2,11.2-4.1,23c-0.5,3-1,5.9-1.5,8.8c-1.6,9.2-2.9,17.2-2.8,18.2c0.3,6.3,0,16.1,0,16.1s13.5-12.5,8.5-26.1
	c0,0-7.2-11.4,0-18.1"/>
<path class="st4" d="M828.8,638.2c0,0,6.6-7.6,18-4.4C858.2,637.1,857.9,649,828.8,638.2z"/>
<path class="st4" d="M821.5,578.7c0,0,12.7-0.3,19.8,8.2C848.4,595.4,834.4,601.7,821.5,578.7z"/>
<path class="st4" d="M855.2,611.2c0,0,1.5-11.1,23.1-11.2s21.6-0.1,21.6-0.1S875.2,633.9,855.2,611.2z"/>
<path class="st4" d="M843.9,600c0,0,3.3,22.2,32,30.9"/>
<path class="st4" d="M804.2,600c0,0-11.6,17.4,4,34.4l1.8,10.8c5.7,23.8-10.9,76.9-19.2,49.9c-8.2-27,17.3-60.8,17.3-60.8
	s-5.1-2-8.5-6.9s-3.2-25-3.2-25"/>
<path class="st4" d="M490.2,582.2c0,0,28,9.4,22.5,27.6s-20,38.5-9.3,58.2s10.7,19.8,10.7,19.8s9.7-43.9,2.9-57.6
	s-6.8-13.7-6.8-13.7"/>
<path class="st4" d="M513.8,623.6c0,0,40.8,16.5,19.5-6.7S496.4,592,496.4,592S492.7,607.2,513.8,623.6z"/>
<path class="st4" d="M557.4,570.1c0,0,3.8,15.1,4,24.6c0.3,9.4,18,22.4,22.8,29.4s12.1-2.3,6.2-18s-14.8-45.2-37.6-44"/>
<path class="st4" d="M503.4,555.5c0,0,12,3,11.5,6.5s-4.3,38.7,28.1,48.6c0,0,3.1,5.2-1.3-13.1c-4.3-18.3,1.4-34.9-22.3-35.5"/>
<path class="st4" d="M476.2,573.3c0,0,1,11.5-0.6,21.6c-0.7,4.4-1.9,8.5-3.9,11.2c-6.5,9-16.5,23.8-6.9,41.1s9.6,17.4,9.6,17.4
	s19.4-32.6,11.2-49.2c-8.2-16.6-10.8-16.2-10.8-16.2"/>
<path class="st4" d="M431.7,635.6c0,0-6.9,17.5,0,30.3c6.9,12.7,17,35.2,16.1,42.1s12-6.1,10.9-18.6s4.8-42-21.8-56.1"/>
<path class="st4" d="M499.1,559.9c0,0-10,19.7,18.8,27.7"/>
<path class="st5" d="M454.2,594.3c0,0,15.5,27.6,2.3,38.5"/>
<path class="st4" d="M436.9,558.7c0,0-23.7-2.1-42.1,15s-37.9,16.4-18.4,17.1S428.2,590.9,436.9,558.7z"/>
<path class="st4" d="M417.7,528.6c0,0,14.9,7.8,14,17.5c-0.8,9.8,16.2,0.2,26.3-17.9"/>
<path class="st5" d="M436.9,558.7c0,0,14.7-5.3,20.6,1.1"/>
<path class="st4" d="M403.4,537.1c0,0,13.2,11.8,12.1,25"/>
<line class="st5" x1="392.3" y1="558.3" x2="394.8" y2="573.7"/>
<path class="st4" d="M398.4,591c0,0,1.3,39,20.3-7.6"/>
<path class="st4" d="M362.4,619.3c0,0,34.2,4.7,40.2-5.8C408.6,603.1,358.2,600.1,362.4,619.3z"/>
<path class="st4" d="M340.3,528.2c0,0-28.4,18.5-35.9,35.1s-20.8,17.2-28.5,31.4c-7.8,14.2-9.3,24-15.5,36.2s-12.5,30-12.5,30
	s8.8-41.9,12.5-51.4s11-22.6,25.6-36.6s32.7-46.8,32.7-46.8"/>
<path class="st4" d="M233.4,709.9c0,0,0.5-52.5,14.5-49s18,44.3,2.5,49S233.4,709.9,233.4,709.9z"/>
<path class="st4" d="M260.4,630.9c0,0,9.8-2.5,12,15.7s19,21.5,19,21.5s10.8,6.3-9.5,8s-30.3-5.4-23.5-41.1"/>
<path class="st4" d="M255.4,627.4c0,0-17.9,8-29.5,6s-2.5,5.8,3,9.2s21.6,5.7,24-4.8"/>
<path class="st4" d="M273.2,600c0,0,10.7-2.5,16.2,15.4s14.5,36,21,35.8s-4-8.6-2.5-22.5C309.4,614.9,295.2,588.9,273.2,600z"/>
<path class="st4" d="M319.6,562.1c0,0-5.1,3.4,1.3,11.2c6.3,7.8,10.9,49.2,14.1,43s15.6-15.2,5.4-32.8
	C330.2,565.9,319.6,562.1,319.6,562.1z"/>
<path class="st4" d="M298.4,442.6c0,0-1.1,25-23.2,28.9S298.4,442.6,298.4,442.6z"/>
<path class="st4" d="M309.4,430.1c0,0-10.5-2.5-29.5,0s-36.8,1-33,8.7c3.8,7.8,36,18.5,51.5,3.8S309.4,430.1,309.4,430.1z"/>
<path class="st4" d="M320.8,432.1c0,0-0.9-8.1-5.9-15.6c-3-4.5-7.4-8.7-14-10.8c-17.5-5.6-23-13.4-17.1,0S299,433.1,320.8,432.1z"/>
<path class="st4" d="M320.8,432.1c0,0,25.8,11.5,41.3-10.5c0,0-28-17.5-47.3-5.1"/>
<path class="st4" d="M291.4,429c0,0-9.3-7.1-20.7-12.6c-6.2-3-13-5.5-19.2-6.2c-17.7-1.8,7,22.1,17.8,21"/>
<path class="st4" d="M270.6,416.3c-9.3-9-6.5-33.6-6.5-33.6s31.9,0.9,32.1,21.3"/>
<path class="st4" d="M352.4,403.6c0,0-30.8-15.4-21.4-47.5C331,356.1,356.2,367.6,352.4,403.6z"/>
<path class="st5" d="M263.7,392.5c0,0-14.3,3-17.4-30c0,0,22-3.6,27.3,21.5c2,9.7,20.5-24.6,20.5-24.6s12.4,20.5-2.8,33"/>
<path class="st5" d="M307,408.6c0,0,7.8-15.3,11.7-20.5c3.9-5.3,5.5,15.1,2.1,24"/>
<path class="st4" d="M304.7,346.7c0,0,7.8-34.4,18-37.3s-0.6,39.2-13.8,39.1"/>
<path class="st5" d="M206,403.6c0,0,22.5,0.5,22.7,12.7c0.2,12.3-9.9,22.5-9.9,22.5"/>
<path class="st5" d="M226.9,453.6c0,0,4.2-20.3,23.5-32.4"/>
<path class="st5" d="M215.6,390.4c0,0,11,18.4,23,15.3s19.8-13.1,19.8-13.1"/>
<path class="st4" d="M152.9,301.1c0,0-4.6,3-9.6,8.3c-6.8,7.3-14.3,19-12,33.7c3.9,25.5,2.6,48.7,12.6,26.5S161.2,328.9,152.9,301.1
	z"/>
<path class="st4" d="M162.9,291.2c3.3-20.7-10.5-27.9-10.5-27.9s-1.8,9.8-6.5,20.3c-4.8,10.5-15.3,18.5-2.6,25.8
	c0,0-21.5-8.8-25.6,5.7s3,32.8-1.9,38.5s15.8-2.9,15.5-10.5"/>
<path class="st4" d="M133.3,359.4c0,0-17.2,5.7-36.4,27.8c-7.8,9-13.8,14.8-18.2,18.5c-6.4,5.4-9.3,6.3-9.3,6.3s1.9,15.2-10.6,25.4
	c-12.4,10.2-17.4,20.7-12.9-2.3s6.5-23,15-23s6.3,0.2,6.3,0.2"/>
<path class="st4" d="M115.1,355.5c0,0-13.5,10.2-26.3,7.3c-3.9-0.9-6.9-1.3-9.2-1.4c-5.3-0.2-7,1-7,1s-20-0.2-27.5,16.1
	c-1.9,4.2-3,9.4-2.7,16.1c1.5,32.4,28.5-19.5,31.7-26.3c3.2-6.9,2.2-5.5,2.2-5.5"/>
<path class="st4" d="M48.8,372.8c0,0-6.9-5.7-19,9.2C17.7,396.8,0,411,0,411s15.3,0.8,23.5-5.8c4.9-3.9,10.8-5.5,14.8-6.2
	c2.7-0.5,4.5-0.5,4.5-0.5"/>
<path class="st4" d="M48.8,404.8c0,0-0.2,17.6-14.7,24.3s-21.2,6.9-19.5,4.3s10.5-6.9,11.5-12.2c1-5.3,1.9-17.3,12.1-22.3"/>
<path class="st4" d="M85.4,362.1c0,0-6.3,6.2,0,8.5s11.6,4.2-1.4,15.7s-11.2,20.8-11.2,20.8s-8.3-18.6-0.9-34.3
	C79.2,357.1,85.4,362.1,85.4,362.1z"/>
<path class="st4" d="M115.8,215.9c0,0-29.9,1-34.1,25.3c-4.2,24.3-3,32.3-3,32.3S121.4,244.4,115.8,215.9z"/>
<path class="st4" d="M119.4,210.7c0,0-4.8-20-14-14.8s-8.3,21.2-22,21.7s-13.7,0.5-13.7,0.5s13,8.4,22.2,6.1"/>
<path class="st4" d="M100.7,416.4c0,0,22.9-18.2,34.8-1.1c11.8,17,27.5,20.5,30.7,19.7c3.2-0.7-1.8,6.6-6.7,7.6
	s-24.3,11.8-44.3-13.6C95.1,403.6,100.7,416.4,100.7,416.4z"/>
<path class="st5" d="M152,349.8c0,0,9.4-7.4,15.1,5.7c2.7,6.3,5.9,15.3,8.5,23c2.8,8.5,4.9,15.4,4.9,15.4"/>
<path class="st4" d="M179.4,407.9c0,0-13.8,8.1-19.7,7.3c-5.8-0.8-18.7,5.5-11.7-5.2s12.8-33.6,27.5-31.6"/>
<path class="st5" d="M194.3,366.6c0,0,8.2,12.4,15,7.2c0,0-1-35.3-12.8-23.5"/>
<path class="st4" d="M77.1,545.3c0,0-26.6,26.2-28.3,40.3s28.5-5.3,30-23.5s1.4-18.2,1.4-18.2"/>
<path class="st4" d="M174.5,528.2c0,0-35.1,35.3-43.6,30.1c-8.5-5.2-19.7-5.4,4.5-17.7c9-4.6,14.7-8.3,18.3-11.1
	c6-4.7,6.1-6.9,6.1-6.9"/>
<path class="st4" d="M153.7,529.5c0,0-15.3-5.4-26.5,1.7c-11.3,7.2-23.8,3.4-23.8,3.4s1.6,9.7,25.1,9.6"/>
<path class="st4" d="M127.2,556.3c0,0,3.8,31.1-27.2,27.6c0,0,2.8-1,3.5-13.7s19.9-22.4,19.9-22.4s-8.2,5.9-19.9,18.2
	c-11.7,12.2-18.3,5.3-18.3,5.3s-1.8-1.9,9.3-13c11.2-11,20.7-15.4,20.7-15.4"/>
<path class="st4" d="M142.4,527.6c0,0-3.5-24.8,7.6-28.2c11.1-3.4,16.2,10.4,16.2,10.4"/>
<path class="st4" d="M174.5,493.8c0,0,4.7,12.1,14.1,10.1c0,0-33.3,5.7-36.7,15.4c-1.5,4.3,4,4.2,10.6,2.8
	c8.2-1.7,17.9-5.5,17.9-5.5"/>
<path class="st4" d="M130.9,558.3c0,0-2.3,12.2,0,15.4c2.3,3.2,14-11.5,19-10.2"/>
<path class="st4" d="M163.4,474.6c0,0-19.8-14.5-9.7-14.3c5.5,0.1,15.5-0.8,23.4,1.1c6.7,1.5,11.8,5,11.5,12.4"/>
<path class="st4" d="M201.8,466.9c0,0-24.1-34.4-24.4-20s-0.3,14.4-0.3,14.4"/>
<path class="st4" d="M166.2,460.1c0,0-9.9-18.1-15.4-5s2.8,16.6,2.8,16.6"/>
<path class="st4" d="M635.2,663.2c0,0-12,15.7-8.8,19.9c3.2,4.2,14.7-9.2,18,0s14.9-8.2,14.9-8.2s7.1,9,3.8,11.9
	c-3.3,2.9-19.4-6.8-12.3,29c0,0,23.8-5.8,15.7-27.9"/>
<path class="st4" d="M698.5,698.3c0,0-8.9,18.9-4.1,33.3s1.3,12,1.3,12s38.6-14.2,7.1-43.9"/>
<path class="st4" d="M604.9,689.5c0,0,13.8-18.2,32.5,10.5c0,0,2.5,2.8,5,2.7c2.5-0.2-15.3,2.2-16.5,1.1"/>
<path class="st4" d="M673.7,736.3c0,0-5.3-16.9,4.3-25c9.7-8.2-39.8,4.6-10,23"/>
<path class="st4" d="M739.1,734.3c0,0-24.3,11.3-22,26.3s-6.8,7.3,7,3.3s22.1-20.2,22.1-20.2"/>
<path class="st4" d="M686.7,757.4c0,0,15.2-15.1,25.3-15.1c10.2,0-11.9,33.9-19.1,27.2"/>
<path class="st4" d="M765.4,649.1c0,0-10,28.3,12.7,34s3.8-7.1,5.7-19.9c1.8-12.8,1.8-12.8,1.8-12.8"/>
<path class="st4" d="M700.7,610.7c0,0-6.4,6.7-2.7,18.6s-3,21.4-3,21.4s31-2.7,23-17.7S716.7,607.3,700.7,610.7z"/>
<path class="st4" d="M727.2,611.4c0,0-3.4,12.1,4,18.9s7.4,24,11.9,26.4s20.8,12.3,20.8,12.3"/>
<path class="st4" d="M719.4,637.9c0,0-0.8,10.9,4.4,15.1c5.2,4.2,10.7,11.2,16.3,17.7c5.7,6.5,18.4-1.4,26.6,5"/>
<path class="st4" d="M686.7,594.3c0,0-11.2,16.3-17.8,16.4"/>
<path class="st4" d="M599.2,562.1c0,0-10.5,20.3,4.9,24.8c2.1,0.6,4.3,1.2,6.3,1.6c12.7,2.9,22.9,3.2,23,9.1c0,0,7-13.4-13.3-32.3"
	/>
<path class="st4" d="M607.1,641.6c0,0-24.6-8.2-10.4-28.1s10.4-25.8,10.4-25.8s7.1,5,9.5,21.7s7.2,28.1,7.2,28.1"/>
<path class="st4" d="M633.4,597.6c0,0,10.2,2,13.6,8.5s4.6,29.6,44.4,26.9c0,0-26.9-26.9-35.7-26.9"/>
<path class="st4" d="M765.8,493.6c0,0,23.8-15.5,41-2.8c17.2,12.8,23,6.8,23,6.8s-8.4,19.6-27,14.9s-33-16.2-33-16.2"/>
<path class="st4" d="M768.4,518.9c0,0-2.7-6.6,14.3-4.3s16.9,2.3,16.9,2.3s-1.7,11.9-18.5,13.5"/>
<path class="st4" d="M690.3,415.3c0,0,0.6-11.7,17.1-9.6s7.8,30.2,17,33.1c5.2,1.7-6.4-6.1-17.5-13.1
	C698.4,420.3,690.3,415.3,690.3,415.3z"/>
<path class="st4" d="M595.7,417.6c0,0,16.7-12,19.5,14s10.4,23.9,10.8,26.4s-55.2-13.3-38.5-39.1"/>
<path class="st4" d="M643,413.2c0,0-10.3,1.7-7.7,23.4c2.6,21.7,5.3,40.3,7.7,36.7s38.7-39.6,3.9-63.9"/>
<path class="st4" d="M680.5,410.2c0,0-1.5,25-9,26.4s24.3,12,25.8-16.9"/>
<path class="st4" d="M653.4,459.7c0,0,9.4,22.4,28.8,6.4c0,0-12.6-7.8-13.3-16.1s-8.8-10.4-8.8-10.4"/>
<path class="st4" d="M564.9,337.3c0,0,5.3,3.8,2.8,38.1s-1.1,41.7-1.1,41.7"/>
<path class="st4" d="M578.7,321.5c0,0,18,14,14.2,48.1c-3.7,34-2.9,36.1-2.9,36.1"/>
<path class="st4" d="M535.4,360.4c0,0,5.7-0.8,6.3,17.1s17.3,31.5,24.6,32.7"/>
<path class="st4" d="M544.1,360.3c0,0,25.7-1.1,24.3,11.9"/>
<path class="st4" d="M592.7,372.3c0,0,14.1,10,17.7,24.6"/>
<path class="st4" d="M660,357.8c0,0-18.3-19.2-10-36.3c0,0-2.6,1.2,5.5,3c4.1,0.9,8.3,2.8,11.6,5.5c3.3,2.7,5.8,6,6.1,9.6
	c0.8,7.3,0.8,7.3,0.8,7.3"/>
<path class="st4" d="M691,337.3c0,0-7.3-36.3-14-30s-6.7,25.8-6.7,25.8"/>
<path class="st4" d="M615.1,394.9c0,0-7.8-40.7,3.3-52.9"/>
<path class="st4" d="M715.1,281.4c0,0-7.9,24.7,12.4,31.3s20.3,6.6,20.3,6.6S742.4,287.6,715.1,281.4z"/>
<path class="st4" d="M698,260.1c0,0,0.4,4.7,2.6,9.6c2.3,5.3,6.6,11,14.4,11.6"/>
<path class="st4" d="M692.4,326.3c0,0-15.2-39.8,8.2-56.5C724,253,692.4,326.3,692.4,326.3z"/>
<path class="st4" d="M743.4,250.8c0,0-17.8-32.8-2.3-58.1c0.3-0.4,0.5-0.9,0.8-1.3c14.6-24,11.2-25.8,11.2-25.8s-7.8,32-9,40
	s16-6.5,16-17.3c0,0-0.7,9.2-5,16.3c-4.3,7.2-16.7,29.5-4.3,36"/>
<path class="st4" d="M661,220.9c0,0-2.3-50.5-10.6-57.3c0,0,6,7.7,10.4,20.3c3.1,9,5.5,20.4,4.3,33.3"/>
<path class="st4" d="M670.4,153.3c0,0-17.3,18.5-9.6,30.6C668.4,196.1,675.9,183.2,670.4,153.3z"/>
<path class="st4" d="M657.3,184.2c0,0-8.1-26.7-42.3-13.3c0,0,24.9,34.4,42.3,23.7"/>
<path class="st4" d="M659.8,203.6c0,0-9.5,8-20.9,9s11.4,10.3,21.2,3"/>
<path class="st4" d="M571.9,240.9c0,0-6-19.3-24.8-29.9c-18.8-10.6-10.2-27.2-7.3-24.7c2.1,1.9,11.3,0.4,21.6,6
	c3.5,1.9,7,4.5,10.5,8.4C585.9,215.9,589.4,240.6,571.9,240.9z"/>
<path class="st4" d="M595.4,137.6c0,0-36.3,31.3-28.7,41.7C574.2,189.6,600.6,161.4,595.4,137.6z"/>
<path class="st4" d="M559.5,170.9c-29.1,16.6-37.8-23.6-37.8-23.6c24.4-7.8,37.8,19.9,37.8,19.9s-0.8,20.7,1.9,25.1"/>
<path class="st4" d="M566.7,179.3c0,0,7.4,13,5.2,21.3"/>
<path class="st4" d="M489.4,175.6c0,0-17.7-28.2,35-40.3c0,0-5.7,34.7-33,44"/>
<path class="st4" d="M597.8,82.9c11.5,30.3-23,51.1-36.4,47.7s-7.5-7-7.6-8.3c-0.2-1.3,17.5-2.7,23.7-20.3
	c6.2-17.7,15.9-19.1,15.9-19.1s-17.2,4.6-21-1.9s-22.2-6-30.8-16s-18.5-8.5-12.4-10s39-15.8,41.6-6.4c2.7,9.4,9.5,37.7,25.3,30.1"/>
<path class="st4" d="M572.3,80.9c13.3,0-20.7,2.8-32.2,13.7s-21,15-21,15s22,12.2,30-1.7C557.1,94.1,566.2,80.9,572.3,80.9z"/>
<path class="st4" d="M470.7,94.3c0,0,7.8,30,34.7,12.7c0,0-8.6,2.1-10.1-3.6S479.9,85.9,470.7,94.3z"/>
<path class="st4" d="M459.1,135.3c0,0-3-26.3,11.7-41"/>
<path class="st4" d="M440.7,114.5c0,0,4.2,6.9,6.7,16.4s11.4,10,11.4,10S470.4,117.8,440.7,114.5z"/>
<path class="st4" d="M440.7,186c0,0,2.3-15.5-19.7-32.7s-16.7-25.6-16.7-25.6s-11.5,20.4,4,33.9S440.7,186,440.7,186z"/>
<path class="st4" d="M440.7,186c-1.9,21-36.3,25-36.3,25c1-18.9,19-29.5,19-29.5S441.1,182,440.7,186z"/>
<path class="st4" d="M392,169.1c0,0,1.5,17.7,14,15.2s17.3-2.8,17.3-2.8S401.2,180.2,392,169.1z"/>
<path class="st4" d="M345.7,206.9c0,0,9.7-20.5,27.7-8s24,2,24,2s-3,34-27.3,20C345.7,206.9,345.7,206.9,345.7,206.9z"/>
<path class="st4" d="M336.4,209.1c0,0-14.2-7.2-4.4-27.2c0,0,3.9-6.3-2.9-9.6c0,0,8.9,1.8,11.2,20
	C342.6,210.4,336.4,209.1,336.4,209.1z"/>
<path class="st4" d="M302.1,231.7c0,0-5.3-8.6-5.3-18.3s-17.8-16.8-14.7-34.2c3.2-17.3,4-13.7,4-13.7s2,11,11,13.7
	s16.5,14.3,10.7,27C301.9,218.9,302.1,231.7,302.1,231.7z"/>
<path class="st4" d="M324.6,222.8c0,0,29.5-9.5,32.5,13.5s13,29.6,13,29.6s-36.7-3.4-37.7-15.9S324.6,222.8,324.6,222.8z"/>
<path class="st4" d="M304.7,258.1c0,0,9.6-4.4,24.5,10.3c14.9,14.7,27.2,15.2,27.2,15.2s-8.8,11.5-17.9,11.7s-23.1-1-28.1-20.7"/>
<path class="st4" d="M404.4,319.6c0,0-1.7-2.5-3.8-6.7c-6.4-12.6-17-40.1,1.5-58.5c0,0,20,22.4,10.3,36.8s-9,18.1-9,18.1"/>
<path class="st4" d="M343.4,342c0,0-3.5-22.5,23-36.4c0,0,4-1.5,5.2-7.6C371.6,298,385.7,341.3,343.4,342z"/>
<path class="st4" d="M393.7,295.3c-22.7,4.5-27.4-23.3-27.4-23.3s12.3-7.6,25.6,4.4"/>
<path class="st4" d="M466.7,203.6c0,0-15.7-1.5-18.3,4s-0.8,28.2-46.7,16.7c0,0,6-13.6,26.3-15.2c20.3-1.5,17.3,1.9,17.3,1.9"/>
<path class="st4" d="M452.1,268.4c0,0-22.5,4.5-20.4-19.8c2.2-24.3,8.6-28.8,13.6-12.7c5,16.2,2.2,26.8,11.7,24.7"/>
<path class="st4" d="M464.8,249.9c0,0-9.5,52.7,24.6,54c0,0,12.8-13.4-13.3-34.3C476.2,269.6,464,261.6,464.8,249.9z"/>
<path class="st4" d="M440.2,382.8c0,0,24.4-26,13.5-49.5c0,0-2,12.2-12.9,18.3s-22.7,20-11.7,25.6"/>
<path class="st4" d="M394.7,348.5c0,0-12.6-18.4-7.9-27s-18.7,18.5-1,27"/>
<path class="st4" d="M420.6,344.3c0,0,15.7-18.1,21.8-15.4l-1.6,22.7"/>
<path class="st4" d="M592.3,500.9c0,0-29.8-26.4-23.9-51c0,0,21.2,4.4,25.8,23.8C598.9,493.1,592.3,500.9,592.3,500.9z"/>
<path class="st4" d="M426.7,500.4c0,0-5-30.9-2-38.2c3-7.3,23.7,6,19.7,35.4"/>
<path class="st4" d="M456.5,455.7c0,0-10.1,24.8-5.1,33.1s24.8-16.7,22.8-26.6"/>
<path class="st4" d="M706.9,425.7c0,0-11.2,23.2-3.5,34.5s19.4,30.3,45.2,22c0,0-19.5-20.2-20.7-30s-3.5-13.4-3.5-13.4"/>
<path class="st4" d="M747.7,387.7c0,0-12.7,6.7-4.3,25.5c8.3,18.8,29.7,23.4,29.7,23.4s-14.7-17.1-9.7-29.7S747.7,387.7,747.7,387.7
	z"/>
<path class="st4" d="M768.2,366.8c0,0,5.7-11.9,13.6-22.2s8.8,13.8-3.6,25"/>
<path class="st4" d="M754.1,348.5c0,0-12.5-21.4,19-51.8c0,0,0.6,7,5.1,12.7s9.9,28.2-18.1,35.5"/>
<path class="st4" d="M810.1,355.8c0,0,0.7-22.1,25-21.9c0,0-7.5,34.2-24.8,34.3"/>
<path class="st4" d="M805.1,293.9c0,0,14.7-26.3,33-32.9c18.3-6.7,41.3-20.4,23.7-40c0,0-26.2,15.8-20.7,35"/>
<path class="st4" d="M883.9,258.1c0,0,0.2-32,17.3-44.7c17.1-12.7,18-22.2,18-22.2S919.4,242.3,883.9,258.1z"/>
<path class="st4" d="M853.1,288.9c0,0,27.9-12.7,43.4-7.6s15.5,5.1,15.5,5.1s-16.4,25.7-67.2,7.4"/>
<path class="st4" d="M920.8,233.5c0,0,0,0,19.9-10.6c3.7-2,6.4-4.7,8.2-7.6c8-12.9,0.5-31.4-1.9-24c-3,9-18.5,28.3-21.4,36.3
	s-24.5,17.5-24.5,17.5s8.6,3.2,16.3,13s22.6,14.3,27.3,14.6c0,0-2.9-18.1-3.5-22.9s-9.1-12.3-28.3-7.6"/>
<path class="st4" d="M971.7,200.6c0,0-18.4,4.9-22.8,14.7C944.6,225.1,963.4,222.6,971.7,200.6z"/>
<path class="st4" d="M768.2,112.3c0,0-18.5,23.9-8.2,37.9s12.5,33,12.3,33.9s26.7-32.6,0-46.6c0,0-5.5-3.2-10.3-2.3"/>
<path class="st4" d="M704.2,181.9c0,0-0.3-11.2-4.2-15.1c-0.6-0.6-1.2-1-1.9-1.2c-5.8-1.7-20.8-7.2-25.7-32c0,0,28.2-11.8,28.3,30"
	/>
<path class="st4" d="M854.7,71.9c0,0-5.8,13.2,4,24.3c9.8,11.2,5.9,33.3,5.9,33.3s26.3-26.7,13.7-40.7S854.7,71.9,854.7,71.9z"/>
<path class="st4" d="M858.7,65.3c0,0-10.4,1-14-27.7s-3.6-28.7-3.6-28.7s45.5,15.5,23.2,49.2C862.7,60.4,860.9,62.8,858.7,65.3z"/>
<path class="st4" d="M858.7,65.3c0,0,3.1-3.4,7-8.4c6.5-8.1,15.1-20.4,15.9-28.6C882.9,15.1,901.4,0,901.4,0s14.5,11,0,32.7
	s-26.8,19-26.8,19"/>
<path class="st4" d="M908,95.3c0,0-16.4,1.7-17.9-16s-24.3-22.4-24.3-22.4s31.1-10.5,39.6,8.4C913.9,84.1,908,95.3,908,95.3z"/>
<line class="st5" x1="870.4" y1="50.8" x2="878.3" y2="51.5"/>
<path class="st4" d="M883.9,48.5c0,0,21.4,11.7,43-15.9"/>
<path class="st4" d="M793.4,82.9c0,0-7.1-12.4,4.2-32.1c11.3-19.7,7.5-29.5,7.5-29.5s14.8,14.9,11.3,29.5S810.1,81.3,793.4,82.9z"/>
<path class="st4" d="M749.7,65.3c0,0-5-14.8,9-28.2S766,5.3,766,5.3s27.9,23.2,12.1,40.1C762.3,62.3,753,63.3,753,63.3l-14.6-3.6
	l-11-2.7c0,0-19.6-28-47.7-11.6S650.4,59,650.4,59s39.2,18.8,67.2,2c0.7-0.4,1.5-0.9,2.2-1.4c28-19.2,11.7-23.5,7.7-24.3
	s-2.7,13.3-2.7,13.3"/>
<path class="st4" d="M304.7,109.3c0,0,7.3-0.9,13,5.3s27.5,22.6,42.7-4.9c0,0-0.2,8.5-13.1,0S318.2,78.2,304.7,109.3z"/>
<path class="st4" d="M183.9,154.2c0,0,25.3-28.3,3.8-44.9c-21.5-16.7-25.2-13-24.3-6s19.7,6.3,19.7,6.3"/>
<path class="st4" d="M214.2,140.9c0,0-0.8,11.3,20.5,13.3c21.3,1.9,32.5-8.3,32.5-8.3S223.8,117.4,214.2,140.9z"/>
<path class="st4" d="M993.7,328.6c0,0-11.9,14.2-4.5,35.5s1,42.8,1,42.8s27.1-41.1,23.7-54s-6-17.2-6-17.2"/>
<path class="st4" d="M1003.9,330.8c0,0,13.9-6.6,30.3,11.6c16.4,18.2,19.3,16,19.3,16s-14.5,16.8-39.2,0.1"/>
<path class="st4" d="M1007.7,376c0,0,1.2,10.5,22.4,7.1c0,0-5.8-8.2-7.5-20.5"/>
<path class="st4" d="M934.2,382.4c0,0,21.3,34.9,48.8,24.5c0,0-9,0.7-11.5-8.2S956.8,368.9,934.2,382.4z"/>
<path class="st4" d="M925.7,413.2c0,0,13.4-4.6,17,0s9,29.8,27.8,23.2c0,0,7.3-30.4-24.7-23.2"/>
<path class="st4" d="M967.7,417.5c0,0,10.7-7.7,17.9,8.1s13.6,28.4,23.5,21.3c0,0-12.3,17.9-26.3,5.8s-12.5-16.3-12.5-16.3"/>
<path class="st4" d="M971.1,439.4c-11,4.4-4.5,33.9-4.5,33.9s20.3-0.1,20.1-18.1"/>
<path class="st4" d="M979.7,407.9c0,0,10.4,0,8.7,23.7"/>
<path class="st4" d="M965.3,407.9c0,0-3.7,2.1,0,6.9"/>
<path class="st4" d="M919.7,447.1c0,0-6.6,12.8,12.2,17.8s16.5,8.5,16.5,8.5s-4.6-31.2-26.5-29"/>
<path class="st4" d="M958.8,290.3c0,0,8.7-22.9,22.9-35.9s14.1-13,14.1-13S1005.7,294.1,958.8,290.3z"/>
<path class="st4" d="M1024.7,247.9c0,0-17.1,7.8-15.5-10.3s-0.1-24-0.1-24s7.5,19.5,12.4,23.5
	C1026.4,241.1,1024.7,247.9,1024.7,247.9z"/>
<path class="st4" d="M1030.2,258.1c0,0-1.5-8.1,7.8-18.3s7.5-15.2,7.5-15.2S1056.4,256.4,1030.2,258.1z"/>
<path class="st4" d="M1024,240.5c0,0-13.9-11.5,6.1-26.9c0,0-1.2,7.4,2.3,18C1036,242.1,1024,240.5,1024,240.5z"/>
<path class="st4" d="M813.2,295.6c0,0,3-23.7,29.4-36.4"/>
<path class="st4" d="M793.9,250.8c0,0,7.6,12.4,27.3,3.8c0,0-9.3-12.8-23.6-6.2"/>
<path class="st4" d="M1019.3,107.4c0,0,17.5-7.4,21.6,13.8c4.1,21.2,1.1,35,11,35.8c9.9,0.8,7.5-1.1,7.5-1.1s-9.5,9.5-17,7.1
	s-20.5-8.8-20.5-19.3s4.9-13.9,4.3-17.5c-0.6-3.6,1.9-12.4-6.9-14.8"/>
<path class="st4" d="M1011.6,134.7c0,0,12.3-6.4,8.8,4.2s-8.8,16.9-8.8,16.9"/>
<path class="st4" d="M913.6,45.2c0,0-11.2-9.3,7.5-18.6s19.5-17.7,19.5-17.7S943.9,49.9,913.6,45.2z"/>
<path class="st4" d="M776.3,715.4c0,0,13.4-8.4,1.9-24.1s-11.5-15.7-11.5-15.7S752.9,711,776.3,715.4z"/>
<path class="st4" d="M752,702.6c0,0,24.8-0.5-18.3-39.4c0,0-16.5,19,12.7,32.3"/>
<path class="st5" d="M788.4,705.9c0,0,8.5-8.8,0-20.6"/>
<path class="st4" d="M682.2,600c0,0-6.7,23.6,4.6,26.5c11.3,2.8,8.3,13.7,8.3,13.7S717.2,617.9,682.2,600z"/>
<path class="st4" d="M668.9,679.9c0,0,17.4,30.7,17.8,39s17.5-12.1-1.3-29.8"/>
<path class="st4" d="M577.7,655.4l-24.4,24.4c0,0,25.2,8.3,29.7-12.2"/>
<path class="st6" d="M873.4,422.6c0,0,21.8-15.7,23-15.7"/>
<path class="st6" d="M782.7,459.9c0,0,30.4,5.3,38.3,0s28.1-26.2,29.8-29c1.6-2.8,5.9,2,6.2-46c0-0.8,0-1.7,0-2.5
	c0,0,8.4-14,8.5-2.3s0,30.8,0,30.8l27.5-24.8c0,0,8.6-22.5,10.8-22s-6.8,20.3-6.8,20.3s19.6-11,23.5-11s12.1,8.9,13.8,9
	s-10-4.8-12.8-4.8s-11.5,2.8-10,4.3s9,7.4,9,15c0,0-5.6-12.8-12.8-10.5s-10.5,2.3-15,6s-19.3,19.8-19.3,19.8l24.1-9.5"/>
<path class="st6" d="M727.9,453.9c0,0,59.6-43,63.3-68.3s1.6-54.1,12.5-64.5v-20"/>
<path class="st6" d="M814.9,301.1v11c0,0,26.1-34.1,40.2-36.5s28.8-17.5,28.8-17.5s-62.8,55.6-65,62.8s-11.1,16.3-8.3,54.5
	c0,0,61.6-71.4,74.3-77"/>
<line class="st6" x1="901.2" y1="281.4" x2="919.2" y2="264.1"/>
<path class="st6" d="M941.2,249.9c0,0,45.3-34.9,45-51s-4.5-30.9,5.5-50s22.6-40.4,24.5-40.3s2,1.5,2,1.5s-6.6,8.4-6.8,18.5
	s2.8,21.1-0.3,26.8s-10.1,9.9-9,20.8s11.5,30.9-16.3,63.5s-90.9,87.9-94,93.8s-6.1,16.5-9.8,18c0,0,22.5-11.1,28-11.3
	s50-51.5,50-51.5l-33.3,41c0,0-4.6,7.9,0.5,5.3s79.5-40.4,82.8-46.5s15.3-19.3,15-35.5c0,0,6.5,6.8,4.3,14.3
	c-2.2,7.5-2.3,7.5-2.3,7.5s-2.1,4.8-2.8,8c0,0,18.5-3.5,36.3-30l5.3-8.3c0,0,14.1-19.1,20.3-24c0,0-18.4,25.5-19.3,29.8
	c-0.9,4.3,22.5-6.5,22.5-6.5s-12.5,5.1-17,9.3s-25.5,31-39.8,35c-14.3,4-20.6,18.9-28.8,19s-13.9,8.9-18.1,11.5s-2.9,2.3-2.9,2.3
	s14.1,2,16.8,5.3s9.3,10.5,9.3,10.5s-18-13.3-36.8-10s-41.9,14.8-54.5,21.3s-14.1,9.1-36.8,16.5c0,0-3.1,1-16.3,11.9"/>
<path class="st6" d="M856.9,384.9c0,0-65.5,70.5-66,76.2"/>
<path class="st6" d="M867.9,425.2c0,0,0,0-4.2,3.2s-24,27.9-21.8,26.8s20.3-6.3,23-6.5s2.3-11.4,2.3-19.5s6.3-6.5,6.3-6.5l0.1,13.5
	c0,0,0,0,11.1-7.8s10.9-20.5,12.9-25.8s8.9-3.8,8.9-3.8l-3.3,15c6.1,1.8,18.3-5.3,18.3-5.3l4.3,7.3l-2.5,1c0,0-9.3,6.9-13,8.8
	s13,23.8,13,23.8s0.5,2.4-7-6s-16.4-16-16.4-16l-31.8,29.5l-24.5,4.3c0,0-54.4,27.4-64.5,27.8s-45,32.3-45,32.3
	c15.8,15.3,31.9,22.8,31.9,22.8s4.1,0.2,7.6,5.9c3.5,5.7,7.5,12.3,7.5,12.3"/>
<path class="st6" d="M704.9,466.1c-5.4,3.1-42.8,39-42.8,39s5.6,6.5,71.8,16"/>
<path class="st6" d="M787.9,649.1l2.3-2c7.5-57.8-9.3-85-9.3-85C742.2,608.4,787.9,649.1,787.9,649.1s-3.9,4.9-22.5,0
	s-25.8-21.9-28.5-28.8s-40.4-25.6-62.8-33s-20.9-9.3-34.8-28.6s-34.5-25.9-34.5-25.9"/>
<path class="st6" d="M539.2,518.9c3.8-0.8,32.8-9.3,32.8-9.3s-17.3-3.4-25.8-16s-19-17.3-19-17.3"/>
<path class="st6" d="M524.4,482.9c0,0-2-27.4,40.5-52.8c0,0,33.5,18.6,39.3,23.8s12.6,12.8,19,17.4s18.8,5.6,22.3,15.6
	s16.8,18.3,16.8,18.3"/>
<path class="st6" d="M605.2,290.6c0,0,41,18.4,41.8,70.8v14c0,0,94.4-10.4,96.5-13s13.3-14.8,13.3-14.8l-8.5,15.3l25.5,5
	c0,0,13.4,7.3-5.8,7.5s-36.5,2.1-36.5,2.1s20.4,11.1,17.8,12.6s-24.4-11.3-30.3-10.8s-75,7.3-73.8,8.3s46,28.3,46,28.3
	s-39.3-23.6-60.5-16s-65.8,30.3-65.8,30.3"/>
<path class="st6" d="M471.7,505.1c0,0,18.8-24.1,21-39s12-17.6,16-29.8s7-41.5,7-41.5"/>
<path class="st6" d="M537.2,385.1c0,0-3.8,32.4-5.8,40c0,0-7.8,23.3,5.3,9.3s73.1-32.8,81-41s20-19.3,21-24s-1.9-34.9-14-50.5
	s-23.3-25-23.3-25"/>
<path class="st6" d="M436.9,450c0,0,33.9,13.1,55.8,16.1"/>
<path class="st6" d="M489.4,408.6c0,0,18.6,2.4,24.4,1.3"/>
<path class="st6" d="M533.3,414.3c0,0,16.9,7.3,19.4,9.4"/>
<path class="st6" d="M541.7,382.1c0,0-43.3,8.8-73.3,41.6s-57.8,45.7-57.8,45.7"/>
<path class="st6" d="M371.4,482.9c0,0-10.3-2.8-14,3.8s-11.8,8.8-11.8,8.8"/>
<path class="st6" d="M134.9,586.9c0,0-27.8-1.4-47,23.3S62,631.1,60.6,634.7s-5.4,21.6,6,38.8s1.6,29.9,15,36.5s14.8,13.8,22.8,0
	s19.6-23.3,29.3-25s18.5-9,21.8-9.3s26.3,4,43-20s32.9-53.9,46.8-63.8s21.5-21.5,30.3-28.8s14.4-9.6,17.3-15.3s15.8-18.9,24-19.3
	s41-2.4,46.8,0s48.5,6.7,58.8-1.1s20.1-16.6,26-8.6s20,20.9,24.8,21.3c0,0-15.6-14.5-15.3-21.3c0,0,28.3-2.8,35,0s28,12.4,31.7,16.8
	s6.1,6.2,8.5,14.9s21.8,16.8,21.8,16.8s-8.8-9.6-14.5-25c0,0,23.3,4.5,34.8,4.3s13,6,16,12s8.3,3.5,8.3,3.5s0.3-2.6,10-3.3
	s29.7,30.3,29.7,30.3s-4.9-11.9-8.7-27s-19.1-9.5-28-17s-31.5-11.6-24-14.5s15.1-27.5,15.1-27.5c1.9,6.5-20.7,25.5-24.9,28.5
	s-21.8-0.3-29-2.8s-39.3-16.3-40.8-19.3s32.3-27.3,32.3-27.3s-38.8,21-46.3,24.3s-31.6-6.8-40.3-9s-32,9.8-40,5.3
	s-39.9-1.3-54.3-1.5s-8.5-14.3-8.5-14.3"/>
<path class="st6" d="M189.4,549.6c0,0,37.1-32.6,34.8-40.3s-8.1-40.5-12.5-51.3s-29.5-25.1-30.5-32.3s0-67.1-3-77.1
	s-2.6-49.5-16.8-47.8s3.3-13.5,3.3-13.5s12.4-2.3,14.5,22.5s6.5,24.8,6.5,24.8s10.1-43.3,15.3-58.5s16.8-27.9,17-44.3
	s2.3-43.5,2.3-43.5l-11-37.3l6.5,12l5.8-19.3c0,0-6.8,18.1,6.5,53.3c0,0,19-25.6,15.5-37.3"/>
<path class="st6" d="M366.4,500.9c0,0-0.4-10.5,7.5-23.6s13-37.8,15.5-62.5s3-61.6,8.3-72.8s8.6-27.3,13-32.3s5.3-6.5,8.8-21.3
	s13.8-24,13.8-24s3.8,1.5,3.8,2.8s-3.6,4.9-5.8,14.5s-1.9,19.4-3.8,21.3s9-15.4,16.5-24s10.5-14.5,10.5-14.5s-2,13.8-5.8,20.8
	s-12.4,15-20.3,25.8s-9.8,35.6-9.8,35.6s-0.8,53.5-3.5,65.1s-2.8,17-2.8,17s14.8-27.6,23-34s19.8-25.9,29.4-32s15.6-21.5,16.6-24.5
	s12.3-52.9,8-59.3c0,0,1.9,36.9,1,42c-1,5.1,24.5-24.5,23.5-28.8s-4.9-3.8-4.9-3.8s5.7-7.3,10.2-13.1c2.7-3.5,5-6.4,5.2-6.9"/>
<path class="st6" d="M519.1,275.5c0.2-6-21.5-34.6-21.5-34.6s-24.9-24.1-28.5-36.3s-12.5-15.7-23.8-19s20.2,6.8,20.2,6.8
	s-13.7-33-8.2-48.8c0,0-0.2,12.3,9.3,30s7.4,32.2,14.3,35.9s8.4-33.9,8.4-33.9s-3.5,38.5,1.7,46.7s17.5,14,22.7,21.3
	c0,0,6.6,10.6,13.8,16.5c7.2,5.9,7.9,14.4,3.8,20s-9.8,9.4-8.5,13.8s-9.5,13.4-12.5,18.5s-11.3,15.4-16.8,34.3S475,366.4,475,366.4
	s51.8-2.7,56.8-6c0,0-7.4,10-44.5,13.8s-74,68.8-74,75.9s-9,52.9-9,52.9"/>
<path class="st6" d="M363.4,528.6c0,0-17.9,17.9-17.8,25.8s-3.8,31-3.8,31s8,8.1,2,16.5s-8.8,12.5-8.8,12.5s-2.6,18.6,4,13.5
	s7-24.3,20.3-35.8s35.8-35.8,36-38.2s2.9-9.8,5.8-12.8s3.3-9.4,3.3-9.4"/>
<path class="st6" d="M127.2,597.9c0,0-8.9,29.1,8.3,36.8C135.4,634.6,144.4,613.7,127.2,597.9z"/>
<path class="st6" d="M219.4,498.4c0,0-7.9,3.8-13.5,17s-31.5,58.1-31.5,63s-5.9,12.5-3.8,26.3s4,56.3,4,56.3s-8.3-7-11-3.8
	s-1.4-34.4-3.8-45s-2.5-22-2.5-22s-10.4,9.8-10.8,12.8s-4.3,26-11.3,31.8"/>
<path class="st6" d="M127.2,597.9c0,0,15.6-12.3,18.5-23.8s6.1-12.4,10.2-16.8c4.2-4.4,15.7-16,16.8-23s9.5-22.8,13.8-26.5
	s3-17.6,10.3-21.3s18.9-15.1,18.9-15.1"/>
<path class="st6" d="M212.5,460.3c0,0-28.5,19-41.1,18.3c-12.6-0.8-35.5-17.6-44.2-17.3s-21-3.5-21.3-8s-5.3-37-5.3-37
	s-5.5,18.9-2.8,28s0.5,5.3,0.5,5.3s-12.1-30-18-31.5c0,0,2.3,2.1,3.3,14.8s-0.8,18.8,8.3,24.8s17.4,5.5,33,13.9
	c15.5,8.4,28,14.6,28,14.6s-48-0.5-56,6.5s-33.5,10.1-42.3,53.5c0,0,0.8,10.3-35.5,26.8c0,0,26.4-3.3,30-7.3s8.4-4,16.3-24.3
	s31.6-39.5,56.3-41.5c0,0-34.8,41.9-41.5,44c0,0,33.2-23.3,44.7-39.5c0,0,10.5-3.3,32.3-6s32.1-14.9,39.5-11.8"/>
<path class="st6" d="M418.1,369.6c0,0,17.6,13.7,27.3,14.4"/>
<path class="st6" d="M394.7,353.6c-22.2-8-69.9-39.7-69.9-39.7s-10.3-8.8-21.7-11c-11.3-2.2-17-9.1-17-9.1"/>
<path class="st6" d="M263.7,325.4c0,0,2.8,9,13,11.2s28,10.1,28,10.1l16.1,6.9"/>
<path class="st6" d="M206,298c0,0,5.7,7.9,16.7,12.6s15.5,11.2,18.3,11.3c2.8,0.2,10.3,0,10.3,0"/>
<line class="st6" x1="223" y1="263.3" x2="230.8" y2="268.4"/>
<path class="st6" d="M237.4,272c0,0,6.5,4.6,12.3,7.6s14.4,4,14.4,4"/>
<path class="st6" d="M115.8,217.6c0,0,32.2,1.5,48.6,26c16.3,24.5,32.1,47.6,32.1,47.6"/>
<path class="st6" d="M117.7,209.9c0,0,53.2,26.2,53.3,17.3c0.2-8.8-20.3-29.5-5.3-66.7c15-37.2,8.7-51,8.7-51s7-7.3,7.7,45.7
	c0,0,23.5-14,34.7-14.7c0,0-31,17.3-31.7,28s3.5,54.2,7,61s19.3,24.5,19.3,24.5"/>
<path class="st6" d="M254.4,143.9c0,0,36.2-32.4,47.5-34.3c0,0-39.1,28.6-53.5,73c0,0-2.5,9.3-2.5,16.5c0,0-1.5,1-4.8,3.8
	s-6.6,29-7.3,31s-16.3,46.5-20,48.3c0,0,51.8-44.6,74.3-47.3s25.5-11.8,33.3-16.8s27.8-16.3,27.8-16.3s-17.5,10.4-21.8,17.3
	s-14.3,13.8-31,17.8s-27.3,14.3-27.3,14.3s20-0.5,22.5,1s7.4,5.4,11.3,5c0,0-21.5-1.3-30,0.3c-4.3,0.8-21.5,2.4-25.8,6.5
	c-8.5,8.3-43,32.1-43.5,38s-7,24.3-8.8,55.3s-5.1,41.4-4,47.5c0,0,7.3-25.1,24.5-35.5c0,0,3.8-2.9,17.5-25.5s26.9-25,28.8-32.8
	s3.8-31.5,1.3-43.5c0,0,7.3,28.8,7,32c0,0,29-33.6,29.2-37.3s0.3-3.6,0.3-3.6l6.8,2.1c0,0-3.1,2.3,0.3,5s6.4,7.5,4,9
	s-6.1-1.3-13,7.3s-24.5,23.3-26,30.5s-12.1,18.4-19,25.8s-8.6,15.8-8.6,15.8s9.3-3.4,19.3-2.3s61.3,3.9,67.5,0.8s6.3-3.1,6.3-3.1
	l-3.8,4.6l27.3-1.3c0,0-29.1,7.1-56,7s-47.4-2.9-60.6,1s-16.8,10.3-19.9,16.3s-16,15.3-17,21.5s-9,8.8-5.8,17.5s17.4,19,18.5,25.3
	s4.6,11.6,7.8,16.9s-1.1,14.6,1,18.1s9,16.9,17.8,14.8s33-15.9,48-28.3s16.1-18,40.3-23.5s42.9-17.8,45.5-27.5s6.9-17,9.5-16.8
	s2.6,0.3,2.6,0.3"/>
<path class="st6" d="M867.7,178.6c0,0-2.2,4.8,7,7.3s31.3,9.8,32,5.3s-5.3-1-13-7C886.1,178.3,871.1,171.8,867.7,178.6z"/>
<path class="st6" d="M769.4,270.9c0,0,10.2-15.5,32.3-24.3c22.2-8.8,55.9-29.8,62.9-32.3s27.8-4.8,42.1-23"/>
<path class="st6" d="M741.7,253.3c0,0,6.7-12.8,29-22.2c22.3-9.3,46.5-22.3,47-26.5s13.5-27.8,10-34.7c-3.5-6.8,0.5-28.3-3.3-32.7
	c-3.8-4.3-16.2-9.8-28-18.7s-17.8-16.3-24-7.7c-6.2,8.7,0.9-6.3-6.6-8.3s-20.4,2-24-12.3c-3.7-14.3-10.3-30.5-13.8-32
	s14,11.3,14.8,15.3s4.7,18.8,5.7,13.7c1-5.2,3.7-24.2,4.7-24s-2.2,19.8,5.7,24c7.8,4.2,27.5,19.8,31,15s3.7-16.7,3.7-16.7
	s-4,12.5,3,17.7s19.5,2.2,21,9.7s10.9,15.7,10.9,15.7s-0.2-33.8,0-44s-0.9-24.5,0-22.3s4.1,32,4.1,32s16.5-25.5,26.3-29
	s-22.3,17.5-20.7,40.3c1.7,22.8,2.7,26.8,0,37s-2.3,32.7-2.7,44s-7.7,16.3-7.7,16.3s3.5-0.3,7.3-5s2.7-6.3,7.3-10.7
	c4.7-4.3,25.3-8.7,25.3-8.7"/>
<path class="st6" d="M736.1,260.9c0,0-4.9,19.2-8.6,20.4"/>
<path class="st6" d="M763.4,277.9c0,0-11.7,20-11,23.2s1,12.5-7,20.8s-49.5,35.7-44.3,38.4c5.2,2.8,28.6,4.8,28.6,4.8"/>
<path class="st6" d="M646.9,361.4c0,0,8,1.8,18.8-7.8c10.8-9.5,19-13.2,30-18.7s21.7-33.8,21.7-33.8"/>
<line class="st6" x1="675.4" y1="384" x2="660" y2="396.8"/>
<path class="st6" d="M655.6,400.6c0,0,1,2.3-8.7,8.8s-31.8,20.7-31.8,20.7"/>
<path class="st6" d="M593.3,405.7"/>
<path class="st6" d="M521.7,362.6c0,0-1-11.3,18.7-38.8s31.5-82.9,31.5-82.9s-15.4,81.9-19.2,92.1c0,0,37.9-48.3,50.4-59
	c12.5-10.7,90-82.7,96-88.3s20.2-10.2,20.3-14.7s15.2-22.5,24.3-27.3c0,0-16.5,16.7-19.3,25s-7.3,16.8-14,19.7
	c-6.7,2.8-30.7,20-48.3,40.7c-17.6,20.7-17.3,28.2-25.4,32c0,0,24-7.7,31-7.7s52.6-0.7,59.7-0.2s24.8,0.5,31,7.9
	c6.2,7.4,13.8,17.7,22.7,20.4c8.8,2.8,8.7,12.4,15,13.9s33.7-0.6,33.7-0.6s-27.3,4.6-32.2,3.9c-4.9-0.7-14.2-16-28.2-19
	s-14.6-22-37.6-20s-63.2-1.5-74.4,1.3c-11.2,2.8-34.8,14.3-42.3,20.4s-29.5,25-36.7,35.4s-22.3,27.4-24.3,32.5
	c-2,5.2-6.3,11.1-6.3,11.1H532"/>
<path class="st6" d="M593.3,368.3c0,0,33.6-34.7,37.2-39.5"/>
<path class="st6" d="M590.1,339.6c0,0,22.8-14,26.8-30.2"/>
<path class="st6" d="M633.9,316.7c0,0,2.7-11.3,13-11.1s2.8-35.2-0.1-41"/>
<path class="st6" d="M626.9,274c0,0,5.2,18.7-3.5,30"/>
<path class="st6" d="M620.7,258.1c0,0-8.4-34-10.3-47.5s-18.3-20.3-17.1-29.3c1.1-9,4-19.8,13.7-29.7s25.6-26.2,19-38
	s-19-32.3-30.2-30.7c-11.2,1.7,14.1-15.2,30.2,11s8.8,11.2,12.9,6s4.5-20.5,4.2-25.3s-11.6-27.5-7.3-26c4.3,1.5,14.9,5.2,16.4,15.7
	c1.6,10.5,0.7,26.7-2.8,36.3c0,0,23.5-4,31.3,1s5.3,4,1.4,3.7s-27.1-2.8-33.1,7.3s-44,52.5-39.3,63.1s12.6,18.1,16.2,32.9
	s12.9,32.8,12.9,32.8"/>
<path class="st6" d="M652.7,619.3c0,0-6.2,10.2-27.3,17.7s-51,18.3-59.3,25s-37.6,25.1-50.1,32.9s-16.8,12.1-50.6,18.2
	s-21.5,18-47.7,11.8"/>
<path class="st6" d="M401.1,721.1c0,0-22.8-6.2-25.3-5.6"/>
<path class="st6" d="M318.7,726.7c0,0-7.8,40.1,0,42.9C326.6,772.4,324.6,734.4,318.7,726.7z"/>
<path class="st6" d="M512.7,528.2c0,0-4.1,2.6-14.3,4.7s-31.3,17.6-33.6,18.8s-12,16.2-27.9,29.3c-15.8,13.2-19.3,21.8-22.2,31
	c-2.8,9.2-22.7,23.7-22.7,23.7s-19.1,27.8-22.5,37.4c-3.4,9.5-19.1,20.6-26.5,25.3c-7.3,4.7-13.5-15.7-13.7-44.3
	c-0.2-28.7,33-34.7,33-34.7s-37,5-42.8,33.7s10.2,60.2,10.2,60.2l-11,13.6"/>
<path class="st6" d="M318.7,769.6c0,0,19-12.5,28.3-25s14.3-7.2,19.3-15.3c5-8.2,11-25,17.7-26.3s12.2-5,13.3,2.3
	c1.2,7.3-1.7,32.9,9.3,26.3s16.7-20,19.7-21s-14.5,14.1-15.8,10.5s0.8-23.3-3.9-26.2c-4.7-2.9-8.3-3.8-5.7-10.9
	c2.7-7.2,15.3-14.2,16.7-25c1.3-10.8,5-20.3,14-23.3s18-11.7,15.3-16.3c-2.7-4.7-7.5-8.7-1.7-15.3c5.8-6.7,12.1-13.7,19.4-18.7
	s6.9-8.3,6.9-8.3s16.3-10.2,21-13c4.8-2.8,9.1-9.8,15.8-13c6.7-3.2,22-7.2,22-7.2"/>
<path class="st6" d="M594.2,562.1c0,0-17.2,11.2-20.2,11.2"/>
<path class="st6" d="M557.4,578.7c0,0-12.3,2.3-15.8,7.3"/>
<path class="st6" d="M343.1,698.3c0,0-5.7-56.2,35.3-64c0,0,9.8,1.4,16.4-0.8"/>
<path class="st6" d="M436.9,633.3c0,0,17.3,2.2,21.8-1.7"/>
<path class="st6" d="M483.9,616.9c0,0,10-9.2,15.2-9"/>
<path class="st6" d="M638.8,630.9c0,0,36.6,14.7,45.3,21.5s31.6,3.3,32.8,4.3c1.1,1,8.3,3.3,2.5,9.4s-7.8,8.9-0.8,14
	s45.7,27.8,45.2,35.4s13.1,41.9,4.5,41.9s-16.3-2.7-34.5-30.7S631,661.4,631,661.4l-26.3-11.6l-6.6-2.9"/>
<path class="st6" d="M587.2,651.3c0,0-14.8,62.6-23.8,60.6s-21.4-3-18.5,1.3s11.1,14.9,4.6,20.3S516.8,747,516,749.8
	s-8.7,20.9,3.4,31.5c0,0,17.4-3.4,36.3-25.3s28.3-29.2,28.3-29.2"/>
<path class="st6" d="M607.1,650.7c0,0-6.7,23.1-3,22.3c3.7-0.9,15.9-1.2,11.5,1.6c-4.4,2.9-10.8,5.8-13.9,14.8s-9,26.1-9,26.1"/>
<line class="st6" x1="512.7" y1="718.8" x2="517.1" y2="719.8"/>
<line class="st6" x1="535.2" y1="724.6" x2="552" y2="728.1"/>
<line class="st6" x1="528.9" y1="686.7" x2="577.7" y2="685.4"/>
<path class="st6" d="M601.7,689.4c0,0,18.3,7.4,26.5,16.6c8.3,9.2,40.6,33.4,47,32.2s5.2-7.2,9.7-6.2s5.6,8.5,4.1,12
	s-4.3,8.4-1.8,11.3s-0.6,9,7.8,18.1s25.9,13.1,31,11.4s-6.1,17-10.3,17.8s-28.9,3.1-32-12s-7.4-35.7-14.8-39.7s-25.2-14.3-25.2-14.3
	"/>
<path class="st7" d="M792.1,917.6l4.7,2.3v10.7h-28.4c-12.5-11.2,5-58.7,5-58.7s-10,0.3-4-19.7s22.5-75.7,26-79.7s1.8-8.3-2-10.7
	c-3.8-2.3-15.7-6.3-15.7-6.3s8.2-11.3,22-8.7"/>
<path class="st7" d="M498.1,844.3c0,0,2.2,16.8,3.3,13"/>
<path class="st7" d="M773.4,871.9c0,0,18.6,8,26.8,2c0,0-0.5,6.8,0,8.3s35.2,24.5,51.5,25s35.8,2.3,37,10.7
	c1.2,8.3-39.1,11.2-44.4,12.7s-20.6,0-20.6,0L811,919.9h-14.3"/>
<path class="st7" d="M501.4,811.3c0,0-5.8,4.7-11,4.7s-24.5,0.2-28.3,2.7s-13,11.5-12.3,18s0,10.3,0,10.3s11.5-1.2,12.4,1.3
	c0.8,2.5-3,65.2,6.3,65.7s58.2,2.8,56.3-1.7c-1.8-4.5-31.3-11.8-32-13.3s-2.5-44.4-0.3-47.9s2.2-9.9,9-10.8c6.8-0.8,4.5-1.7,4.5-1.7
	"/>
<path class="st7" d="M945.7,496.3c-5.3-19.5-24.3-29-24.3-29s-25.8-19.8-50.3-1.3s-41.8,33.2-31.7,63c0,0,4.2,6.8,13.3,8
	c0,0,0.2-15.2,4.3-16c4.2-0.8,7,36.2,13.7,37.7s10.7-8.8,10.7-8.8l8,3.5"/>
<path class="st7" d="M855.1,603.3c0,0,24.2-20,43.3-11s31.3,13,33.3,4.3s5.3-13.2,6-14.7s-4.8-18.5,1.7-20.3s31-6.8,31-14
	s-15-8.5-19.3-18.3s-4.2-26.2-2.7-27.7c4.8-4.5,1.7-5.3,1.7-5.3c-14.3,2.2-24.3,19.7-24.3,19.7s2,6.3,6,1.3c0,0,6.7-9.7,11.7-12.7"
	/>
<path class="st7" d="M899.7,581.9c0,0-6,5.3-4-28.7"/>
<path class="st7" d="M914.7,567.8c0,0,4.5,10,10.3,8.2s8.5-2.9,11.5-2.4"/>
<path class="st7" d="M939.4,525.3V537C939.4,536.9,945.9,530.3,939.4,525.3z"/>
<path class="st7" d="M942.3,549.8c0,0-1.7,11.6,3.4,10.2"/>
<path class="st7" d="M925.7,469.9c0,0-26.4-3.4-32.6,10.1s-2.7,23.7-2.7,23.7l4.9-17.1c0,0,15.3,8.9,12.2,32.7l-3.5-1.7
	c0,0-16.7-19.8-16.7-2c0,12.5-0.9,31.2,2,37.7c1.3,2.8,3.2,3.3,6.3,0c0,0,4.5-4.7,4.3-10.7"/>
<path class="st7" d="M839.4,528.9c-6,7-21.2,4.7-21.2,4.7s46.8,11.6,35.1,64"/>
<path class="st7" d="M496.2,731.4c0,0-12.9,2.3-12.3-7.8s1.3-12.3,1.3-12.3s5.6,0.9,9-3S496.2,731.4,496.2,731.4z"/>
<path class="st7" d="M494.2,708.4l11.5-7c0,0,7.5,7.3,7,18.4s-8.6,23.7-16.5,11.6"/>
<path class="st7" d="M538.9,733.9c0,0-5,0.1-5-2.3c0-2.3,0-30.2,0-30.2s-11.6-13.8-13.3-1.3s-8.5,35.3-1.8,37.8s18.5,3.1,21.8,0
	S538.9,733.9,538.9,733.9z"/>
<path class="st7" d="M595.7,713.1c0,0-4.4,4.6-2.6,16.5s3.6,20.6,7.1,21s15.3-4.1,15.3-4.1s1-4.1-1.8-7.9s-7.8-3.5-7.8-3.5
	s-0.8-18.5-5.5-20.3S595.7,713.1,595.7,713.1z"/>
<path class="st7" d="M610.4,717.4c0,0,3.9,34.7,6.8,35.4s14-6.3,14-6.3s-1.9-9.3-3.8-8.9s-1.9,0.4-1.9,0.4S620.7,708.5,610.4,717.4z
	"/>
<path class="st7" d="M580.1,784.6c0,0-19.3,6.2-32,12.3c-12.7,6.2-22.2,5.3-26.7,5.3s-20,9-20,9c12.3,9.7,0,46,0,46s9.2-4.8,13-8.3
	s5.7,0,8.7-2.7s16-7.7,16-7.7s16.8-2.6,22-7.3c5.2-4.7,35.2-9.3,39.7-10.3s19.5-6.2,20-22s21-42.3,21-42.3c-1.8-4.3-6.2-3.3-8.1-3.7
	s-5.5-20.1-6-26.8s3.5-4.8,3.5-4.8s9.4-0.1,17,28.3c0,0,12.9-1.1,12.8,7.8c0,0-11.1,2.9-19.2-0.8"/>
<path class="st7" d="M596.7,746.5c0,0-8.6,3.7-10.1,0s-3.8-20.8-1.9-23.4s4.8-8.9,8.4-7.4"/>
<path class="st7" d="M793.1,877.3c0,0,10-3.7,15.3-9.3c5.3-5.7,13-48,14.7-50.7s5.7-17.3,17.3-36.7s7-33.7,5.3-40
	s-57.3-34.7-57.3-34.7c-3.1,5.3-20,16.2-20,16.2s5.1,9.4,8.3,14.2s1.1,19.3,1.1,19.3"/>
<path class="st7" d="M594.2,747.4l-1.2,2.2c0,0-6.2,31.2-13,35c0,0,2.8,3,2.3,7s-2.3,7.3-2.3,7.3"/>
<path class="st7" d="M781.8,531c0,0,24.5-2.5,36.4,2.6"/>
</svg>
