<?xml version="1.0" encoding="utf-8"?>
<!-- Generator: Adobe Illustrator 22.1.0, SVG Export Plug-In . SVG Version: 6.00 Build 0)  -->
<svg version="1.1" id="Layer_1" xmlns="http://www.w3.org/2000/svg" xmlns:xlink="http://www.w3.org/1999/xlink" x="0px" y="0px"
	 viewBox="0 0 2160 438.1" style="enable-background:new 0 0 2160 438.1;" xml:space="preserve">
<style type="text/css">
	.st0{fill:#4AA852;}
	.st1{fill:#2F8B43;}
	.st2{fill:#EF414E;}
	.st3{fill:#A5A4A4;}
	.st4{fill:#593036;}
	.st5{fill:#2F8B43;stroke:#000000;stroke-width:5;stroke-miterlimit:10;}
	.st6{fill:none;stroke:#000000;stroke-width:2;stroke-miterlimit:10;}
	.st7{fill:none;stroke:#000000;stroke-width:4;stroke-miterlimit:10;}
	.st8{fill:#4AA852;stroke:#000000;stroke-width:5;stroke-miterlimit:10;}
	.st9{fill:none;stroke:#000000;stroke-width:5;stroke-miterlimit:10;}
</style>
<path class="st0" d="M1729.8,218.6l-13,1.3l-11.4,3H1690l-20.3,4.3l-4.8-3.6c0,0-5.5-145.1-25.6-150.1c-20.1-5,42.4-2.1,42.4-2.1
	l31.9,6.6l77.8,3.6l22.3-3.5l17,7l31.1-20.7l-10.9,17.4l28.8,4l82.8,1.2l17.4,1.6l44.4-7.7l20,3.1l10.5-7.1l57.5-5.1l17.3,2.8
	l19.4,1.1l-3,158.3l-107.6-10.1c0,0-32.2-0.6-49.7,2.2s-25.4,0-25.4,0s-10.1-8.6-26.8-2.9c-16.7,5.7-60.5,2.3-60.5,2.3l-87.5-4.9
	l-5.1-14.9l-3.4-5.3l-6.5,5.7v3.3l-7.2-3.7l-6.5,5.4l-4.8-5.4l-4.1,5.2l-1.6,8.8l-3.4,1.5l-10.3-8.9l-2.3,7.8L1729.8,218.6z"/>
<path class="st0" d="M2026.1,304.5"/>
<path class="st1" d="M1664.9,223.7l-7-91.8c0,0-10-55.4-18.6-58.2c-8.6-2.8-25.9,3-35.6,22.1s-29.7,84.3-29.7,84.3l2.9,7.1h21.1
	l17.2,11.5l24,17.1L1664.9,223.7z"/>
<path class="st1" d="M1900.8,43c0,0-8.2,13.8-3.6,19.2c4.6,5.5,6.3,6.8,6.3,6.8l1.9-10.6l-2.6-11.3"/>
<path class="st1" d="M1867.1,48.3c0,0-0.7-17.7-18-18C1849.2,30.3,1839.2,54.5,1867.1,48.3z"/>
<polygon class="st2" points="1855.2,225.4 1843.1,256.3 1834.8,273.1 1829.2,287.9 1804.1,300.7 1794.5,307.2 1787.2,320.8 
	1769.8,331.8 1753.2,305.6 1778.4,292.1 1784.8,276.3 1801.4,268.1 1815.9,244.6 1821.2,223.7 1849.1,221.8 "/>
<path class="st2" d="M1947.6,345.6l17.4-5.3l15-8.5l-1.8-15.3l-9.2-16c0,0-8.3-3.6-11.1-11.8c-2.8-8.2-19.4-32.3-19.4-32.3
	s-12.2-18.5-13.4-21.9c-1.1-3.4-2.4-7.2-2.4-7.2l-33.3-0.7l-9.7,0.7l4.7,10.5l11.6,10.5l5.1,16.5l10.1,7.6l6.9,12.3l6.4,6.3
	l8.4,18.2l14.4,5.1l0.3,26.6"/>
<polygon class="st2" points="1754.8,314.8 1766.4,331.8 1782.4,312.7 "/>
<polygon class="st3" points="1257.4,269.5 1210.5,281.3 1208.9,291 1229.4,291.2 1230.9,297.6 1266.1,292.6 1280.4,294.3 
	1318.5,279.5 "/>
<path class="st4" d="M1117.7,317.9l2.3,5.3l14,3.2l10.2-3.1l19.8-1.1l50-24.8l14.3,0.9l1.3-7l-14.6-1.7l-24.4,10.5
	c0,0-52.8,13.3-62.5,14.2C1118.4,315.2,1117.7,317.9,1117.7,317.9z"/>
<polygon class="st0" points="772.4,246.8 755.7,286.5 795.4,325 836.4,313.6 858.4,286.5 814.4,256.6 "/>
<polygon class="st5" points="826.4,180.5 704.4,189.8 704.4,198.8 815.3,194.5 849.1,187.8 861,186.2 862.4,180.5 "/>
<path class="st6" d="M1900.8,43c0,0,0,0-4.3,9.1s7,17,7,17c6.9-17.7-7.3-32.5-7.3-32.5c-9.8,1.9-17.8,7.9-23.3,13.3
	c-1.9,1.9-3.6,3.7-4.9,5.3c-2.5,3-3.8,5.1-3.8,5.1s4.5-8.3,3.4-10.6c-0.2-0.4-0.6-0.7-1.2-0.6c-4,0.3-26.6,3.8-17.3-18.8
	c0,0,15.3,1.7,17.6,14.2l0.4,3.8"/>
<path class="st6" d="M1656.4,223c0,0-4-139.5-29.8-130.9s-47.8,94.9-47.8,94.9"/>
<path class="st6" d="M1584.4,187.1c0,0,15.3-59.1,34.7-55c19.4,4.1,22.7,65.9,18.8,80.5"/>
<path class="st6" d="M1593.8,187.3c0,0,8.5-33.8,18.2-36.8s22.1-0.9,17.4,59.1"/>
<path class="st6" d="M1599.8,188.1c0,0,5.5-19.1,16.8-14.3s5.5,30.1,5.5,30.1"/>
<path class="st6" d="M1604.8,190.1c0,0,12-10.7,10.5,8.5"/>
<path class="st6" d="M1600.4,125.5c0,0,49-80.4,47.5,94.4"/>
<polyline class="st6" points="1592.8,118.1 1608.8,192.8 1603.8,95.7 "/>
<line class="st6" x1="1576.9" y1="169.4" x2="1607.5" y2="190.5"/>
<polyline class="st6" points="1620.1,77.3 1608.8,192.8 1584.4,146.1 "/>
<polyline class="st6" points="1648.9,93.5 1608.8,192.8 1634.2,74.1 "/>
<polyline class="st6" points="1661,158.6 1608.8,192.8 1656.8,124.3 "/>
<polyline class="st6" points="1662.6,196.1 1608.8,192.8 1662.6,179.7 "/>
<line class="st6" x1="1664.9" y1="212.5" x2="1608.8" y2="192.8"/>
<path class="st7" d="M1116.7,320.1c0,0,5.4,7.8,17.3,6.3C1145.9,324.9,1121.7,313.2,1116.7,320.1z"/>
<path class="st7" d="M1136.7,325.4c0,0,8.2-3.4,17.4-3.2s28-9.5,32.8-11.1c4.8-1.6,27-13.8,27-13.8s3-2.1-2-6.3c0,0-0.7,0.7-2.4,1.8
	c-3.1,2.1-9.4,5.5-20.6,7.9c-17.3,3.8-32.5,10.1-42.3,10.3s-26.1,2.5-30,9"/>
<path class="st7" d="M1211.6,298.5c2,0.5,9.2,0,17.5-0.8c14-1.3,31-3.5,31-3.5s10.1-1.1,10.6-1.1"/>
<path class="st7" d="M1229.1,297.8c2.6-1.4,2-4.7,2-4.7c-0.1-4.5-19.3-2-19.3-2s3.6,18.8-2.4,1.8c-3-8.5-1-12,4-12.5
	s13.1,1.8,22.3,5.2c18.5,6.6,44.5,8.8,44.5,8.8s36.4-14.9,41.3-15.7c4.9-0.8-65.8-9.5-67.7-7.7c0,0-41.1,8.2-42.4,9.4"/>
<path class="st6" d="M1179.7,333c0,0-30.6,0.6-23-1.8C1164.3,328.7,1186.5,316.8,1179.7,333z"/>
<path class="st6" d="M1090.4,296l-29-1.5c0,0,22.9-12.1,25.7-7.3S1090.4,296,1090.4,296z"/>
<path class="st6" d="M1098.4,307.3h30.8c0,0-18.3-11.6-24-8.6S1096.2,304.1,1098.4,307.3z"/>
<path class="st6" d="M1144.1,296h-44.3c0,0,7.1-7.9,16-9C1124.7,285.9,1143.4,285.9,1144.1,296z"/>
<path class="st6" d="M1155.5,293.2c0,0-0.4,7.7,8.7,6.7s19.9-2.2,16.8-4C1177.8,294.1,1156,284.3,1155.5,293.2z"/>
<path class="st6" d="M1084.1,309.5c0,0,11.5,10.6-5.2,9.5c-16.7-1.1-21-1.8-21-1.8s18.5-7.7,22.3-7.7
	C1084.1,309.5,1084.1,309.5,1084.1,309.5z"/>
<path class="st6" d="M1109.1,280.1c0,0-6.9,5.8-15.3,5.9c-8.4,0.1-13.3-4.5-6.7-5.9S1108.7,274.6,1109.1,280.1z"/>
<path class="st6" d="M1155.5,274.6c0,0-19-8.1-20.3-3.9s-1.2,11.6,11,7.8C1158.4,274.6,1155.5,274.6,1155.5,274.6z"/>
<path class="st6" d="M1055.2,289.5c0,0-26.7,0.9-24.2-3S1064.7,274.3,1055.2,289.5z"/>
<path class="st6" d="M1029.9,308.2c0,0,33.5,1.8,28-3.2C1052.4,299.9,1020.2,295.3,1029.9,308.2z"/>
<path class="st6" d="M1033.6,322.2c0,0-6.2,6.7,7.3,6.6s33.3,4.2,24.7-1.5C1057,321.6,1037.7,316.4,1033.6,322.2z"/>
<path class="st6" d="M1183.6,276.3c0,0-25.7,0.6-25.5,6.2s20.1,4.7,22.9,0C1183.8,277.8,1185.1,277.2,1183.6,276.3z"/>
<path class="st6" d="M1026.4,293.2c0,0-14.6,1.7-9.2,2.7c5.4,1.1,28.5-2.7,18.8-2.7C1026.4,293.2,1026.4,293.2,1026.4,293.2z"/>
<path class="st8" d="M687.5,247.8c0.3-4.8,0.8-16.3,0.8-19.8s3.3-9.9,0.8-13.5s-1.5-18-1.5-18s124.3,2.3,145-4.8s37.6-4.4,36.5-9
	c0,0,3.4,12.3,0,14.5s-8.9,1.9-7.8,12.3s5.2,30.3,4.6,45c-0.6,14.7,1.8,18.9,11.7,22.8s43.5,13.5,59,18.9s29.4,7.1,23,10.1
	s-51.3-0.4-52,0s-12.6-0.5-27.5-10.1s-12.6-4.7-12.6-4.7"/>
<path class="st8" d="M696.4,240.8c0,0-14.9,20.8-22.5,24.8s-42.3,20.3-54.5,34.5s-20.3,20.6-9.5,16.3s10.4-10.5,28.3-7.8
	s28-6.1,29-6s29.5-7.3,43-3.3s13.1,17.2,25,18.4c11.9,1.1,19.8,5.1,30,10.6s2.3-6.6,15.3,5.3s15.8,32.3,30,35.3s31.9,13.1,31,7.8
	s-9.1-11.5-10.8-21.8s-15.8-19.3-19.8-26.5c-1.1-2.1-2.3-5.6-3.3-9.9c-2.4-10.8-3.4-26.4,1.3-35.9"/>
<path class="st8" d="M861.2,280.7c0,0,5.9,5.1,9.5,20.8s19.6,12.9,26.8,19.3s5,4.6,14.8,17.8s15.5,13,17,19.3s8.5,7.6,2.3,9.8
	c0,0-4.1-3.1-16-5.5s-14.5-15.6-27.8-18.5s-21.6-4.1-28-8.3s-17.1-13.6-29.5-13.5s-23.3-6.5-22.5-3.4"/>
<path class="st5" d="M869.2,182.8c5.4-13-65.3-9.5-65.3-9.5s-61.4-7.6-80.8,2s-40.5,11.1-35.5,21.3"/>
<path class="st6" d="M914.5,289.1c0,0,8.6-21.8-9.8-32.5c0,0,20.4,8.1,20.8,34.7"/>
<path class="st6" d="M953.9,322.2c0,0-2.9-45.6,19.5-54.1c0,0-23.5,20.9-8.5,62.3"/>
<path class="st6" d="M932.2,336.1c0,0,10.6-25.3-4.8-28.9c0,0,10.4-7,16.3,17.9"/>
<path class="st6" d="M852.9,375.1c0,0,12.3-35.4-16.5-46c0,0,22.3-4.5,29.8,36.5"/>
<path class="st6" d="M610.3,310.2c0,0-15.4-45.2,10.8-61.9c0,0-22.5,29.4-1.8,51.8"/>
<path class="st6" d="M636.4,286.3c0,0,5.2-17.3-15.2-20.2c0,0,15.6-4.9,23.3,14.7"/>
<path class="st6" d="M595.2,336.1c0,0,22.3-38.1-6.3-44.8c0,0,18.1-2.6,23,37.7"/>
<path class="st6" d="M641.2,341.8c0,0-3.1-20.9,7.3-26.3c0,0-6.4,22.7,2.3,36.4"/>
<path class="st6" d="M719.9,353.1c0.3-1.5,17.4-34.4-7-41.3c0,0,17-1.4,18.8,27.5"/>
<path class="st7" d="M1735.8,232.1c0,0-3.9-20.5,0-19.5c3.9,1,11.3,7.4,10.3,17.3S1735.8,232.1,1735.8,232.1z"/>
<path class="st7" d="M1751.2,231.8c0,0-0.8-21.3,1.3-22.8s3.6-6.8,8,3.5c0.4,1,0.8,2,1.1,2.9c2.9,8.7,1.4,14.6,1.4,14.6
	S1758,236.7,1751.2,231.8z"/>
<path class="st7" d="M1762.9,230.1c0,0,6.9,6.3,12.3-1l-1.5-14.5c0,0-9.5-19.9-12.1,0.9"/>
<path class="st7" d="M1773.8,214.6c0,0-0.4-5.8,1.5-8.6c1.9-2.8,4.5-11.3,9,1.8l2.5,17.6c0,0-1.9,8.9-11.5,3.6"/>
<path class="st7" d="M1821.4,223c0,0-4.9,14.8-4.8,19.1c0.1,4.3-13,19.8-14.3,24.3s-16.1,5.9-19.8,12.5c-3.7,6.6,0.7,11.9-9,14.8
	s-20.8,10.3-20.5,12s10.8,28.3,16.5,26.3s9.3-8,15.3-9.5s3.4-15.6,19-21.5c15.6-5.9,25.8-12.3,26.3-14s0.5-12.5,4.8-18
	s8.6-12.8,12.5-21c3.9-8.2,7.8-24.8,7.8-24.8"/>
<path class="st7" d="M1879.9,227.3c0,0-2.4,6.6,11,16c13.4,9.4,4.4,21.6,15,25.8c10.6,4.2,8.4,14.5,15.5,19c7.1,4.5,9.5,21,13,23
	s17.4-2,15,12.8c-2.4,14.8-4,24.9,4.8,21s27.4-10,25.8-15.8c-1.6-5.8,1.5-16.5-11.3-26.5s-11-19.4-15.3-25.1
	c-4.3-5.8-4.4-8.3-11.5-16.9c-7.1-8.6-14-17.8-14-17.8l-5.4-16.3"/>
<path class="st7" d="M1755.9,312.7c0,0-2.9,7.5-11,8.6c-8.1,1.1-20.8,13.6-17.8,19s16.6,3,21,8.5c4.4,5.5,6.5,21.3,9,26.3
	s4.4,7.6,15,9.8c10.6,2.2,23.9,0.8,24-1.5c0.1-2.3-1-6.3-9.5-8.3s-18.5-12.4-20-21.8s-5.5-8.4-5.1-12c0.4-3.6-0.7-9.6,4.2-11.3"/>
<path class="st7" d="M1960.2,342.3c0,0,9.3,9.3,9,14.8s-5.3,32,14,27.8s20-7.3,27.8-4.8s34.8,3.4,49.5-10.3s0.9-11.9-8.5-10
	c-9.4,1.9-44.8,1.8-47-0.8s-23.3-8.8-29-24.2"/>
<path class="st9" d="M1574.1,182.8c0,0,19-102.7,54.7-109s35.3,149.3,35.3,151.3s-24.7-7.3-37.3-17.3c-12.7-10-22.7-20-36.7-19.3
	C1576.1,189.1,1574.1,182.8,1574.1,182.8z"/>
<path class="st9" d="M1733.4,220.3c0,0-10.9-3.8-17.3,0c-6.4,3.8-19.5,3.8-19.5,3.8s-12.5-3-18.8,1.4s-13.8-0.3-13.8-0.3"/>
<path class="st9" d="M1631.2,73.6c0,0,55.2-4.8,67.6,0c12.4,4.8,19.8,6.2,36.2,5.9s41.1,2.3,45.5,2c4.4-0.3,25.1-5,33.3-3.3
	c8.2,1.7,16.9,10.1,23.3,6.3c6.4-3.8,29-24.3,29-24.3s-23.9,23-11.5,24c12.4,1,40.5,2.5,40.5,2.5s56.4-3,66.3,0
	c9.9,3,23.1,2.6,31.8,0c8.7-2.6,27.5-8.8,42.8-3.8s14.3-5.3,20.8-6.3s54.8-6.6,59.5-4s31.8,3,31.8,3l-1.6,158.7
	c0,0-19.3,0.3-38.7-3.3c-19.3-3.7-90.3-10.1-100.7-5.7c-10.3,4.4-41.3,3.8-41.3,3.8s-5.3-12.5-30-5.3s-62.7,1.5-62.7,1.5
	s-9.7-3.2-31.3-3.7s-50.7,0-50.7,0l-3.8-1.4"/>
</svg>
