<?xml version="1.0" encoding="utf-8"?>
<!-- Generator: Adobe Illustrator 22.1.0, SVG Export Plug-In . SVG Version: 6.00 Build 0)  -->
<svg version="1.1" id="Layer_1" xmlns="http://www.w3.org/2000/svg" xmlns:xlink="http://www.w3.org/1999/xlink" x="0px" y="0px"
	 viewBox="0 0 72 72" style="enable-background:new 0 0 72 72;" xml:space="preserve">
<style type="text/css">
	.st0{fill:#FFFFFF;}
</style>
<path d="M38.7,22.4c-0.1-0.4-0.3-0.8-0.2-1.2c0.2-1.2-0.5-2.1-0.8-3.1c-0.1-0.3-0.2-0.7-0.3-1c-0.6-1.2-1.5-2-2.6-2.6
	c-0.1-0.1-0.3-0.1-0.4-0.1c-0.2,0.1-0.5,0.2-0.7,0.4c0.2,0.2,0.4,0.4,0.6,0.4c0.8,0,1.1,0.7,1.7,0.9c0,0,0,0.2,0,0.3
	c-0.3-0.2-0.5-0.4-0.7-0.5s-0.5,0-0.7,0.2c-1.2-0.7-2.5-0.1-3.7-0.1c-0.2,0-0.5,0.2-0.6,0.4c-0.7,0.8-1.6,1.3-2.6,1.8
	s-1.7,1.4-2,2.5c-0.2,0.7-0.6,1.5-1,2.1c-0.5,0.9-1.1,1.7-1.7,2.5s-0.6,1.7-0.9,2.5c-0.2,0.7-0.3,1.5-0.6,2.2
	c-0.5,1.4-1,2.8-1.5,4.1c0,0.1-0.3,0.2-0.4,0.3c-0.5,0-0.6,0.2-0.4,0.6c0.5,1.4,1.1,2.7,1.6,4.1c0.1,0.2-0.2,0.5-0.3,0.8
	c0.9,0.7,1.9,0.6,2.5-0.4c0.3-0.4,0.6-0.1,0.7,0c0.3,1,1.2,0.9,1.9,0.9c0.4,0,0.8,0,1.1,0c0.8,0,1.5,0.2,2.1,0.6
	c0.7,0.5,1.4,1.1,2.4,1.2c0.5,0,0.7,0,0.7-0.6c0-0.2,0.2-0.4,0.3-0.6c0.1,0.2,0.4,0.3,0.4,0.5c0.2,0.8,0.4,1.5,0.6,2.3
	c0,0.1,0,0.2,0,0.3c-0.3,0.8-0.2,1.6,0,2.3c0.3,1,1,1.1,1.8,0.5c0.3-0.3,0.6-0.6,0.9-0.9c0.4-0.3,0.8-0.6,1.2-0.9
	c0.5-0.3,0.9-0.7,1.4-1c0.8-0.6,1.7-1.1,2.5-1.7c0.2-0.2,0.4-0.4,0.7-0.6c0,0.2,0,0.4-0.1,0.5c-0.2,0.3-0.5,0.5-0.8,0.7
	c-0.5,0.4-0.6,1-0.1,1.5c0.5,0.6,1.1,1.1,0.7,2c-0.1,0.1-0.1,0.3-0.2,0.3c-0.9,0.5-1,1.3-1.2,2.2c-0.1,0.8-0.3,1.5-0.4,2.3
	c-0.1,0.6,0,1.1-0.1,1.7c0,0.3,0,0.6,0,0.9c-0.1,0-0.1,0-0.2,0.1c-0.1-0.3-0.3-0.6-0.4-1c-0.1-1.3,0-2.5,0.6-3.7
	c0.1-0.2,0.1-0.4,0.1-0.6c0-0.9,0.2-1.8,0.8-2.5c0.5-0.6,0.1-1.5-0.7-1.7c-0.7-0.1-1.3,0-1.8,0.5c-0.3,0.3-0.6,0.5-0.9,0.8
	c-0.2,0.2-0.4,0.6-0.4,0.9c-0.1,1.1,0,1.1-0.7,1.8c0.1-0.2,0.2-0.5,0.2-0.7S36,47.3,36,47.1c-0.2,0.1-0.4,0.1-0.6,0.2
	c-0.3,0.1-0.7,0.3-1,0.4c-0.2,0.1-0.4,0.3-0.6,0.5c-0.1,0.1-0.2,0.3-0.3,0.3s-0.3-0.2-0.4-0.3c-0.2-0.9-0.4-1.9-0.5-2.8
	c-0.1-0.5,0-1.1-0.1-1.6c0-0.1-0.1-0.3-0.2-0.3c-0.7-0.2-1.4-0.5-2-0.7c-0.3-0.1-0.7-0.2-0.9-0.4C29.3,42,29,42,28.6,42.1
	c-0.6,0.1-1.2,0.1-1.9,0.1c0-0.1,0-0.2,0-0.2c0.2,0,0.5,0,0.7-0.1s0.4-0.3,0.5-0.5c-0.2-0.2-0.3-0.4-0.5-0.4c-0.6,0-1.1,0.1-1.7,0.1
	c-0.4,0-0.9,0-1.3,0c-0.3,0-0.7,0-1,0c-0.4,0-0.8,0-1.2,0c-0.2,0-0.4-0.1-0.7-0.2c-0.4-0.1-0.9-0.2-1.3-0.4
	c-1.4-0.6-2.8-0.1-4.1,0.4c-0.1,0-0.2,0.2-0.2,0.3s0.1,0.3,0.2,0.4c1.9,0.6,3.9,1.1,5.9,0.7c0.7-0.2,1.5-0.3,2.3-0.3
	c0.6,0,1.1,0.3,1.8,0.4c-0.7,0.1-1.3,0.3-1.9,0.4C23.1,42.9,22,43,21,43c-0.9,0-1.9,0-2.8-0.1c-0.6-0.1-1.1-0.4-1.6-0.6
	c-0.9-0.3-1.1-0.1-0.9,0.9c0.2,1.2,0.4,2.4,0.5,3.5c0,0.3-0.1,0.7-0.1,1.1c0,0.2,0,0.4-0.1,0.8c0.4-0.2,0.7-0.3,1-0.5s0.6-0.3,1-0.5
	s0.6-0.5,0.6-1c0-0.3,0-0.7,0.1-1c0-0.1,0.2-0.2,0.4-0.3c0.1,0.1,0.2,0.3,0.2,0.4c-0.1,0.9-0.2,1.7-1.2,2.1
	c-0.7,0.3-1.2,0.9-1.8,1.4c-0.1,0.1-0.2,0.3-0.1,0.4c0.3,0.5-0.1,0.7-0.4,0.9c-0.2,0.1-0.3,0.3-0.4,0.5c-0.2,1.3-1.1,2.2-1.6,3.3
	c-0.1,0.2-0.4,0.2-0.6,0.4c-0.2,0.2-0.4,0.5-0.5,0.7c-0.2,0.8-0.4,1.6-0.5,2.4c0,0.2,0,0.5,0.1,0.7c0.2-0.1,0.5-0.1,0.7-0.2
	c0.5-0.5,0.9-1.2,1.4-1.7c0.4-0.5,1-0.9,1.3-1.5c0-0.1,0.3,0,0.5-0.1c0,0.2,0.1,0.5,0,0.7c-0.5,0.8-1,1.5-1.5,2.3
	c0.2,0.1,0.3,0.2,0.6,0.4c-0.5,0.3-0.9,0.6-1.4,1c-0.1,0.1-0.2,0.3-0.3,0.4c-0.2,0.6-0.3,1.2-0.6,1.8c0-0.3-0.1-0.6,0-0.9
	c0.2-0.6,0.4-1.1,0.6-1.6c0.1-0.2-0.1-0.4-0.1-0.6c-0.2,0.1-0.5,0.2-0.6,0.3c-0.7,1.1-1.3,2.2-1.3,3.6c0,0.2-0.2,0.3-0.4,0.5
	c-0.1-0.1-0.2-0.3-0.4-0.4c-0.2-0.1-0.4-0.4-0.6-0.4c-1,0-1.7,0.6-2.1,1.5c-0.3,0.4-0.5,0.8-1.1,1c-0.5-0.6-0.2-1.1-0.1-1.7
	c0.1-0.7,0.4-1.4,0.5-2.1c0.2-1.6,0.3-3.2,0.4-4.8c-0.1,0-0.1-0.1-0.2-0.1C7.4,56,7.1,56,7,56.2c-0.4,0.7-0.7,1.4-0.7,2.3
	c0,0.9-0.1,1.8-0.1,2.7c0,0.2-0.1,0.4-0.2,0.6c-0.1-0.1-0.2-0.1-0.2-0.2c0.1-1.1-0.7-2.2-0.1-3.3c0.2-0.3,0.4-0.7,0-1
	c0,0,0.1-0.3,0.2-0.4c0.1-0.1,0.3-0.2,0.4-0.3c0.2-0.3,0.2-0.6-0.2-0.5c-0.6,0.1-1.1,0.2-1.7,0.4c0,0,0,0.4,0.1,0.7
	c0,0.1,0.3,0.1,0.4,0.3c-0.7,0.2-1.5,0.4-2.2,0.5c-0.1,0-0.2-0.1-0.2-0.2c0-0.2,0.1-0.4,0.2-0.5c0.7-0.7,1.5-1.1,2.4-1.4
	c0.5-0.2,1.1-0.3,1.6-0.5c0.3-0.2,0.6-0.5,0.9-0.8c0.2,0.2,0.3,0.3,0.4,0.5c0.3,0.5,0.3,0.5,0.7,0.1C8.3,56,8,56.9,8.4,58
	c0.4-0.6,0.7-1.2,1.1-1.7c0.6-0.7,1.3-1.3,1.9-2c0.2-0.2,0.1-0.5,0.2-0.8c-0.2,0-0.5,0-0.7,0.1c-0.6,0.4-1.1,0.9-1.7,1.3
	c0.1-0.4,0.1-0.8,0.2-1.1c0.2-0.5,0.3-0.9,0.6-1.3c0.8-1.2,1.4-2.4,1.6-3.8c0-0.1,0.1-0.2,0.2-0.4c0.4,0.6,0.5,1.1,0.4,1.7
	c0,0.2-0.1,0.4-0.2,0.6c0,0.2,0,0.6,0.1,0.7c0.1,0.1,0.5,0.1,0.7,0c0.6-0.2,1.2-0.5,1.7-0.8c0.2-0.1,0.3-0.3,0.4-0.4
	c0.3-1.4,0.6-2.8,0.5-4.2c-0.1-1.1,0-2.3-0.1-3.4c0-0.4,0-0.8-0.1-1.1c0-0.4,0.1-0.6,0.4-0.8c0.7-0.5,1.4-0.6,2.2-0.6
	c0.3,0,0.7-0.2,1-0.3c0.5-0.2,0.7-0.6,0.7-1.2c-0.1-0.7-0.1-1.4-0.2-2.1c-0.1-0.5-0.3-0.9-0.5-1.3c-0.2-0.6-0.1-1.1,0.1-1.7
	c0.3-0.8,0.5-1.6,0.8-2.3c0.4-1,0.5-2,0.5-3c0-0.6,0.3-1.2,0.5-1.7c0.3-0.8,0.6-1.6,0.9-2.4c0.1-0.2,0.1-0.4,0.2-0.5
	c0.6-0.6,0.6-1.5,0.8-2.2c0.2-0.6,0.5-1.3,1-1.8c0.8-0.8,1.7-1.5,2.7-2.3c-0.1,0.2-0.1,0.4-0.3,0.5c-0.6,0.5-1.1,1.1-1.7,1.5
	c-0.7,0.5-1,1.2-1.3,1.9c-0.4,0.7-0.6,1.5-0.8,2.3c-0.3,0.9-0.5,1.9-0.9,2.7C21,27,20.9,28,20.9,28.9c0,0.3-0.2,0.6-0.3,0.9
	c-0.1,0.2-0.1,0.5-0.2,0.8c0.7,0.2,0.8-0.4,0.8-0.7c0.2-0.9,0.3-1.9,0.4-2.8c0-0.1,0-0.2,0.1-0.3c0.9-0.7,0.8-2,1.5-2.9
	c0.1-0.1,0.1-0.2,0.2-0.3c1.3-1.2,1.8-2.9,2.5-4.4c0.4-0.7,1-1.1,1.7-1.5c0.6-0.3,1.2-0.5,1.5-1.3c0.1-0.2,0.5-0.3,0.8-0.5
	c0.2-0.1,0.5-0.2,0.7-0.4c0.3-0.2,0.5-0.4,0.8-0.6c0.4-0.3,0.8-0.5,1.2-0.7c0.7-0.3,1.4-0.6,2.1-0.9c0.2-0.1,0.5-0.3,0.6-0.6
	c0.2-0.3,0.3-0.6,0.7-0.7c0.2-0.1,0.2-0.5,0.4-0.8h0.1c0.6,0.6,1.4,0.6,2.2,0.5c1.1-0.2,1.8,0.6,2.5,1.2c0.7,0.5,1.3,1.2,2,1.7
	c0.3,0.2,0.8,0.1,1.2,0.1c1.2,0,1.3,0,1,1.2c-0.1,0.7,0.1,1.1,0.4,1.5c0.4,0.6,0.7,1.2,1,1.8c0.2,0.5-0.1,0.7-0.5,0.7
	c-0.6,0-1.2,0-1.8-0.1c-1-0.2-1.5,0.2-1.3,1.1c0,0.2,0.1,0.4,0.1,0.6c0,0.6-0.2,1.1-0.9,1.3c-0.2,0-0.5,0.2-0.7,0.4
	c-0.5,0.5-1,0.9-1.8,0.8c-0.6-0.1-0.8,0.2-0.6,0.8c0.1,0.5,0.2,1.1,0.3,1.6c0,0.3-0.1,0.7-0.2,1c-0.5,0.8-0.2,1.5,0.2,2.2
	c0.4,0.6,0.7,1.3,1,1.9c0.1,0.1,0.2,0.2,0.3,0.3c0.7,0.7,1.4,1.3,2.1,2c0.4,0.4,0.8,0.9,1.1,1.3c0.2,0.4,0.3,0.8,0.6,1.1
	c0.4,0.5,0.7,1.1,1.3,1.6c0.3,0.2,0.4,0.6,0.8,0.8c0.1,0.1,0.1,0.4,0.2,0.6c0.1,0.3,0.2,0.6,0.3,0.7c0.2,0.2,0.5,0.4,0.8,0.5
	c0.7,0.4,0.9,0.7,0.8,1.5c-0.1,0.6-0.1,1.4-0.4,1.7c-0.8,0.7-0.5,1.8-1.2,2.6c0.1-0.9,0-1.7,0.6-2.3c0.8-0.9,0.8-2,0.4-3
	c-0.1-0.3-0.7-0.5-1.1-0.6c-0.2-0.1-0.5-0.1-1-0.1c0.1,0.3,0,0.7,0.2,0.8c1,0.8,0.6,1.9,0.3,2.8c-0.7,1.7-1.6,3.4-2.4,5.1
	c-0.2,0.4-0.3,0.8-0.5,1.2c-0.1,0-0.2-0.1-0.3-0.1c0.2-0.7,0.4-1.3,0.6-2c0.2-0.5,0.5-0.9,0.7-1.4c0.3-0.6,0.6-1.3,0.9-1.9
	c0.1-0.2,0.1-0.3,0.1-0.5s-0.1-0.4-0.2-0.5c-0.1,0-0.4,0.1-0.5,0.1c-0.1,0.1-0.3,0.2-0.4,0.3L44.6,44c0.3-0.4,0.5-0.7,0.8-1.1
	c0.1-0.1,0.3,0,0.4,0c0.2,0,0.5,0.1,0.5,0c0.1-0.1,0.2-0.4,0.1-0.6c-0.3-0.5-0.6-1.1-0.6-1.7c0-0.1-0.3-0.4-0.4-0.3
	c-0.7,0.1-1.4,0.3-2.2,0.4c-0.3-0.6-0.9-0.4-1.6-0.3c-0.1-0.3-0.2-0.6-0.4-0.8s-0.5-0.3-0.7-0.5c-0.3-0.2-0.5-0.5-0.8-0.7
	c-0.2-0.2-0.4-0.3-0.6-0.4c-0.2-0.1-0.4-0.2-0.5-0.3c-0.2-0.1-0.3-0.2-0.6-0.3c0.1,0.5,0.1,0.9,0.2,1.2c-0.1,0-0.1,0.1-0.2,0.1
	c-0.1-0.2-0.3-0.4-0.4-0.6c-0.2-0.4-0.4-0.7-0.6-1.1c-0.3-0.7-0.5-1.3-0.7-2c-0.3-0.8-0.7-1.4-1.5-1.7c-0.1-0.1-0.3-0.2-0.3-0.4
	c-0.4-0.7-0.7-1.5-1.2-2.2c-0.2-0.3-0.4-0.6-0.7-0.6c-0.7-0.2-1.2-0.7-1.8-1.2c-0.1-0.1-0.2-0.4-0.2-0.6c0.2,0.1,0.4,0.1,0.5,0.2
	c0.4,0.3,0.7,0.7,1.1,1c0.2,0.1,0.5,0.1,0.8,0.1c0.1,0,0.1-0.4,0.1-0.6c0-0.7,0-1.5,0-2.2c0.1,0,0.2,0,0.3,0c0,0.9,0,1.8,0,2.8
	c0,0.2,0,0.4,0.1,0.5c0.5,0.9,1,2,1.7,2.7s1.1,1.5,1.7,2.1c0.7,0.8,1.4,1.5,2.1,2.2l0.1,0.1c0.9,0.1,1.2,1.3,2.1,1.2
	c0.1,0,0.3,0.2,0.4,0.3c0.8,1,1.5,1.1,2.6,0.3c0.2-0.1,0.3-0.2,0.5-0.3c0.9-0.4,1-1.1,0.2-1.7c-0.7-0.5-1-1.4-1.4-2.1
	c-0.5-1-1.1-1.7-2.2-1.9c-0.1,0-0.3-0.1-0.4-0.3c-0.3-0.7-0.6-1.4-0.8-2.1s-0.7-1.2-1.4-1.2c-0.7,0.1-0.8-0.2-0.6-0.8
	c0.3-0.8,0.2-1.6-0.1-2.3c-0.2-0.4-0.5-0.8-0.7-1.2c-0.2-0.4-0.1-0.8-0.3-1.2c-0.2-0.5-0.6-0.9-0.9-1.4c0.3-0.1,0.6,0,0.7-0.2
	c0.1-0.1,0-0.4-0.1-0.6c-0.3-0.7-0.5-1.4-0.4-2.2c0.1-0.8-0.5-1.3-1.3-1c-0.6,0.2-1.2,0.4-1.8,0.7c-0.1,0-0.2,0.1-0.2,0.1
	c-0.7,0.9-1.4,1.9-2.2,2.9c0-0.2-0.1-0.3,0-0.4c0.7-1.3,1.7-2.5,3-3.3c0.6-0.4,1.4-0.5,2.2-0.7c0.1,0,0.5,0.3,0.5,0.5
	c0.2,0.6,0.2,1.2,0.3,1.8c0.1,0.6,0.4,1.2,0.4,1.8c0,0.8,0.7,1.4,0.4,2.3c-0.1,0.4,0,0.9,0.1,1.4c0.1,0.2,0.3,0.4,0.5,0.5
	c0.3,0.1,0.6,0.1,0.5-0.4c0-0.3-0.1-0.6-0.1-0.8c-0.1-0.8-0.1-1.7-0.2-2.5C38.5,22.5,38.6,22.5,38.7,22.4c0.1,0.7,1.5,1.5,2.1,1.2
	c0.2-0.1,0.3-0.3,0.5-0.5c0.5-0.4,1-0.8,1.4-1.3c0.1-0.1,0.2-0.4,0.1-0.5c-0.1-0.1-0.3-0.2-0.5-0.3c-0.7-0.1-0.9-0.7-0.5-1.2
	c0.4,0,0.7,0,1-0.1c0.6-0.4,1.2-0.4,1.9-0.2c0.2,0.1,0.4,0.1,0.6,0.1c0.4,0,0.5-0.2,0.4-0.6s-0.4-0.7-0.9-0.8
	c-0.4-0.1-1-0.2-1.1-0.4c0-0.6-0.5-0.9-0.7-1.3c-0.3-0.7-0.8-0.9-1.5-0.6c-0.6,0.2-1.3,0.5-1.8-0.3c-0.4,0.5-1,0.9-1,1.6
	c0.1,0.6,0.2,1.2,0,1.9c-0.3,0.7,0,1.6,0.1,2.4C39,21.9,39,22.2,38.7,22.4z M37.1,14.6c0-0.3,0-0.5,0-0.7c-0.2,0-0.4,0-0.6,0.1
	c-0.2,0.1-0.4,0.3-0.4,0.5c0,0.7,0.3,1.2,0.9,1.6c0.3,0.2,0.4,0.5,0.7,0.6c0.2,0.1,0.6,0.1,0.7,0c0.4-0.6,0.8-1.2,1.2-1.8
	c0.3-0.4,0.8-0.4,1.2-0.1c0.1,0.1,0.2,0.2,0.3,0.3c0.5,0.3,0.8,0.1,0.8-0.4c0-0.3-0.1-0.6-0.3-0.7c-0.5-0.5-1.1-1-1.6-1.5
	c-0.1-0.1-0.2-0.1-0.3-0.1c-0.8,0-1.7,0-2.5,0.1c-0.2,0-0.3,0.3-0.4,0.5c0,0.1,0.3,0.4,0.4,0.4c0.6,0,0.8,0.4,1.1,0.9
	C37.9,14.3,37.5,14.5,37.1,14.6z M7.9,62.7c0.1,0.1,0.2,0.1,0.2,0.2c0.2-0.2,0.4-0.5,0.7-0.7c0.6-0.4,1.2-0.9,1.9-1.2
	c0.6-0.3,0.9-0.8,0.9-1.4c0-0.6,0-1.2-0.1-1.8c0-0.1-0.1-0.3-0.2-0.3c-0.1,0-0.3,0.1-0.4,0.2c-0.5,0.5-1.2,1-1.1,1.9
	c0,0.1-0.1,0.2-0.2,0.3c-0.5,0.7-0.9,1.4-1.4,2.1C8.1,62.2,8,62.5,7.9,62.7z M9.9,57.6c0.3-0.1,0.5-0.2,0.7-0.3
	c0.5-0.6,1-1.2,1.5-1.8c0.1-0.2,0.3-0.4,0.5-0.5c1-0.6,1.4-1.6,1.8-2.6c0-0.1,0-0.3-0.1-0.4c-0.1-0.1-0.3-0.1-0.4,0
	c-0.4,0.3-0.8,0.6-1.2,0.9c-0.8,0.9-1.5,1.8-2.2,2.7C10,56.2,10,56.8,9.9,57.6z M11.3,50.7c-0.3,0.7-0.7,1.3-1,2
	c0,0.1,0,0.3,0.1,0.3c0.1,0.1,0.3,0.1,0.4,0C11.5,52.7,11.8,51.5,11.3,50.7z M44.1,15.2c-0.3,0.3-0.4,0.5-0.6,0.6
	c0.2,0.2,0.5,0.4,0.8,0.5c0.3,0.1,0.7,0,0.6-0.4C44.8,15.7,44.4,15.5,44.1,15.2z M7.8,60.4c0.1,0.1,0.1,0.1,0.2,0.2
	c0.1-0.1,0.3-0.1,0.4-0.2c0.2-0.5,0.3-0.9,0.5-1.4c0-0.1-0.1-0.3-0.1-0.3c-0.1,0-0.4,0.1-0.4,0.2C8.2,59.4,8,59.9,7.8,60.4z"/>
<path d="M38.4,57.8c-0.6-0.1-0.7-1.1-1.5-0.6c-0.1-0.2-0.1-0.4-0.2-0.8c-0.4,0.2-0.8,0.5-1.2,0.7c-0.5,0.2-1,0.2-1.5,0.2
	c0.8-0.4,1.5-0.8,2.5-1.4c0.2-0.3-0.2-0.9-0.3-1.5c-0.1-0.5-0.3-1-0.5-1.4c-0.1-0.2-0.3-0.3-0.4-0.5c-0.1,0.2-0.3,0.3-0.4,0.5
	c-0.3,0.7-0.5,1.3-0.7,2c-0.1,0.3-0.3,0.3-0.6,0.2c-0.4-0.2-0.9-0.4-1.3-0.4c-0.5-0.1-0.7,0.3-0.5,0.7c0.4,0.8,0.3,1.8,1.2,2.2
	c0.1,0,0.1,0.2,0.1,0.3c0,0.4,0,0.8,0,1.2c0.8,0.2,0.8,0.2,1,1.4c-0.2,0-0.4,0-0.6,0c-0.4,0-0.4-0.2-0.5-0.5
	c-0.1-0.5-0.2-1.1-0.5-1.6c-0.6-1.2-1.2-2.4-1.5-3.7c0-0.2,0.1-0.4,0-0.5c0-0.2-0.2-0.5-0.3-0.5c-0.6-0.2-0.8-0.4-0.5-1
	c0.1-0.1,0-0.3,0-0.6c0.4,0.5,0.6,1,0.9,1.4c0.3,0.3,0.8,0.6,1.2,0.8c0.4,0.1,0.8,0.1,1,0.6c0.3-0.1,0.7-0.2,0.9-0.5
	c0.2-0.2,0.2-0.5,0.2-0.8c0-0.2,0-0.4-0.1-0.5c-0.1,0-0.4,0-0.5,0.1c-0.2,0.1-0.3,0.3-0.5,0.4c-0.1,0-0.1,0-0.2-0.1
	c0-0.4,0-0.8,0-1.2c0-0.2-0.1-0.4-0.2-0.5c-0.3-0.3-0.6-0.5-1,0c0-0.1-0.1-0.1-0.1-0.2c0.1-0.4,0.3-0.7,0.5-1.2
	c0.3,0.3,0.5,0.4,0.8,0.7c0.1-0.4,0.1-0.7,0.2-1.1c0.6,0.3,0.9,0,1.3-0.4c0.1-0.2,0.3-0.3,0.5-0.4c0.4-0.2,0.7-0.3,1.2-0.4
	c0,0.5,0.1,1.2,0,1.8c-0.3,1.2,0.1,2.4,0.3,3.6c0,0.1,0.4,0.3,0.6,0.3c0.5-0.1,0.6,0.1,0.7,0.5C37.7,56.1,37.6,57,38.4,57.8z
	 M34.3,51.1c0.9,0.2,0.7-0.5,1-0.7C35.1,50.2,35,50,34.8,50c-0.4,0-0.7,0.3-0.7,0.7C34.1,50.9,34.3,51.1,34.3,51.1z M34.1,53
	c0.1-0.3,0.3-0.5,0.4-0.8c-0.1,0-0.3-0.2-0.4-0.1C33.7,52.2,33.7,52.5,34.1,53z"/>
<path d="M39.5,54.3c-0.1,0.2-0.1,0.5-0.2,0.7c-0.3,0.7-0.3,1.5,0.5,2c0.5,0.2,0.9,0.1,1.1-0.3c0.3-0.6,0.5-0.6,1.1-0.4
	c1.3,0.4,2.5,0.7,3.8,1c0.3,0.1,0.6,0,0.8-0.1c0.1,0,0.2-0.2,0.2-0.3c0-0.2-0.1-0.4-0.2-0.5c-0.7-0.3-1.4-0.6-2.1-0.9
	c-0.8-0.3-1.6-0.5-2.2-1.3c-0.1-0.2-0.2-0.5-0.1-0.7c0.2-0.6,0.5-1.1,0.9-1.6c0,0.4,0.1,0.8,0,1.2c-0.3,1.3,0,1.8,1.4,2.1
	c1,0.2,2,0.6,3,1c0.7,0.3,1.3-0.2,2-0.3c0.1,0,0.2-0.4,0.1-0.4c-0.1-0.2-0.3-0.3-0.5-0.3c-1-0.1-2.1-0.2-3.1-0.3
	c-1.1-0.1-1.7-1.5-1-2.4c0.7-1,1-2,0.9-3.2c0-0.5,0.4-1.1,0.7-1.6c0.1-0.2,0.3-0.5,0.5-0.7c-0.1,0.4-0.2,0.8-0.3,1.2
	c-0.1,0.5-0.1,0.9-0.2,1.4c-0.2,0.7-0.5,1.4-0.7,2.1c0,0.1-0.1,0.2-0.1,0.3c0,0.7-0.2,1.3-0.6,1.9c-0.3,0.4,0.1,0.7,0.7,0.7
	c1,0.1,2,0,2.9,0.1c0.5,0.1,1,0.4,1.5,0.6c0.1,0,0.1,0.4,0,0.4c-0.4,0.3-0.8,0.5-1.2,0.8c-0.3,0.2-0.6,0.2-0.9,0.4
	c-1.2,1-2.5,1-3.9,0.6c-0.6-0.2-1.2-0.3-1.8-0.3c-1-0.1-1-0.1-1.4,0.9c-0.7-0.1-1.4-0.2-2.1-0.4c-0.2-0.1-0.4-0.3-0.5-0.6
	c-0.1-0.4-0.2-0.9-0.3-1.4c0-0.1,0.1-0.3,0.2-0.5c0.2-0.2,0.4-0.4,0.6-0.7C39.4,54.2,39.5,54.3,39.5,54.3z"/>
<path d="M58.6,57.6c-0.6,0.1-1.2,0.1-2-0.1c0.4-0.3,0.6-0.4,0.8-0.5c0.6-0.3,1.2-0.5,1.8-0.7c0.2-0.1,0.3-0.3,0.4-0.5
	c0.3-0.5,0.5-1,0.8-1.5c0.1,0.2,0.2,0.3,0.3,0.5c-0.8,0.5-0.7,0.9-0.1,1.5c0.6,0.6,1.3,0.3,1.9,0.4c1,0.1,1.9,0.1,2.9,0.1
	c0.3,0,0.7,0.1,0.8-0.4c0.1-0.4-0.1-0.7-0.5-0.9S65,55.2,64.6,55c0.3,0,0.6,0.1,0.8,0.1c0.7,0.1,1.1-0.4,0.8-1.1
	c-0.5-1-1.7-1.6-2.8-1c-0.3,0.2-0.7,0.4-1.1,0.5c-0.2,0.1-0.4,0-0.5,0c0.1-0.3,0.2-0.6,0.3-0.9c-0.4,0-0.7-0.1-1.1-0.1
	c0.1-0.2,0.2-0.3,0.2-0.3c0.9,0,1.7-0.2,2.6,0c0.7,0.1,1.5,0.5,2.1,1c0.3,0.3,0.4,0.9,0.5,1.4s0,1,0,1.4c0,0.3,0.1,0.5,0.5,0.6
	c0.5,0,1,0.1,1.4,0.2c0.6,0.1,1.1,0.3,1.6,0.6c-0.1,0-0.2,0.1-0.2,0c-0.4-0.4-0.9-0.3-1.4-0.1c-1.5,0.5-3.1,0.5-4.7,0.5
	c-0.7,0-1.4,0-2.1-0.1c0.6,0,1.1-0.1,1.7-0.1c0.3,0,0.7,0,0.7-0.4c0-0.1-0.4-0.3-0.6-0.3c-1.4-0.1-2.8-0.2-4.3-0.3
	C58.3,56.6,58.2,56.8,58.6,57.6L58.6,57.6z"/>
<path d="M16.5,57c0.3-0.3,0.5-0.6,0.8-0.9c0.2-0.2,0.4-0.4,0.6-0.7c0.1-0.1,0.1-0.2,0.1-0.2c1.1-0.2,0.6-0.9,0.6-1.6
	c-1-0.1-0.4,0.9-0.9,1.2c-0.3-0.4-0.1-2.1,0.4-3.1c0.2,0.3,0.4,0.6,0.5,0.8c0.1,0.5,0.2,1,0.2,1.5s0.2,0.6,0.6,0.6
	c0.9,0,1.8,0,2.8-0.1c0.1,0,0.3-0.3,0.3-0.5c0.3-0.8,0.6-1.5,0.9-2.3c0.1-0.1,0.2-0.2,0.4-0.3c0.1,0.2,0.3,0.3,0.3,0.5
	c0.1,0.6,0,1.1-0.3,1.7c-0.2,0.3-0.3,0.7-0.4,1.1c0.8,0.4,1.2-0.5,1.9-0.4c-0.3,0.7-0.6,1.2-1.2,1.6c-0.4,0.3-0.8,0.7-0.4,1.4
	c0.2,0.3,0.2,0.9,0,1.3c-0.4,0.7-0.2,1.5-0.3,2.2c0,0.1,0,0.2-0.1,0.5c-0.4-1.4,0-2.7,0.2-4c-0.2-0.1-0.5-0.1-0.7-0.2
	c0-0.2,0-0.4-0.1-0.8c-0.7,0.4-1.3,0.8-2,1.2l-0.1-0.1c0.1-0.1,0.3-0.3,0.4-0.4c0.5-0.4,1.1-0.8,1.6-1.2c0.2-0.2,0.5-0.6,0-1.1
	c-0.2,0.7-0.7,0.8-1.3,0.8c-0.4,0-0.7,0.3-1.1,0.5s-0.8,0.5-1.3,0.7l0,0c0.2-0.2,0.3-0.5,0.5-0.6c0.2-0.2,0.5-0.2,0.7-0.4
	s0.3-0.5,0.4-0.7c-0.3,0-0.6-0.2-0.8-0.1c-0.9,0.6-1.7,1.2-2.5,1.8C16.9,56.8,16.7,56.9,16.5,57L16.5,57z"/>
<path d="M18.8,56.7c-0.7,0.7-0.8,1.5-0.2,2.1c-1,0.3-0.9,1.2-1.1,2c-0.1,0.4-0.2,0.8-0.5,1.2c0-0.2-0.1-0.4,0-0.6
	c0.1-0.5,0.3-0.9,0.4-1.4c0.1-0.4,0.3-0.9,0.3-1.3c0.1-0.4-0.1-0.5-0.5-0.4c-0.6,0.2-0.7,0.7-0.8,1.1c-0.2,0.8-0.3,1.7-0.5,2.5
	c-0.1,0-0.2,0-0.2,0c0-0.2,0-0.5,0.1-0.7c0.1-0.3,0.2-0.5,0.2-0.8c0-0.4,0-0.7-0.6-0.5c0.1-0.8,0.4-1.4,1.3-1.6
	c0.4-0.1,0.8-0.7,1.2-1C18.1,57,18.5,56.9,18.8,56.7L18.8,56.7z"/>
<path d="M29.8,51.9c-0.3-0.7-0.6-1.4-0.9-2.2c-0.1-0.1-0.1-0.3-0.1-0.5s0.2-0.4,0.3-0.6c0.1,0.2,0.3,0.3,0.4,0.5
	c0.1,0.3,0.3,0.4,0.7,0.3c0.7-0.2,1.4-0.3,2.1-0.3c0.4,0,0.7,0.3,0.8,0.7c-0.7-0.1-1.4-0.2-2.1-0.3c-1-0.1-1.3,0.4-1,1.3
	c0.1,0.3,0.1,0.6,0.1,1C29.9,51.9,29.9,51.9,29.8,51.9z"/>
<path d="M27.2,59.8c-0.5,0.2-1,0.4-1.6,0.7c0.1-1,0.1-1.8,0.2-2.7c0.4,0.6,0.7,0.6,1.2,0.1c0,0.5,0.2,0.8,0.7,0.6c0,0.1,0,0.1,0,0.2
	c-0.2,0.1-0.4,0.3-0.7,0.4C27,59.4,27.1,59.6,27.2,59.8z"/>
<path d="M25.8,55.7c0.2,0.3,0.4,0.6,0.6,0.9c0.1-0.1,0.3-0.2,0.4-0.3c0,0.4-0.1,0.7-0.5,0.9c-0.2,0.1-0.4-0.1-0.6-0.3
	c-0.6-0.1-0.5,0.4-0.7,0.8c-0.2,0.5-0.4,1.1-0.5,1.6c-0.1,0.3-0.1,0.6-0.2,0.9c-0.3-0.4-0.1-0.8,0-1.2c0-0.1,0.2-0.3,0.1-0.4
	c-0.4-0.5,0-0.9,0.2-1.4C25.1,56.7,25.5,56.2,25.8,55.7z"/>
<path d="M30.8,60.9c-0.2-0.6-0.5-0.7-1-0.6c-0.1-0.5,0.9-1.8,1.3-1.8c0.1,0,0.4,0.3,0.4,0.3C31.3,59.5,31.1,60.1,30.8,60.9
	C30.9,60.9,30.9,60.9,30.8,60.9z"/>
<path d="M43.7,41.7c0,0.6,0,1.2,0,1.8c-0.1,0.7-0.1,0.7,0.6,0.9c-0.1,0.1-0.2,0.1-0.3,0.1c-0.2,0.1-0.4,0.1-0.6,0.2
	c0-0.3-0.2-0.5-0.1-0.8c0-0.4,0.2-0.7,0.3-1.1C43.7,42.4,43.6,42,43.7,41.7C43.6,41.7,43.6,41.7,43.7,41.7z"/>
<path d="M58.5,57.6c0.9,0.1,1.7,0.2,2.6,0.3c0,0.1,0,0.1,0,0.2c-0.2,0-0.5,0.1-0.7,0c-0.6-0.1-1.1-0.2-1.7-0.3
	C58.7,57.8,58.6,57.7,58.5,57.6C58.6,57.6,58.5,57.6,58.5,57.6z"/>
<path d="M27.8,54.1c0-0.7-0.5-0.6-0.9-0.7c0.3-0.1,0.6-0.1,0.8-0.1c0.2,0,0.4,0.1,0.6,0.2c-0.1,0.2-0.2,0.4-0.3,0.6
	C27.9,54.1,27.9,54.1,27.8,54.1z"/>
<path d="M26,52.7c0.1-0.3,0.2-0.6,0.3-0.9c0.1,0,0.1,0,0.2,0c0.1,0.2,0.3,0.5,0.2,0.6c-0.1,0.2-0.4,0.3-0.6,0.4
	C26.1,52.8,26.1,52.8,26,52.7z"/>
<path d="M16.5,57c-0.2,0.4-0.5,0.8-0.7,1.3c-0.1,0-0.1-0.1-0.2-0.1C15.6,57.5,16.1,57.2,16.5,57L16.5,57z"/>
<path d="M29.2,55.1c-0.3,0.2-0.5,0.5-0.8,0.8c0-0.1-0.1-0.3-0.2-0.5c0.3-0.1,0.6-0.3,0.9-0.4C29.2,54.9,29.2,55,29.2,55.1z"/>
<path d="M18.9,60.4c0.3-0.3,0.6-0.5,0.9-0.8c0,0.5,0,0.6-0.8,0.9C19,60.5,19,60.4,18.9,60.4z"/>
<path class="st0" d="M7.9,62.7C8,62.5,8.1,62.2,8.2,62c0.4-0.7,0.9-1.4,1.4-2.1c0.1-0.1,0.2-0.2,0.2-0.3c-0.1-0.9,0.6-1.3,1.1-1.9
	c0.1-0.1,0.3-0.2,0.4-0.2c0.1,0,0.2,0.2,0.2,0.3c0,0.6,0.1,1.2,0.1,1.8s-0.3,1.1-0.9,1.4c-0.7,0.3-1.3,0.8-1.9,1.2
	c-0.3,0.2-0.5,0.4-0.7,0.7C8.1,62.9,8,62.8,7.9,62.7z"/>
<path class="st0" d="M9.9,57.6c0.1-0.8,0.1-1.4,0.6-2c0.7-0.9,1.4-1.8,2.2-2.7c0.3-0.4,0.8-0.6,1.2-0.9c0.1-0.1,0.3-0.1,0.4,0
	c0.1,0.1,0.1,0.3,0.1,0.4c-0.4,1-0.8,2-1.8,2.6c-0.2,0.1-0.3,0.3-0.5,0.5c-0.5,0.6-1,1.2-1.5,1.8C10.5,57.4,10.2,57.4,9.9,57.6z"/>
<path class="st0" d="M11.3,50.7c0.5,0.8,0.2,2-0.5,2.3c-0.1,0-0.3,0-0.4,0c-0.1,0-0.1-0.2-0.1-0.3C10.7,52.1,11,51.4,11.3,50.7z"/>
<path class="st0" d="M44.3,16.4"/>
<path class="st0" d="M44.1,15.2"/>
<path class="st0" d="M7.8,60.4c0.2-0.5,0.3-1,0.5-1.5c0-0.1,0.3-0.1,0.4-0.2c0,0,0.2,0.2,0.1,0.3c-0.1,0.5-0.3,1-0.5,1.4
	c0,0.1-0.3,0.1-0.4,0.2C7.9,60.5,7.9,60.4,7.8,60.4z"/>
<path class="st0" d="M34.3,51.1c0,0-0.2-0.2-0.2-0.4c0-0.4,0.3-0.7,0.7-0.7c0.2,0,0.3,0.3,0.5,0.4C35.1,50.7,35.2,51.3,34.3,51.1z"
	/>
<path class="st0" d="M34.1,53c-0.4-0.4-0.4-0.8,0-0.9c0.1,0,0.3,0.1,0.4,0.1C34.3,52.4,34.2,52.7,34.1,53z"/>
<path d="M40.3,21.2c-0.1-0.2-0.2-0.3-0.2-0.4c-0.1-1.1-0.2-2.1-0.2-3.2c0-0.3,0.2-0.5,0.4-0.8c-0.5,0.9-0.2,1.7,0.1,2.5
	C40.6,19.8,40.6,20.4,40.3,21.2z"/>
</svg>
