<?xml version="1.0" encoding="utf-8"?>
<!-- Generator: Adobe Illustrator 22.1.0, SVG Export Plug-In . SVG Version: 6.00 Build 0)  -->
<svg version="1.1" id="Layer_1" xmlns="http://www.w3.org/2000/svg" xmlns:xlink="http://www.w3.org/1999/xlink" x="0px" y="0px"
	 viewBox="0 0 1695.5 1284.3" style="enable-background:new 0 0 1695.5 1284.3;" xml:space="preserve">
<style type="text/css">
	.st0{fill:#4AA852;}
	.st1{fill:#EF414E;}
	.st2{fill:#4CA551;}
	.st3{fill:#ABABAB;}
	.st4{fill:#2F8B43;}
	.st5{fill:none;stroke:#000000;stroke-width:2;stroke-miterlimit:10;}
	.st6{fill:none;stroke:#000000;stroke-width:4;stroke-miterlimit:10;}
	.st7{fill:none;stroke:#000000;stroke-width:3;stroke-miterlimit:10;}
	.st8{fill:none;stroke:#000000;stroke-width:5;stroke-miterlimit:10;}
</style>
<path class="st0" d="M262.1,22.3L220.8,79c0,0-53.5,79.2-68.6,115s-27,64.6-27,64.6s-13.5,48.1-24.8,86s-31.6,171-31.6,171v61.7
	l-0.5,122.3l-2,31.7l17.2,102.2l45.8,161.8l15.7,59.6c0,0,11.9,54.1,9.2,65.6s-14,20-34.3,26.2l4.8,7.7l5.3,9.6l-19.4,13.3h-3.1
	l3.4-22.8l-4.5-4.8l-34.1,10.6l-6,10.8l-9.3,2.2l5,5.4l26.6-1.3l8.2,8.4l-24.6,16.9l-24.8,23.1l7,5.2l35.3-12.6l37.8-8.6l32.3-6.6
	h19.1c0,0-1.9-17.3-10.7-23.4c-8.8-6.1-18.5-9.5-18.5-9.5s10.6-3.9,17.1,0.2s15.7,13,20.8,30.8l2.8-22.4l-7.1-17.7
	c0,0-7.3-14.1-12.6-15h4.8c0,0,9.9,4.7,13.3,11.9c3.4,7.2,4.3,9.5,4.3,9.5l12.9-17.7l-6.4,25.9l12.8,28.6l13.6,1.9l29.3-8.6
	l16.7,6.4c0,0,2.1-37.3,4.1-41.8s-1.6-8-1.6-8v-3.1l3.5,4.3l8.3-9.1l6.3-2.9c0,0,13.4,3.9,17.1,30.3l-7.9-11.6c0,0-8.8-9.5-11-8.8
	s-3.2,1.8-3.2,1.8l-1.6,18.4l6.3,32.1l36.5,24l27.9,9.6l13.2-29.7l-4.9-14.2l-11-16.3l2.4,0.7l7.1,8.6l10.1,15.4l10.7-9.8l-8,15.7
	l1.1,11.2l0.5,23.8l15.1,6.8l16.6,13.6l3.5-6.5l-11.8-44.6l-13.6-18l-16-22.4l3.9-12.8l-5-13.2l-4.8-6.8c0,0,10.4,4.7,11.3,8.7
	s0.9,3.9,0.9,3.9l7.6-8.9l2-1.2c0,0-3.7,27.9-1.3,38l21.9-3.1l17.5,9.3l21.8,3.5l17.3-3.4v-6.2l-24.6-14.6l-22.5-17.2l-56.6-38.3
	l-33.1-53.1l-26.4-73.8l-24.3-66.8L257,829.8l-17.8-135.3c0,0,4.3-92.5,9-123.7c4.8-31.2,23.8-83.7,23.8-83.7l4.1-13.8l22.1-87.9
	l15.8-46.3c0,0,8.1-44.3,11.2-54.7s53.4-146.1,53.4-146.1s44.3-59,59.3-62.3s-1.3-37.3-1.3-37.3L262.1,22.3z"/>
<path class="st1" d="M1568.1,928.7l-30-4.2l-28.8-12.5l22.9,77.4l1.8,58.5l5.1,30.6l5.3,52l2.8,81.1c0,0,19.9,24.9,39.8,0l0.8-14.8
	l13.2-1l0.2-32.1l-13.4-63.2l-1.7-46.4l6.5-27.6h-9.4l-1.8,4l-12.6,2.4v-22.5l1-24"/>
<path class="st1" d="M1601,934.5l23,0.2l4.4-2.1l1.3,11.9c0,0-5.6,41.2-9.9,46.7s-18.6,10.1-18.6,10.1l-4.4,6.5l-2.2,11l-11.5-4.8
	l-3.2-19l11.1-15.1l1.5-11L1601,934.5z"/>
<polygon class="st2" points="1518.8,835.9 1524.8,849.5 1533.1,821.5 1535.1,784.3 1546.3,749.5 1561.8,745.1 1557.8,734.6 
	1548.6,736.4 1542.1,744.5 1538.9,755.3 1524,788.9 "/>
<path class="st3" d="M1598.3,585.3l21.9,22.5l-4.8,6.6l-22.8-3l-11.7,17.7l16.2-2.9l4.4,11.7c0,0-9.3,18-17.4,20.9s-8.1,2.9-8.1,2.9
	l6.4,2.3l3.8,9.3l6.2,7.9l3.8-1.3l2.9,3.4c0,0,4.3-8,11.4-9.5c7.1-1.6,8.6-8.5,8.6-8.5l8.9-0.5l3-9.8l2.8,2.6l3.5-22.3
	c0,0-4.3-37.6-6.3-37.3s-13.2-4.5-13.2-4.5l-8.2-8h-11.3V585.3z"/>
<path class="st4" d="M383.6,414.8c0,0-2.4,2.9,14.8,17.7l5,11.6l-4.1,12.8l-2.2-10.9l-6.6-13.1l-3.4,3.8l-4.4,12.9l-7-6.9l-9.2-0.4
	l-0.8,8l-1.7,10.3l-9.5,9.7l-15.1,4l-16.8,8.9l-11.2-2.7l-10.4-5.9l16.4-2.4l2.6-2.5l-12.9-4.2c0,0,18.2-1.2,25.9-18.6l1.8-6.2
	l-17.7,3.1l-20.8-4.8l-12.3,0.5l-0.4-9.3c0,0,12.7,3.3,18.2,1.1s16-10.6,16-10.6l-17.5-1.7l12.5-13.9l6.1-14.6l-1-3.5l-11,7.1
	c0,0-13,1.9-18.7,0.1s-7.6-2.3-7.6-2.3l7.2-7.9v-5.8l-8.5,1.6c0,0-34.5-5.3-41.7-3l7.3-6.4c0,0-7.4-12.8-23.3-14.5s-28.4,0-28.4,0
	l-5-4.7c0,0,19.2,2,25.4-10.7c6.1-12.8,2.4-9.6,2.4-9.6s-8.8,6.1-17.5,2.9s-15.5-11.8-26.2-3.3l-3.5-9.9c0,0,12-1.2,17.1-3
	s9-2.8,9-2.8l7.8-7.3l2-9.5l-14,7c0,0-4.9,1-7.8-1.2s-13.2-6.5-17-5.3c-3.8,1.1,7.3-7.6,7.3-7.6l2.3-7.3l-8.3,3.7
	c0,0-3.7,2.1-12.4-6s-19.1-3.7-19.1-3.7l-6.5-12.6l-6.4-6.6l4.5-12.9l-13.5-31.2l-1.4-1.9c0,0,12,2.1,14.3-1.3
	c2.3-3.4,3.7-2.8-0.8-5.5s-8.9-17.6-9.7-24.3s-0.7-9.6-0.7-9.6l9.7,9.4l2-2.3v-15.6l-0.5-4.3l12,12.8l2.6,2.1
	c0,0,13.8-30.7,10.6-36.9c-3.1-6.2,4.1,6.2,4.1,6.2l3.6-2.1c0,0,6.9,6.8,12.3,5.9s0.5-1.7,0.5-1.7s-4.9-9.2-4-13
	c1-3.8-3.2-10.8-7-11.2c0,0-5.4-12.3-9.4-14.7l-0.8-9.4l1.6-1.5c0,0,8.1,3.9,11.8,13.9c3.7,9.9,3.4,10.2,5.7,10.3s5-0.4,5-0.4
	s6.9,7.7,12.5,3.4s-1.4-9.2-1.4-9.2l2.4-22.6c0,0,6.1,8,15.7,8.2s6.7-27.4-7-38.9h13.9l14.9,18.7c0,0,6-6.1,1.3-37.5s-3.6-42-3.6-42
	H19.6v69.3l9.2,19.9l-5.7,11c0,0-4.5,17.7,9.8,35.9c0,0-7.5,4.4-8.2,8c-0.7,3.5,1.7,20.7,6.8,27.6s10.9,12.4,11.1,23.2
	s10.5-5.3,10.5-5.3l-5.7,22.8l-3,9.7l13.2-3.7c0,0-4.6,8.1-4.5,12.8s-0.2,15.6,5.5,22.2s7.4,6.5,7.4,6.5l-2.9,6.2
	c0,0,13.1,2.5,9.9-24.1l6.5,6.8l1.3,10.6c0,0-4.9,0.5-5.2,3.4s0.5,33.5-3.6,38.7s-7,8.9-3.9,8.8s20.6-0.1,24.5-12.1l3.2,15.8
	c0,0-0.1,15.7-1.6,18.3s10.9-4.5,10.9-4.5l6.2-12.1l3.4,8.3c0,0,6.7,12.1,5.5,18.5c-1.1,6.4-2.9,11.9-2.4,12.4s12.2-9.7,12.2-9.7
	l8,17.7l-4.6,19.3c0,0,13.1-2.6,17.3-6.3s8.5-10,8.5-10l3.2,9.5l0.2,3c0,0,6.7,1.1,7-9l2,9.9c0,0,0.7,16-3.1,22.6s-4.6,11.1,0,9.8
	s18.1-12,18.1-12l2.6,3.8l8.4-3.8l-4.6,9.4c0,0,5,15,13,25.7c0,0,4,0.9,1.7,7.3c-2.3,6.4-4.3,9.7-4.3,9.7s21.1-1.8,16.9-37.6
	l8.3,3.5l3.6,2.7l-5.5,9.1c0,0-4.6,11,4.3,24c9,13,4.5,27.9,4.5,27.9l3.5-0.5l12.5-19.6c0,0,18.2,13.1,24.4,13.3
	c6.1,0.2,12.1,0,12.1,0l1.8,10.7c0,0,14.6,13.4,38.6,20.6l7.2,5.1l3.4,7.1l1.8-11.6l-3.8-12l14.1,0.9l-1.6,3.4
	c0,0,41.1,25.2,64.6-28C437.9,417,390.3,411,383.6,414.8z"/>
<path class="st4" d="M224.3-0.8l993.8,2l12.8,4.7l2.1,2.6l-10.5,5.8l5.2-0.7l31,6l36.4,0.5l0.6,3.7l-14.1,8.8l42.4,4.1h2.7l-4.2,3.9
	v2.9c0,0,38.5,0.3,39.5,1.5c1,1.1-3.8,10.6-10.8,12c0,0,5.6,8.6,18.5,12.3c12.8,3.6,18.2,5.1,13.3,7.8c-4.9,2.7-9.2,4.7-9.2,4.7
	s0.4,7.8,5,12.3s19.8,11,30.5,10.4s3.5,4.9-2,5.8c-5.5,0.9-11.4,1.7-11.4,1.7s11.4,3.1,13.4,13.2l14.2-1.7l5-12.2l6.2,3.8
	c0,0,7.7,14.5,7.4,18.1s6.1,0.8,6.1,0.8l1.2,6.3c0,0-19,22.6-24.1,22.1s9.4,7.1,9.4,7.1s24.6-14.1,25.8-20.1
	c1.2-6,1.6-42.5,1.6-42.5l3.1-2.1c0,0,40.2,21.5,4.2,76.2l0.3,4.1c0,0,13.7,0.5,32.7-31l7.1-4.7l3.2-4.7l7.1-18.2l1.5-3.9
	c0,0-22.3-23.7-21.3-27.9c0.9-4.1,7.3-6.4,7.3-6.4l-6.2-8.4c0,0-13.8-5.6-27.1-2.9c-13.3,2.7-17.7-1-15.6-2.7s25.8-22.5,36.5-17.9
	s15.4,5.9,15.4,5.9s11.9,2.7,17.8,11.2c0,0,16.2,7.4,18.7,12.5c0,0,15.6,7.9,17.8,15.5s2,14.6,2,14.6s7.6,4.5,5.7,15.4
	c-2,10.9-8.8,31.9-16.9,35.4l-6.4,12.2c0,0-15,22.3-30.8,22.8s-15.8,0.5-15.8,0.5s-18.6,4.9-25.1,3.3c-6.5-1.7-28.8-11.8-28.8-11.8
	l-17.1-3.2l-14.7-0.4c0,0,0.2,4.3-5.2,5.6s-14.9,4.9-23.3-3.8s-11.6-13.9-11.6-13.9l-3.8,8.1l-17.8-18.8l-7.6-22.7l-4,7.1
	c0,0-4.6,5-8-4.1s-9.9-40.9-9.9-40.9s-10.9-10.2-14.1-10.2c-3.3,0.1,7.6,38.5,7.6,38.5s-0.6,1.6-4.5,2.1c-4,0.5-14.2,11.6-14.2,11.6
	s-6.9-0.1-0.1-23.3c0,0-11.7-11.7-9.7-18.3c0,0-22.6,4.1-36.8-23.1l-11.9,0.7l-13.8-4.1l-16-2.7l7.3,19.8l5,4.8
	c0,0,1.8,4.2-11.1,1.8c-13-2.4-20.7-12.7-25.4-21.9l-5.5,7.4l-13.6-14.6l-12.1-5.1l-0.5,10l-3.4,1.7c0,0-23.5-19.7-28.3-39.2
	s-25.9-17.9-25.9-17.9l9.7,15.2l2.4,11.8l-5.3,2.3c0,0-8.4,34.6-16.7,33c-8.3-1.5-2.1-15.9-7.9-23.5c-5.9-7.6-11.9-16.9-6.8-35.9
	l-6.4,1l-8.1-2.5l2.1,16.4l10.7,16.2l1.8,7.1l-6.4,1.7c0,0-19.4-1.3-23.1-7.6l-9,14.9l-4.8,1.5c0,0-11.9-12.6-8.8-25.2l-20.9,6.6
	c0,0-6.5,11.3-11.5,12.8c-5.1,1.4-10.1,12.7-31.9-4.3l-2.8,5.7l-12.9-5.7c0,0-17.2-10.8-19.1-32l-12.2-5.9l0.3,12.3l-6.8,21.1
	c0,0,12.3,4.1,17,4.1s-4.7,9.1-4.7,9.1s-11,8.8-17.3,6.2s-21.8-11.6-21.8-11.6s-10.1,4.4-19.2-4.3s-10.3-11-7.1-12
	s13.8-0.2,13.8-0.2s-4.1-8.2-3.9-12.5s7.1-16.6,7.1-16.6l-4.8-5l-1.3,5c0,0-9.6,22.1-31.3,8.8c-21.8-13.3-23.9-25.8-22.3-29.8
	l-9.7,6.4l-3.4,2.2l2.2,8.6l11.8-3l-3.2,7.9c0,0,6.4,16.8,13,18.2c6.6,1.5,15.8,0,15.8,0l-2.4,11.3c0,0-15.7,23.9-32.1,15.2
	l-0.7,3.1l8.7,6.1l1.7,3c0,0-8.8,11.8-35.3-5.4c0,0-13.1-18.2-13.1-22s-6,0-6,0s-21.2-1.6-25.3-17.7c0,0-12.3-3.9-15.4-7.9
	s-11.2-13.7-9.8-25.2s-17.1,1-17.1,1l10.7,19.4l-1.1,4.1l-1.8,7.6l-0.6,3.9c0,0,8,2.1,11.1,4.1s12.9,5.7,13.8,20.7
	c1,15,2.6,19.9-4.2,15.5c-6.8-4.4-30.5-21.9-31.2-27.8l-22,0.4l-15.5,3.4l2.6,4.2l14.5,14.1l1.7,4.6c0,0-11,11.7-23.4,4.7
	s-21.9-14.6-21.9-14.6v8.6V84l-20.4-13.7l-2,9.5c0,0-9-2.9-13.7-15.2c-4.8-12.2-4.2-17.7-4.2-17.7s-13.4,1-19.3-6.9
	c-5.8-7.9-5.2-2.9-5.2-2.9s5.2,11.1,5.5,13.3c0.3,2.2,0,14.2,0,14.2l-7.2-1.5c0,0,3.8,34.2,2.1,39.4s-1.5,12.1-7.5,5.7
	s-7.3-9.1-7.3-9.1s-2.3,9.9-12.2,0.9c-10-9-21.7-22.8-34.6-27c-13-4.2-8.3,4.2-8.3,4.2s22.2,8.3,27,24.3c4.9,16,1.1,15.9-3.5,12.8
	c-4.7-3-29.4-10.1-29.4-10.1l-17.3-7.1l3.1,18.9v3.8l-7-3.8c0,0-30.4-23.6-26.9-33.9c3.5-10.3,3.5-10.3,3.5-10.3s-4.9-2.1-3.9-13.1
	L425.1,73l-11.2-12.9l-1.6,12l-11.1-6.3v20.7l3.6,6.6l-13.7-5.2c0,0-12.7-12.9-13.9-20.8s-1.6-10.2-1.6-10.2l-22.2-17.4l-0.8,10
	c0,0,16.8,9.9,18.6,10.9s1.9,5.5-4.8,8.1s-21.1,3.6-26.8,1.3l-5.7,11.5l-7.4-9.2l-4.9-10.2c0,0-9.4-8-9.7-15S309.1,34,309.1,34
	l-16.7,6.2l-1.5,11.3l-9.2-1.1l2.1,13.9c0,0-7,24-18.7,26.3l-3.8-1.2c0,0,4.1-17.2,2.8-20.3c-1.2-3.1-6.8,5.8-6.8,5.8
	s-4.3,11.7-12.6,14c-8.3,2.4-13,5.8-13,5.8s-0.5-13.7,2.5-19.8c3-6.1,6.7-15.7,6.7-15.7l-12.6-15l1,25l-3.6,7.8l-5.9-4.8"/>
<path class="st5" d="M1605.6,1234c0,0,7.3-5.9,15.4-2.9c5.1,1.9,10.5,7.2,14.6,19.8c0,0-11.1-27.2-31.7-9"/>
<path class="st5" d="M1621.1,1231.1c10.2-32.6,31.6-0.7,31.6-0.7s-12.4-46.4-37.3-8.9"/>
<path class="st5" d="M1648.3,1233.7c0,0-2.5-8.9-2-10.7"/>
<path class="st5" d="M1646.2,1215.8c0,0,10.6-17.5,29.9,3.2c0,0-11.8-29.6-33.2-7.4"/>
<path class="st5" d="M1638.6,1217.4c0,0-1.1,9.9,1.4,13.6"/>
<path class="st5" d="M1666.3,1237.3c0,0-12.4-16.6-9.8-28.3"/>
<path class="st5" d="M1649.1,1212.5c0,0-1.4,7.6,0.7,10.1"/>
<path class="st5" d="M1657.8,1203.3c0,0,1.3-10.9,8.5-12.5c0,0-12.1-3.2-17.9,16"/>
<path class="st5" d="M1613.5,1219c0,0,6.8-38.3,27.8-26.6c0,0-6.8-9.2-15.1-7.1c-5.5,1.3-11.6,7.6-16.7,24.7"/>
<path class="st5" d="M1626.2,1185.2c5-13.2,12.9-15.2,12.9-15.2s-6.4,7.1-6.5,15.7"/>
<path class="st5" d="M1623.2,1195.8c0,0-1.8,10.1-0.6,16.7"/>
<path class="st5" d="M1630.4,1190.6c0,0-1.5,6.5,0,16.2"/>
<path class="st5" d="M1631.9,1216.6c0,0,0.7,6.8,2.1,11.7"/>
<path class="st5" d="M1522.1,1204.5c0,0-6.2-31.8-21-32.2c0,0,17.2-3.2,31.3,31.4"/>
<path class="st5" d="M1508.5,1202.9c0,0,6.6-13-23.4-30.6c0,0,22.3,2.3,32.9,18.4"/>
<path class="st5" d="M1513.6,1176.4c0,0,4-10.6,14.4-12.7c0,0-8.1,4.3-6.7,20.2"/>
<path class="st5" d="M1503.3,1172.6c0,0-1-9,5.2-10.8c0,0-11.6-1.5-13.5,12.7"/>
<path class="st5" d="M1493.7,1177.8c0,0-3,15.6-0.9,26.7"/>
<path class="st5" d="M1498.9,1182c0,0-1,14.7,2.7,20.8"/>
<path class="st5" d="M1484.3,1212.5c0,0-16.9-20.2-5.8-44.3c0,0-14.1,3.3-10.2,38.1"/>
<path class="st5" d="M1484.3,1237.3c0,0,0-26-16.7-24.8c0,0,9.8-2.7,9,25.7"/>
<path class="st5" d="M1467.7,1197.7c0,0-13.2-4.7-15-23.9c0,0,3.8,15.1,15.2,15.4"/>
<path class="st5" d="M1476.4,1196.8c0,0,4.7-0.3,8.7-4.3c4.1-4,7.1-2.1,7.1-2.1"/>
<path class="st5" d="M1474.8,1188.4c0,0,11.7-9.6,18.2-6.3"/>
<path class="st5" d="M1499,1192.5c0,0,4.7,4.4,4.8,14.4"/>
<path class="st5" d="M1485.1,1182.3c0,0-1.8-7.4-8.5-9.4"/>
<path class="st5" d="M1475.6,1176.7c0,0,2.4,2.2,2.2,8.9"/>
<path class="st5" d="M1487.5,1190.6c0,0,1.8,5.2,0,17.4"/>
<path class="st5" d="M1479.3,1196.1c0,0,0.5,2.6-0.7,6.8"/>
<path class="st6" d="M1558.6,674.3c3.3-0.3,7.4-4.3,11-8.7c4.6-5.8,8.4-12.3,8.4-12.3c-5.7,13.3,5.3,7.7,16-2.4s8.3-19.2,4.3-23.9
	s-17.3,2-17.3,2c-0.2-7.7,11.7-17.7,11.7-17.7c22.8,7.8,23.7,3.5,26.3-2.3c2.7-5.8-25.3-25-25.3-25s-21.1-2.5-37.3,11
	c0,0-7.8,4.5-24.5,3.5s-13.5,10-10,12s20.3,11,16,15s-9.3,3.5-8,7.5s12.5,15.8,7.5,17.5s-12.8-8-15-4.5s-14.9,18.5-3.3,27.5
	s29.8,14.3,34.9,44.5c0,0,10.9-20.2,33.7-15c0,0,3.8-9.3,13-9.3s18.2-0.5,16.3-1.7c-1.8-1.2-5.7-1.3-5.7-1.3"/>
<path class="st6" d="M1553.9,718c0,0-9.4-2.6-9.1,3.5c0.1,1.3,0.3,2.3,0.8,3c1.5,2.8,4.9,2.7,5.1,4.7c0.2,2.6,0,5.1,0,5.1
	s4.3,3.6,7.2,0.2c0.4-0.5,0.8-1.1,1.1-1.9c2.7-6.3,6.4-14.7,7.7-14.7s0,37.3,0,37.3s14.8-18.3,24-25s13.2-16,17-18
	s11.9-0.7,11.5-2.3s3.8-12.5-2.2-18"/>
<path class="st6" d="M1545.6,724.5c-1.1,13-14.8,25-14.8,25s-0.2,3.1,10.2,0c0,0-7.7,22.5-13,31.3s-4.1,7.8-6.5,26.5
	c-2.4,18.8-2.6,29.8-6.8,39.8c-4.3,10.1-13.3,40.1-4.6,58.6s38.5,20.5,38.5,20.5"/>
<path class="st6" d="M1550.6,734.3c0,0-10.1,9.2-8.3,13.7c0.4,1.1,1.9,1.5,4,1.5c6.7,0,19-4.6,17.5-7.2c-2-3.3-6-7.8-6-7.8"/>
<path class="st6" d="M1518.8,900c0,0,1,14.6,19.3,24.5"/>
<path class="st6" d="M1518.1,834.8c0,0,5.5,7.5,6.7,14.7c0,0,2.4-20.9,8.3-28c0,0-1-29.9,2-37.3s8.2-23.1,9.7-28.9s1.5-5.8,1.5-5.8"
	/>
<path class="st6" d="M1558.3,746.8c0,0-2.1,3.7-1.5,20s6.4,36.3,7.1,48.5s-1.1,104.5-1.1,104.5s25.7,16.3,57.4-15.4
	c0,0,13.1-16.2,6.1-34.7l-6.4,0.1"/>
<path class="st6" d="M1606.6,788.3c0,0,7.6-0.7,6.8-8c0,0,0,18.5,4.2,27s8.3,19.8,5.3,40c-1.5,10.1-2.5,17.5-3,22.4
	c-0.6,4.9-0.8,7.3-0.8,7.3s0,19.5-14.5,25.7s-34.1,18.7-40.5-2.7"/>
<path class="st6" d="M1583.5,964c4.7,1.7,7.1,6,7.1,6c5.2,13.5-10.7,25-10.7,25s0.2,12.3,2,17.3s15,4.5,16.3,10s-13.2,4.5-17.3,4
	c-4.2-0.5-7.3-7.5-9.7-16.3c-0.7-2.7-1.2-12-1.6-23.7c-0.9-26.2-1-64.1-1-64.1s9.8,11.3,27.1,8.4c17.3-2.8,24-6.8,24.5-10
	s-0.1-16.3-0.1-16.3"/>
<path class="st6" d="M1601,928.7c0,0-4.8,43.2-10.3,41.3"/>
<path class="st6" d="M1612.3,938.7c0,0,9.7-2,18.7-7.6c7.3-4.5,14.2-11.4,15.3-21.4c2.3-22.3-0.8-43.2,2.3-49.3
	c3.2-6.2-1.3-22-1.3-25s3.7-48.5-10.7-83.4c-14.3-34.8-17.5-42-17.5-42"/>
<path class="st6" d="M1631,931c-0.9,53.8-14.1,70.1-24.2,69.5s-10,7.3-10,7.3l-2.2,11"/>
<path class="st6" d="M1508.5,901.9c0,0,0,20.9,9,39.1c0,0,2.5,6.4,4.5,19.8s10.3,24.9,10.3,29.8s-0.6,53.3,3.3,66.5
	s10.9,92,10.8,103.5c-0.1,7.6,0.5,25.2,0.9,36.3c0.2,5.6,0.4,9.5,0.4,9.5"/>
<path class="st6" d="M1547.2,1196.8c-10.4,9.6-25.9,7.6-32.1,7.5s-11.5-5.5-8.3,3.8s23.8,14.5,23.8,14.5s5.8,1,7.6,0"/>
<path class="st6" d="M1550.8,1218.3c0,0-2.5-11.5-7.8,0s-51.3,7.8-51.3,7.8s-9-2.3-2.3,6s24.9,16.3,78.3,13v4.3h18.8
	c0,0,4.5,0.4,4.5-7.3s0.6-41.6-8.3-26.8S1550.8,1218.3,1550.8,1218.3z"/>
<path class="st6" d="M1587,1211.6c0,0,3.7-30.4-5.2-41.6c0,0-3.6-53.9-3.3-59.5s0-63.5,0-63.5s3.9-2.4,4.6-8.3"/>
<path class="st6" d="M1599.3,1194c7-28-7.8-65.5-11.6-98.5c-3.8-33,0-48.5,0-48.5l4.8-20.5"/>
<path class="st6" d="M1590.6,1224c0,0,12.8,2.5,13.2-5.3s0-24.8,0-24.8s-7.8,3.8-16.1,2.8"/>
<path class="st6" d="M1570,993.7c0,0-3.1,34.6-1.3,37.3c1.9,2.6,12.5,2.4,12.6,0s-0.3-4.7-0.3-4.7"/>
<path class="st6" d="M1561.8,591.1c0,0,15.5-1.3,15.5,1.9s1.8,7,1.8,7v-10.3c0,0-4.9-4-7.5-3.1"/>
<path class="st6" d="M1565.1,604.8c0,0-12.9-1.6-5.8,8.8L1565.1,604.8z"/>
<path class="st6" d="M1572.7,661.4c0,0,11.4-0.3,11.6,6.1s0.6,6,3.3,5.5s2.5,7.9,3,10.2c0.5,2.3,2.9-6.8,5.8-3.4s2.9,3.4,2.9,3.4
	s0.9-4.4,2.6-6.4s11.6-3.8,11.6-3.8c-1.6,2.3-2.1,7.3-2.2,11.8c-0.1,4.6,0.2,8.6,0.2,8.6"/>
<path class="st6" d="M1593.6,584c0,0,16.5-2.6,22.4,6l3.1,3.3c0,0,7.2-1.5,13.2,9.7s6.8,53.3,1.5,62.8c0,0,2-11.8-2.8-11
	s-1.6,22.8-5.5,23.8c0,0,3.1-13.3-0.3-14.5s-9.9,1.5-11.9,9"/>
<path class="st7" d="M205.3,15.3c0,0-7.5,40.3,21.7,63.7C227,79,242.5,37.7,205.3,15.3z"/>
<path class="st7" d="M168-0.8c0,0-4.8,31.4,37.5,41.3"/>
<path class="st7" d="M193.5,1c0,0,11.7,9.8,11.8,14.3"/>
<path class="st7" d="M188,34c0,0,4,10,4,22.5c0,13.5-4.7,29.9-24.2,39.7c0,0-16.3-47.1,17.7-63.7"/>
<path class="st7" d="M211.4,59.4c0,0-14,2.4-19.3-2.9"/>
<path class="st7" d="M185.4,80.9c0,0,3,21,21.3,16.5"/>
<path class="st7" d="M211.8,90.7c0,0-6.3-24.2-14-31.4"/>
<path class="st7" d="M163.9,72c0,0-5.4,27.2-22.8,29c-17.3,1.8-3.3-1.1-1.2-14.5c2.1-13.4-4.3-15.5,22-45.3c0,0,5.1,5.3,3.5,16.3"/>
<path class="st7" d="M168.7,9.5c0,0-2.2,33.2-4.8,34.7"/>
<path class="st7" d="M153,94.7c0,0,10.5,4.4,14.5,23.3l3.7,1.7c11.3,2.2,7.3-30.7,7.3-30.7"/>
<path class="st7" d="M151.3,96.4c0,0,4.7,8.3-9.8,31.8c0,0,10.8,4.3,12.5,11.3s5.7,4.6,8.5-5s-6-24.8-8.5-26.8s-2.5-2-2.5-2"/>
<path class="st7" d="M138.6,101.5c0,0,7.8,35.2-2.2,47c0,0-1.1-8.7-13.2-26.5"/>
<path class="st7" d="M135.3,101.5c0,0-9.6,24.5-21.8,29.5s-9.3,2.3-4.2-9.2c5.1-11.4,3.1-29.8,17.8-27.3c0,0,5.3,1.4,6.7,4.2"/>
<path class="st7" d="M133.1,138.9c0,0-2.4,6.1-5.1,8.1c-2.7,2.1-4.1,8.3-0.7,12.7s13.5,12.9,13.5,15.2s14.6-27.1,10.9-39.5"/>
<path class="st7" d="M161.3,121c0,0,6.8,0.2,7.4,11.2c0.6,10.9,5.1,14.2,5.1,14.2s-6.2,3.3-14.2-4.9"/>
<path class="st7" d="M175.3,118.5c0,0,3.9,9.3,15.9,1.5c0,0-7.7-8.1-2.1-29.3"/>
<path class="st7" d="M225.7,37.4c0,0,18.8,28.1,19.3,35.1s16.1-26.2,8.5-52c0,0-5.5-16.4-11.8-19.5"/>
<path class="st7" d="M224.3,0.3c0,0,14.1,4.6,2.7,40.2"/>
<path class="st7" d="M254,22.3c0,0,22.3,32,36.7,29.2c0,0,2.1-0.3-1.5-20.2c-3.6-19.9-8.4-24.4-26.8-30.3"/>
<path class="st7" d="M268.4,39.4c0,0-9,9.6-4.9,26.2c0,0-1.8,11.6-19,23.3s-14.3,3.1-13-4.3c1.2-7.4,7.8-25.4,7.8-25.4"/>
<path class="st7" d="M263.5,65.7c1.8,9.4-1.3,23.8-1.3,23.8s-0.9,4.6,4.2,0s23.9-16,14.8-40.1"/>
<path class="st7" d="M298,1c0,0-12.6,4.8-11.7,18.8"/>
<path class="st7" d="M290.7,41.2c0,0,18.2-4.7,22.8-14.8c0.5-1,0.8-2.1,1-3.2c1.8-12.3,0-22.2,0-22.2"/>
<path class="st7" d="M308.5,32.5c0,0,2.1,22.4,13.1,30.8c0,0-4.9-15.5,8.1-30.8c0,0-11.6,0.9-16.3-6.2"/>
<path class="st7" d="M321.7,63.3c0,0,0,0,6,11.7s7.3,4,7.3,4c7.8-10,5.2-25.7,5.2-25.7c-8.2-7.9-10.3-20.8-10.3-20.8
	S318.8,18.2,324.6,1"/>
<path class="st7" d="M339.1,1c0,0,4.2,4.5,7.7,14.3c3,8.4,5.5,20.6,4.5,37.2c0,0-0.6,13.7-5,7.4c-4.4-6.3-6.2-6.6-6.2-6.6"/>
<path class="st7" d="M362.6,1c0,0-16,8.5-15.8,14.3s36.3,18.3,52.2-3.7c0,0-9.9-6.4-18.3-8.5c-8.4-2.1-10.2-2.2-10.2-2.2"/>
<path class="st7" d="M351.2,37.2c0,0,18,22.6,36.9,19.9s1.5-4.5-10.5-19.9c-12-15.5-15.9-14.1-15.9-14.1"/>
<path class="st7" d="M389.8,19.8c0,0,12.5,28.7,11,52.5s4.7,16.9,3.7,20.8c-1,3.9-29-8-29.2-37.6"/>
<path class="st7" d="M351.5,48.7c0,0,11.1,10.5,19.5,11.7s-11.8,17.9-31.7,9.5"/>
<path class="st7" d="M391.9,25.1c0,0,3.2-0.6,7.1-1.9c5-1.7,11.1-4.8,12.7-9.5c2.8-8.3,7.8-12.7,7.8-12.7"/>
<path class="st7" d="M394.5,32.5c0,0,14.6,25.5,32.7,16.9c18.1-8.6,24.1-13.7,22.2-14.2c-1.9-0.6-25.7-0.4-32.3-2.7
	c-6.7-2.2-18-9.4-18-9.4"/>
<path class="st7" d="M400.9,65c0,0,9.7,11,11.1,7.1c0.8-2,0.7-8.4,0.5-13.8c-0.2-4.8-0.5-8.9-0.5-8.9"/>
<path class="st7" d="M432.3,46.9c0,0-4.9,31.2-9.5,26.1c-4.7-5.1-10.3-14.6-10.3-14.6"/>
<path class="st7" d="M432.3,34.3c0,0-24.9-14.5-19.7-15.2s53.5-4.7,53.5,5c0.1,9.7,1.3,27.3-26.6,18.9"/>
<path class="st7" d="M433.8,46.1c0,0-4.5,22.2,0,26s18.6-6.3,20.2-16.2c1.6-9.8-11.9-12.2-11.9-12.2"/>
<path class="st7" d="M465,37.2c0,0,4.4,5.1,5.2,17.7s3.4,13.1-5.2,8c-1.2-0.7-2.2-1.3-3.2-1.9c-6-3.6-7.8-4.9-7.8-4.9"/>
<path class="st7" d="M469,46.9c0,0,17.8,1.7,17.3,23.6c-0.1,2.8,17.2,3,25.8,0.8c8.7-2.2-0.8-4.3-2.8-4.7c-2-0.4-15.3-8.2-22.7-21.4
	c-7.4-13.2-20.5-17.3-20.5-17.3"/>
<path class="st7" d="M461.8,60.9c0,0-1.3,19.2,11,27.4s12.8,11.5,13.5,6.5V70.5"/>
<path class="st7" d="M445,69.2c0,0,3.1,24.6,35.6,34.8c32.6,10.3,25.4,6.4,29.2,10.3c3.8,3.9,5.6,0.8,5.9-4.3s-9.5-29-29.4-32.8"/>
<path class="st7" d="M432.3,80.1c0,0-3.4,15.4,23.5,32.2c0,0,11.1,14.2,10.4,3.8c-0.7-10.4-3.6-20.9-3.6-20.9"/>
<path class="st7" d="M490.9,51.7c0,0,11.2,3.8,17.2,2c0,0,25.4,12,31.3,31.3c5.9,19.3-1.8,25.8-15,10s-30.5-22.3-30.5-22.3"/>
<path class="st7" d="M466.1,24.2c0,0,20.8-5.5,32.5,7.3c11.8,12.8,22.1,9.4,24.7,12.2s-12,9.4-15.2,9.9"/>
<path class="st7" d="M529.6,69.2c0,0,14.4-9.3,12.7-17.5s-2.2,1.7-24-2.3"/>
<path class="st7" d="M437.6,17.8c0,0-2.1-17.5,1.4-16.8c3.4,0.8,23.8,17.7,25.4,20.4"/>
<path class="st7" d="M462.5,1c0,0-11.1,12.3,26.3,24.1"/>
<path class="st7" d="M488.9,1c0,0,1.8,6.5,6.8,11.6s2.8,9.5,7.8,1.6c5.1-7.9,6.3-14,6.3-14"/>
<path class="st7" d="M517.5,0.2c0,0,0.3,3.1,2.7,7.2c2.4,4,6.9,8.9,15.5,12.5c4.3,1.8,7.3,3,9.4,3.8c6.3,2.2,4.5,0,3.1-5.8
	c-1.8-7.8-7.5-16.8-7.5-16.8"/>
<path class="st7" d="M498.9,17.2c0,0-0.7,5.3,18.6,5.1"/>
<path class="st7" d="M518.3,3.3c0,0-10.7,24.3,17.9,46.1"/>
<path class="st7" d="M542.4,53.7c0,0,19.4,15.3,19.1,9.7c-0.3-5.7,5.3-17.2-16.4-39.7"/>
<path class="st7" d="M545.8,1c0,0,13.2,11.6,16.1,13.2c1.4,0.7,0.5,2.6-1.5,4.3c-2.4,2-6.5,3.9-10.8,3.8"/>
<path class="st7" d="M555.2,36.2c0,0,1.9-1.8,3.5-4.6c2.1-3.4,3.8-8.3,1.6-13"/>
<path class="st7" d="M561.9,14.2c0,0,24.9-1.1,35.8,18.7c10.8,19.8,3.9,12.1-13.2,13.8c-17.1,1.8-25.7-6-26.7-13.6"/>
<path class="st7" d="M582.3,1c0,0,0.7,3.2,1,6.9c0.3,3.8,0.3,8.2-1,10.6"/>
<path class="st7" d="M598.3,18.5c0,0-9.5,3.5-15-10.6"/>
<path class="st7" d="M602.8,44.1c0,0,3.4,20.7,34.2,18.9s-4.8-10.6-13.2-26.8C615.4,20,605.5,12.9,602,10.7c0,0-5.3-3.1-4.5,2.4
	s0.8,5.5,0.8,5.5l3,21.4"/>
<path class="st7" d="M580.3,46.9c0,0,3,23.7,12,29.8c9,6.1,7.5,2.7,8-5.8c0.5-8.5,4-22.5,4-22.5"/>
<path class="st7" d="M614.2,58.8c0,0,2.5,5,4.2,10.4c0.9,2.9,1.7,6,1.7,8.6c0.1,7.2-1,7-8.8,0s-11-6.9-11-6.9"/>
<path class="st7" d="M648.4,60.9c0,0,19.5,14.1,17.1,18.1s-15.6,11.2-31.3,0.7c-15.7-10.6-15.7-10.6-15.7-10.6"/>
<path class="st7" d="M609.3,1c0,0,8.3,8.8,2.5,17.9"/>
<path class="st7" d="M628.8,1c0,0-1.8,11.7,0,17.5s-0.1,8.6-6.5,4.5s-8.9-7.8-8.9-7.8"/>
<path class="st7" d="M643.8,1c0,0-0.3,10.6-4.5,13.2s-10.6,7.2-5.5,8.2s29.4,0.8,27.5-14.4c0,0,0.1-5.4-2.3-6.9"/>
<path class="st7" d="M628.6,24.4c0,0,4.2,2.2,10.5,11.7s35.2,3.2,35.3,5.7c0.1,1.5-3.5,6.3-10,9.8c-4.6,2.5-10.6,4.3-17.8,3.8"/>
<path class="st7" d="M650.6,21.1c0,0,1.9,8.4,19.9,9.5c18,1,31.5-6.8,24.7,5.6s-6.3,18.3-33,16.7"/>
<path class="st7" d="M660.4,14.2c0,0,18.6,8.3,23.5,15.8"/>
<path class="st7" d="M694.9,29.2c0,0,7.8-2.6-1.1-15c-8.8-12.4-9.9-14-9.9-14"/>
<path class="st7" d="M693.8,38.7c0,0,24,7.9,25.2,20.8s2.8,23.3,0,22.7S684.5,60.9,683.9,51"/>
<path class="st7" d="M705,1c0,0-4.5,19.8,11.2,29.6c7.8,4.9,11.2,7.4,12.5,7.1s0.5-3.3,0-9.5c-0.2-2-0.3-4-0.4-6.1
	c-0.7-10.9-1.1-21.9-1.1-21.9"/>
<path class="st7" d="M734.1,1c0,0,10.8,28.1,18,21.7c7.3-6.4,7-20.5,7-20.5s-6.7,25.2,0,26.1s12.3-1.8,12.3-1.8s13.4-2.3,11.2-5.5
	c-2.3-3.1-7.9-14-5.8-20.1"/>
<path class="st7" d="M728.2,22.1c0,0,11.9,4.5,15.4,5.9c3.6,1.4,4.7-2.3,2.7-5.9"/>
<path class="st7" d="M729.3,35c0,0,0,10.3,10.2,15c8.3,3.8,13.6,6.2,20.8,3.9c1.6-0.5,3.4-1.3,5.2-2.3c1.9-1,3.4-1.8,4.7-2.3
	c5.6-2.5,5.2-1.7-3.7-5.7c-11-4.8-15.1-16.1-22.8-15.7"/>
<path class="st7" d="M768.8,28.3c0,0-4.3,13.5,13.5,15.5c17.8,2,21.3-9,22.5-16.8s10.3-12.6-6.3-7.3
	C781.8,24.9,769.2,25.8,768.8,28.3z"/>
<path class="st7" d="M761.7,53.4c0,0-1.4,9.3,9.9,19.7c11.3,10.4,18.6,14.3,31.5,12.1s2.4-7.7-4.3-12.1
	c-6.8-4.4-15.9-25.5-28.6-23.8"/>
<path class="st7" d="M780,43.5c0,0,1.2,14.3,19.5,26.5c18.3,12.3,40.8-28.1,34.5-26.5s-35.9,4.6-44.8,0.4"/>
<path class="st7" d="M805.2,25.2c0,0,7.8,21.4,19.6,19.7"/>
<path class="st7" d="M789,1c0,0-2.3,10.4,6.4,8.5c3.1-0.7,7.5-2.9,13.9-7.6c0,0-6.8,13.7,17,29.7s36.9-7.3,34.8-9.4
	c-2.1-2.2-18.7,3-27-4.6S819,1.9,811.3,2.8"/>
<path class="st7" d="M796.5,20.3c0,0-3.9-7.8-1.2-10.8"/>
<path class="st7" d="M859.3,21.5c0,0,0.3-0.9,0.8-2.4c1.4-4.4,3.8-13.7,1.3-17.7"/>
<path class="st7" d="M875.5,0c0,0,9.6,3.9,16.2,30.8c4.4,18.1-3.5,15.6-9.8,10.6c-3-2.4-5.7-5.4-6.4-6.9c-1.1-2.5-4.3-6.6-7.8-9.9
	c-2.8-2.8-5.8-5-7.7-5.4"/>
<path class="st7" d="M867.7,24.6c0,0-13.7,14-3.4,29.1c0,0-16.7-3.8-15,2s8.7,16.1,28.3,15c0,0,28.3,23.5,43.8-3.2
	c0,0,3.3-2.3-7.2-2s-28.3-16.8-30.9-23"/>
<path class="st7" d="M892.1,43.4c5.9-0.7,17.5-15.1,17.5-15.1s3.8,16.2-6.3,33.4"/>
<path class="st7" d="M890.5,6.3c0,0-0.4,13,19.2,22c4.7,2.2,9.3,4.2,13.4,5.9c13.1,5.5,22.5,8.1,21.6,2.9c-1.2-6.9-6-28.4-13.2-28.9
	C924.3,7.7,889.9,2.7,890.5,6.3z"/>
<path class="st7" d="M923.1,34.2c-2.2,15.6,14.8,29.2,15.4,29.6c0,0,14.4,14.4,17.2,4.8c2.8-9.6,12.7-34.8-11-31.6"/>
<path class="st7" d="M932.8,0c0,0-1.2,8.8,10.2,13.5c1.4,0.6,2.7,1.2,3.8,1.8c7.7,4.2,8.8,8.1,17.9,6.2c10.4-2.1,14.2-0.7,6.3-7.5
	c-7.8-6.8-9.3-12.5-9.3-12.5"/>
<path class="st7" d="M944.7,14.3c-4,9.6,4.1,16.6,4.1,16.6s23.8,21.1,42.5,12.8s19.3-15.2,15.5-15.4c-3.8-0.1-25.5-13.1-32.1-10.7"
	/>
<path class="st7" d="M960,44.3c0,0,7.3,0.9,15.1,8.1s29.1,6.2,26.8,4.3c-2.3-1.9-17.8-5.5-20-11.1"/>
<path class="st7" d="M956.7,65.1c0,0,16.3,18.7,33.2,4.4c16.9-14.3,3-11.5,3-11.5"/>
<path class="st7" d="M1003,37.2c0,0,19.7,12.4,15.1,15.2c-4.6,2.8-16.2,4.3-16.2,4.3"/>
<path class="st7" d="M984.1,0.7c0,0-4.5,14.2-2.4,17.5"/>
<path class="st7" d="M988.6,0.7c0,0,10,15.6,9.7,24.3"/>
<path class="st7" d="M1003.3,0.7c0,0-11.8,7.8-3.2,17.5c3.5,3.9,14.7,9.7,26.4,14.6c17,7.2,34.9,12.7,30.6,8
	c-7.3-7.9-13.4-9.1-17.3-19.2S1024,0,1024,0"/>
<path class="st7" d="M1033.3,35.6c0,0-6.1,8.1,6.2,19.2c7.1,6.4,1,12.9-4.8,20s-10.5-7.7-10.5-7.7s-8.3-27.1,2.4-34.3"/>
<path class="st7" d="M1058.5,26.2c0,0-0.6,15.9,5.8,22.3s12.3,18.8,6.7,19c-5.7,0.3-22.3,0.3-29.1-9.7"/>
<path class="st7" d="M1034,11.5c0,0,14.2-10.4,56.7-3c0,0-6.3,15-17.4,19.1c-5.2,1.9-11.5,1.4-18.6-4.1L1034,11.5z"/>
<path class="st7" d="M1102.6,51.2c6.2,1.9-2.7,23.5-9.2,31.3s-8.2,2.9-10.7-7.6s-5.4-13.9-5.4-13.9s-10.4-10.5-4.1-33.4
	C1073.2,27.6,1074.3,42.7,1102.6,51.2z"/>
<path class="st7" d="M1083.3,20.1c0,0,6.6,1,13.3,5.8c4.5,3.2,9,8.2,11.5,15.6c6.1,18.5-5.5,9.7-5.5,9.7"/>
<path class="st7" d="M1096.6,25.9c10.7-3.5,22,6.3,22,6.3s5.2,7.4,6.5,16.3s30.4,42.9,30.3,31.7c-0.1-11.3-2.4-46.8-29.4-56.3
	s-32.6,0-32.6,0"/>
<path class="st7" d="M1089.9,22.1c0,0,12.3-19.3,27.7-21"/>
<path class="st7" d="M1123.1,22.9c0,0,19.5-10.5,27.5-5.6s-2.2-14.2-9.8-16.1"/>
<path class="st7" d="M1131.4,26.2c0,0,30-7.2,41.4,1.4s15.9,25.9,10.8,25.7c-5.1-0.2-35.4-8.3-35.4-8.3"/>
<path class="st7" d="M1154.9,69.8c0,0,15.6,3.8,20.4,12.6s8.8,12,11.8-2.8s-12.3-28-12.3-28"/>
<path class="st7" d="M1185.5,51.7c0,0,15.3,4.1,25.5,26.3c1.9,4,3.5,8.7,4.9,14c0,0,2.3,6.8,5.8,9s4.8,4.7-2.8,4.7
	c-7.6,0-22.3-1.6-32.2-24.3"/>
<path class="st7" d="M1211,78c7.8,0.8,15.4,2.5,15.4,2.5s2.5,3,0-4.5s-16.7-32.9-41.3-29.7"/>
<path class="st7" d="M1175.5,29.9c0,0,15.7-38.4,54.6-26.1c0,0,6.9,2.7-1,6.5s-37.7,24.2-38.5,35.7"/>
<path class="st7" d="M1163.6,24.1c0,0,20.4-10.8,17.8-22.9"/>
<path class="st7" d="M1159.8,1.2c0,0-8.2,6-7.7,11.5"/>
<path class="st7" d="M1150.6,17.3c0,0-1.7,3.9,0,6.1"/>
<path class="st7" d="M1192.9,40.3c0,0,23-17.2,52.3-3.6c0,0,7.3,3.1-0.8,4.3c-5,0.7-12.7,4.9-22.2,7.2c-5.8,1.4-12.1,2.2-19,1.1"/>
<path class="st7" d="M1222.4,67.7c0,0-3.2-10.1-0.2-19.5"/>
<path class="st7" d="M1225.5,47.3c0,0,2.6,4.7,9.2,12.5s27.1,19.7,23.5,22.6c-3.6,2.9-19.3,5.6-30.9-3.8"/>
<path class="st7" d="M1233.6,32.7c0,0,26.5-9.1,23.6-12.4s-21.3-1-31.7-7.9"/>
<path class="st7" d="M1208,24.7c0,0-0.4,6.5,4.6,7.7"/>
<path class="st7" d="M1247.9,39.7c0,0,22.7,2.6,46.5-15c0,0,8.7-6.5-7-4.4s-30.3,0-30.3,0"/>
<path class="st7" d="M1233.9,44.4c0,0,15.3-2.9,24.7,10.1c2.3,3.3,4.8,5.8,7.2,7.7c7.1,6,13.3,7.2,11.7,9.4
	c-2.1,3-27.3,1.3-27.3,1.3"/>
<path class="st7" d="M1271,36.7c0,0,9.7,8.6,17.5,11.5s17.2,4.7,10,9.7c-7.2,5.1-32.7,4.3-32.7,4.3"/>
<path class="st7" d="M1264.8,73.4c0,0,3.8,14.2,25.7,13.6c21.8-0.7,42.6-9.9,37.7-11.3c-4.9-1.4-43.1-17.2-48.8-13.7"/>
<path class="st7" d="M1254.5,84.1c0,0,4.9,24,33.3,23.1c0,0,1.2-0.1,2.4-0.4c2.2-0.7,4.5-2.4-1.2-6.6c-8.8-6.4-12.7-15.4-12.7-15.4"
	/>
<path class="st7" d="M1290.2,106.7c-1.3,12.4,12.4,19.4,15.8,24.4c0,0,17,16.4,11.7-1.7c-3.1-10.7-4.9-23.7-7.7-32.8
	c-1.9-6.3-4.4-10.6-8.1-10.8"/>
<path class="st7" d="M1310,96.7c8.2,1.6,15.5,10.5,15.5,10.5s11.3,9.8,27.7,3.3c0,0,9.9-5.1-3.7-4.8s-19.1-26-27.7-25"/>
<path class="st7" d="M1299.9,125.2c0,0-8,28.5,0,23.7s14.2-11.6,14.2-11.6"/>
<path class="st7" d="M1325.5,107.2c0,0,8.8,59,17.7,44.6c8.8-14.3-1.8-39.1-1.8-39.1"/>
<path class="st7" d="M1348.5,112c0,0,2.8,19.2,23.1,27.5c0,0,3.5,1.8,4.7,5s4.6,5.5,8.8-0.7c4.3-6.2-9.3-50.5-50.6-49.7"/>
<path class="st7" d="M1346.2,131.4c0,0,27.1,45.4,28.6,29.2s-5.3-22.1-5.3-22.1"/>
<path class="st7" d="M1346.5,141c0,0,3.5,24.7,14.2,34s11.8,14.7,14.4,8.5c0.7-1.5,1-3.7,1.1-6.2c0.3-7.3-1.3-16.7-1.3-16.7
	s33.6,8.4,32.2-11.3"/>
<path class="st7" d="M1300.5,53.4c0,0,36.9-17.2,24.9-16.7s-44.1-4.1-44.1-4.1"/>
<path class="st7" d="M1310.5,69.3c0,0,28.8-11.6,24-12.6s-23.8,0.4-28.4-6"/>
<path class="st7" d="M1318.7,44.2c0,0,45.5-2.4,44.1,2c-1.3,4.3-15.8,18-40.9,18.3"/>
<path class="st7" d="M1348.2,95.6c0,0,30.9-8.2,15.9-15c-15-6.7-45.5-14.8-45.5-14.8"/>
<path class="st7" d="M1352.1,56.3c0,0,0.3,8.1,17.4,12.9c15.3,4.3,22.2,4.3,5.6,11.9c-1.9,0.9-4.2,1.9-6.8,3"/>
<path class="st7" d="M1375,113.8c0,0,55.2-3.4,35.3-8.9c-19.9-5.6-34.8-1-36.7-23.1"/>
<path class="st7" d="M1384.9,133.6c0,0,23.8,26.5,25.9,10.9s-3.3-29.2-15.2-32.5"/>
<path class="st7" d="M1376.8,175.8c14,32.4,37.9,18.3,37.9,18.3s3.9-1.9,0-4.5c-1-0.7-2.6-1.4-4.8-2.2
	c-11.1-3.7-12.5-13.5-12.5-13.5"/>
<path class="st7" d="M1388,162.4c0,0-1.2,6.7,9.3,11.5c5.6,2.6,14.6,4.7,29,5c41.3,0.9-20.4-23.3-20.4-23.3"/>
<path class="st7" d="M1426.3,179c0,0,8.3,10.8,0,11.3c-8.3,0.6-11.7-0.7-11.7-0.7"/>
<path class="st7" d="M1409.1,125.2c0,0,10.1-4.4,14.2-1.7c1.4,0.9,2.1,2.5,1.5,5.4c-2.3,11.4-11,28.9-13.6,29.1"/>
<path class="st7" d="M1423.3,123.4c5.4-24.6,13.2-4.4,13.2-4.4s5.6,6.9,3.5,16.2c-1.7,7.3-8.1,16-25.7,24"/>
<path class="st7" d="M1439.9,135.2c11.3-6.7,9.2,5,9.2,5s-16.9,22.2-26.8,22.6"/>
<path class="st7" d="M1434.4,169.5c0,0,17.7-7.6,27.6-22.7c0.7-1,1.3-2,1.9-3.1c9.4-17.1,12.5-17.9,12.8-8.5
	c0.3,9.5,2.2,40.5-38.7,37"/>
<path class="st7" d="M1464.2,167.7c0,0-4.6,20.3,1.9,17c0,0,41.5-45.6,0-78.9c0,0-5.3-6.1-4.3,6.1c0.9,12.2,1.7,30.3-2.7,38.8"/>
<path class="st7" d="M1428.3,189.9c0,0,10.4,4.2,21,2.6c5.2-0.8,10.5-3,14.6-7.8"/>
<path class="st7" d="M1467.8,182.7c0,0,0.6,1.5,2.6,3.4c3.6,3.4,11.5,8.1,27.7,7.7c25.3-0.7-8.3,18-29.2,9.5
	c-20.8-8.5-22.1-10.6-22.1-10.6"/>
<path class="st7" d="M1470.5,186.1c11.9-3.1,23-22.2,32.7-33.1c9.7-10.9,6.3,4,6.3,4s-3.8,31.5-17.7,36.7"/>
<path class="st7" d="M1503.9,194.1c0,0,2.2-2.1,5.2-5.9c7.3-9.3,19.4-28.6,15.3-50.5c-5.8-30.8-10.8,8.2-14.3,15.3"/>
<path class="st7" d="M1499.9,201.9c0,0,38.6,8.7,52.9-32.3c0,0,3.4-22.6-8.8-1c-12.3,21.6-34.9,19.5-34.9,19.5"/>
<path class="st7" d="M1519.7,170.8c0,0,11,1,21.8-29.8s16.3-6.3,7.7,19.9"/>
<path class="st7" d="M1520.9,126.7c0,0,2.5-39.8,10.1-24.2s8.1,36.7,5.1,51.6"/>
<path class="st7" d="M1553.1,132c0,0,11-26,17.4-11.6c6.4,14.3-7.7,45.7-17.1,47"/>
<path class="st7" d="M1566.3,116.1c0,0,3.1-14.6-10-24.1s-10.9-3.2-9.5,0s6.9,23.3,3.7,34.7c0,0-1.5-11.6-10.4-17.7
	c-8.8-6.2-5.1,4.8-5.1,4.8"/>
<path class="st7" d="M1521.2,122.6c0,0-25.2-26.8-21.3-31.1s20.2-10,28.4,7.4"/>
<path class="st7" d="M1547.2,87c0,0-5.9-12.4-27.5-14.4s-0.1,5.9,2,12.7s2.1,6.8,2.1,6.8"/>
<path class="st7" d="M1512.8,87.1c0,0-5.1-10.9-16.5-16.2c-11.4-5.3-0.8-10.2,5.3-10c6.2,0.2,19.8,0.2,26.7,13.3"/>
<path class="st7" d="M1505,88.3c0,0,1.2-14.5-23.9-11.8s-28.4,0.9-15.7-8c12.8-8.9,22.7-19.9,36.2-7.7"/>
<path class="st7" d="M541.3,98.7c0,0,8.1,19,12.9,10s0-46.7,0-46.7"/>
<path class="st7" d="M146,0.3c0,0,22.1,6,20.3,34.2"/>
<path class="st7" d="M153.9,50.7c0,0-20.8-5-13.6-49.7"/>
<path class="st7" d="M126.3,2.8c0,0-18.6,29.8-3,45.9S132.9,9.5,126.3,2.8z"/>
<path class="st7" d="M141.3,72.2c-9.2-28.2-18-16.9-18-16.9s-10,26.9,3.8,39.3"/>
<path class="st7" d="M117.5,37.2c0,0-9.4-9.1-16.3-12.8c-4.1-2.2-7.3-2.4-7,2.4c0.9,12.9,15.4,48.9,25.5,49.1"/>
<path class="st7" d="M97.8,2.8c0,0-1.8,6.2,3.5,21.7"/>
<path class="st7" d="M105.5,27.2c0,0,14.1-2.4,14.6-26.2"/>
<path class="st7" d="M120.1,13.6"/>
<path class="st7" d="M133.2,42.5c0,0,13.5,7.5,13.2,18.5"/>
<path class="st7" d="M112.8,77c0,0-16.2,5.4-13.4,21.1c2.8,15.7,4,28.1-2.8,35.3c-6.9,7.2,1.8,7.5,12.8,5.4s14-16.8,14-16.8"/>
<path class="st7" d="M112.8,71.3c0,0-2.1,19,9.5,23.2"/>
<path class="st7" d="M102.2,53c0,0-21,14.4-21.4,29.9c-0.4,15.5,1.9,39.7-11.8,29.6c0,0,7.1,11.8,16.6-1.8
	c9.4-13.5,14.9-23.1,14.9-23.1"/>
<path class="st7" d="M91.3,1c0,0,6.8,25.4-24.3,43.2c0,0-3.6,0.9-3,5.3c0.6,4.4-22.1-21,7.8-48.5"/>
<path class="st7" d="M58.6,19.5C59.2,6.1,33.8,1,33.8,1s-8.5,24.9,2.5,36.2c11,11.3,15.6,17.4,21.2,2.2"/>
<path class="st7" d="M19.6,12c0,0,20,13,8,38c0,0-2,2.7-8-0.6"/>
<path class="st7" d="M46.8,47.2c0,0,0.2,28.1-3.5,26.3C39.5,71.7,27.5,50,27.5,50"/>
<path class="st7" d="M19.6,68.5c0,0,1.8,4.4,5,6.4c3.2,2,7.8,1.7,13.4-7.8"/>
<path class="st7" d="M43.3,73.4c0,0,13.5,21-9,33.4c0,0-2.6,2.3-2.9-5.4s-6.8-26.6-6.8-26.6"/>
<path class="st7" d="M77,37.2c0,0-8.3,10.2-10.2,24.8s-9.6,17.3-8.2,18.9c0.5,0.6,3.1,1.4,6.6,1.3c5.8-0.1,14.2-2.4,19.9-11.8"/>
<path class="st7" d="M28.7,88.4c0,0-13.2,15.5-3.3,32.6c10,17.1,15.4,36.6,17.9,30.2c2.5-6.4,7.2-30.4,7.7-32.5s-12.3,3.4-7.7-19.4
	c0,0,3.5,2.8,10-2.5c3.2-2.6,7.1-7,11.8-14.6c0,0,2,12.6,1.2,19.2c-0.9,6.6-13.5,3.5-3.3,7s17.7-13.7,17.7-13.7"/>
<path class="st7" d="M72.9,116.3c0,0-6,44.1-11.1,33.7S51,123.9,51,118.7s2.3-21.9,2.3-21.9"/>
<path class="st7" d="M77.3,117.2c0,0-0.4,3.8,22.7,10.6"/>
<path class="st7" d="M94.3,138.3c0,0-1.6,12.4,9.5,21.7s22,25.8,23.3,20.3s0.3-20.6,0.3-20.6"/>
<path class="st7" d="M68.6,139.9c0,0,19.1,13.9,20.1,19.9s1.8,14.5,5.6,6.9c3.8-7.6,3.2-14.3,3.2-14.3"/>
<path class="st7" d="M43.3,151.3c0,0-0.6,12.9-3.8,15c-3.1,2.1-7.9,5.7,0,5.5c4.7-0.2,10.9-0.7,15.6-5.5c3.1-3.2,5.6-8.2,6.7-16.3"
	/>
<path class="st7" d="M55.1,166.3c-1.4,7.3,6.7,13,6.7,13s4,3.4,5.5,12s-1.4,13.9,5.6,8s8.7-27.5-1.2-38.4
	C61.8,150,61.8,150,61.8,150"/>
<path class="st7" d="M90.6,171.8c0,0-10.9,0.6-11.9,9.6s-2.3,21.5,4.4,27.9c6.7,6.4,10.5,10.9,9.5,18s4.6,6.9,9.6-1.5
	c2.4-4.1,4.3-9.6,4.2-15.5c0-6.2-2.1-12.8-7.9-18.5C87.4,180.8,90.6,171.8,90.6,171.8z"/>
<path class="st7" d="M92.1,169c0,0,22.9,6.5,25.9,21.5s9.8,15.8,11,17.3s-6.6,10.1-22.6,2.5"/>
<path class="st7" d="M114.7,170.8c0,0,1.5,7.1,1.8,15.3"/>
<path class="st7" d="M78.7,148c0,0-7.1,6.1-5.1,15.3"/>
<path class="st7" d="M57.5,175c0,0-5.4,6.9-6.6,19c0,0,0,0-4.1,2.3s-4.8,1.1-4-6.3s-14.3-17.5-18.2-34.9c-4-17.4,8.2-19.8,8.2-19.8"
	/>
<path class="st7" d="M45.3,170.8c0,0,1.9,12,8.2,12.1"/>
<path class="st7" d="M68.1,200.7c0,0-5.2,10-11.9,16c-2.4,2.2-5,3.9-7.7,4.3c-9.8,1.8,0.7-7,0.9-19l1.5-8"/>
<path class="st7" d="M78.9,202c0,0-7.4,6.8-8.1,17.7c-0.3,4.7,0.5,12.6,1.1,20.3c0.9,10.2,1.4,20.1-1.1,22c-4.5,3.4-10.3,3.8-11,2.8
	s7.1-1.4,6.5-4.8c-0.5-3.4-10.6-11.6-11.4-15.5s-4.5-14.1,1.2-27.8"/>
<path class="st7" d="M92.6,230.3c0,0-0.2,12.3-3.9,21.2s-12.7,9-12.7,8s5.7-1.3,4.8-4.5c-0.9-3.3,0.7-10.1-8.8-15"/>
<path class="st7" d="M97.5,231.2c0,0-4.6,16.1,27.8,27.3"/>
<path class="st7" d="M112.8,212.6c0,0,10.5,18.9,14.8,38.1"/>
<path class="st7" d="M87.4,253.8c0,0-3.7,4.8,4.7,14.2c8.4,9.4,4.5,14.8,6.2,16.5s15.1-5.6,9.2-34.7"/>
<path class="st7" d="M76,259.5c0,0-2.2,8.2-0.9,25.2s-8.8,21.2-8.8,23.3c0.1,2.1,21.1,3.9,26.3-12.5"/>
<path class="st7" d="M94.9,271.6c0,0-4.5,20.9,0,37.8c4.5,16.9-2.7,22.2-2.8,24.4c-0.1,2.3,21.4-5.6,22.6-36.3
	c0,0,2.2-17.2-6.5-25.9"/>
<path class="st7" d="M120.3,256.7c0,0,18,11.3,20,37.6c0,0,1,7-7,0s-19.1-9.8-19.1-9.8"/>
<path class="st7" d="M114.9,289.5c0,0,12.6,4.4,18.8,17.9c1.6,3.5,2.7,7.6,3.1,12.3c0.9,10-2.6,18.6-6.8,24.8
	c-5.6,8.4-12.6,12.3-12.2,8.9c0.6-5.9,4.9-9.4,0.5-21s-7-17.6-7-17.6"/>
<path class="st7" d="M136.2,277c0,0,13.8-1,22.8,7.7s16.1-5.4,16.5-0.3c0.2,3.1-3,9.9-11.5,14.4c-3.4,1.8-7.6,3.1-12.8,3.8
	c-2.9,0.4-6.2,0.5-9.8,0.3c0,0-9.2-0.9-11.4-1.4"/>
<path class="st7" d="M136.9,322.1c0,0,19.3,7,24.4,16.6s11.1,33,4.5,38.5s1.4-6.1-10-15s-19.7-9.6-20.1-30"/>
<path class="st7" d="M130,344.6c0,0,2.1,7.2,6.9,14.7c4.7,7.5-5.4,19.9-3.4,22.3c1.9,2.4,24.7-7.9,24.7-17.1"/>
<path class="st7" d="M167.7,358.1c0,0,10.1,1.8,14.6,10.2s3,33.4,7.1,34.5s19.2-8.4,14.2-25.5s-14.9-34.7-39.1-31
	c0,0,28.2-2.1,24.6-5.3s-12.3,0.5-17.3-10c-1.4-3-2-6.6-2.7-10.3c-1.7-9.2-3.9-18.4-21.1-17.9"/>
<path class="st7" d="M168.7,367.2c0,0,7,6.8,2.6,22.8s-11,22.5-2.6,21c8.5-1.5,18.7-9.6,18-15.7"/>
<path class="st7" d="M196.6,399.9c0,0-7.1,6.2-1.1,16.8s15.4,20.3,11.3,28.5s-7,9.4,1,5s17.9-18.8,12-39s-16.2-21-16.2-21"/>
<path class="st7" d="M171.8,331c0,0,9.7-9,21.3,0s23.2-1.6,23.7,0s-2.5,21-28.6,20.3"/>
<path class="st7" d="M164.1,298.8c0,0,11.9-1.5,18.7,5.2s21.1-8.4,21.8-5.4c0.6,3,0.8,20.9-35.5,22.1"/>
<path class="st7" d="M193.1,356c0,0,34.5-9.1,51.4,13.2c0,0,2.6,2.5-8,7.8c-5.3,2.6-9.6,7.1-14.6,8.2c-5.1,1.1-11-1.1-19.6-11.7"/>
<path class="st7" d="M219.8,411.2c0,0,14.7,8.7,19.4,15c4.7,6.4,10,8.6,6.9-3.8c-1.7-6.7-4.5-14.6-9.3-21.8c-4-6-9.5-11.5-16.9-15.2
	"/>
<path class="st7" d="M236.6,377c0,0,17.5-2.5,32.8,1.7s19.6-3.8,18.8,1.6s-13.8,28.6-51.3,20.5"/>
<path class="st7" d="M233.4,420.6c0,0-13,10.7-7.1,22.4s12.8,23.8,10.3,32s0.3,9.8,6.8,0s12.1-24,5.3-32.5s-6.8-13.2-6.8-13.2"/>
<path class="st7" d="M243.8,415.1c0,0,3.5-4.3,9.7,5.5s14.9,29.8,30.5,28.9c0,0,2.4,0.3,0-10s4.8-18.6-11-27s-18.8-9.7-18.8-9.7"/>
<path class="st7" d="M278.2,394c0,0,0.8-3.5,10.8,0s21.5,0.6,25.5-4.8s5.8,0.2,3,6.3s-12.6,30.2-34.4,27.5"/>
<path class="st7" d="M250.6,459.7c0,0,18.6,16.9,37.6,14.3c19-2.6,3,0.8-7.9-12.5s-11.5-22.3-33.5-31.3"/>
<path class="st7" d="M283.6,430.2c0,0,24.2,7.5,34.2-9.6c0,0,1-1.7-5.8-1.1s-11.3-0.8-11.3-0.8"/>
<path class="st7" d="M284.1,439.5c0,0,6.8-2.3,24.5,2.8s25.1-3.8,26-1.6c0.9,2.1-7,22.8-26.5,25.4"/>
<path class="st7" d="M285.1,444c0,0,4.2,1.2,8.7,8.8s14.1,15.2,21.8,15.2s7.5,8.3-22.5,5.3"/>
<path class="st7" d="M288.2,474c0,0-2.6,7.4,5.1,14.8s40.9,16.3,42.5,21.8s4,9.9,4.8,5.3c0.5-2.9,1.8-13.2-2.8-21.6
	c-2.8-5.1-7.7-9.5-16.2-11.2c-22.6-4.5-20.8-9-20.8-9"/>
<path class="st7" d="M402.8,444c0.9-8.4-11.1-19.6-15.8-22.5c-4.6-2.9-3.5-6.7-3.5-6.7s14-5.4,25.3,6.7c0,0-5.3-3.5-5.3,0
	s5.6,31.7-15,49s11.5,6.4,15,3.8c3.5-2.7,9.6-10.7,12-8.3s-18.8,44.9-49.8,38.3s-9.8-11.8-4-12"/>
<path class="st7" d="M321.6,483c0,0,13.9-11.5,33.3-11c1.6,0,3.1,0,4.5,0c15.6-0.2,19.1-3.8,17.2,0c-2,4.1-15.8,20.3-22.1,21.7
	c-6.3,1.3-16.7,0.5-16.7,0.5"/>
<path class="st7" d="M388.6,470.5c0,0-3.6-28.1-17-29s-0.8,10.5-8.8,20.5s-13.5,10.2-13.5,10.2"/>
<path class="st7" d="M357.9,492c0,0,18.2,1.1,32.9-12.9"/>
<path class="st7" d="M382.5,449.5c0,0,5.7-20.7,8.2-16.3s9.3,13.5,7.2,26"/>
<path class="st7" d="M415.6,466c0,0,13.5-29.1-6.8-44.5"/>
<path class="st5" d="M108,1178.8c0,0,8.3-53.1-1-59.6c0,0,16.6,10.4,10,54.7"/>
<path class="st5" d="M91.6,1155.7c0,0-15.5-18.4-24.5-19.2c0,0,27.4,8.1,32.3,14.5"/>
<path class="st5" d="M106.3,1151.1c0,0-11.8-19.2-21.5-21.5c0,0,20.3,4.6,26.5,13.3"/>
<path class="st5" d="M118.1,1146.1c0,0,10.5,11.3,12.6,20.3"/>
<path class="st5" d="M179.6,1229.3c0,0,7.8-52.7-31-59.1c0,0,29.6-12.5,39,33.5"/>
<path class="st5" d="M188.5,1215.3c0,0-6.1-45.1,18.3-66.3c0,0-18.2,45.6-4.2,82"/>
<path class="st5" d="M190.4,1178.8c-10-36.9-23.6-32.7-23.6-32.7s16.8-6.7,26.7,22.5"/>
<path class="st5" d="M199.5,1176.1c0,0,16,25.4,15.8,45.4"/>
<path class="st5" d="M205,1224.8c0,0-4.6-33.3-7-37.5"/>
<path class="st5" d="M281.3,1219.5c0,0,2.7-71.9-16.3-82.7c0,0,33.5,32.5,26.7,96.5"/>
<path class="st5" d="M272,1227.2c0,0-1.6-50.7,5.2-66.3"/>
<path class="st5" d="M278.8,1156.2c0,0,7.5-13.7,13.8-12.9c0,0-3,4.4-5.1,11.8c-1.3,4.5-2.2,10.1-1.8,16.5"/>
<path class="st5" d="M292.6,1143.3c0,0,12.7,1,17.7,31.5c0,0-16.7-29-22.9-19.7"/>
<path class="st5" d="M353.8,1248.3c0,0,13-51.5,41-59.8c0,0-24.5,3.2-28.7,73.5"/>
<path class="st5" d="M378.3,1257.5c0,0,1.2-37.5-2.6-46.5"/>
<path class="st5" d="M373.9,1204.8c0,0-12.2-25.3-22.6-27.3c0,0,17.7,15.8,18.5,33.1"/>
<path class="st5" d="M388,1196.8c0,0-6.3-48.2,1.2-56c0,0-10.1,9.2-14.6,22.9c-1.4,4.2-2.2,8.9-2.1,13.8"/>
<path class="st5" d="M374.5,1163.7c0.6-15.6-9.7-22.9-9.7-22.9s8.1-1.7,13.7,13.9"/>
<path class="st5" d="M398.3,1209.3c0,0,11-18.1,24.9-9.6c13.8,8.4,14.2,21.3,14.2,21.3s-24.3-35.7-33,0"/>
<path class="st5" d="M452.3,1155.8c7.6-8,16.3-6.8,16.3-6.8c-9,1.7-14,9.5-16.5,15.8c-1.8,4.3-2.4,7.9-2.4,7.9"/>
<path class="st5" d="M435.3,1160.8c0,0,10.1-21.4,43.6-26.2c0,0-17.5-2.2-39.4,8.4c-5.3,2.6-10.8,5.9-16.4,10.1"/>
<path class="st5" d="M439.5,1143c-1.3-10.1-10.6-11.7-10.6-11.7s11-0.8,16.7,9"/>
<path class="st5" d="M448.6,1146.3c0,0,3.8,5.7,3.9,15.5"/>
<path class="st5" d="M441.7,1152.2c0,0,0.4,11.8,0,15.3"/>
<path class="st5" d="M404,1140.6c0,0,9.3-28.9,30.5-34.2c0,0,4.4,0.4,4.8,4.9"/>
<path class="st5" d="M432.4,1114.2c0,0,6.6,0.4,9.3,9.3c2.4,8-2.4-12.3-2.4-12.3c-13.9,0.8-25.6,34.3-25.6,34.3"/>
<path class="st5" d="M390.7,1130.8c-1.9-22.6,26-47.3,26-47.3s-21.1,12.2-26.1,23.6"/>
<path class="st5" d="M389.8,1132.1c-2.3-13.5,0-56.6,0-56.6s-11.5,22.1-11.3,47.3"/>
<path class="st5" d="M398.4,1097.1c0,0-0.4-13.2-2.9-15.6c0,0,6,7.3,6.9,12"/>
<path class="st5" d="M404.2,1097.1c0,0,4.6,21.4,4.1,33.7"/>
<path class="st5" d="M399.3,1103.8c0,0,2.3,24.4,1.1,33.4"/>
<path class="st8" d="M223.3,76c0,0-69.5,81.5-99,186"/>
<path class="st8" d="M438.3,76c0,0-46,28.5-66,76s-56,151-56,176s-20,64-20,64"/>
<path class="st8" d="M276.3,476c0,0-60.5,126.5-27,307s47,184,47,184s21,78.5,43,108s14,34,32,45s62.5,39,66,44s10,9.5,17,12
	s26.5,14-8,15s-25-14.5-43-12s-18,2.5-18,2.5"/>
<path class="st8" d="M104.3,329c0,0-33.5,130-37,208c-3.5,78,4,142.5,0,178s24.5,162.5,37,201s58,171.5,47,209c0,0-2.8,10.7-6,12
	c0,0-12.8,9.7-25.3,9.7"/>
<path class="st8" d="M166,1096.3c0,0-7.8,6.7-4.7,14.7s-0.3,10.5-3.7,15.3c-3.3,4.8-16.3,29.3-20.3,35s-34,18-42,26
	s-9.2,9.3-16.3,11c-7.2,1.7-15.5,16.7-21.7,21.3c-6.2,4.7-16,7.7-7.3,9.3c8.7,1.7,16.3-5.5,24.3-5.3s14.8-9.3,27.7-9.7
	c12.8-0.3,39.2-11.3,49-11.3s27-1,27-1"/>
<path class="st8" d="M213.6,1203.3c0,0,5.8,3.3,13.3,1.7s26.7-6.3,26.7-6.3"/>
<path class="st8" d="M233.6,1185.3c0,0,22.8,16.1,38.3,16.7"/>
<path class="st8" d="M291.6,1205.5c0,0,14.5,6.5,21,14.2s35,16,35,16l9.7,5.7"/>
<path class="st8" d="M377.3,1244.7c0,0,14.2,2,21.7,10.3s11.5,14.7,13,8.7s-2-39.2-12.7-53s-10.7-13.8-10.7-13.8"/>
<path class="st8" d="M326,1098c0,0-6.3,9.3-1.5,16.7c4.8,7.3,14.5,14.7,16.2,22.3c1.7,7.7,12.8,10.7,16.7,17.7s5.7,12,11,18
	s15,18.4,15,18.4"/>
<path class="st8" d="M107,1151c0,0-10.5,2-16.7,5.3s-13.8,2.5-17.3,4.7s-1.8,6.2-6.6,9c-4.9,2.8-19.2,4.8-11.4,7
	c7.8,2.2,30-3,36,1.7s4.3,8.7,4.3,8.7"/>
<path class="st8" d="M211.3,905.7"/>
</svg>
