<?xml version="1.0" encoding="utf-8"?>
<!-- Generator: Adobe Illustrator 22.1.0, SVG Export Plug-In . SVG Version: 6.00 Build 0)  -->
<svg version="1.1" id="Layer_1" xmlns="http://www.w3.org/2000/svg" xmlns:xlink="http://www.w3.org/1999/xlink" x="0px" y="0px"
	 viewBox="0 0 854.2 1341.7" style="enable-background:new 0 0 854.2 1341.7;" xml:space="preserve">
<style type="text/css">
	.st0{fill:#4CA551;}
	.st1{fill:#EF414E;}
	.st2{fill:#4CA550;}
	.st3{fill:none;stroke:#000000;stroke-width:2;stroke-miterlimit:10;}
	.st4{fill:none;stroke:#000000;stroke-width:4;stroke-miterlimit:10;}
	.st5{fill:#4AA852;stroke:#000000;stroke-width:5;stroke-miterlimit:10;}
</style>
<path class="st0" d="M653.7,627.7l-13.6,12l34.3,22l16.9,16.2c0,0,19.1,24.7,19.8,32.5c0.7,7.8,1.3,11.4,1.3,11.4l10.3-16.5
	c0,0-13-29.2-18.3-36.6s-22.2-26.7-34-31.9S653.7,627.7,653.7,627.7z"/>
<path class="st1" d="M747.5,1164.4l-53.9-1.3l2.5,21.2l-1.6,28.6c0,0,21.1,14.5,24.3,22c3.1,7.5,4.2,11,4.2,11s9.5,6.6,14.5,6.7
	c5,0,37.7-3.8,37.7-3.8l2.5-39.6c0,0-0.1-18.4-3.1-26.6c-3-8.3-4-18.1-4-18.1L747.5,1164.4L747.5,1164.4z"/>
<path class="st2" d="M697.8,980.3c0,0-2.4,4.4,0,8.5s8.8,4.8,8.8,4.8s15.8,4.9,30.9-3.5s11.1-11.6,9.1-13.2s-4.8-2.5-4.8-2.5
	l-19,9.3L697.8,980.3z"/>
<path class="st3" d="M456.7,1164.4c0,0,18.1-41.2,0-54.7c0,0,27,4.8,16.5,61.9"/>
<path class="st3" d="M87.5,1165.5c0,0-30.9-24.3-4.4-51.3c0,0-29.5,17.6-14.1,63.6"/>
<path class="st3" d="M51.1,1185.7c0,0,14.5-68.2-17-90.6c0,0,28.7,8.4,31.8,45.5"/>
<path class="st3" d="M330.5,1283.3c0,0,4.6-35.5-8.4-45.8c0,0,23.7,24.2,22.6,56.7"/>
<path class="st3" d="M43.9,1262.1c0,0,26.2-48.2,3.2-60.8c0,0,23.8,13,18.8,40.6"/>
<path class="st3" d="M199.1,1311.9c0,0-18.5-29.2,5-40.2c0,0-9,27,16,47"/>
<path class="st3" d="M220.1,1301.7c0,0,16.8-36.2-14-49.6c0,0,33.5-2.9,34,43.1s-12,46.5-12,46.5"/>
<path class="st3" d="M787.9,1257.7c0,0-7-36,22.1-44.8c0,0-26.4,33.3-11.4,58.8"/>
<path class="st3" d="M652.4,1231.7c0,0,6.1-51.4-21.1-54c0,0,43.7,8,31.7,62.7"/>
<path class="st3" d="M603.1,1271.7c0,0-17.4-43.7,15-58.8c0,0-33,29.1-6,52.9"/>
<path class="st4" d="M595.6,667.2c0,0-16.3,8-14,18c0,0,0.5,2,6.9,2.5s15.1,4.8,16.1,12s-5.3,7,0,11.5s12,10.3,13.5,17h-14.5
	c0,0-2.8,7,1,15s5.5,14.5,23.5,26s13.5,15.8,21.5,16c0,0-0.3,22.5,8,22.5l-9.5,46.5c0,0-14,29-13.5,61s1,171.5,1,171.5
	s19.8,27,22,27.5"/>
<path class="st4" d="M707.1,736.7c0,0-30,15.5-32.5,23.5s-7.8,5-11.5,33c0,0-2.3,14.2-5.5,14.5c0,0-1.8,68.7,0,81
	c0,0,13.8,44.2,17.2,52.3c3.3,8.2,6,30.5,7.6,34s32.1,8.7,38.8,8.7s20.7-9.3,20.7-9.3s4.3-12,6.3-19.3s-5.8-8.5-7-12.3
	s-1-14.7-4.3-25.7s3-17.8,7-24.7c4-6.8,3-23,2.8-36.3s4.8-36.8,4.8-45s-15.3-33.7-23.3-45.3s-25.7-17.7-25.7-17.7"/>
<path class="st4" d="M657.6,1002c0,0-5.3-48-0.8-64.3s0.8-49,0.8-49"/>
<path class="st4" d="M696,979.9c0,0,0.5,14,8.1,15.2c7.7,1.2,21.2,1.5,31-3.7c4.4-2.3,8-4.4,10.3-6.3c2.8-2.3,3.8-4.5,2.4-6.7
	c-2.7-4-6-4-6-4"/>
<path class="st4" d="M649.6,785.2c-8-22.5,26-39.3,28-41.5s9-11.8,9.5-13.5s59.5-15,59.5-15s6.3-6.7,6.2-10.5
	c-0.2-3.8-31.3-1.7-31.3-1.7s-12.9-39.8-39.3-58.3s-28.4-17-28.4-17"/>
<path class="st4" d="M652.4,695c0,0,25.8-18.5,31-10.3s-1,14.5,0,19s-1.5,14.2-2.3,15.3c-0.8,1.2-25.5,19.5-20.7,0"/>
<path class="st4" d="M656.8,705.3c0,0,13.6-12.6,16.6-10.3c3,2.3,4,5,4,5"/>
<path class="st4" d="M665.4,715c0,0,15.2-22.7-2.4-15"/>
<path class="st4" d="M619.5,754.7c0,0,21.3,3.8,16.6-14.7"/>
<path class="st4" d="M604.9,673.7c-1.5,5.5-9.3,0-4.5-14s9,2.7,9,2.7s32.8-2.2,59.5,16.9l5.4,4.1"/>
<path class="st4" d="M619.5,673c0,0-5.6,2.8-1.4,5.7S619.5,673,619.5,673z"/>
<path class="st4" d="M648.4,668.6c-14.6-19.8-76-14.5-76-14.5s43-19.1,64.3-13.4c0,0,43.7,22.7,45,26.5S706,687.5,711,715
	c0,0,3.2,12,0,8.4s-25.6-28.7-25.6-28.7"/>
<path class="st4" d="M636.8,640.7c0,0,8.7-6.8,18.9-14.5c14.2-10.7,31.6-23.2,33.4-21.8c3.2,2.3,3,9.3,3,9.3s9.2-2.8,14.7,3.3
	c5.5,6.2,15.5,10.8,15.7,11.7c0.2,0.8,11.2,24.8,13.3,27.7c2.2,2.8-5.8,46.2-10,46.4"/>
<path class="st4" d="M711.1,723.5c0,0,12.4-14.9,10.3-20.4"/>
<path class="st4" d="M660.6,726.5c0,0,1,9.5-1.6,13.5"/>
<path class="st4" d="M746.6,715.2c0,0,7.3,11.6,17.8,18.1c10.5,6.4,12.2,13.9,15,23.8c2.8,9.8,11.5,21.5,19.7,38.3s3.7,29.5,8,36
	s10.5,19.8,11,31.7c0.5,11.8,4,16.5,2.7,58s3.3,85.7,3.3,85.7s8,32.5,4,33.7c0,0-6.8-8.7-12.7-10.7c-5.8-2-50-9-50-9s2-18.8-17-18.7
	"/>
<path class="st4" d="M818.8,1031.5c0,0-2.9-1.1-6.5-0.9s-7.8,1.8-10.6,7.2c-5.5,10.8-13.7,63-13.9,76.5
	c-0.1,13.5-5.9,45.9,15.5,46.9"/>
<line class="st4" x1="810" y1="1159.7" x2="812.4" y2="1030.5"/>
<line class="st4" x1="704.1" y1="995" x2="704.1" y2="1005.4"/>
<path class="st4" d="M745.4,985.1c0,0,0.4,4.8,1,10c0.5,3.8,1.2,7.9,2,10.3c0,0,8.1,18-3.2,18.7c-11.3,0.7-12.8-5.7-12.8-5.7
	s-1.2,5.6-5,5.7s-23.3-8.4-23.3-18.7c0,0-4.8-0.8-4.3,11.7c0,0-32,10.8-35.3,14.7c-3.3,3.8-7.5,15.2-7.6,34s-4.5,82.2,5.3,87
	s22.2,10.2,44,12s103.3,0.8,113.7-9c10.3-9.8,14.8-29.3,15-41.5s-1.2-63.3-6.7-73.8"/>
<path class="st4" d="M759.8,1005.4c0,0,1.2-13.3-8.3-11.7s-5,1.3-5,1.3"/>
<line class="st4" x1="806.1" y1="1003.4" x2="803" y2="1027"/>
<path class="st4" d="M751.4,1165.5c0,0-6.3,23.6-3,31.9s4.1,53.7,4.1,53.7c2.3,3.3,22.5-2.3,22.5-2.3s5.7-54.3,0-65
	s-4.6-19.3-4.6-19.3"/>
<path class="st4" d="M694.5,1213c0,0-3,10.9-6.4,15.5s-34.5,15.5-34.5,15.5s-4.3,3.9-15,3s-9.9,10.3,4.3,11.8s53.8,4.1,57.5,3.3
	s21.1-9.6,23.2-15.2v10c0,0,25.5,2.4,25.5,0.5s0-5.1,0-5.1"/>
<path class="st4" d="M772.2,1249.5v3.7h-18.8l-0.8-2.2c-18.6,4.4-26.3-1.2-29-4.3c-0.9-1-1.2-1.8-1.2-1.8c-2.1-18-27.9-32-27.9-32
	s3-27.4,0.9-36.3s-1.7-13.6-1.7-13.6"/>
<path class="st5" d="M446.9,1189.7c25.5,7.3,36.7,25,12.2,18.5s-53,4.8-53,4.8s5,10.3,5.8,13.8s39.2,16.5,51.2,26.5s-21,0.5-39,0
	s-14.5-5.5-40-5.5s-24-8-53-17s-38,2-38,2s8.5,18,26,39s35,24.5,37,36s-26-4-52-5s-20-12-40-24s-22-26-51-33s-30.5-13.5-46-2
	s-74.5,22.5-96,24s-35.5,18.5-43,18s16.5-25.5,27-33.6s28.5-31.4,44-39.1s14-33.3,14-33.3c-8,18-41,18.5-66,21.6s-30,11.6-30,11.6
	s-1-18.8,34-27.3s116-90.6,116-90.6s2-150.9-5-179.4s4.5-69.5,4-105s5-98.5-12-112.3s-24.5-65.2-21-77.7s22-129,22-145
	s20-78.5,38-119s32-77.5,32-129s14.6-88.5,19.8-104s-2.3-49.5,17.2-65s18.5-39,21-39s194,7,194,7s-16,22-19,55s-30,51-30,81
	s-8.5,109-19,137s-10.5,28-10.5,28s1.5,20.5-8.5,48s-35.5,59-39,82s-28.5,14-17,141s3,198,3,241s5,94.5,7,118s-1.5,101,7,122
	s27,38.5,46,53s77,40,89,44s9,11-18,14C461.4,1191.5,454.1,1191,446.9,1189.7c-21.5-3.8-42.2-14.3-44.8-18c-3.5-5-44-8.5-59-30"/>
</svg>
