<?xml version="1.0" encoding="utf-8"?>
<!-- Generator: Adobe Illustrator 22.1.0, SVG Export Plug-In . SVG Version: 6.00 Build 0)  -->
<svg version="1.1" id="Layer_1" xmlns="http://www.w3.org/2000/svg" xmlns:xlink="http://www.w3.org/1999/xlink" x="0px" y="0px"
	 viewBox="0 0 2160 2160" style="enable-background:new 0 0 2160 2160;" xml:space="preserve">
<style type="text/css">
	.st0{fill:#4AA852;}
	.st1{fill:#EF414E;}
	.st2{fill:none;stroke:#000000;stroke-width:4;stroke-miterlimit:10;}
</style>
<path class="st0" d="M907.5,1122.7l-1.3,25.1l12,25.7l-5.5,55.9c0,0-16.2,38.4-33.8,45.7c-17.5,7.3-22,19.3-22,19.3
	s-15.1,14.8-73.7,40.7l-10.4,2.6c0,0,20.2-1.3,38.5-5s24.7-4.2,24.7-4.2l35.8,1.1l24.7-3.7l16-5l20.3,9.4l22.5,1.6l14.1-13.9
	l10.3-2.7c0,0,14.7,5.9,34.4,29.8c19.7,23.9,80.3,40.1,81.9,40.9c1.6,0.8,21.8,15.8,21.8,15.8s37.7,12,38,10s-4.9-12.1-4.9-12.1
	l-5.3-16.3l-15.3-12.8l-3.2-8.8l0.1-22.6l-3.5-5.4l25.8,1.2l-12.2-5.7l4.1-10.8l20.5-26.2l2.3-8.5l-31-37.3l5.9-13.8l0.9-22.6
	l2.8-8.4l-0.5-19l12-11.9l-4.6-22.1l-6.1,13.8h-4.8l-3.6-12.8l-6.2-22.2l-29.9-5l-16.4,1.8l-10.9-1.3c0,0-21,14.7-23.4,12.1
	c-2.3-2.6-16.5-18.1-16.5-18.1s-106-6.3-123.8,2.7L907.5,1122.7z"/>
<path class="st0" d="M1197,1301.3l-4.8,7.5c0,0,1.3,22.7,11.3,24c10,1.3,50.8-1.8,50.8-1.8l3-3l-11.8-5l-26.3-5.4l-8.1-8.9
	L1197,1301.3z"/>
<polygon class="st0" points="1278.4,1110 1270.7,1111.2 1277.1,1146 1287.9,1160.8 1310,1184.9 1315,1182.2 1305.3,1158.5 
	1300.7,1141 1295.7,1130.7 1284.5,1124.3 "/>
<polygon class="st1" points="1141,896.9 1131.5,890.6 1125,899.5 1130.3,907.2 1136.3,907.2 1133,924.3 1127.8,933.5 1126.7,965.8 
	1143.3,928 1138.1,901.3 "/>
<path class="st2" d="M1227.5,784c0,0,29,22.5,15.5,62.5c0,0-19-14.8-25.5-14.5s-17.3,9.3-13.5,14.5s8.5,21.3,1.5,26s-22.5,11-34.5-6
	"/>
<path class="st2" d="M1244,809.1c18.3-2.7,9.7-32.1,9.7-32.1h-21c0,0-12.3-32.5-46-23l-4.3,2c-48.9,4.7-41.1,26.3-36.1,34.7
	c1.2,2.1,2.3,3.3,2.3,3.3c-17.1-22.4-23.8,2.8-23.8,2.8c-13.1,18.9,6.8,21.3,6.8,21.3c-6.8,16.4,8.5,12.8,8.5,12.8"/>
<path class="st2" d="M1206.3,812.5c-29.5,1.3-23.8-37.3-23.8-37.3h39.8C1222.3,775.3,1228.8,811.5,1206.3,812.5z"/>
<path class="st2" d="M1204.3,786c0,0-5.4,7.4,0,12C1204.3,798,1208.5,789.8,1204.3,786z"/>
<path class="st2" d="M1222.8,762.4c0,0-21.3-1-24.3,12.9"/>
<path class="st2" d="M1212.9,755.4c0,0-26-3-30.4,19.9c-2.3,12-21.8,18.6-21.8,18.6c0-7.5-6.8-12.6-6.8-12.6s-8.2-0.8-7.6,9.4"/>
<path class="st2" d="M1182.5,756c0,0-3.6,27.7-8.5,30.9"/>
<path class="st2" d="M1234.3,786.9c0,0,5-0.5,5,1.1s0,5.9,0,5.9l-0.8,3.1"/>
<path class="st2" d="M1214.3,831.2c0,0-9.4-0.8-12.4,1.3s-13.7,14.3-13.7,14.3s10.1,4.9,15.9-0.3"/>
<path class="st2" d="M1184,839.9c0,0,4.8,9.9,0,21.1"/>
<path class="st2" d="M1204,830.8c0,0-6.8-17.7,18.8-16.6"/>
<path class="st2" d="M1147.5,798c0,0-3.5,7.8-11.1,9c-1.4,0.2-2.9,0.2-4.6,0"/>
<path class="st2" d="M1141.3,814.2c0,0-0.3-7.1-4.9-7.2"/>
<path class="st2" d="M1148.8,794c0,0,16.1,6,13.3,27.5"/>
<path class="st2" d="M1167,802.6c0,0-5.9,2.6-9-1"/>
<path class="st2" d="M1121.8,812.5c0,0-20.2-2.3-24.5,14.7c0,0,15,26.8,21.5,29.8c0,0-1.1,20,0.8,25.8s5.6,16.4,7.3,16.8
	s1.6-11.3,6.5-8.5s4.9,2.8,4.9,2.8s16.8-15.6,15.9-19.3c0,0,17.8,4.7,21.4-2.9"/>
<path class="st2" d="M1134.3,830.8c0,0-4,19.7,0,21.7c4,2,19.7,22,19.7,22"/>
<path class="st2" d="M1160.7,875.7c0,0-1.2,9.3-6.7,14.8s-13,10-15.9,3.3"/>
<path class="st2" d="M1141,896.9c0.5,0.2-0.5,4.8-2.9,8.2c-1.4,2-3.3,3.7-5.6,3.9c-6.2,0.5-5.8-9.5-5.8-9.5l-1.8,71.3
	c0,0,18.3-34.4,18.3-42.8s-3.9-25.1-3.9-25.1"/>
<path class="st2" d="M1136.3,907.2c0,0-1.6,17.7-3.8,19.3s-5.8,7-5.8,7"/>
<path class="st2" d="M1097.3,827.3c0,0-10.3-2.6-9.8-9.5c0,0-4.5,7.3-11,8.3s-37,15.8-41.5,21.8c-0.6,0.8-1.2,1.4-2,2.1
	c-5.1,4.6-13.4,7-13.5,9.1c-0.1,2.5,2.5,9.9-1.5,16.7c-4,6.8-15.8,36.4-21.8,50.3s-14.5,13.5-14,28.3s-4.5,53.3-4.5,53.3
	s-2.4,21.4,8.5,32.3s22.4,24,23,34s4.9,20.9,11.5,23.5s6.1,5.8,11,9.8s21.8,12.1,22.8,10.8s2.9-14.9-1.5-21c-0.7-1-1.7-2.6-3-4.5
	c-6.5-10-18.7-30.3-21.7-36.5c-3.6-7.4-6.1-1.9-8.8-12.3s-7.1-12.6-6.8-19.5s2.8-10.4-0.5-18.8s-3.9-13.4-3.8-17.5
	s-7.6-17.6-0.8-26.5s21-57.6,21.8-64.1c0,0,0.1-2.4,1.4-6.2c1.3-3.9,3.8-9.2,8.6-15.2c9.5-11.9,5.1-19.6,10.5-25.2
	c5.4-5.6,19.8-19.4,22.5-19.3s24.8,0,24.8,0s-3,22.2,0,24.8c3,2.7,0.5,11-2.3,18.5s-9.8,9-10.8,20.5s-5.9,18.3-6.3,31.8
	s-6.9,12.9-7.8,22.5s-0.8,20.9,3.8,38.5s-2.1,30.9,3.5,38.5s7.8,7,7.8,16s10.3,19.4,10.3,20s9.8,7.9,3.1,12.5
	c-6.7,4.6-13,7.3-10.1,13.8s18.8,28.6,41.5,29.4c22.8,0.8,23.3,6.2,21.5,28.8s1.3,24,8,23.5s5.6,6,12,1.8s15.8-9.9,27.3-13
	s40.4-11.8,40.5-16.3s-3.8-5.1-7.8-12.5s-1-21.4-7.5-21.3s-5.6-6.3-13.8-9s-8.8,3.5-9-5s4.4-5.3-11-18s-21.6-12.8-23.5-22.5
	s1.5-18.3-10.3-21.3c-11.7-3-33.4-30.3-33.2-37.7s1.8-24.8,1.8-24.8"/>
<path class="st2" d="M1055.7,1110c13.5,24.1,42.5,11,42.5,11c3.3,1.9,30.5,6.8,30.5,6.8s3.4,26.4,9.5,23.5s4.4-32.5-1.9-32.9"/>
<path class="st2" d="M1152.1,1132.8c0,0-6.7,30-11.3,30s-7.3-5.9-5.8-12.8"/>
<path class="st2" d="M1050,1092.3c0,0,29.6,2.9,37.8-6.4"/>
<path class="st2" d="M1055.7,1107.1c0,0,23.6,6.4,24.1-16.8"/>
<path class="st2" d="M1031.8,1107c0,0,2.6,28.2,18.2,25.8s24.7-8.8,24.7-8.8"/>
<path class="st2" d="M1034.2,1118.4c-143.2-12-127.4,8.9-127.4,8.9s-0.2,7.3,70.8,8s153.4,4.2,153.4,4.2"/>
<path class="st2" d="M1154.7,1169.8c0,0-5.4,11.3-12.7,12.2c0,0,2.2,20.5-1.1,27.8s-0.9,22.1-2.5,24.3s-5.5,14.3-5.5,14.3
	s22.4,33.4,32.8,35.8"/>
<path class="st2" d="M906.8,1127.3c0,0-5.4,21.5,3.3,33.5s10.6,25.4,8.5,38.3s-5,30.3-6.3,31.8c-1.3,1.5,22.9-14.6,23.1-26.8
	s2-14.3,2-14.3"/>
<path class="st2" d="M912.2,1230.8c0,0-12.2,34.4-34.9,45.3s-13.8,21.5-40.5,33.8s-64.5,28.3-64.5,28.3s-11.8,4.4,8,1.3
	s50.8-12.1,57.5-10.5s30.1,2.1,45.3-0.3s23.5-11.9,35.3-5.5s23.9,14,37,9s11.6-24.3,30-14.3s30.5,40,67.3,53s44.8,12.9,58,26
	s49.8,16.6,48.3,14.8s-6.6,0.5-8.8-17.3s-24.9-22.6-22.8-28.3s5.4-25.9-6-34"/>
<path class="st2" d="M1084,1248.3c0,0,27.3,4.4,36,24s15,43.8,20.8,44"/>
<path class="st2" d="M1205.3,1334c0,0,62.3,0.6,51-7s-35.1-6.9-40.3-13.8s-19-12-19-12"/>
<path class="st2" d="M1124.8,1335.5c0,0,26.1-0.7,27.4,0"/>
<path class="st2" d="M1184.1,1164.6c0,0,23.1,24.2,37.9,22.6c0,0-22.5,26-37.9,62.5c-15.4,36.5-23.8,34.9-23.3,38.8
	s3.6,5.9-4.3,12.8c-7.9,6.9-27.2,28.7-15.7,31.5s26.1,2,34.8,12.3s23.9,28.3,39,25.5s28-2.5,31-1.3s9.8-7.6,0-11.8s-25-3.4-27-6
	s-32.5-37-26.8-45.8s5.3-12.1,12.3-18c3.7-3.1,16.9-22.3,30.4-41.2c12.2-17,24.5-33.7,30.3-38.1c1.5-1.2,2.9-2.5,4-3.9
	c8.2-10.1,7.2-26.1-5.3-34.8c-14.3-9.9-27.6-23.8-27.6-23.8"/>
<path class="st2" d="M1268.8,1204.6c0,0,6,13.3,3.7,17.7s11.6,30.9,21.5,58.8s20.6,29.9,26.5,35.3s56.5,17.8,56.5,17.8s21,10.4-3,14
	s-60.8-11.1-66-7.5s-32,15.1-36.3,2.8s-5.9-18.5-4.5-27s-12.9,0.4-13-9.8s-5.8-32.3-7.3-35s-12.6-24.9-12.6-24.9"/>
<path class="st2" d="M1227.9,1112.6c0,0,21.4-5.1,24.1-0.8c2.8,4.3,15.1,20.5,15,20.9s-7.1,4.5-12.7,1.4c-5.6-3.1-11.8-3.9-11.3-8.7
	"/>
<path class="st2" d="M1238.1,1110.7c0,0,3.8-21.7,6.9-20.4c3.1,1.3,23.8,18.8,25.5,22.8s4,30.8,8.7,37.3
	c4.7,6.6,38.7,42.3,38.8,49.3c0.2,7.1,6.9,14.8-10,7.7s-33.7-32.8-38.7-46.5s-23.1-30.7-23.1-30.7c0,5.6-11.3,5-11.3,5"/>
<path class="st2" d="M1295.7,1187.3c0,0-8.4-18.5-15-24.6c-6.6-6.1-16.5-28.4-16.5-28.4"/>
<path class="st2" d="M1279.9,1108.7c0,0-0.8,10.1,4.4,15.3l26.3-4.8c0,0-2.7-5.3-8.7-9.1s-32.6,1.4-32.6,1.4"/>
<path class="st2" d="M1309.1,1185.6c0,0,27.4-20.2,27.8-23.7c0.3-3.5-6.2-5.1-4.5-6.8c1.7-1.8,7.5-41.5-21.7-35.8"/>
<path class="st2" d="M1284.3,1124c0,0,15.8,9.6,16.3,17c0.6,7.4,1.9,15.5,5.5,19.8c3.6,4.3,7.4,21.3,7.4,21.3"/>
<path class="st2" d="M1123.5,799.1c0,0-9.9,4.5-15.1,2.5"/>
<path class="st2" d="M1130.3,786c0,0-9.6,7.5-14.3,6"/>
<path class="st2" d="M1142.7,778.3c0,0-6-4.6-11.2-3.7"/>
<path class="st2" d="M1146.3,768.8c0,0-3.7-1.4-9.2,0"/>
<path class="st2" d="M1151.9,764.2c0,0-8.5-1.7-4.4-8.2"/>
</svg>
