<?xml version="1.0" encoding="utf-8"?>
<!-- Generator: Adobe Illustrator 22.1.0, SVG Export Plug-In . SVG Version: 6.00 Build 0)  -->
<svg version="1.1" id="Layer_1" xmlns="http://www.w3.org/2000/svg" xmlns:xlink="http://www.w3.org/1999/xlink" x="0px" y="0px"
	 viewBox="0 0 360 183" style="enable-background:new 0 0 360 183;" xml:space="preserve">
<style type="text/css">
	.st0{fill:#FFFFFF;stroke:#000000;stroke-miterlimit:10;}
</style>
<polygon class="st0" points="156.4,16.8 172.9,18.3 172.9,25.3 169.2,20.7 167.2,20.4 168.3,33 171.6,34.1 159.3,39 163.2,34.1 
	162.3,20.6 159.6,20.5 154.5,25.3 "/>
<path class="st0" d="M174.8,9.5l1.3,24.4l-3.3,3.4l9.5-0.8l1.8-1.6l-2.8-1l-0.5-6.4c0,0,1.3-3.8,3.7-0.2s1.9,9.1,1.9,9.1l-2.6,3
	l10.3-2.3l-3.3-2c0,0-1.9-19.4-10-12.5l-1-9l2.5-1.8L174.8,9.5z"/>
<path class="st0" d="M149.1,53.1l2.4,16.1l-4.9-7c0,0-8.8-3.8-9.6,5.3s-0.8,24.4,1.7,28.4s5.7,4.7,7.9-0.8c0,0,0.5-2.6,0.4-4.6
	l-6.1-5.9l13.3-0.1v5.8c0,0-2.3-1.1-2.5,2s-2.4,13-9.9,12.9s-9.4-13.3-9.6-15.2s-2.6-14.9-0.2-24.4c2.3-9.5,6.2-11.6,14.3-8.7
	L149.1,53.1z"/>
<path class="st0" d="M159.1,78"/>
<polygon class="st0" points="156.7,85.6 163.1,86.7 163.1,87.9 161.4,88.8 162.1,95.7 165,97.5 153.4,101.3 157.5,96.1 "/>
<polygon class="st0" points="164,83.3 170.2,80.8 171.6,89.8 176.7,78 183.8,81.3 179.6,83 170.3,101 166.6,84.8 "/>
<path class="st0" d="M159.1,78c0,0-2,0.1-2.3,1.7s1,2.6,1.8,2.6s2.2-0.4,2.3-2.1C160.9,78.4,159.1,78,159.1,78z"/>
<polygon class="st0" points="181.5,85.6 189.5,82.7 186.4,86.6 186.8,96.3 188.6,99.6 177.8,98.8 181.4,95.9 "/>
<path class="st0" d="M184.1,74.4c0,0-2.1,0.3-2.1,2.8s2.8,1.9,3.4,1.3c0.6-0.6,1.1-1.3,0.7-2.6C185.7,74.5,184.5,74.3,184.1,74.4z"
	/>
<path class="st0" d="M190.6,78.9l6-3.8l1.1,2.8c0,0,5-4.4,7.4,0.6c0,0,1.4,2.6,1.3,4.9s1.2,11.2,1.2,11.2l2,1.7l-7.6,5l0.1-17.9
	c0,0-2-3.5-4.7-0.4c0,0-0.6,5.3,0,12.2l2.6,3.6l-9-1.7l2.4-2.1V81.5L190.6,78.9z"/>
<path class="st0" d="M146.8,128.7l0.9,13.9l3.8-10.3l3.7-0.4l-1.4,34.4l-4.5,4.4l13.4-4.3l-2.4-1.3c0,0-1.7-20.4,2-35.8
	c0,0,1.1-1.4,3.3-0.6l7.6,6.6l-5.2-13.6L146.8,128.7z"/>
<path class="st0" d="M165.2,153.6l5.8-5.3l1.7,2.1c0,0,2.2-2.4,5.9-1.5v4.1c0,0-2,0.1-3.4,0.5s-2.7,1.2-2.7,2.6s0.1,8.1,0.1,8.1
	l3.8,2.7L163,170l4.5-3.7l0.1-10.1C167.4,156.1,167.7,153.8,165.2,153.6z"/>
<path class="st0" d="M222,78.5c-2.5-4.6-6.7-2.7-6.8-2.5c-5.7,2.7-6.8,14.1-3.3,18.4c3.5,4.3,6.8,2,6.8,2v8.5c-1.3,1.6-3,0-3,0
	l-0.6-2.7l-7,9.3l5.5-1.9c0,0,0.4,0.4,5.6,0.4c5.1-0.1,5-5.2,5-5.2l0.2-20.7l5.7-5.6H222z M219.1,88.9c0,0-0.3,2.4-2.7,2.5
	c-2.4,0.1-2.5-2.4-2.5-2.4s-0.1-3.1,0-5.9c0.1-2.8,2.9-3.2,2.9-3.2c2,0,2.3,2.3,2.3,2.3V88.9z"/>
<path class="st0" d="M191.5,162c1.1-7.6-1.4-11.1-4.8-11.5c-3.4-0.3-8.5,3.6-8.2,11.5c0.3,7.9,5,8.2,5,8.2l0.6,4l3.7-9.5
	c-2.9,2.1-3.8,1.6-3.8,1.6c-2.9-1.1-1.7-4.1-1.7-4.1L191.5,162z M186.2,154c2.9,0,2.2,4.7,2.2,4.7h-5
	C183.4,158.7,183.3,154,186.2,154z"/>
<path class="st0" d="M200.6,161.6c-2.3-1.4-2.3-2.6-2.3-2.6l7.9-4.7c0,0-2.9-8.5-9.8-6.3c-6.9,2.2-3.7,16.3,3.3,18.8
	c0,0,3.6,0.8,5.6,0l-0.7-7.6C204.6,159.2,202.9,163,200.6,161.6z M197.9,150.6c2.1-0.9,4,3,4,3l-4.6,2.4
	C197.3,156,195.8,151.5,197.9,150.6z"/>
<path class="st0" d="M195.1,27.6l8.6-3.5c-1.6-5.5-6.4-7.5-9.6-4.8c-3.2,2.6-3.7,6.7-1.7,11s10.8,3.1,10.8,3.1l-2.6-4.8
	C196.1,32.7,195.1,27.5,195.1,27.6z M200.1,22.7l-5.1,1.7C195.6,17.8,200,22.7,200.1,22.7z"/>
</svg>
