<?xml version="1.0" encoding="utf-8"?>
<!-- Generator: Adobe Illustrator 22.1.0, SVG Export Plug-In . SVG Version: 6.00 Build 0)  -->
<svg version="1.1" id="Layer_1" xmlns="http://www.w3.org/2000/svg" xmlns:xlink="http://www.w3.org/1999/xlink" x="0px" y="0px"
	 viewBox="0 0 720 168.6" style="enable-background:new 0 0 720 168.6;" xml:space="preserve">
<style type="text/css">
	.st0{fill:none;}
	.st1{fill:#EF414E;stroke:#000000;stroke-width:2;stroke-miterlimit:10;}
	.st2{fill:none;stroke:#000000;stroke-width:0.75;stroke-miterlimit:10;}
	.st3{fill:none;stroke:#000000;stroke-width:2;stroke-miterlimit:10;}
	.st4{fill:#EF414F;stroke:#000000;stroke-width:2;stroke-miterlimit:10;}
</style>
<path class="st0" d="M63.3,5.6"/>
<path class="st1" d="M33.5,74.9c0,0,13-9.8,18,3.5s-8,21.3-18,19.5S23,73.9,33.5,74.9z"/>
<path class="st2" d="M25.8,72.7c0,0,7,0.4,7.7,2.3"/>
<path class="st1" d="M70.6,91.5c0,0-8.7-2.8-9.5,7.5s11.7,11.1,15.4,10.1s16.3-3.4,13.1-16.9s-17.7-6-17.4-1.1L70.6,91.5z"/>
<path class="st1" d="M115.3,134.8c0,0-1.3-1.6-1.5-3.5c-0.1-1.2,0.2-2.5,1.5-3.7c3.4-3.3,3.3-8.9-4.5-8.5s-19.1,0.1-20,10.4
	s5.1,13.1,7.6,13.9s21.4,5.3,22.6-6.9"/>
<path class="st3" d="M124,129.2c0,0-6,4-10.3,2.1"/>
<path class="st1" d="M124,70.9c0,0,3-2.1,1.1-4.9c0,0-13-14.8-21.9,1.6s26.2,30,25.4,5"/>
<polyline class="st3" points="121,69.5 121.9,73.2 124.6,73.2 "/>
<path class="st3" d="M130.8,65.8c0,0-6.8,7.7-8.9,7.4"/>
<path class="st1" d="M151.9,69.5c0,0-2.4-3.9-7-0.8s-11.5,11.7,0,21.4s30.3-8.1,18.9-21.3C163.8,68.9,158.6,62.9,151.9,69.5z"/>
<path class="st3" d="M149.3,62.7c0,0,3.3,1.4,2.6,6.9"/>
<path class="st1" d="M149.3,144.7c0,0-16.6,3.9-16.5,11.4s15.3,18.1,27.1,9S162.2,141.7,149.3,144.7z"/>
<path class="st3" d="M145.5,150.2c0,0,4.4,2.3,6.5,0"/>
<path class="st1" d="M179,110.7c0,0-2.4-8.9-7.4-1.1s-7.1,8.8-4.3,18.3s26.5,8.6,26.1-3.1S190.1,106,179,110.7z"/>
<path class="st3" d="M184,103.2c0,0-3.1,1.6-3.6,2.5s-1.4,5-1.4,5"/>
<path class="st1" d="M207.1,145.3c0,0,0.4-10.8-16.3-5.9s-10.7,23.5,2.5,23.4s19.5-4.1,14.9-16.6"/>
<path class="st3" d="M205.6,145.8c0,0,5.8,2.2,8.5-1.4"/>
<path class="st1" d="M216.5,122.3c0,0-3.3-10.1,11.3-12.5c0,0,2.9-2,3.6-3.5c0.8-1.4,13.7-5.6,16.1,9.1s-19.6,23.4-29.8,13.3
	C217.8,128.7,216.7,125.8,216.5,122.3z"/>
<path class="st3" d="M223,116.8c0,0,4.3-0.7,4.4,3.5s-1.3,7.5-1.3,7.5"/>
<path class="st3" d="M214.1,123.3c0,0,10.9,2.9,13.3-1"/>
<path class="st1" d="M199.1,68.8c0,0-8.1-7.6-10.6,3.8s11.3,20.2,21.3,10.4S209.3,60.7,199.1,68.8z"/>
<path class="st3" d="M200.4,62.7c0,0-0.1,4.5-1.3,6.1"/>
<path class="st1" d="M250.8,70.2c0,0-9.1-8.4-13.4,7.5s6.2,17.8,9.6,18.1s18.3-0.1,16.5-17S250.8,70.2,250.8,70.2z"/>
<path class="st3" d="M252.3,62.7c0,0-2.4,3-1.5,7.5"/>
<path class="st1" d="M283.3,111.9c0,0-6.1-6.9-10.8,1.5s-2.8,21.5,9.4,20.8s14.3-6.6,13.6-18.5S283.3,111.9,283.3,111.9z"/>
<path class="st3" d="M285,102.2c0,0-3.6,3.7-1.8,9.8"/>
<path class="st1" d="M295.6,71.5c0,0-13.4-4.6-10.6,13s17.6,8.8,17.6,8.8s5.3-2.4,4.9-13.4S298.3,69.3,295.6,71.5z"/>
<path class="st3" d="M296.8,65.7c0,0-2.3,0.5-1.1,5.8"/>
<path class="st1" d="M299.6,70.3c0,0-3.6-14.6,10.9-9.4c0,0,6.8-3.5,7.9,5.5s1.1,18.7-10.9,17.8"/>
<path class="st1" d="M352,62.7c2.1,3,1,6,1,6c-3.2,18.3-39.8,6.7-25-9.7s23.8,0,23.8,0"/>
<path class="st3" d="M347.6,61.3c0,0,5.1,1.6,8.5-1.5"/>
<path class="st1" d="M297.4,29.3c0,0-2.1-11.9-18-7.9s-12.3,21.8,0,21.8s18.4-0.5,18.6-12"/>
<path class="st3" d="M292.6,30.3c0,0,6.3,0.4,8.5-1.5"/>
<path class="st3" d="M292.6,28.3c0,0-0.9,4.3,0.6,5.6"/>
<path class="st1" d="M338.3,9.3c-1.2-2.4-5.4-3.3-5.4-3.3c-13.2-4.2-12.1,10-12.1,10s-5.2,13.9,6.8,12.8c0,0,6.3-0.5,7.9-1.8"/>
<path class="st1" d="M346.5,7.9c0,0-8.7-4.2-11.5,8s3.8,13.8,10.5,13.6c6.7-0.2,13.7-4.8,11.9-16.1S346.5,7.9,346.5,7.9z"/>
<path class="st3" d="M351.3,0c0,0-5.9,2.5-4.8,7.9"/>
<path class="st3" d="M313.8,16.3c0,0,5.5-1.6,7-0.3"/>
<path class="st4" d="M397.6,19c0,0-9.9-13.7-19-1.1c-9.1,12.7,2.1,19.3,11,17.1S403.6,25.1,397.6,19z"/>
<path class="st3" d="M402,15.5c0,0-0.4,3.6-4.4,3.6"/>
<path class="st1" d="M408.6,43.2c0,0-10.9-1.1-11,9.1s8.6,11.2,15.3,9.4c6.7-1.8,8.1-5.5,7.4-10.1S416.4,38.9,408.6,43.2z"/>
<path class="st3" d="M410.6,34.4c0,0-2.8,1.3-2.8,3s0.8,5.8,0.8,5.8"/>
<path class="st4" d="M420.4,54.3c0,0,13.8,1.1,10.6-13.4s-9.8-5.4-9.8-5.4s-10.8-0.9-7.6,6.5"/>
<path class="st4" d="M468.6,45.9c0,0,3.9-12.6-11.4-9.4s-13.4,15.7-13.4,15.7s-0.2,9,20.1,7C464,59.2,471.9,57.8,468.6,45.9z"/>
<path class="st3" d="M477.3,43.5c0,0-0.2,5.1-8.6,2.4"/>
<path class="st4" d="M453.1,101.5c0,0-4.7-13.3-17.1-7.5c0,0-10.9,2.3-11.3,8.1s-1.7,11.8,6.7,13.9s20.1,6.5,21.6-9.6L453.1,101.5
	L453.1,101.5z"/>
<path class="st3" d="M446.8,100.4c0,0-0.8,2.5-1.2,5.2s-0.4,5.5,1.2,6.2"/>
<path class="st3" d="M455.5,101.3c0,0,1.8,6.3-9.9,4.3"/>
<path class="st4" d="M467.5,64.8c0,0-12.9-3.2-13.5,9s14.5,16.9,19.8,11.8S483.4,63.5,467.5,64.8z"/>
<path class="st4" d="M509.6,38.8c0,0-9.8-0.4-12.8,7.9s10.7,13.9,15.1,11.7c4.4-2.2,9.4-4.2,9.6-10.7
	C521.9,41.3,517.6,38.2,509.6,38.8z"/>
<path class="st4" d="M553,40.9c0,0-17.8,2.2-13.9,13.4s30,7.9,30.9,0S566.4,39.8,553,40.9z"/>
<path class="st4" d="M584.9,44.4c0,0-11.1,13.9,4.5,15.6s11.1-12.3,11.1-12.3S595.4,39.3,584.9,44.4z"/>
<path class="st4" d="M568.5,86c0,0,6.1-13.7-10-10.8s-24.4-0.6-26.5,9.6s19.7,15.7,26,14.9s9.8-2.6,10-10.4S568.5,86,568.5,86z"/>
<path class="st4" d="M561.5,89.9c0,0,2-0.7,3-2.8c0.4-0.8,0.6-1.7,0.6-2.9"/>
<path class="st4" d="M574.6,87.6c0,0-5.5,1-10.1-0.5"/>
<path class="st4" d="M590.5,102.3c0,0-14.6,0.3-18.1,11s7.6,19.3,19.3,18.5s20.2-4.1,16-17S590.5,102.3,590.5,102.3z"/>
<path class="st4" d="M594.6,97.5c0,0-4.8,3.3-4.1,4.8"/>
<path class="st4" d="M688.9,142.4c0,0,2.6-15.4-15-14s-25.6,10.2-24.1,18.5s9.5,11.4,18.4,11.6s19.2,3.6,20.9-14.5"/>
<path class="st3" d="M683.6,142.5c0,0,12.6,3.1,13.5-6.5"/>
<path class="st3" d="M684.8,136.7c0,0-2.9,6.6-1.1,10.3"/>
</svg>
