<?xml version="1.0" encoding="utf-8"?>
<!-- Generator: Adobe Illustrator 22.1.0, SVG Export Plug-In . SVG Version: 6.00 Build 0)  -->
<svg version="1.1" id="Layer_1" xmlns="http://www.w3.org/2000/svg" xmlns:xlink="http://www.w3.org/1999/xlink" x="0px" y="0px"
	 viewBox="0 0 720 720" style="enable-background:new 0 0 720 720;" xml:space="preserve">
<style type="text/css">
	.st0{fill:#2F8B42;}
	.st1{fill:#2F8B42;stroke:#000000;stroke-miterlimit:10;}
	.st2{fill:none;stroke:#000000;stroke-miterlimit:10;}
	.st3{fill:#18753B;stroke:#000000;stroke-miterlimit:10;}
</style>
<path class="st0" d="M185.9,129.1v20.5c0,4.6-3.7,8.3-8.3,8.3h0c-4.6,0-8.3-3.7-8.3-8.3v-20.5c0-4.6,3.7-8.3,8.3-8.3h0
	C182.2,120.8,185.9,124.5,185.9,129.1z"/>
<path class="st0" d="M150.3,248.2v86c0,6.6,5.4,12,12,12h1.7c6.6,0,12-5.4,12-12v-86c0-6.6-5.4-12-12-12h-1.7
	C155.7,236.2,150.3,241.6,150.3,248.2z"/>
<path class="st0" d="M175.3,305.4L175.3,305.4c0,3,2.5,5.5,5.5,5.5h14.4c3,0,5.5-2.5,5.5-5.5l0,0c0-3-2.5-5.5-5.5-5.5h-14.4
	C177.8,299.9,175.3,302.4,175.3,305.4z"/>
<path class="st0" d="M185,280L185,280c0,6.6-5.4,12-12,12H165c-6.6,0-12-5.4-12-12v0c0-6.6,5.4-12,12-12h8.1
	C179.6,268,185,273.4,185,280z"/>
<path class="st0" d="M173.5,159.6v78.9c0,5.2-4.2,9.4-9.4,9.4h0c-5.2,0-9.4-4.2-9.4-9.4v-78.9c0-5.2,4.2-9.4,9.4-9.4h0
	C169.3,150.2,173.5,154.5,173.5,159.6z"/>
<path class="st0" d="M185.2,193.6v31.9c0,4.3-3.5,7.7-7.7,7.7h0c-4.3,0-7.7-3.5-7.7-7.7v-31.9c0-4.3,3.5-7.7,7.7-7.7h0
	C181.7,185.9,185.2,189.3,185.2,193.6z"/>
<path class="st0" d="M149,245.4v-53.3c0-6.6,5.4-12,12-12h4.5c6.6,0,12,5.4,12,12v53.3c0,6.6-5.4,12-12,12H161
	C154.4,257.4,149,252,149,245.4z"/>
<path class="st0" d="M162,112.5c-0.1,0.2-0.3,0.4-0.5,0.7c-2,2.1-4.1,4.3-5.2,7.1c-1.1,2.8-0.9,5.5-1.3,8.4c0,0.2-0.1,0.4-0.1,0.5
	c0.7,0.5,1.2,1.5,0.6,2.5c-1.2,2.2-1.9,4.6-2.3,7.1c1.7-0.8,3.1-2.2,4.6-3.4c0.6-0.4,1.3,0.4,0.9,0.9c-1.2,2-2.6,3.9-4.3,5.6
	c0,0,0,0.1,0,0.1c-1.1,2.6-3.2,3.7-6,3.5c-0.3,0-0.6-0.1-0.9-0.1v30.8c0,6.6,5.4,12,12,12h7.8c6.6,0,12-5.4,12-12v-69.9
	C172.8,107.5,167.2,109.2,162,112.5z"/>
<path class="st0" d="M161.9,112.5c-0.1,0.2-0.3,0.4-0.5,0.6c-2,2.1-4.1,4.3-5.2,7.1c-1.1,2.8-0.9,5.5-1.3,8.4c0,0.2-0.1,0.4-0.1,0.5
	c0.7,0.5,1.2,1.5,0.6,2.5c-1.2,2.2-1.9,4.6-2.3,7.1c1.7-0.8,3.1-2.2,4.6-3.4c0.6-0.4,1.3,0.4,0.9,0.9c-1.2,2-2.6,3.9-4.3,5.6
	c0,0,0,0.1,0,0.1c-1.1,2.6-3.2,3.7-6,3.5c-0.6,0-1.2-0.2-1.8-0.3c-0.3,0-0.6-0.1-0.8-0.1c-1-0.2-1.9-0.1-2.8,0.5
	c-0.5,0.3-0.9,0.8-1.3,1.3c-0.4,1.2-0.9,2.4-1.2,3.6v37.5c0.4,0,0.7,0.2,0.7,0.7c0.2,8,2.3,15.4,4,23.1c0.4,2,0.8,4.4,0.3,6.5
	c0,0.5-0.1,1-0.5,1.5c-3.2,4.6-3.9,10-3.3,15.3c2,3.9,6,6.7,10.7,6.7h10.8c6.6,0,12-5.4,12-12V107.2
	C170.5,108.3,166.1,109.9,161.9,112.5z"/>
<path class="st1" d="M168.6,164.5c0,0,3.6,9.6,19.9,6.8C188.5,171.4,176.9,157.4,168.6,164.5z"/>
<path class="st1" d="M167.3,153.4c0,0,5.8,5.3,17.9,2.6c0,0-7.3-11.4-13-11.8S167.3,153.4,167.3,153.4z"/>
<path class="st1" d="M184,143c0,0,11,14.1,8.8,20.1c0,0-7.6-4.1-10.1-10.5"/>
<path class="st1" d="M175.1,187c0,0,10-7.1,20.2,0c0,0-12.2,7.1-14.3,5.4c-2.1-1.7-4-4.1-4-4.1L175.1,187z"/>
<path class="st1" d="M181,192.4c-2-0.2-8.3,8.5-8.3,8.5s-0.6,1.6,1.5,1.9"/>
<path class="st1" d="M185.2,191.9c0,0,5.7,0.1,7.2,2.9c1.5,2.8,4.8,6.9,6.6,6.9c1.8,0-11.1,8.2-13.9,5.6"/>
<path class="st1" d="M174.2,202.8c0,0,7.8-2.1,11.1,6.1c3.3,8.2,5.1,5.5,5.1,5.5s-13,2.3-15.1-1.8
	C172.9,208.6,171.4,204.3,174.2,202.8z"/>
<path class="st1" d="M172.7,226c0,0-3.2-7.6,17-7.8c0,0-0.3,6.4-3.8,6.4C182.4,224.7,175.1,222.3,172.7,226z"/>
<path class="st1" d="M172.7,226c0,0-2.1,10.4,21.1,7.5c0,0-9.4-7.4-7.9-8.9"/>
<path class="st1" d="M182.1,157.1l2.2,0.5c-2.2-0.5-2.8,0.3-2.8,0.3c-11.2,8.8-18.8-1.8-18.8-1.8c-2.6-7.9,4.6-5.6,4.6-5.6
	s1.2,4.8,14.9,6"/>
<path class="st1" d="M182.7,233.9c3.4,0.3,3.2,8.9,3.2,8.9c-16.4,2.1-15.9-7.3-15.9-7.3c0.3-3.9,3.3-6.2,3.3-6.2
	S174.3,233,182.7,233.9z"/>
<path class="st1" d="M170.5,250.4c0,0-0.6,9.6,17.6,3.8c0,0-7.4-5.6-11.9-7.8C171.8,244.2,170.5,250.4,170.5,250.4z"/>
<path class="st1" d="M174.9,257.4c0,0,4.9,6.6,6.1,12.4c1.2,5.8,4.8,4.9,4.8,4.9s-7.2,4.7-11-1s-4.4-11.8-2.2-14
	C174.9,257.4,174.9,257.4,174.9,257.4z"/>
<path class="st1" d="M176.8,281.4c0,0,18,14.3,17.7,17.8c0,0-5.8,7.2-16.6-6.8C167.2,278.5,176.8,281.4,176.8,281.4z"/>
<path class="st1" d="M182.7,286.3c0,0,0.9,0.8,3.2-0.8c2.3-1.6,8.6-2.3,8.6-2.3s-5.8-9.8-8.6-8.5"/>
<path class="st1" d="M193.1,300.3c0,0,5.3,7.8,16.6-7.7c0,0-13.5,0.5-20.1-1.4c-1.2-0.4-2.2-0.8-2.9-1.4"/>
<path class="st1" d="M187.4,300.5c4,1.5,4.2,3.7,4.2,3.7s4.6,0.1-4.9,1c-9.4,0.9-12.8-8.5-12.8-8.5c-1.8-6.1,4.1-4.3,4.1-4.3
	S182.8,298.8,187.4,300.5z"/>
<path class="st1" d="M186.6,305.2c2.6,0,5.3,3.3,7.3,6.1c2,2.9,3.3,5.6,3.3,5.6c-21.2,0.4-22.3-6.6-22.3-6.6c-2-4.3,1.1-9.9,1.1-9.9
	S180,305.1,186.6,305.2z"/>
<path class="st1" d="M200.1,301.6c0,0,5.5,4.2,10.1,3.7c0,0-5.2,7.1-16.2,6c0,0-4.3-5.7-5.3-6s4-1.2,4-1.2l-2.7-2.5h3.9
	C193.8,301.6,197.5,303.1,200.1,301.6z"/>
<path class="st1" d="M176.8,314.5c0,0,17.4,13.5,17.7,20.8c0,0-16.2,3.6-18.5-1.4C173.8,328.9,168.9,310.5,176.8,314.5z"/>
<path class="st1" d="M173.5,350.8c0,0,11.4-4.4,13.2-8.8c0,0-3.2,0.9-4.6,0s-14.9-1-13,4.4S173.5,350.8,173.5,350.8z"/>
<path class="st1" d="M165.6,163.8c0,0,18,14.3,17.7,17.8c0,0-5.8,7.2-16.6-6.8S165.6,163.8,165.6,163.8z"/>
<path class="st1" d="M157.4,169.9c0,0-5.9-1.9-4.1,4.3c0,0,3.4,9.4,12.8,8.5c9.4-0.9,4.9-1,4.9-1s-2.2,0.1-4.2-3.7"/>
<path class="st1" d="M166.1,182.6c2.6,0.3,5.3,3.3,7.3,6.1c2,2.9,3.3,5.6,3.3,5.6c-21.2,0.4-22.3-6.6-22.3-6.6
	c-2-4.3,1.1-9.9,1.1-9.9s1.9,4.9,12.6,4.5"/>
<path class="st1" d="M171,332.8c0,0,5.5,4.2,10.1,3.7c0,0-5.2,7.1-16.2,6c0,0-7.7-2-1.6-9.9"/>
<path class="st1" d="M174.9,331c-3.8,4.2-13,1.1-13,1.1s-2.3-1.3-1.8-4.2c0,0,0.4-2.7,1.8-3.3c0,0,10.6-0.9,12.4,4.2"/>
<path class="st1" d="M183.9,183.9"/>
<path class="st1" d="M159.3,305.2c0,0,0.7,5.8,5.3,7.7s5.6-1.5,9-0.3c0,0-1.7-9.5-9-10.5c-7.3-1-10.9,3-10.9,3"/>
<path class="st1" d="M161.3,298.4c0,0,5.5,2.3,8.1-3.3s4.5-4.6,4.5-4.6s-11.5-5.4-15.3,1.6s-5.9,3.2-5.9,3.2"/>
<path class="st1" d="M157.8,271.4c0,0-4.1,6.4,1.2,8.5s7.6-1.9,8.5-1.1c1,0.9,1,2.3,0.6,2.7c0,0,2.7-3.6,0.8-5.9
	c-1.9-2.3-7.2-5.8-9.3-2.9"/>
<path class="st1" d="M164.1,269.7c0,0,3.7-1,5-7s4.4-5.9,4.4-5.9s-9.4-2.8-9.9,3.1c-0.5,5.9,1.6,5.3,1.6,5.3"/>
<path class="st1" d="M162.1,239.2c0,0,5.2-1.7,6.8,0.8c1.5,2.5,1.2,3,3.7,4.1c2.5,1.1,3.4,0.3,3.4,0.3s-5.9,5.7-8.3,4.1
	c-2.4-1.6-4.2-3.2-4.2-7.1"/>
<path class="st1" d="M163.5,230.8"/>
<path class="st1" d="M165.2,231.5c0,0,5.3,0.9,5.3-7.6c0-8.5,4.9-4.8,4.9-4.8s-4-6.4-9.4-2.6s-2.9,10.7-1.6,10.3s0.7-1.6,0.7-1.6"/>
<path class="st1" d="M162.8,197.1c0,0,7.9,3,6.7,7.9c-1.1,4.9-0.6,5.1,0.5,6.5c1.1,1.4,2.9,0.4,2.9,0.4l-3.4,2.2c0,0-5.1,1.6-6-4
	c-0.9-5.6,2.4-7.7-0.3-10.2"/>
<path class="st1" d="M153,163.6c0,0,3.5,5,5.8,2.9s1.8-5.4,4-5.3s3.5,2,3.5,2s-3.7-6.3-6.7-6.9s-10-0.1-10.6,7.8"/>
<path class="st1" d="M153.7,152c0,0,3.7,4.1,10.9-3.9l2-2.9c0,0-1.3,5.3-5,2.9s-0.8-6.4-4.7-6.4c-3.9,0.1-4.3,6.2-1.1,6.5"/>
<path class="st1" d="M153.6,200.9c-4.5-0.9-4.5-0.9-4.5-0.9l-5.3,5.9c0.5,2,0.9,4,1.3,6c0,0.2,0.1,0.4,0.1,0.6
	c1.4,2.3,3.7,4.4,7.3,4c7.9-0.8,6.2,4,7.6,1S158.1,201.8,153.6,200.9z"/>
<path class="st1" d="M147.6,249.9c0,0,3.5,13,9.4,9.5s5.8-6.3,8.1-5.3c2.4,1,3.1,0,1.4-1.5s-6.5-9-10.4-5.8"/>
<path class="st1" d="M149,146.5c-0.7-0.5-1.4-0.9-2-1.1c-0.2,0-0.4-0.1-0.6-0.1c-0.1,0-0.3,0-0.4-0.1c-0.1,0-0.2,0-0.3-0.1
	c-2.1,0-4,1.6-5.3,6.1l1,15c0,0,6.1,0.1,7.6-10.4c0,0-0.2-5.2,1.3-5.3C151.8,150.4,152.3,148.9,149,146.5z"/>
<path class="st1" d="M144.4,176.1c0,0,9.6,0.5,8.1,13.6c0,0-0.2,2.6,1.6,2.9c1.8,0.3-1.2,2.8-3.8,2.9c-2.6,0.1-7.4-1.5-9.9-9.4"/>
<path class="st1" d="M146,226l-4.5,6.5c0,1.1,0.1,2.2,0.3,3.2c2.7,3.1,9,8.7,14.5,2.9c2.4-2.6,3.8-3.7,4.6-4
	C159,230.9,153.8,223,146,226z"/>
<path class="st1" d="M140.4,276.5c0,0,3.3,9.3,9.9,10s9.7,0,9.7,0s2.5-3-11-13.2"/>
<path class="st0" d="M187.6,277.3L187.6,277.3c0,1.3-1.1,2.4-2.4,2.4h-0.5c-1.3,0-2.4-1.1-2.4-2.4l0,0c0-1.3,1.1-2.4,2.4-2.4h0.5
	C186.5,274.9,187.6,276,187.6,277.3z"/>
<path class="st1" d="M183.5,286.4c0,0-6.2-4.8-8.7-5.3c0,0-2.7-7.7,1.3-6.2"/>
<path class="st1" d="M174.9,273.7c0,0,2.6,5.7,11.8,0.9c0,0-4.4,1.5-5.6-4.8"/>
<path class="st1" d="M174.1,275.4"/>
<path class="st0" d="M185.8,283.2l-2.1,2.7l-6.1-4.1l-1.2-5.8l1.6,0.7c0,0,4.7,1,7.8-1V283.2z"/>
<rect x="343.9" y="81" transform="matrix(0.1233 0.9924 -0.9924 0.1233 430.5184 -242.1075)" class="st0" width="16.8" height="83.1"/>
<path class="st0" d="M303.4,118.3l-5.8-6.3c-4.5-4.8-12.1-5.2-17-0.7l0,0c-4.8,4.5-5.2,12.1-0.7,17l5.8,6.3c4.5,4.8,12.1,5.2,17,0.7
	l0,0C307.6,130.8,307.9,123.1,303.4,118.3z"/>
<path class="st0" d="M300.1,131.9L300.1,131.9c4.3,4.7,11.7,5,16.4,0.7l3.5-3.2c4.7-4.3,5-11.7,0.7-16.4l0,0
	c-4.3-4.7-11.7-5-16.4-0.7l-3.5,3.2C296,119.9,295.7,127.2,300.1,131.9z"/>
<path class="st0" d="M310.4,139.9l0.6,0.6c3.2,3.5,8.6,3.7,12.1,0.5l0.6-0.6c3.5-3.2,3.7-8.6,0.5-12.1l-0.6-0.6
	c-3.2-3.5-8.6-3.7-12.1-0.5l-0.6,0.6C307.4,131,307.2,136.4,310.4,139.9z"/>
<path class="st0" d="M313.2,137.5l-0.5-4.4c-0.2-1.8-1.9-3.1-3.7-2.9l-22.1,2.7c-1.8,0.2-3.1,1.9-2.9,3.7l0.5,4.4
	c0.2,1.8,1.9,3.1,3.7,2.9l22.1-2.7C312.1,141,313.4,139.3,313.2,137.5z"/>
<path class="st0" d="M279,121.6l-57.2-12.1c-4.5-0.9-8.9,1.9-9.8,6.4l0,0c-0.9,4.5,1.9,8.9,6.4,9.8l57.2,12.1
	c4.5,0.9,8.9-1.9,9.8-6.4v0C286.3,127,283.4,122.5,279,121.6z"/>
<path class="st0" d="M262.1,130.5l-16.2-4c-2.8-0.7-5.6,1-6.3,3.8l-1.8,7.1c-0.7,2.8,1,5.6,3.8,6.3l16.2,4c2.8,0.7,5.6-1,6.3-3.8
	l1.8-7.1C266.6,134.1,264.9,131.2,262.1,130.5z"/>
<path class="st0" d="M231,133l-3.3-3.6c-1.8-1.9-1.6-4.9,0.3-6.7v0c1.9-1.8,4.9-1.6,6.7,0.3l3.3,3.6c1.8,1.9,1.6,4.9-0.3,6.7l0,0
	C235.8,135,232.8,134.9,231,133z"/>
<path class="st0" d="M328.5,132.9L328.5,132.9c-2.5-2.7-2.3-7,0.4-9.5l7.4-6.8c2.7-2.5,7-2.3,9.5,0.4l0,0c2.5,2.7,2.3,7-0.4,9.5
	l-7.4,6.8C335.3,135.8,331,135.7,328.5,132.9z"/>
<path class="st0" d="M332.8,118.1l-9.7-3.5c-0.6-0.2-1.2,0.1-1.4,0.7l-0.5,1.3c-0.2,0.6,0.1,1.2,0.7,1.4l9.7,3.5
	c0.6,0.2,1.2-0.1,1.4-0.7l0.5-1.3C333.7,118.9,333.4,118.3,332.8,118.1z"/>
<path class="st0" d="M302.7,115.1l-1.5-1.6c-0.9-0.9-2.4-1-3.3-0.1l0,0c-0.9,0.9-1,2.4-0.1,3.3l1.5,1.6c0.9,0.9,2.4,1,3.3,0.1v0
	C303.6,117.5,303.6,116,302.7,115.1z"/>
<path class="st0" d="M266.7,122L266.7,122c-1.4-1.6-1.3-4,0.2-5.5l1.6-1.5c1.6-1.4,4-1.3,5.5,0.2l0,0c1.4,1.6,1.3,4-0.2,5.5
	l-1.6,1.5C270.6,123.6,268.2,123.6,266.7,122z"/>
<path class="st0" d="M226.2,125.1l-8.1-8.8c-1.1-1.2-3-1.3-4.2-0.2l-0.2,0.2c-1.2,1.1-1.3,3-0.2,4.2l8.1,8.8c1.1,1.2,3,1.3,4.2,0.2
	l0.2-0.2C227.2,128.2,227.3,126.3,226.2,125.1z"/>
<path class="st0" d="M218.3,112l-21-6.5c-2-0.6-4.2,0.5-4.9,2.6l-0.3,1.1c-0.6,2,0.5,4.2,2.6,4.9l21,6.5c2,0.6,4.2-0.5,4.9-2.6
	l0.3-1.1C221.5,114.8,220.3,112.6,218.3,112z"/>
<path class="st0" d="M214.5,123.5l9.4,10.2c2.1,2.3,5.8,2.5,8.1,0.3l0,0c2.3-2.1,2.5-5.8,0.3-8.1l-9.4-10.2
	c-2.1-2.3-5.8-2.5-8.1-0.3l0,0C212.5,117.5,212.3,121.2,214.5,123.5z"/>
<path class="st0" d="M212.4,122.6l-6.8-7.4c-0.4-0.4-0.4-1.1,0.1-1.5h0c0.4-0.4,1.1-0.4,1.5,0.1l6.8,7.4c0.4,0.4,0.4,1.1-0.1,1.5
	l0,0C213.5,123.1,212.8,123.1,212.4,122.6z"/>
<path class="st0" d="M235.6,140.3l-1.8-2c-1.6-1.8-1.5-4.5,0.2-6.1l0,0c1.8-1.6,4.5-1.5,6.1,0.2l1.8,2c1.6,1.8,1.5,4.5-0.2,6.1h0
	C239.9,142.2,237.2,142.1,235.6,140.3z"/>
<path class="st0" d="M255.7,151.2L255.7,151.2c-0.9-0.9-0.8-2.4,0.1-3.2l7.8-7.2c0.9-0.9,2.4-0.8,3.2,0.1l0,0
	c0.9,0.9,0.8,2.4-0.1,3.2l-7.8,7.2C258,152.1,256.5,152.1,255.7,151.2z"/>
<path class="st0" d="M251.2,147.7l-0.7-0.8c-1.3-1.4-1.2-3.5,0.2-4.8h0c1.4-1.3,3.5-1.2,4.8,0.2l0.7,0.8c1.3,1.4,1.2,3.5-0.2,4.8h0
	C254.6,149.1,252.5,149.1,251.2,147.7z"/>
<path class="st1" d="M275.7,148.5l-6.5,8.7c0,0-1.1,1.3-1.1-1.6s2-11.3,2-11.3s5.4-4.3,6.9-2.2C278.5,144.2,275.7,148.5,275.7,148.5
	"/>
<path class="st2" d="M196.6,118.4c0,0,3.3,2.6,6,0.8"/>
<path class="st1" d="M195.8,117.7c0,0,4.1,4,6.8,1.4"/>
<path class="st1" d="M216.5,112c0,0-4.7,3.2-10.7,2.9c-4.5-0.3-9.8-4.8-12.1-7.1c-0.8-0.8-1.2-1.2-1.2-1.2
	c-6.3-0.6-11.5-0.4-15.8,0.3c-3.1,0.7-6.1,1.5-8.9,2.7c-11.7,5.6-12.1,16.1-12.1,16.1c1.7-5.1,10.6-6.4,10.6-6.4
	c-6.8,3-12.5,18.6-12.5,18.6c1.2-0.5,2.6-1.4,4-2.3c0.1,0,0.1-0.1,0.2-0.1c0.1,0,0.1-0.1,0.2-0.1c3.2-2,6.2-4.3,6.2-4.3
	c-5.3,5.1-2.1,14.7-2.1,14.7c5.6-4,12.6-19,12.6-19c-3.5,7.5,0,14.3,0,14.3c14.3-10.8,11.5-23.1,11.5-23.1l5.6-4.7
	c1.8,2.5,3.3,4.2,4.7,5.2c3,2.3,5,1.6,6,0.8c0.6-0.5,0.9-1,0.9-1c2.1,9.1,7.6-2.2,16.6,4c9,6.1,12-1.3,12-1.3
	C228.4,111.4,216.5,112,216.5,112z"/>
<path class="st1" d="M244.6,131.2c0,0-9.9-2.8-19.9,1.8s-13,0.4-13,0.4s5.8,5.8,13.4,4.9c7.6-0.9,11.3,0.4,11.3,0.4L244.6,131.2z"/>
<path class="st1" d="M258.5,138.1c0,0-18.8-0.4-28.4,13.3c0,0,20.6-0.7,30.5-7.8C260.6,143.6,255.1,142.3,258.5,138.1z"/>
<path class="st1" d="M274.7,139.7c0,0-3,8.4-14.1,3.9C249.5,139.2,272.6,131.6,274.7,139.7z"/>
<path class="st2" d="M164.2,131.1c0,0,23.4-17.1,19.3-18.8"/>
<path class="st3" d="M186.3,117.9c0,0-9.1,4-11.6,8.9"/>
<path class="st1" d="M240.7,116.4c0,0-7.5-7.9-14.9-7.5c-7.4,0.4-7.7-6.6-14.1-5c0,0,4.3,7.3,8.4,8.4
	C224.3,113.4,234.2,113.6,240.7,116.4z"/>
<path class="st1" d="M265.3,115c0,0-7.5,2.3-17.5-5.2c-10-7.4-21.6-6.8-21.6-6.8s9.7,3.2,17.1,9.7s20,10.6,20,10.6l6.6-6.1
	L265.3,115z"/>
<path class="st1" d="M283.7,111.6c0,0-9.2,0.6-18-5.7s-15.3-1.5-15.3-1.5s13,5.9,14.8,10.6c1.8,4.7,27.5,6.4,27.5,6.4
	s-13.2-14.2-15.1-14.1c-1.8,0.1,13-3.5,25.9,8.6l4.3,4.7c0,0-4-1.5-7.8-0.3c0,0,3.5,4.3,7.3,6.7c2.4,1.5,5,2.2,7,0.7
	c5.2-4,6.7-6.2,6.7-6.2s-1.3-4.5-9-1.9c-7.7,2.6-11.6-11.1-11.6-11.1s9.9,3.8,12.8,7.7"/>
<path class="st1" d="M228.5,115.8c0,0,11.7,17.7,27,12.9c0,0-10.1-10.8-14.9-12.4"/>
<path class="st1" d="M281.3,134.6c0,0-5.8-5.8-13.6-6.4c-7.8-0.6-16.9-7-16.9-7s11,14.8,15.6,15c0,0,4.1-0.5,5.7,0.7"/>
<path class="st1" d="M166.2,119.2c10.6-6.4,29.1-9.9,29.1-9.9l-3.3,3.9"/>
<path class="st1" d="M198,119.3c0,0,1.8,9.1,16.6,0.9"/>
<path class="st1" d="M239.7,126.4c0,0-8.9,2.4-14.1,0.1c-5.2-2.3-6.4,1.4-6.4,1.4s2.4,4.7,5.6,5c0,0,7.1-4.4,19.9-1.8"/>
<path class="st1" d="M209.9,122.3c0,0,8,2.1,9.2,5.6"/>
<path class="st1" d="M236.4,138.8c0,0-3-0.9-7.2,4.4c0,0,5.7,2.9,10.9-0.5"/>
<path class="st1" d="M262.3,134c0,0-12.9-7.3-17.7-2.8c-4.8,4.5,3.2,8.4,3.2,8.4"/>
<path class="st1" d="M267.7,144.8c0,0-7.2,7.2-11.4,8.3c-4.2,1.2-13.4,2.4-13.4,2.4c-0.7-3.7,2.9-6.2,2.9-6.2"/>
<path class="st1" d="M255,153.5c-6.9,0.6-9,13.7-9,13.7c4.2-4.7,15.2-5.2,15.2-5.2s11.5-5.3,1.7-12.8
	C263,149.2,256.4,153.4,255,153.5z"/>
<path class="st1" d="M289.3,139.4c0,0-9.8-3.2-16,14.7C273.3,154.1,289.6,153.2,289.3,139.4z"/>
<path class="st1" d="M277.4,131.6c0,0,2,0.6,5.2,0.2c2.4-0.3,5.4-1.1,8.7-3.1c0,0-2.5-7.4-10.8-8.7c-14-2.1-17.4,3.2-17.4,3.2
	c5.2-0.9,12.3,7.2,12.3,7.2L277.4,131.6z"/>
<path class="st1" d="M292.7,121.4c0,0,7.8,9.3,14.7,5.6"/>
<path class="st1" d="M312.1,128.6c0,0-2.1,5.8-8.7,5.5c-3-0.1-7-1.5-12.1-5.3"/>
<path class="st1" d="M346.9,110.5c0,0-12.7-2.7-19.2,4.2c0,0,3.4,3.5,6.3,4.2"/>
<path class="st1" d="M305.8,110.9c0,0,4.7-5.4,11.2-0.8c6.5,4.6,13.3,7.4,13.3,7.4"/>
<path class="st1" d="M353.5,130.9c0,0-20.4,10.9-16.6-0.4c0,0,6.5,1.2,9.5-2.2"/>
<path class="st1" d="M327,127.4c0,0,5.7,3.1,10,3.2"/>
<path class="st1" d="M325.4,129c0,0,1.2,8.8-5.1,13.4c0,0,10.9,0.8,16.8-7.6"/>
<path class="st1" d="M312.9,135.9c0,0-1.2,2.4-3,5.6c-1.1,2-2.4,4.4-3.8,6.6c-3.6,5.8,14.1-5.7,14.1-5.7"/>
<path class="st1" d="M289.1,142c0,0,2.6,6.1,20.9-0.5"/>
<path class="st1" d="M294.9,135.2c0,0-8-6.6-18.9,5.8l2.5,3.2"/>
<path class="st1" d="M388.4,116.5c0,0-1.9,5.3-3.2,7.2c-4.4,6.4,19.6-12,22.8-16.4c3.2-4.5-8-4.5-8-4.5c2-4.3,7.8-8.2,7.8-8.2
	c-5.8-1.2-9.3-0.5-12.8,2.8s-3.5,10.2-5.8,17.6c-2.3,7.4-21.1,11.5-21.1,11.5c0.5-3.8,2.9-9,6.2-10.8c3.3-1.8,13.3-12.8,13.3-12.8
	c-9.3,7.1-21.1,4.1-26.5,5.4c-2.9,0.7-4.8,2.3-6.2,3.6c-1.2,1.2-2,2.2-2.5,2.2c-1.2,0.1-4.4,4.6-4.4,4.6c3.4-2.6,20.9-0.1,20.9-0.1
	s-2.7,3.3-7.8,10.1c-5.1,6.8-19.3-3.2-19.3-3.2l2.9-4.2c-11.9-8.4-22.6,5.4-22.6,5.4c5-0.5,5,0.7,5,0.7c-10,10.8-17.6,9.4-23.5,6.7
	c-6-2.8-14.2,5.4-14.2,5.4"/>
<path class="st2" d="M181.9,112.7c0,0,5-1.4,0.3,3.2"/>
<path class="st1" d="M235.3,107.3c0,0-14.3-2.4-3.6,2.8c10.7,5.2,12.8,3.7,12.8,3.7L235.3,107.3z"/>
<path class="st1" d="M220.1,122.1c0,0-2.5-4.3-14.2-0.3c0,0-2.4,0.5-2.4-3.7c0,0-0.8-2.3,4.8-3.3c5.6-1,8.2-2.8,8.2-2.8
	s-5.9-10.3-24.1-5.4"/>
<path class="st1" d="M196.6,118.4c0,0,3.3,2.7,6,0.8"/>
<line class="st1" x1="193.1" y1="111.7" x2="191.1" y2="113.8"/>
<path class="st1" d="M188.7,153.2"/>
<rect x="158.2" y="340.1" transform="matrix(0.9924 -0.1233 0.1233 0.9924 -45.7953 23.468)" class="st0" width="16.8" height="83.1"/>
<path class="st0" d="M162.3,430.5l-6.3,5.8c-4.8,4.5-5.2,12.1-0.7,17l0,0c4.5,4.8,12.1,5.2,17,0.7l6.3-5.8c4.8-4.5,5.2-12.1,0.7-17
	l0,0C174.8,426.3,167.2,426,162.3,430.5z"/>
<path class="st0" d="M176,433.9L176,433.9c4.7-4.3,5-11.7,0.7-16.4l-3.2-3.5c-4.3-4.7-11.7-5-16.4-0.7l0,0c-4.7,4.3-5,11.7-0.7,16.4
	l3.2,3.5C163.9,437.9,171.3,438.2,176,433.9z"/>
<path class="st0" d="M183.9,423.5l0.6-0.6c3.5-3.2,3.7-8.6,0.5-12.1l-0.6-0.6c-3.2-3.5-8.6-3.7-12.1-0.5l-0.6,0.6
	c-3.5,3.2-3.7,8.6-0.5,12.1l0.6,0.6C175,426.5,180.5,426.7,183.9,423.5z"/>
<path class="st0" d="M181.5,420.8l-4.4,0.5c-1.8,0.2-3.1,1.9-2.9,3.7l2.7,22.1c0.2,1.8,1.9,3.1,3.7,2.9l4.4-0.5
	c1.8-0.2,3.1-1.9,2.9-3.7l-2.7-22.1C185,421.8,183.3,420.5,181.5,420.8z"/>
<path class="st0" d="M165.6,454.9l-12.1,57.2c-0.9,4.5,1.9,8.9,6.4,9.8h0c4.5,0.9,8.9-1.9,9.8-6.4l12.1-57.2
	c0.9-4.5-1.9-8.9-6.4-9.8h0C171,447.6,166.6,450.5,165.6,454.9z"/>
<path class="st0" d="M174.6,471.9l-4,16.2c-0.7,2.8,1,5.6,3.8,6.3l7.1,1.8c2.8,0.7,5.6-1,6.3-3.8l4-16.2c0.7-2.8-1-5.6-3.8-6.3
	l-7.1-1.8C178.1,467.4,175.3,469.1,174.6,471.9z"/>
<path class="st0" d="M177,502.9l-3.6,3.3c-1.9,1.8-4.9,1.6-6.7-0.3l0,0c-1.8-1.9-1.6-4.9,0.3-6.7l3.6-3.3c1.9-1.8,4.9-1.6,6.7,0.3
	l0,0C179,498.1,178.9,501.1,177,502.9z"/>
<path class="st0" d="M177,405.5L177,405.5c-2.7,2.5-7,2.3-9.5-0.4l-6.8-7.4c-2.5-2.7-2.3-7,0.4-9.5l0,0c2.7-2.5,7-2.3,9.5,0.4
	l6.8,7.4C179.9,398.7,179.7,402.9,177,405.5z"/>
<path class="st0" d="M162.1,401.1l-3.5,9.7c-0.2,0.6,0.1,1.2,0.7,1.4l1.3,0.5c0.6,0.2,1.2-0.1,1.4-0.7l3.5-9.7
	c0.2-0.6-0.1-1.2-0.7-1.4l-1.3-0.5C163,400.2,162.4,400.5,162.1,401.1z"/>
<path class="st0" d="M159.1,431.2l-1.6,1.5c-0.9,0.9-1,2.4-0.1,3.3l0,0c0.9,0.9,2.4,1,3.3,0.1l1.6-1.5c0.9-0.9,1-2.4,0.1-3.3l0,0
	C161.5,430.4,160.1,430.3,159.1,431.2z"/>
<path class="st0" d="M166,467.2L166,467.2c-1.6,1.4-4,1.3-5.5-0.2l-1.5-1.6c-1.4-1.6-1.3-4,0.2-5.5l0,0c1.6-1.4,4-1.3,5.5,0.2
	l1.5,1.6C167.7,463.3,167.6,465.8,166,467.2z"/>
<path class="st0" d="M169.2,507.7l-8.8,8.1c-1.2,1.1-1.3,3-0.2,4.2l0.2,0.2c1.1,1.2,3,1.3,4.2,0.2l8.8-8.1c1.2-1.1,1.3-3,0.2-4.2
	l-0.2-0.2C172.3,506.7,170.4,506.6,169.2,507.7z"/>
<path class="st0" d="M156,515.7l-6.5,21c-0.6,2,0.5,4.2,2.6,4.9l1.1,0.3c2,0.6,4.2-0.5,4.9-2.6l6.5-21c0.6-2-0.5-4.2-2.6-4.9
	l-1.1-0.3C158.9,512.5,156.7,513.6,156,515.7z"/>
<path class="st0" d="M167.6,519.4l10.2-9.4c2.3-2.1,2.5-5.8,0.3-8.1l0,0c-2.1-2.3-5.8-2.5-8.1-0.3l-10.2,9.4
	c-2.3,2.1-2.5,5.8-0.3,8.1l0,0C161.6,521.4,165.2,521.6,167.6,519.4z"/>
<path class="st0" d="M166.7,521.5l-7.4,6.8c-0.4,0.4-1.1,0.4-1.5-0.1l0,0c-0.4-0.4-0.4-1.1,0.1-1.5l7.4-6.8c0.4-0.4,1.1-0.4,1.5,0.1
	l0,0C167.2,520.4,167.1,521.1,166.7,521.5z"/>
<path class="st0" d="M184.4,498.4l-2,1.8c-1.8,1.6-4.5,1.5-6.1-0.2v0c-1.6-1.8-1.5-4.5,0.2-6.1l2-1.8c1.8-1.6,4.5-1.5,6.1,0.2l0,0
	C186.2,494,186.1,496.8,184.4,498.4z"/>
<path class="st0" d="M195.2,478.3L195.2,478.3c-0.9,0.9-2.4,0.8-3.2-0.1l-7.2-7.8c-0.9-0.9-0.8-2.4,0.1-3.2l0,0
	c0.9-0.9,2.4-0.8,3.2,0.1l7.2,7.8C196.2,476,196.1,477.4,195.2,478.3z"/>
<path class="st0" d="M191.8,482.7l-0.8,0.7c-1.4,1.3-3.5,1.2-4.8-0.2l0,0c-1.3-1.4-1.2-3.5,0.2-4.8l0.8-0.7c1.4-1.3,3.5-1.2,4.8,0.2
	l0,0C193.2,479.3,193.1,481.5,191.8,482.7z"/>
<path class="st1" d="M192.5,458.3l8.7,6.5c0,0,1.3,1.1-1.6,1.1s-11.3-2-11.3-2s-4.3-5.4-2.2-6.9
	C188.2,455.5,192.5,458.3,192.5,458.3"/>
<path class="st2" d="M162.4,537.4c0,0,2.6-3.3,0.8-6"/>
<path class="st1" d="M161.8,538.2c0,0,4-4.1,1.4-6.8"/>
<path class="st1" d="M162,547.7c0,0,12.4-2.8,23.1,11.5c0,0-6.7,3.5-14.3,0c0,0,15,7.1,19,12.6c0,0-9.6,3.2-14.7-2.1
	c0,0,5,6.6,6.8,10.5c0,0-15.6-5.7-18.6-12.5c0,0,1.3,8.9,6.4,10.6c0,0-22.6-1-19.1-36.8c0,0,0.5-0.5,1.2-1.2
	c2.3-2.3,6.8-7.6,7.1-12.1c0.4-6-2.9-10.7-2.9-10.7s-0.6-11.9,8.8-15.6c0,0,7.4,3,1.3,12c-6.1,9,5.1,14.5-4,16.6c0,0,0.5,0.3,1,0.9
	c0.8,1,1.6,3-0.8,6c-1,1.3-2.7,2.9-5.2,4.7L162,547.7z"/>
<path class="st1" d="M175.2,489.3c0,0-2.8,9.9,1.8,19.9c4.6,10,0.4,13,0.4,13s5.8-5.8,4.9-13.4c-0.9-7.6,0.4-11.3,0.4-11.3
	L175.2,489.3z"/>
<path class="st1" d="M182.1,475.5c0,0-0.4,18.8,13.3,28.4c0,0-0.7-20.6-7.8-30.5C187.7,473.3,186.3,478.9,182.1,475.5z"/>
<path class="st1" d="M183.7,459.3c0,0,8.4,3,3.9,14.1C183.2,484.4,175.7,461.4,183.7,459.3z"/>
<path class="st1" d="M160.5,493.3c0,0-7.9,7.5-7.5,14.9c0.4,7.4-6.6,7.7-5,14.1c0,0,7.3-4.3,8.4-8.4
	C157.4,509.7,157.6,499.7,160.5,493.3z"/>
<path class="st1" d="M159.1,468.7c0,0,2.3,7.5-5.2,17.5c-7.4,10-6.8,21.6-6.8,21.6s3.2-9.7,9.7-17.1c6.4-7.4,10.6-20,10.6-20
	l-6.1-6.6L159.1,468.7z"/>
<path class="st1" d="M155.7,450.2c0,0,0.6,9.2-5.7,18c-6.3,8.8-1.5,15.3-1.5,15.3s5.9-13,10.6-14.8c4.7-1.8,6.4-27.5,6.4-27.5
	s-14.2,13.2-14.1,15.1s-3.5-13,8.6-25.9l4.7-4.3c0,0-1.5,4-0.3,7.8c0,0,4.3-3.5,6.7-7.3c1.5-2.4,2.2-5,0.7-7c-4-5.2-6.2-6.7-6.2-6.7
	s-4.5,1.3-1.9,9c2.6,7.7-11.1,11.6-11.1,11.6s3.8-9.9,7.7-12.8"/>
<path class="st1" d="M159.9,505.4c0,0,17.7-11.7,12.9-27c0,0-10.8,10.1-12.4,14.9"/>
<path class="st1" d="M178.7,452.6c0,0-5.8,5.8-6.4,13.6s-7,16.9-7,16.9s14.8-11,15-15.6c0,0-0.5-4.1,0.7-5.7"/>
<path class="st1" d="M163.3,536c0,0,9.1-1.8,0.9-16.6"/>
<path class="st1" d="M170.5,494.3c0,0,2.4,8.9,0.1,14.1c-2.3,5.2,1.4,6.4,1.4,6.4s4.7-2.4,5-5.6c0,0-4.4-7.1-1.8-19.9"/>
<path class="st1" d="M166.4,524c0,0,2.1-8,5.6-9.2"/>
<path class="st1" d="M182.8,497.5c0,0-0.9,3,4.4,7.2c0,0,2.9-5.7-0.5-10.9"/>
<path class="st1" d="M178.1,471.6c0,0-7.3,12.9-2.8,17.7c4.5,4.8,8.4-3.2,8.4-3.2"/>
<path class="st1" d="M188.9,466.3c0,0,7.2,7.2,8.3,11.4c1.2,4.2,2.4,13.4,2.4,13.4c-3.7,0.7-6.2-2.9-6.2-2.9"/>
<path class="st1" d="M197.6,478.9c0.6,6.9,13.7,9,13.7,9c-4.7-4.2-5.2-15.2-5.2-15.2s-5.3-11.5-12.8-1.7
	C193.3,470.9,197.4,477.5,197.6,478.9z"/>
<path class="st1" d="M183.4,444.7c0,0-3.2,9.8,14.7,16C198.2,460.6,197.3,444.3,183.4,444.7z"/>
<path class="st1" d="M175.7,456.5c0,0,0.6-2,0.2-5.2c-0.3-2.4-1.1-5.4-3.1-8.7c0,0-7.4,2.5-8.7,10.8c-2.1,14,3.2,17.4,3.2,17.4
	c-0.9-5.2,7.2-12.3,7.2-12.3L175.7,456.5z"/>
<path class="st1" d="M165.5,441.2c0,0,9.3-7.8,5.6-14.7"/>
<path class="st1" d="M172.6,421.8c0,0,5.8,2.1,5.5,8.7c-0.1,3-1.5,7-5.3,12.1"/>
<path class="st1" d="M154.5,387.1c0,0-2.7,12.7,4.2,19.2c0,0,3.5-3.4,4.2-6.3"/>
<path class="st1" d="M154.9,428.2c0,0-5.4-4.7-0.8-11.2c4.6-6.5,7.4-13.3,7.4-13.3"/>
<path class="st1" d="M175,380.4c0,0,10.9,20.4-0.4,16.6c0,0,1.2-6.5-2.2-9.5"/>
<path class="st1" d="M171.4,407c0,0,3.1-5.7,3.2-10"/>
<path class="st1" d="M173,408.5c0,0,8.8-1.2,13.4,5.1c0,0,0.8-10.9-7.6-16.8"/>
<path class="st1" d="M179.9,421c0,0,2.4,1.2,5.6,3c2,1.1,4.4,2.4,6.6,3.8c5.8,3.6-5.7-14.1-5.7-14.1"/>
<path class="st1" d="M186.1,444.8c0,0,6.1-2.6-0.5-20.9"/>
<path class="st1" d="M179.3,439c0,0-6.6,8,5.8,18.9l3.2-2.5"/>
<path class="st1" d="M160.6,345.5c0,0,5.3,1.9,7.2,3.2c6.4,4.4-12-19.6-16.4-22.8s-4.5,8-4.5,8c-4.3-2-8.2-7.8-8.2-7.8
	c-1.2,5.8-0.5,9.3,2.8,12.8c3.2,3.5,10.2,3.5,17.6,5.8c7.4,2.3,11.5,21.1,11.5,21.1c-3.8-0.5-9-2.9-10.8-6.2
	c-1.8-3.3-12.8-13.3-12.8-13.3c7.1,9.3,4.1,21.1,5.4,26.5c0.7,2.9,2.3,4.8,3.6,6.2c1.2,1.2,2.2,2,2.2,2.5c0.1,1.2,4.6,4.4,4.6,4.4
	c-2.6-3.4-0.1-20.9-0.1-20.9s3.3,2.7,10.1,7.8c6.8,5.1-3.2,19.3-3.2,19.3l-4.2-2.9c-8.4,11.9,5.4,22.6,5.4,22.6c-0.5-5,0.7-5,0.7-5
	c10.8,10,9.4,17.6,6.7,23.5c-2.8,6,5.4,14.2,5.4,14.2"/>
<path class="st1" d="M151.3,498.7c0,0-2.4,14.3,2.8,3.6s3.7-12.8,3.7-12.8L151.3,498.7z"/>
<path class="st1" d="M166.1,513.9c0,0-4.3,2.5-0.3,14.2c0,0,0.5,2.4-3.7,2.4c0,0-2.3,0.8-3.3-4.8c-1-5.6-2.8-8.2-2.8-8.2
	s-10.3,5.9-5.4,24.1"/>
<path class="st1" d="M162.4,537.4c0,0,2.7-3.3,0.8-6"/>
<rect x="440.3" y="76.2" transform="matrix(-0.1601 0.9871 -0.9871 -0.1601 636.8503 -306.3867)" class="st0" width="16.8" height="83.1"/>
<path class="st0" d="M423,121L423,121c-1.7-3.3-0.3-7.4,3-9.1l9-4.5c3.3-1.7,7.4-0.3,9.1,3v0c1.7,3.3,0.3,7.4-3,9.1l-9,4.5
	C428.7,125.7,424.7,124.3,423,121z"/>
<path class="st0" d="M431.3,107.9l-8.4-6.1c-0.5-0.4-1.2-0.3-1.6,0.2l-0.8,1.1c-0.4,0.5-0.3,1.2,0.2,1.6l8.4,6.1
	c0.5,0.4,1.2,0.3,1.6-0.2l0.8-1.1C432,109,431.8,108.3,431.3,107.9z"/>
<path class="st1" d="M447,104.6c0,0-11.5-6.1-19.6-1.4c0,0,2.3,4.4,4.9,5.8"/>
<path class="st1" d="M407.4,93.4c0,0,6-3.9,11,2.3c5,6.2,10.7,10.9,10.7,10.9"/>
<path class="st1" d="M447.6,126.1c0,0-22.6,4.7-15.8-5c0,0,6,2.9,9.8,0.6"/>
<path class="st1" d="M423.1,115.2c0,0,4.6,4.6,8.7,5.9"/>
<path class="st1" d="M421.2,116.3c0,0-1.3,8.8-8.7,11.4c0,0,10.3,3.9,18.2-2.6"/>
<path class="st1" d="M485.1,122c0,0-3.3,4.6-5.1,6c-6,4.9,22.2-6,26.5-9.4c4.3-3.4-6.5-6.6-6.5-6.6c3.2-3.6,9.7-5.7,9.7-5.7
	c-5.3-2.8-8.8-3-13-0.9c-4.3,2.1-6.2,8.8-10.5,15.3s-23.4,5.1-23.4,5.1c1.5-3.5,5.3-7.8,9-8.6c3.6-0.8,16.4-8.6,16.4-8.6
	c-11,4.2-21.4-2-26.9-2.2c-2.9-0.1-5.3,0.8-7,1.7c-1.5,0.8-2.5,1.5-3.1,1.4c-1.1-0.2-5.5,3.2-5.5,3.2c4-1.6,20.1,5.8,20.1,5.8
	s-3.6,2.4-10.4,7.5c-6.8,5.1-17.6-8.5-17.6-8.5l4-3.2c-9.1-11.4-23.2-1.2-23.2-1.2c4.9,0.9,4.6,2,4.6,2c-12.6,7.6-19.5,4.1-24.5-0.2
	c-5-4.3-15.1,1.2-15.1,1.2"/>
</svg>
