<?xml version="1.0" encoding="utf-8"?>
<!-- Generator: Adobe Illustrator 22.1.0, SVG Export Plug-In . SVG Version: 6.00 Build 0)  -->
<svg version="1.1" id="Layer_1" xmlns="http://www.w3.org/2000/svg" xmlns:xlink="http://www.w3.org/1999/xlink" x="0px" y="0px"
	 viewBox="0 0 1728 1296" style="enable-background:new 0 0 1728 1296;" xml:space="preserve">
<style type="text/css">
	.st0{fill:#FFFFFF;}
</style>
<g>
	<g>
		<path class="st0" d="M972.5,855.5c-71.7,0-143.3,0-215,0c0-138.3,0-276.7,0-415c71.7,0,143.3,0,215,0
			C972.5,578.8,972.5,717.2,972.5,855.5z M896.3,812.7c1,0.5,2.7-0.3,2.7,1.7c0.1,2.6,0.3,5.1,0.6,7.7c0.3,2.2,0.8,4.5,1.2,6.7
			c0.4,0,0.7,0,1.1,0c0.2-0.9,0.7-2.4,0.4-2.5c-2.3-1.3-1.7-2.9-0.9-4.6c0.7-1.5,1.4-3.1,2-4.7l-0.1,0.1c0.8,0,1.6,0.1,2.2,0.1
			c0.4-1.2,0.7-3.1,1-3.1c2.6,0,2.5-2.4,3.7-3.6c1.4-1.4,3-2.5,4.6-3.8c-1.3-1.9-2.6-0.4-3.8-0.3c-1,0.1-2.2,0.1-3.1-0.2
			c-1-0.4-1.7-1.3-3.1-2.4c1.8-2.4,3.6-4.7,5.4-7.1c-0.3-0.2-0.7-0.5-1-0.7c-4,3.1-5.6,8.1-9,11.7c-0.3,0.7-0.5,1.4-0.8,2.1
			C898.6,810.6,897.5,811.7,896.3,812.7c-0.5,1.9-1.1,3.8-1.6,5.7c-0.3,1.2-0.3,2.5-0.7,3.7c-0.4,1.2-1.3,2.3-1.8,3.5
			c-0.1,0.3,0.4,0.9,0.6,1.4c0.5-0.3,1-0.4,1.4-0.8c0.9-0.9,1.7-1.9,2.6-3C896.7,820.1,896.5,816.4,896.3,812.7z M923,810
			c-0.6-0.4-1.6-0.8-1.6-1.1c0.2-1.9,0.6-3.7,0.9-5.6c0.2-0.9,0.4-1.7,0.5-2.5c-0.3-0.1-0.6-0.2-0.9-0.4c-1.3,2.1-2.6,4.2-3.6,5.7
			c0.8,1.3,1.8,2.1,1.7,2.7c-0.2,1-0.9,2.3-1.7,2.8c-1.5,0.9-3.2,1.2-4.9,1.8c3.1,0.4,1.9,2.2,1.2,3.6c-0.5,1-1.3,1.9-2.1,2.7
			c-0.6,0.6-1.5,1-2.2,1.4c-0.2-0.2-0.5-0.5-0.7-0.7c0.6-1.9,1.2-3.9,1.9-5.9c-2,0.2-2.8,1.3-2.4,3.3c0.2,1,0.3,2.1,0.4,3.2
			c0.1,2,0,4,0,6c2.2,0.3,4.2-1.5,5.7,1c0.3,0.5,2.3,0.5,2.9,0c1.7-1.5,3.1-3.5,2.8-6c-0.2-0.2-0.5-0.3-0.7-0.5
			c-1.2,1.6-2.5,3.3-3.7,4.9c-1.2-1-1.7-7.9-0.3-9.2c0.3-0.3,0.8-0.4,1.1-0.4c1.6,0.2,3.2,0.6,4.8,0.8c0,0.9,0,1.7,0,2.6
			c0.8-1,1.8-1.7,2.2-2.7c0.4-0.9,0.1-2.1,0.1-3.1c1.3,0.6,1.9,1.3,2.4,2c0.7,1.1,0.6,1.9-0.7,2.6c-0.6,0.4-1.5,1.6-1.4,1.7
			c1.5,1.6-0.1,4.7,2.6,5.6c0.2,0.1,0.4-0.2,0.5-0.2c0.5-5.1,1.6-10.1-2.6-14c2.5-1.4,4.5-2.5,6.5-3.7
			C928.2,807,925.4,807.8,923,810L923,810z M894.1,813.2c-0.9,0.3-1.9,0.7-3.2,1.2c-2.9-3.6-2.1-8.7-4.3-13.5
			c-1.9,5.9-0.3,11.1,0,16.1c-2.2,0-4.1,0.1-6,0c-2-0.2-4.2-0.2-5.7-1.2c-2.5-1.7-4.9-1.6-7.6-1.5c-1.1,0-2.2-0.3-3.2-0.6
			c-1.5-0.6-2.6-0.8-3.6,0.8c-0.3,0.5-1.7,0.9-2.3,0.7c-1.7-0.7-3.1-1.9-4.8-2.6c-1.7-0.8-2-2-1.9-3.6c0.1-2.4,0.3-4.8,0.2-7.2
			c-0.2-3,1.3-5.1,3.8-6.7c2.3-1.5,4.6-3.4,6.1-5.7c3.2-4.9,3.6-10.6,3.5-16.3c0-0.5-0.1-1.3-0.5-1.6c-1.4-1.3-1.2-2.8-0.7-4.4
			c1-3.2,1-9.7-0.1-11.9c0.7,6.8-3.9,13.1-1,20.4c1.8,4.5-0.6,9.7-3.7,13.4c-2.6,3.1-6.3,5.3-9.8,7.4c-1.8,1.1-4.1,1.3-6.3,1.6
			c-0.7,0.1-1.9-0.8-2.1-1.4c-1.1-4.3-2.3-8.6-2.8-13c-0.4-4.1,0.1-8.3,0.2-12.5c0-0.9-0.1-1.9-0.2-2.8c-0.7,0.6-1,1.2-1,1.9
			c0.1,5.9,0.4,11.8,0.5,17.6c0,0.8-0.2,1.8-0.7,2.2c-0.4,0.3-1.5,0-2.1-0.3c-3.1-1.4-3.1-4.7-3.2-7c-0.3-5.1,0.6-10.2,0.7-15.3
			c0.1-7.2,2-13.9,4.3-20.5c0.3-0.9,0.1-2,0.2-3c-0.2,0-0.4-0.1-0.7-0.1c-0.7,1.7-1.6,3.3-2,5c-1.2,5.4-2.6,10.8-3.3,16.2
			c-0.8,6.3-3,12.6-0.9,19.1c0.7,2.3,0.9,5,2.2,6.7c1.3,1.6,2,2.8,2,4.8c-0.1,5.9-2.4,11.1-4.3,16.5c-1.2,3.5-2.7,6.9-3.8,10.4
			c-0.8,2.5-0.1,5,2.1,6.7c2.1,1.6,3.9,0.8,5.8-0.6c1.1-0.9,2.7-0.7,3,1.1c0.5,3.2,1.1,6.4,1,9.6c0,2.9,1.3,4.7,3.7,5.9
			c4.9,2.5,9,0.2,12.8-2.8c-1.1,0-2.3,0.1-3.3,0.6c-3.9,2.1-9.1,1.7-10.8-1.4c-1.7-3.1-3.2-6.8-2-10.7c0.6-2.1,1.1-4.2,1.4-6.3
			c0.2-1.5-0.1-3,0.2-4.5c1-5.3,2.6-10.5,3.2-15.8c0.4-3.4,0.9-5.4,4.8-5.7c2.4-0.2,2.9-0.4,3,2.2c0.1,4.2,0,8.3,0,12.5
			c-0.1,4.9,0.6,9.6,2.4,14.1c0.6,1.6,1.1,3.3,3.2,1.4c0.2-0.2,0.8,0,1.1,0.2c2.1,1.4,4.6,2.6,6.3,4.4c2,2.1,4.4,2.8,7,3.3
			c2.9,0.5,5.8,1.1,8.8-0.3c1.7-0.8,3.3,0.6,3.6,2.1c0.4,1.7-1.3,1.1-2.2,1.3c-0.3,0-0.7,0.1-0.9,0.3c-2.5,2.1-5.4,1.9-8.5,1.7
			c-5.1-0.3-10.3-0.3-15.4-0.5c-0.2,0-0.4,0.2-1.1,0.5c1,0.4,1.4,0.6,1.7,0.6c2.2-0.1,4.5-0.3,6.7-0.3c2.4,0,4.9-0.3,7,0.5
			c2.2,0.9,4,0.8,6.2,0.2c2-0.6,4.1-1,6.2-1.1c3.8-0.1,5.5-1.3,6.6-5.1c0.2-0.8,0.8-1.4,1.2-2.2c0.5-1.1,1.1-2.2,1.4-3.4
			c0.1-0.5-0.8-1.7-1-1.7c-3.9,0.6-8-0.5-11.6,2.7c-1.7,1.6-4.6,2-7,2.7c-0.7,0.2-1.6-0.1-2.5-0.1c-4.9-0.2-6.5-5.2-10.5-6.9
			c0.9-0.6,1.7-1,2.5-0.9c4.3,0.1,8.7,0.6,13,0.4c2.8-0.1,5.8-0.8,8.3-2c1.2-0.6,1.8-2.8,2.5-4.4c0.4-0.9,0.5-1.9,0.7-2.7
			c1.3-0.3,2.5-0.5,3.8-0.8c0.3,0.8,0.5,1.5,0.9,2.8C892.5,817.4,893.3,815.3,894.1,813.2c1.9-5.4,5.7-9.4,8.8-14
			c-1.2,0.5-2,1.2-2.8,2c-1.3,1.3-2.6,1.8-3.8-0.2c-0.2-0.3-0.6-0.4-0.9-0.6c-0.2,1,0.2,1.6,0.4,2.3c0.2,0.8,0.7,1.9,0.3,2.4
			C894.4,807.6,894.6,810.5,894.1,813.2z M837.8,646.3c0.3-2.3-0.4-4.9,1.9-6.7c0.2-0.2,0.2-0.8,0.1-1.2c-1.8-6.6-1.9-13.3-2-20
			c0-0.4-0.3-0.7-0.7-1.6c0,4.5-0.1,8.4,0,12.3c0.1,1.9,1.2,4,0.6,5.6C836.5,638.7,837,642.5,837.8,646.3c0.6,2.7,1.1,5.4,2,8
			c1.5,4.2,3.4,8.2,5,12.4c0.4,1,0.3,2.5-0.2,3.4c-0.7,1.3-2.2,1.4-3.5,0.5c-3.4-2.2-7.1-3.7-11.2-4c-5.4-0.4-7.5-4-8.4-8.8
			c-0.1-0.7-0.4-1.3-0.5-1.9c-1.2-4.5-2.6-9-3.4-13.7c-0.8-4.8-1.3-9.7-1.4-14.5c-0.2-8.4-0.2-16.8,0.2-25.2
			c0.3-5.9,1-11.8,2.4-17.7c1.6-6.4,2.2-13.1,3.1-19.6c0.2-1.7,1-2,2.3-1.5c4.6,1.7,8-0.1,11-3.4c0.9-1,1.7-1.1,2.7-0.1
			c2.6,2.7,7,4.2,10,4c-0.6-1-1.9-2.2-2.3-3.6c-0.9-3.9,1.1-7.3,2.7-10.7c0.8-1.8,2.1-3.5,2.5-5.4c1.1-5.4,4.2-8.2,9.6-8.7
			c1.4-0.1,2.9-0.2,4-0.9c2.6-1.6,5.1-3.4,7.5-5.3c3.7-2.9,3.6-6.4-0.4-8.7c-1.8-1-3.3-4-6.2-2c-0.1,0.1-1.1-0.6-1.2-1
			c-0.2-1.3-0.6-2.8,0-3.8c0.9-1.8,0.6-3.1-0.6-4.5c-1.4-1.7-1.8-3.7-1-5.6c1.4-3.6,3.2-7,4.6-10.6c0.4-1.1,0.4-3-0.3-3.8
			c-1.1-1.4-2.9-1.2-4.5-0.1c-0.6,0.4-1.4,0.5-2.1,0.7c-0.8,0.2-1.7,0-2.4,0.3c-4.9,1.9-9.7,1.6-14.5-0.3c-0.5-0.2-1-0.6-1.3-1.1
			c-2-3.7-3.9-7.3-6.1-11.4c0.9,0,1.5,0,2.1,0c2.1,3.7,5.8,4.9,9.5,6.1c-2.7-2.4-5.8-4.3-8.8-6.1c-0.1-0.1-0.5,0.1-0.7,0.1
			c0.9-0.5,1.8-1.5,2.7-1.5c2.5,0.1,4.9,0.7,7.4,1.1c1.7,0.3,3.1,0,4-1.8c-2.3-2.1-4.7-4.1-7-6.2c-0.2-0.2-0.6-0.3-0.9-0.3
			c-2.7-0.1-5.5-0.3-8.2-0.1c-5.8,0.4-9.7,4.1-13.2,8.4c-0.4,0.5-1.1,0.9-1.6,1.3c-0.2-0.2-0.4-0.3-0.6-0.5c1.1-2.5,1.7-5.6,3.5-7.4
			c1.8-1.8,4.8-2.5,7.2-3.6c-3-1.9-7.6,0.3-9,3.3c-1.4,3-2.7,6.1-4.2,9.1c-0.3,0.6-1.3,1.2-2,1.3c-3.3,0.5-6.4,1.1-8.6,4.1
			c-1.7,2.3-4.2,3.9-6.2,6c-2.2,2.3-4.6,4.6-6,7.4c-1.6,3-2,6.6-3.1,9.9c-2.5,7.4-0.2,14.3,1.7,20.7c1.4,0.5,2.6,0.7,3.5,1.3
			c2.2,1.5,4.2,3.1,6.3,4.7c0.9,0.7,1.7,1.5,2.7,2.1c1,0.6,2.1,1.3,3.1,1.4c3.4,0.2,6.8-0.1,10.2,0.1c0.9,0,2.1,0.7,2.5,1.5
			c1.4,2.6,2.6,5.4,3.5,8.2c0.3,0.8-0.6,2.1-1.1,3c-0.3,0.6-1.2,1-1.3,1.7c-1.4,5.3-3.1,10.5-4,15.9c-1.3,8-2.2,16.1-3.1,24.1
			c-0.7,7.2-1.5,14.4-1.7,21.6c-0.2,6.8,0.1,13.6,0.6,20.4c0.2,3.6,1,7.2,1.8,10.8c0.5,2.4,1.4,4.7,1.9,7.2c0.2,0.7-0.2,1.6-0.4,2.4
			c-0.3,1.3-0.9,2.6-0.9,3.9c0.4,5.9,1,11.9,1.7,17.8c0.2,1.8,1.2,3.5,1.8,5.3c0.1-0.1,0.3-0.1,0.4-0.2c-0.8-6.5-1.6-13.1-2.4-19.6
			c0.3-0.2,0.7-0.3,1-0.5c0.7,0.7,1.7,1.2,2.1,2.1c0.9,2.1,2.7,3.3,4.6,3.4c3.6,0.1,6.5,2.1,9.8,2.8c0.6,0.1,1.2,0.3,1.5,0.8
			c2,2.4,4.5,2.4,7.3,2c0.7-0.1,2.1,0.1,2.3,0.5c1.4,3.3,3.3,6.5,3.6,9.9c0.5,6.1,0,12.4,0.1,18.6c0.1,5-0.1,10,2.2,14.9
			c0.9,1.8,0,5.6-1.5,7.1c-1.7,1.6-4.9,1.5-7.6,2.1c0.2-1.5,0.6-2.5,0.4-3.3c-2.1-7.4-4.4-14.7-6.4-22.1c-1-3.9-3.8-5.9-6.7-8.2
			c-3.4-2.6-7.4-4.8-9.5-9c-0.1,0.9-0.1,1.8,0.3,2.6c1.5,3.6,4.9,5.4,7.8,7.7c2,1.7,4.3,3.1,5.9,5.1c1,1.2,1.3,3.1,1.4,4.7
			c0.2,4.1,4.1,7.7,1.4,12.1c-0.2,0.3,0.3,0.9,0.3,1.4c0,3.8,0.1,7.6-0.2,11.4c-0.3,4.5-1.1,9.1-1.6,13.6c0.1,0,0.2,0,0.3,0.1
			c0.2-0.7,0.4-1.4,0.9-2.9c0.9,0.9,2.1,1.5,2,2.1c-0.4,5.2,0.8,10.5-1.6,15.7c-1.3,2.7-0.7,6.3-0.9,9.4c0.3,0,0.7,0,1,0.1
			c0.3-2,0.1-4.3,0.9-6.1c3.2-7,2.6-14.4,2.7-21.7c0-1.7-0.1-3.5,0.1-5.2c0.1-1.3-0.6-3,1.5-3.5c1.5-0.4,7.5,1.1,7.9,1.9
			c0.2,0.4,0.2,0.9,0.5,1.1c0.5,0.5,1.1,1.1,1.7,1.3c3.7,1,7.2-1.1,7.4-4.9c0.3-6.1,1.9-12,0.6-18.3c-1.6-7.4-1-15-0.5-22.6
			c0.4-5.9,1.2-11.8,1.8-17.7c0.3-0.1,0.6-0.2,0.9-0.3c0.5,0.7,1.5,1.4,1.6,2.2c0.5,5.6,0.8,11.2,1.1,16.8c0.3,5.1,0.3,10.3,1,15.4
			c1.4,10.9,0.8,21.7-1.8,32.4c-0.4,1.8-0.1,3.8-0.1,5.7c1.2-2.7,2.1-5.4,2.5-8.1c0.9-6.3,1.6-12.7,2.3-19c0.1-1-0.2-2-0.3-3
			c-0.6-5.1-1.3-10.2-1.8-15.3c-0.3-3.4-0.1-6.8-0.4-10.2c-0.5-5.6-1.2-11.2-1.6-16.8c-0.1-0.9,0.2-2.1,0.8-2.7
			c1.8-1.7,2.3-3.8,1.9-6.1c-1.4-7.4-2.8-14.8-4.2-22.2c-0.2,0-0.4,0.1-0.6,0.1c0.5,4.1,1,8.2,1.4,12.3c0.5,4.3,1.1,8.7,1.2,13
			c0.1,2.1-1.6,3.3-3.5,3.6c-0.7-6.4-1.4-12.6-2-18.9c-0.7-6.9-1.3-13.9-1.8-20.8c-0.1-1,0.3-2,0.5-3.1c0.3,0,0.5,0,0.8,0.1
			c0.8,4,1.6,7.9,2.3,11.9c0.2,0,0.4-0.1,0.6-0.1c0.6-5.4-0.7-10.6-1.9-15.7c-0.5-1.8-1.6-3.5-2-5.3c-0.3-1.7,0.1-3.5-0.1-5.2
			c-0.3-3.3-0.6-6.6-1.1-9.9c-0.4-3-0.9-6-1.4-9c-0.3-1.8-1.1-3.4-1.4-5.2c-0.8-4.2-1.2-8.5-2.1-12.7c-0.6-2.9-1.8-5.6-2.8-8.4
			c-0.3,0.1-0.6,0.2-0.9,0.3c0.4,1.4,1.1,2.9,1.2,4.3c0.3,5.5,3.4,10.6,2.8,16.3c-0.1,0.6,0.1,1.4,0.4,2c2.4,5.4,2.6,11.1,2.9,16.8
			c0.1,2.2-0.7,2.8-2.6,1.8c-2.7-1.3-5.3-1.2-7.9,0.2c-0.4,0.2-0.9,0.4-1.4,0.5c-3.7,0.3-7.4,0.6-11.1,1c-2.2,0.3-2.7-0.7-2.7-2.7
			c0.1-7.7,0-15.3,0.1-23c0-2.2,0.8-4.4,1.1-6.6c0.3-1.6,0.5-3.1,0.7-4.7c-0.3-0.1-0.6-0.1-0.9-0.2c-0.2,0.3-0.6,0.6-0.7,0.9
			c-0.7,4.6-1.7,9.3-2,13.9c-0.4,6.2-0.2,12.4-0.2,18.6c0,1.6,0.1,3.2,0.5,4.7c0.1,0.6,1.1,1.7,1.4,1.6c2.4-0.5,3.4,0.8,4,2.9
			c0.3-0.6,0.3-1,0.3-1.5c0.1-2.6,1.2-3.8,3.8-4.1c3.1-0.4,6.2-0.9,9.4-1c1.7-0.1,3.4,0.3,5.1,0.7c2.1,0.5,3,1.8,2.9,4
			c-0.2,3.3-0.5,6.7-0.3,10c0.2,4.5,0.7,8.9,1.1,13.4c0.3,3,0.4,6,0.7,9c0.6,5.6,1.6,11.1,2,16.8c0.5,7.1-0.1,14.1-1.1,21.1
			c-0.3,1.8,0,3.7-0.4,5.5c-1.2,5.9-1.2,11.7-0.2,17.6c1,5.9,2.3,11.8-1.9,17.4c-2.7,3.7-5.8,5.7-9.7,4.3c-0.3-1.9,0.7-2.4,2.3-2.1
			c2.2,0.3,3.2-1,3.9-2.7c0.7-1.7,1.3-3.4,1.9-5.1c0.6-1.5,0.6-2.6-1.2-3.6c-1.4-0.8-3-2.6-3.2-4.1c-0.4-4.9-0.2-9.9-0.2-14.9
			c0-3.4,0.2-6.7,0.1-10.1c-0.5-9.9-5.5-18.4-8.9-27.4c-1.3-3.4-2.4-6.8-3.6-10.1C839.1,647,838.3,646.7,837.8,646.3z M948.5,812.5
			c-0.1-0.2-0.1-0.4-0.2-0.6c-3,0.8-6.2,0.7-8.4,3.6c-0.4,0.5-0.8,1.1-1.3,1.5c-2.4,2.3-3,2.1-4.8-0.7c-0.8-1.3-2.1-2.3-3.2-3.4
			c-0.3,0.2-0.5,0.3-0.8,0.5c0.3,1.1,0.4,2.3,0.8,3.4c1,3.5,2.3,7-0.6,10.2c-1.8,2,0,3.6,0.2,5.3c0.2,0,0.5,0,0.7,0
			c0.1-1.1,0.1-2.2,0.2-3.3c0.2,0.1,0.5,0.3,0.7,0.4c0.8-0.8,1.5-1.7,2.3-2.5c0.5-0.4,1.1-0.6,1.6-1.1c0.5-0.4,0.8-0.9,1.2-1.4
			c1.3-2,2.2-4.4,3.8-6C943,816.2,945.9,814.4,948.5,812.5z M815.8,824.1c-0.2,0.3-0.3,0.6-0.5,0.9c0.9,0.7,1.8,1.3,2.7,2
			c1.6,1.3,4.8,0.7,4,4.2c2.8-0.3,1.9-2.2,1.8-3.4c-0.2-3.3-0.8-6.6-1.1-10c-0.2-2.3,0-4.7,0-7.1c-0.3,0-0.6,0-0.9-0.1
			c-0.4,1.6-0.7,3.1-1.1,5c-1.5-0.2-3-0.5-4.9-0.8c0.7,0.8,1.5,1.3,1.9,2c0.5,0.8,0.7,1.7,1.1,2.6c-0.7,0.2-1.5,0.4-2.2,0.6
			c-0.2,0.1-0.3,0.3-0.3,0.3c1.4,0.4,2.9,0.7,4.3,1.4c0.5,0.2,0.5,1.4,0.7,2.1c-0.7,0.2-1.3,0.4-2,0.4
			C818.2,824.5,817,824.3,815.8,824.1z M809.3,828c0,2.9,0,5.3,0,7.7c0.3,0,0.6,0,0.9-0.1c0-1.7,0.1-3.4,0-5.1
			c-0.2-4.9-0.1-5.2,4.7-6.8c-0.2-0.6-0.4-1.3-0.7-2.1c-2.2,1.3-4.1,2.5-5.9,3.5c-0.2-0.8-1.1-2.3-0.7-3.1c1.5-2.9,0.1-5.1-1.4-7.2
			c-0.6-0.8-1.7-1.2-2.5-1.8c0.1,1,0,2,0.3,2.9c0.6,1.6,2.3,3,0.6,5c-0.1,0.2,0.2,0.9,0.5,1.3c2,2.3,2,2.3-0.1,3.8
			c0,1.8,0,3.3,0,5.3C806.5,830.1,807.6,829.3,809.3,828z M803.4,825.9c0.1-1.7,0.2-3.1,0.3-4.6c-3.3-0.4-6.1,0.3-7.6,3.1
			c-0.8,1.4-0.7,3.2-1,4.9C798.6,828.9,799,823.6,803.4,825.9z M803.6,839.4c0.3,0,0.7,0,1,0c0-2.5,0-4.9,0-7.4c-0.2,0-0.4,0-0.6,0
			C803.9,834.5,803.7,836.9,803.6,839.4z M903.6,825.1c0.8,0.3,1.5,0.5,2.1,0.7c0.4-1.3,0.8-2.7,1.1-4c-0.3-0.1-0.6-0.3-0.9-0.4
			C905.3,822.5,904.6,823.7,903.6,825.1z M799.9,835.3c-0.3,1.7-0.5,3.4-0.9,5.5C801.1,839,800.4,837.1,799.9,835.3z"/>
		<path d="M837.9,477.6c-0.6,0-1.2,0-2.1,0c2.2,4.1,4.1,7.8,6.1,11.4c0.2,0.5,0.8,0.9,1.3,1.1c4.8,1.9,9.6,2.2,14.5,0.3
			c0.7-0.3,1.6-0.1,2.4-0.3c0.7-0.1,1.6-0.3,2.1-0.7c1.6-1.1,3.3-1.3,4.5,0.1c0.7,0.8,0.7,2.7,0.3,3.8c-1.4,3.6-3.2,7-4.6,10.6
			c-0.8,2-0.4,4,1,5.6c1.2,1.4,1.5,2.7,0.6,4.5c-0.5,1-0.1,2.6,0,3.8c0.1,0.4,1,1.1,1.2,1c2.9-2,4.5,0.9,6.2,2
			c4,2.3,4.1,5.8,0.4,8.7c-2.4,1.9-4.9,3.7-7.5,5.3c-1.1,0.7-2.7,0.7-4,0.9c-5.4,0.6-8.5,3.3-9.6,8.7c-0.4,1.9-1.6,3.6-2.5,5.4
			c-1.6,3.4-3.6,6.8-2.7,10.7c0.3,1.4,1.6,2.6,2.3,3.6c-3,0.2-7.3-1.3-10-4c-1-1-1.8-0.9-2.7,0.1c-3,3.3-6.4,5.1-11,3.4
			c-1.3-0.5-2.1-0.2-2.3,1.5c-0.9,6.6-1.5,13.2-3.1,19.6c-1.4,5.9-2.1,11.8-2.4,17.7c-0.5,8.4-0.4,16.8-0.2,25.2
			c0.1,4.8,0.5,9.7,1.4,14.5c0.8,4.6,2.2,9.1,3.4,13.7c0.2,0.6,0.4,1.3,0.5,1.9c0.9,4.8,3,8.4,8.4,8.8c4.1,0.3,7.8,1.7,11.2,4
			c1.3,0.9,2.8,0.8,3.5-0.5c0.5-0.9,0.6-2.4,0.2-3.4c-1.6-4.2-3.5-8.2-5-12.4c-0.9-2.6-1.3-5.4-2-8.1l0,0c0.5,0.4,1.3,0.7,1.5,1.2
			c1.3,3.4,2.4,6.8,3.6,10.1c3.4,9,8.4,17.5,8.9,27.4c0.2,3.3-0.1,6.7-0.1,10.1c0,5-0.2,10,0.2,14.9c0.1,1.5,1.8,3.3,3.2,4.1
			c1.8,1,1.8,2.1,1.2,3.6c-0.6,1.7-1.2,3.4-1.9,5.1c-0.7,1.7-1.8,3-3.9,2.7c-1.6-0.2-2.6,0.3-2.3,2.1c3.9,1.4,7-0.6,9.7-4.3
			c4.2-5.7,2.8-11.5,1.9-17.4c-1-5.9-1-11.7,0.2-17.6c0.4-1.8,0.1-3.7,0.4-5.5c1-7,1.6-14,1.1-21.1c-0.4-5.6-1.4-11.2-2-16.8
			c-0.3-3-0.5-6-0.7-9c-0.4-4.5-0.9-8.9-1.1-13.4c-0.1-3.3,0.2-6.6,0.3-10c0.1-2.2-0.8-3.6-2.9-4c-1.7-0.4-3.4-0.8-5.1-0.7
			c-3.1,0.2-6.2,0.7-9.4,1c-2.6,0.3-3.7,1.5-3.8,4.1c0,0.4-0.1,0.9-0.3,1.5c-0.6-2.1-1.6-3.4-4-2.9c-0.4,0.1-1.3-1-1.4-1.6
			c-0.3-1.5-0.4-3.1-0.5-4.7c0-6.2-0.2-12.4,0.2-18.6c0.3-4.7,1.3-9.3,2-13.9c0-0.3,0.4-0.6,0.7-0.9c0.3,0.1,0.6,0.1,0.9,0.2
			c-0.2,1.6-0.5,3.1-0.7,4.7c-0.4,2.2-1.1,4.4-1.1,6.6c-0.2,7.7,0,15.3-0.1,23c0,2,0.5,2.9,2.7,2.7c3.7-0.4,7.4-0.6,11.1-1
			c0.5,0,0.9-0.3,1.4-0.5c2.6-1.5,5.2-1.5,7.9-0.2c2,1,2.8,0.4,2.6-1.8c-0.3-5.7-0.5-11.4-2.9-16.8c-0.3-0.6-0.4-1.3-0.4-2
			c0.6-5.7-2.4-10.7-2.8-16.3c-0.1-1.5-0.8-2.9-1.2-4.3c0.3-0.1,0.6-0.2,0.9-0.3c0.9,2.8,2.1,5.5,2.8,8.4c0.9,4.2,1.3,8.5,2.1,12.7
			c0.3,1.8,1.1,3.4,1.4,5.2c0.6,3,1,6,1.4,9c0.4,3.3,0.8,6.6,1.1,9.9c0.1,1.7-0.3,3.5,0.1,5.2c0.4,1.8,1.5,3.5,2,5.3
			c1.3,5.2,2.5,10.4,1.9,15.7c-0.2,0-0.4,0.1-0.6,0.1c-0.8-4-1.6-7.9-2.3-11.9c-0.3,0-0.5,0-0.8-0.1c-0.2,1-0.6,2.1-0.5,3.1
			c0.6,6.9,1.2,13.9,1.8,20.8c0.6,6.2,1.3,12.5,2,18.9c1.9-0.3,3.6-1.5,3.5-3.6c-0.2-4.3-0.8-8.7-1.2-13c-0.4-4.1-1-8.2-1.4-12.3
			c0.2,0,0.4-0.1,0.6-0.1c1.4,7.4,2.8,14.8,4.2,22.2c0.4,2.3-0.1,4.3-1.9,6.1c-0.6,0.6-0.8,1.8-0.8,2.7c0.5,5.6,1.2,11.2,1.6,16.8
			c0.3,3.4,0.1,6.8,0.4,10.2c0.5,5.1,1.2,10.2,1.8,15.3c0.1,1,0.4,2,0.3,3c-0.7,6.3-1.4,12.7-2.3,19c-0.4,2.8-1.3,5.4-2.5,8.1
			c0-1.9-0.4-3.9,0.1-5.7c2.6-10.7,3.2-21.4,1.8-32.4c-0.7-5.1-0.7-10.3-1-15.4c-0.3-5.6-0.6-11.2-1.1-16.8c-0.1-0.8-1-1.5-1.6-2.2
			c-0.3,0.1-0.6,0.2-0.9,0.3c-0.6,5.9-1.4,11.8-1.8,17.7c-0.5,7.5-1.1,15.2,0.5,22.6c1.3,6.3-0.3,12.2-0.6,18.3
			c-0.2,3.8-3.7,5.8-7.4,4.9c-0.6-0.2-1.2-0.8-1.7-1.3c-0.3-0.3-0.3-0.7-0.5-1.1c-0.4-0.8-6.4-2.2-7.9-1.9c-2,0.5-1.3,2.2-1.5,3.5
			c-0.2,1.7-0.1,3.5-0.1,5.2c0,7.3,0.5,14.7-2.7,21.7c-0.8,1.8-0.6,4-0.9,6.1c-0.3,0-0.7,0-1-0.1c0.3-3.2-0.3-6.7,0.9-9.4
			c2.4-5.2,1.3-10.4,1.6-15.7c0-0.5-1.1-1.2-2-2.1c-0.4,1.4-0.6,2.1-0.9,2.9c-0.1,0-0.2,0-0.3-0.1c0.6-4.5,1.3-9,1.6-13.6
			c0.3-3.8,0.2-7.6,0.2-11.4c0-0.5-0.5-1.1-0.3-1.4c2.7-4.4-1.1-8-1.4-12.1c-0.1-1.6-0.4-3.6-1.4-4.7c-1.7-2-3.9-3.4-5.9-5.1
			c-2.8-2.3-6.2-4.1-7.8-7.7c-0.3-0.8-0.3-1.7-0.3-2.6c2.1,4.3,6.1,6.4,9.5,9c2.9,2.2,5.7,4.3,6.7,8.2c2,7.4,4.3,14.7,6.4,22.1
			c0.2,0.8-0.2,1.9-0.4,3.3c2.7-0.6,6-0.5,7.6-2.1c1.5-1.4,2.3-5.2,1.5-7.1c-2.3-4.9-2.1-9.8-2.2-14.9c-0.1-6.2,0.5-12.4-0.1-18.6
			c-0.3-3.4-2.2-6.7-3.6-9.9c-0.2-0.4-1.5-0.6-2.3-0.5c-2.8,0.4-5.3,0.4-7.3-2c-0.3-0.4-1-0.6-1.5-0.8c-3.3-0.7-6.2-2.7-9.8-2.8
			c-1.9-0.1-3.7-1.3-4.6-3.4c-0.4-0.8-1.4-1.4-2.1-2.1c-0.3,0.2-0.7,0.3-1,0.5c0.8,6.5,1.6,13.1,2.4,19.6c-0.1,0.1-0.3,0.1-0.4,0.2
			c-0.6-1.8-1.6-3.5-1.8-5.3c-0.7-5.9-1.3-11.9-1.7-17.8c-0.1-1.3,0.6-2.6,0.9-3.9c0.2-0.8,0.6-1.6,0.4-2.4
			c-0.5-2.4-1.4-4.7-1.9-7.2c-0.7-3.6-1.5-7.1-1.8-10.8c-0.4-6.8-0.8-13.6-0.6-20.4c0.2-7.2,0.9-14.4,1.7-21.6
			c0.8-8.1,1.7-16.1,3.1-24.1c0.9-5.4,2.6-10.6,4-15.9c0.2-0.6,1-1,1.3-1.7c0.5-1,1.4-2.2,1.1-3c-0.9-2.8-2.2-5.5-3.5-8.2
			c-0.4-0.7-1.6-1.4-2.5-1.5c-3.4-0.2-6.8,0.1-10.2-0.1c-1.1-0.1-2.2-0.8-3.1-1.4c-1-0.6-1.8-1.4-2.7-2.1c-2.1-1.6-4.1-3.2-6.3-4.7
			c-0.9-0.6-2-0.8-3.5-1.3c-1.9-6.4-4.2-13.3-1.7-20.7c1.1-3.3,1.5-6.9,3.1-9.9c1.4-2.8,3.9-5,6-7.4c2-2.1,4.5-3.8,6.2-6
			c2.3-3,5.3-3.6,8.6-4.1c0.7-0.1,1.7-0.7,2-1.3c1.5-3,2.7-6.1,4.2-9.1c1.4-3,6.1-5.2,9-3.3c-2.4,1.1-5.4,1.8-7.2,3.6
			c-1.8,1.8-2.4,4.9-3.5,7.4c0.2,0.2,0.4,0.3,0.6,0.5c0.5-0.4,1.2-0.8,1.6-1.3c3.5-4.3,7.3-8,13.2-8.4c2.7-0.2,5.5,0,8.2,0.1
			c0.3,0,0.7,0.1,0.9,0.3c2.4,2,4.7,4.1,7,6.2c-0.9,1.8-2.3,2.2-4,1.8c-2.4-0.4-4.9-1-7.4-1.1C839.6,476.1,838.7,477.2,837.9,477.6
			L837.9,477.6z M843.7,527.3c1.1,0.4,1.8,0.5,2.1,0.8c2.2,2.8,5.2,4.4,8.5,5.6c2.9,1.1,5.7,1.3,8.2-0.2c2.6-1.5,4.8-3.7,7.3-5.5
			c1.8-1.3,1.8-2.9,1-4.6c-1-1.9-2.6-2.7-4.8-2.2c-3.4,0.7-4.1,0.4-4.8-3.1c-0.2-1.1,0.1-2.3,0.1-3.4c-0.1-1.7-0.1-3.4-0.6-5
			c-1-2.7-1.2-5.1,0.3-7.9c1.5-2.9,4-5.2,4.5-8.7c0.3-2-0.4-2.6-1.9-2.5c-1.7,0.2-3.4,0.9-5,1.3c-3,0.7-5.8,2.8-9.1,1.8
			c-3-0.9-5.9-2-8.8-3.2c-0.7-0.3-1.1-1.3-1.4-2c-0.7-1.5-0.9-3.3-1.9-4.5c-0.6-0.8-3-1.4-3.1-1.2c-1.3,2-2.4,0.7-3.6,0.1
			c-0.6-0.3-1.1-0.8-1.7-1.1c-0.2,0.1-0.4,0.2-0.7,0.4c1.7,6,3.5,11.9,3.6,18.2c-1.4-4-2.4-8.1-3.3-12.2c-0.2-1.2-0.4-2.4-1.8-2
			c-0.6,0.2-1.2,1.6-1.1,2.5c0.5,6,1.4,12,1.6,18.1c0.1,2.5,1.1,5.8-2.1,7.7c-4.2-1.4-4.2-1.4-5.5,1.7c-1.4,3.5-1.3,6.6,1.3,9.5
			c3,3.5,6.5,5.3,11.2,3.4c1.4-0.5,3.1-0.1,4.7-0.1c0,0.4,0.1,0.8,0.1,1.2c-2.6,0.7-5.3,1.5-8.2,2.3c0.4,1.8,0.8,3.7,1.4,6
			c-1.4-0.1-2.4-0.4-3.4-0.3c-0.8,0-1.9,0.1-2.2,0.6c-0.4,0.5-0.2,1.6,0.1,2.3c1,2.5,2.1,5,3.1,7.5c0.2,0.5,0.2,1.3-0.1,1.9
			c-1,2.5-2.3,4.8-3,7.3c-0.4,1.4,0,3.3,0.7,4.6c0.9,1.6,2.6,0.9,3.7,0.1c1.6-1.2,3-2.5,4.4-4c1.2-1.3,2.1-2.1,3.9-0.8
			c1.8,1.3,4.1,2,5.8,0.1c1-1.2,1.4-2.9,1.9-4.5c1.6-4.7,3.2-9.5,4.9-14.6c-1.9-2,0.2-2.9,3-3.8
			C848.3,533.9,845.1,532.1,843.7,527.3z M807.3,518.7c-1.8-5.3-2.6-10.8-1.3-16.4c-2.9,0.8-3.2,3.2-3.5,5.3c-0.4,2.5-0.6,5-0.2,7.4
			c0.4,2.2,1.4,4.3,2.6,6.3c1,1.7,2.6,3.1,3.8,4.7c1.9,2.5,4.2,4.3,7.5,4.5c0.4,0,1.3-0.9,1.3-1.4c0-1.7-1.8-2.8-3.4-2.1
			c-1.1,0.5-1.7,0.4-2.2-0.9c-0.7-1.5-2-2.8-2.7-4.3c-0.4-0.7-0.4-1.8-0.4-2.6c0-1.4,0.3-2.7,0.4-4.1c-0.3-0.1-0.7-0.1-1-0.2
			C807.8,516.1,807.5,517.4,807.3,518.7z M820.8,487c-0.2-0.2-0.5-0.4-0.7-0.6c-2.9,0.6-4.2,3.7-5,5.6c-4.1,9.3-5.3,19,0.2,28.6
			c1.8-1.4,2-3.3,1.8-5.3c-0.3-2-0.7-4-1-6c-0.1-0.6,0-1.2-0.3-1.7c-2.3-4.9-1.2-9.4,1.2-13.9C818.2,491.5,819.5,489.2,820.8,487z
			 M802.2,521.7c-4.2-9.3-0.6-17.9,2.4-26.6c-3.4,1.1-3.9,4.3-5,6.7c-2.1,4.7-2,9.8-1.5,14.8C798.2,518.8,799,521.1,802.2,521.7z
			 M803.3,525.2c2.8,3.2,5.4,6,7.9,8.8c-0.5,0.3-1.2,0.7-1.9,1.2c0.1,0.2,0.3,0.5,0.4,0.7c1.4-0.5,2.8-0.9,4.1-1.5
			c0.6-0.3,1.2-1,1.2-1.5c0-0.4-0.8-1-1.4-1.2c-2.5-0.8-4.6-2.3-5.7-4.7C807.1,524.9,805.7,524.5,803.3,525.2z M816.7,502.9
			c3.2-4.2,5.1-8.7,6-14C818.8,491.4,815.6,498.9,816.7,502.9z M822.3,510c2.7-5.8,2.5-12.6-0.8-14.3c0.1,1.8,0,3.3,0.3,4.8
			c0.3,1.5,0.6,2.8-0.9,4c-0.5,0.4-0.6,1.7-0.4,2.4C820.8,507.9,821.6,508.8,822.3,510z M795,519.8c0.5-5.1,1-10.2,1.5-15.6
			C793.4,506,792.2,516.4,795,519.8z M803.8,528.7c-0.1-0.6-0.1-0.9-0.2-1.1c-1.5-2-2.9-4-4.5-5.9c-0.1-0.2-1.9,0.5-2,1.1
			c-0.5,2.1,3.3,6.6,5.4,6.7C802.9,529.5,803.4,529,803.8,528.7z M860.5,727c-0.2-0.3-0.4-1.1-0.8-1.2c-0.5-0.1-1.3,0.2-1.7,0.6
			c-0.9,1.1-1.8,2.3-2.5,3.6c-0.3,0.4-0.4,1.2-0.2,1.6c0.2,0.3,1,0.4,1.5,0.3C858.9,731.2,860,729.6,860.5,727z M838.5,472.3
			c0.5,0.8,0.6,1.2,0.9,1.3c2.5,1,4.9,1.9,7.4,2.8c0.3,0.1,0.9-0.3,1-0.5c0.1-0.4,0-1-0.3-1.2C845.1,472.5,842.1,472.4,838.5,472.3z
			 M820.7,510.3c-0.8-1.7-1.3-3.1-2-4.3c-0.3-0.5-1.1-0.6-1.6-0.9c-0.2,0.6-0.6,1.2-0.6,1.8c0.1,1.1,0.5,2.2,0.6,3.3
			c0.1,1,0,2.2,1.5,1.8C819.4,511.7,820,510.9,820.7,510.3z M815.5,488c-2.6,0.7-5.9,4.3-6,6.1c0,0.3,0.2,1,0.4,1
			c0.6,0,1.6,0.1,1.8-0.2C813,492.9,814.1,490.7,815.5,488z M814.9,523.1c-1.3-2.9-2.3-5.4-3.5-7.8c0,0-1.2,0.2-1.3,0.5
			C809.2,518.5,811.1,521.8,814.9,523.1z M799,495.5c-1.4,1.6-2.5,2.8-3.5,4.2c-0.2,0.3,0,1.2,0.3,1.5c0.3,0.3,1.1,0.4,1.6,0.2
			C798.4,501,799.5,497.5,799,495.5z M822.5,532.7c0.3-0.1,0.5-0.3,0.8-0.4c-0.1-0.8,0-1.7-0.5-2.2c-0.6-0.6-1.5-0.9-2.3-1.3
			c0.2,0.7,0.3,1.5,0.6,2.2C821.4,531.5,822,532.1,822.5,532.7z M832.9,480c0.2-0.2,0.4-0.3,0.6-0.5c-0.2-0.5-0.3-1.5-0.6-1.5
			c-1.1-0.2-2.2-0.2-3.4-0.3c-0.1,0.3-0.1,0.7-0.2,1C830.6,479.1,831.8,479.6,832.9,480z"/>
		<path d="M894.1,813.2c-0.8,2.1-1.6,4.2-2.6,6.9c-0.4-1.3-0.7-2.1-0.9-2.8c-1.3,0.3-2.5,0.5-3.8,0.8c-0.2,0.8-0.3,1.8-0.7,2.7
			c-0.7,1.5-1.3,3.8-2.5,4.4c-2.5,1.2-5.5,1.8-8.3,2c-4.3,0.2-8.6-0.3-13-0.4c-0.8,0-1.6,0.3-2.5,0.9c4,1.7,5.6,6.7,10.5,6.9
			c0.8,0,1.7,0.4,2.5,0.1c2.4-0.8,5.3-1.1,7-2.7c3.5-3.2,7.7-2,11.6-2.7c0.3,0,1.1,1.2,1,1.7c-0.2,1.2-0.8,2.3-1.4,3.4
			c-0.3,0.7-0.9,1.4-1.2,2.2c-1.1,3.7-2.7,4.9-6.6,5.1c-2.1,0.1-4.2,0.5-6.2,1.1c-2.2,0.6-4,0.7-6.2-0.2c-2.1-0.8-4.6-0.5-7-0.5
			c-2.2,0-4.5,0.2-6.7,0.3c-0.4,0-0.7-0.2-1.7-0.6c0.7-0.3,0.9-0.5,1.1-0.5c5.1,0.1,10.3,0.2,15.4,0.5c3,0.2,5.9,0.4,8.5-1.7
			c0.2-0.2,0.6-0.2,0.9-0.3c0.9-0.1,2.7,0.4,2.2-1.3c-0.4-1.5-1.9-2.9-3.6-2.1c-3,1.3-5.9,0.8-8.8,0.3c-2.6-0.5-5-1.1-7-3.3
			c-1.7-1.8-4.1-3-6.3-4.4c-0.3-0.2-0.9-0.4-1.1-0.2c-2.1,1.8-2.6,0.1-3.2-1.4c-1.8-4.5-2.5-9.2-2.4-14.1c0.1-4.2,0.1-8.3,0-12.5
			c0-2.6-0.5-2.4-3-2.2c-4,0.3-4.4,2.4-4.8,5.7c-0.6,5.3-2.2,10.5-3.2,15.8c-0.3,1.5,0,3-0.2,4.5c-0.3,2.1-0.8,4.2-1.4,6.3
			c-1.2,3.9,0.2,7.6,2,10.7c1.7,3.1,6.9,3.5,10.8,1.4c0.9-0.5,2.1-0.6,3.3-0.6c-3.8,3.1-7.9,5.3-12.8,2.8c-2.4-1.2-3.7-3-3.7-5.9
			c0-3.2-0.5-6.4-1-9.6c-0.3-1.9-1.9-2-3-1.1c-1.9,1.5-3.7,2.3-5.8,0.6c-2.2-1.7-2.9-4.1-2.1-6.7c1.1-3.5,2.6-6.9,3.8-10.4
			c1.9-5.4,4.2-10.6,4.3-16.5c0-1.9-0.7-3.2-2-4.8c-1.4-1.7-1.5-4.4-2.2-6.7c-2.1-6.5,0.1-12.8,0.9-19.1c0.7-5.5,2-10.8,3.3-16.2
			c0.4-1.7,1.3-3.3,2-5c0.2,0,0.4,0.1,0.7,0.1c0,1,0.1,2.1-0.2,3c-2.3,6.7-4.2,13.4-4.3,20.5c-0.1,5.1-1,10.2-0.7,15.3
			c0.1,2.4,0.1,5.7,3.2,7c0.7,0.3,1.7,0.6,2.1,0.3c0.5-0.4,0.7-1.4,0.7-2.2c-0.1-5.9-0.3-11.8-0.5-17.6c0-0.6,0.3-1.2,1-1.9
			c0.1,0.9,0.2,1.9,0.2,2.8c-0.1,4.2-0.6,8.4-0.2,12.5c0.4,4.4,1.7,8.7,2.8,13c0.2,0.6,1.4,1.5,2.1,1.4c2.1-0.3,4.5-0.5,6.3-1.6
			c3.5-2.1,7.2-4.4,9.8-7.4c3.1-3.7,5.4-8.9,3.7-13.4c-2.9-7.3,1.7-13.6,1-20.4c1.1,2.1,1.1,8.6,0.1,11.9c-0.5,1.6-0.7,3.1,0.7,4.4
			c0.4,0.3,0.5,1,0.5,1.6c0.1,5.7-0.3,11.4-3.5,16.3c-1.5,2.3-3.8,4.2-6.1,5.7c-2.5,1.6-3.9,3.7-3.8,6.7c0.1,2.4-0.1,4.8-0.2,7.2
			c-0.1,1.6,0.2,2.9,1.9,3.6c1.7,0.7,3.1,1.9,4.8,2.6c0.6,0.2,2-0.2,2.3-0.7c1-1.6,2.2-1.4,3.6-0.8c1,0.4,2.2,0.7,3.2,0.6
			c2.7-0.1,5.1-0.1,7.6,1.5c1.5,1,3.8,1,5.7,1.2c1.9,0.2,3.8,0,6,0c-0.4-4.9-1.9-10.2,0-16.1c2.2,4.8,1.4,9.9,4.3,13.5
			C892.2,813.9,893.2,813.6,894.1,813.2C894.1,813.2,894.1,813.2,894.1,813.2z M837.9,794.3c-0.3,0-0.6,0-0.9-0.1
			c-0.6,2.4-1,4.9-1.7,7.3c-1.1,3.7-2.3,7.4-3.8,10.9c-1.8,4.2-3.8,8.3-3.2,13.1c0.2,2.1,1.5,2.7,3.3,2.4c2.1-0.4,4.1-1,6.2-1.5
			c0.3-2.9,0.4-5.8,0.8-8.6c0.7-4.8,1.7-9.6,2.5-14.4c0.3-1.5-0.1-2.6-1.5-3.6c-0.7-0.5-1-1.7-1.3-2.7
			C838.1,796.2,838.1,795.3,837.9,794.3z M883.7,818.7c-2.3,0-4.5-0.1-6.6,0c-1.7,0.1-3.4,0.3-5,0.8c-2.6,0.8-4.8,0.8-7.3-0.5
			c-3.2-1.6-6.8-2.5-10.2-3.6c-0.7-0.2-1.9,0-2.2,0.5c-0.4,0.6-0.3,1.7-0.1,2.6c0.3,1.2,1,2.3,1.3,3.6c0.6,3.1,2.3,4.2,5.3,3.5
			c2-0.4,4-0.7,6-1c5.1-0.8,10.3,2.5,15.6-0.5C882.9,822.8,884,822.4,883.7,818.7z M881.5,832.3c0.2,2.9,2,2.7,3.4,2.6
			c1.7,0,3.7,0.3,4.4-1.9c0.3-1.1,0.1-2.1-1.5-1.8C885.8,831.6,883.7,832,881.5,832.3z M869.3,819.3c0.8-1,1.3-1.5,1.8-2.1
			c-0.7-0.4-1.5-1.1-2.2-1.2c-0.5-0.1-1,0.8-1.5,1.3C867.8,817.9,868.3,818.4,869.3,819.3z"/>
		<path d="M923,810c2.4-2.2,5.2-3,8.7-1.5c-2,1.1-4,2.3-6.5,3.7c4.3,3.9,3.1,9,2.6,14c-0.1,0.1-0.4,0.3-0.5,0.2
			c-2.8-0.9-1.1-4-2.6-5.6c-0.1-0.1,0.8-1.4,1.4-1.7c1.3-0.7,1.4-1.5,0.7-2.6c-0.5-0.7-1.1-1.4-2.4-2c0,1,0.3,2.2-0.1,3.1
			c-0.4,1-1.4,1.8-2.2,2.7c0-0.9,0-1.7,0-2.6c-1.6-0.3-3.2-0.6-4.8-0.8c-0.4-0.1-0.9,0.1-1.1,0.4c-1.4,1.3-0.9,8.2,0.3,9.2
			c1.2-1.6,2.4-3.3,3.7-4.9c0.2,0.2,0.5,0.3,0.7,0.5c0.3,2.5-1.1,4.5-2.8,6c-0.6,0.5-2.6,0.5-2.9,0c-1.5-2.5-3.6-0.7-5.7-1
			c0-2,0-4,0-6c0-1.1-0.2-2.1-0.4-3.2c-0.3-2,0.4-3.1,2.4-3.3c-0.6,2-1.3,3.9-1.9,5.9c0.2,0.2,0.5,0.5,0.7,0.7
			c0.8-0.5,1.6-0.8,2.2-1.4c0.8-0.8,1.6-1.7,2.1-2.7c0.7-1.4,1.9-3.1-1.2-3.6c1.6-0.6,3.4-0.9,4.9-1.8c0.9-0.5,1.5-1.8,1.7-2.8
			c0.1-0.6-0.9-1.4-1.7-2.7c1-1.6,2.3-3.7,3.6-5.7c0.3,0.1,0.6,0.2,0.9,0.4c-0.2,0.8-0.4,1.7-0.5,2.5c-0.3,1.8-0.8,3.7-0.9,5.6
			C921.4,809.2,922.5,809.6,923,810c-0.4,0.6-0.9,1.2-1.3,1.8c-0.8,1-1.6,2-2.5,3c0.2,0.3,0.4,0.5,0.6,0.8c0.7-0.3,1.4-0.3,1.9-0.8
			c0.9-0.8,1.7-1.8,2.4-2.7c0.3-0.5,0.4-1.1,0.7-1.7C924.2,810.3,923.6,810.1,923,810z"/>
		<path d="M948.5,812.5c-2.6,2-5.5,3.7-7.7,5.9c-1.6,1.6-2.5,4-3.8,6c-0.3,0.5-0.7,1-1.2,1.4c-0.5,0.4-1.2,0.6-1.6,1.1
			c-0.8,0.8-1.5,1.7-2.3,2.5c-0.2-0.1-0.5-0.3-0.7-0.4c-0.1,1.1-0.1,2.2-0.2,3.3c-0.2,0-0.5,0-0.7,0c-0.2-1.8-2-3.3-0.2-5.3
			c2.9-3.3,1.6-6.7,0.6-10.2c-0.3-1.1-0.5-2.3-0.8-3.4c0.3-0.2,0.5-0.3,0.8-0.5c1.1,1.1,2.4,2.1,3.2,3.4c1.8,2.8,2.4,2.9,4.8,0.7
			c0.5-0.4,0.9-1,1.3-1.5c2.1-3,5.4-2.8,8.4-3.6C948.3,812.1,948.4,812.3,948.5,812.5z"/>
		<path d="M900.5,807.4c3.4-3.6,5.1-8.6,9-11.7c0.3,0.2,0.7,0.5,1,0.7c-1.8,2.4-3.6,4.8-5.4,7.1c1.3,1.1,2.1,2,3.1,2.4
			c0.9,0.4,2.1,0.3,3.1,0.2c1.2-0.1,2.5-1.6,3.8,0.3c-1.6,1.3-3.2,2.4-4.6,3.8c-1.2,1.2-1.2,3.6-3.7,3.6c-0.3,0-0.6,1.9-1,3.1
			c-0.7,0-1.5-0.1-2.2-0.1c0.2-0.8,0.3-1.6,0.8-2.2c1.1-1.4,2.3-2.6,3.5-3.8c-0.1-0.1-0.2-0.2-0.3-0.4c-0.8,0.3-1.6,0.5-2.7,0.9
			c0.6-1.3,1.3-2.1,1.3-2.9c-0.1-1.3-0.6-2.6-1-3.9c-1,0.5-2.1,1-3.1,1.5C901.5,806.6,901,807,900.5,807.4z"/>
		<path d="M815.8,824.1c1.2,0.1,2.3,0.3,3.5,0.4c0.7,0,1.3-0.3,2-0.4c-0.2-0.7-0.2-1.9-0.7-2.1c-1.3-0.7-2.8-1-4.3-1.4
			c0,0,0.1-0.2,0.3-0.3c0.7-0.2,1.5-0.4,2.2-0.6c-0.3-0.9-0.6-1.8-1.1-2.6c-0.5-0.7-1.2-1.3-1.9-2c1.9,0.3,3.3,0.5,4.9,0.8
			c0.4-1.9,0.8-3.5,1.1-5c0.3,0,0.6,0,0.9,0.1c0,2.4-0.1,4.7,0,7.1c0.3,3.3,0.8,6.6,1.1,10c0.1,1.2,1,3.1-1.8,3.4
			c0.8-3.5-2.5-3-4-4.2c-0.9-0.7-1.8-1.3-2.7-2C815.5,824.7,815.7,824.4,815.8,824.1z"/>
		<path d="M809.3,828c-1.7,1.3-2.7,2.1-4.3,3.3c0-2,0-3.5,0-5.3c2.1-1.5,2.1-1.5,0.1-3.8c-0.3-0.3-0.6-1.1-0.5-1.3
			c1.6-1.9,0-3.3-0.6-5c-0.3-0.9-0.2-1.9-0.3-2.9c0.9,0.6,2,1,2.5,1.8c1.5,2.1,2.9,4.3,1.4,7.2c-0.4,0.8,0.5,2.3,0.7,3.1
			c1.7-1,3.7-2.2,5.9-3.5c0.3,0.8,0.5,1.5,0.7,2.1c-4.8,1.6-4.9,1.9-4.7,6.8c0.1,1.7,0,3.4,0,5.1c-0.3,0-0.6,0-0.9,0.1
			C809.3,833.3,809.3,830.9,809.3,828z"/>
		<path class="st0" d="M900.5,807.4c0.5-0.4,0.9-0.8,1.5-1.1c1-0.6,2.1-1,3.1-1.5c0.3,1.3,0.9,2.6,1,3.9c0,0.8-0.7,1.6-1.3,2.9
			c1.1-0.4,1.9-0.7,2.7-0.9c0.1,0.1,0.2,0.2,0.3,0.4c-1.2,1.3-2.4,2.5-3.5,3.8c-0.5,0.6-0.5,1.5-0.8,2.2c0,0,0.1-0.1,0.1-0.1
			c-0.8,0-1.7,0.1-2.5,0.1c0.2-1.3,0.4-2.5,0.6-3.9c-0.6-0.2-1.5-0.4-2.6-0.7c0.2-1,0.5-2,0.7-3C900,808.8,900.3,808.1,900.5,807.4z
			"/>
		<path d="M803.4,825.9c-4.3-2.2-4.8,3-8.3,3.3c0.3-1.7,0.2-3.5,1-4.9c1.6-2.8,4.3-3.5,7.6-3.1C803.6,822.7,803.5,824.2,803.4,825.9
			z"/>
		<path d="M899.8,809.5c-0.2,1-0.4,1.9-0.7,3c1.1,0.3,2,0.6,2.6,0.7c-0.2,1.4-0.4,2.7-0.6,3.9c0.8,0,1.7-0.1,2.5-0.1
			c-0.7,1.6-1.3,3.1-2,4.7c-0.8,1.8-1.4,3.4,0.9,4.6c0.3,0.1-0.3,1.7-0.4,2.5c-0.4,0-0.7,0-1.1,0c-0.4-2.2-0.9-4.4-1.2-6.7
			c-0.3-2.5-0.5-5.1-0.6-7.7c-0.1-2-1.8-1.2-2.7-1.7l0,0.1C897.5,811.7,898.6,810.6,899.8,809.5z"/>
		<path d="M837.8,646.3c-0.8-3.8-1.3-7.6,0-11.5c0.5-1.6-0.6-3.7-0.6-5.6c-0.1-3.9,0-7.8,0-12.3c0.4,0.9,0.7,1.3,0.7,1.6
			c0.1,6.7,0.1,13.4,2,20c0.1,0.4,0.1,1-0.1,1.2C837.4,641.4,838.1,644,837.8,646.3C837.8,646.3,837.8,646.3,837.8,646.3z"/>
		<path d="M894.1,813.2c0.5-2.7,0.2-5.6,2-8c0.3-0.5-0.1-1.6-0.3-2.4c-0.2-0.7-0.5-1.3-0.4-2.3c0.3,0.2,0.7,0.3,0.9,0.6
			c1.2,2,2.4,1.5,3.8,0.2c0.8-0.8,1.7-1.5,2.8-2C899.9,803.9,896,807.9,894.1,813.2C894.1,813.2,894.1,813.2,894.1,813.2z"/>
		<path d="M896.3,812.7c0.2,3.7,0.3,7.4,0.5,10.6c-0.9,1.1-1.7,2.1-2.6,3c-0.4,0.4-0.9,0.5-1.4,0.8c-0.2-0.5-0.8-1.1-0.6-1.4
			c0.5-1.2,1.3-2.3,1.8-3.5c0.4-1.2,0.4-2.5,0.7-3.7C895.2,816.5,895.8,814.7,896.3,812.7C896.4,812.8,896.3,812.7,896.3,812.7z"/>
		<path d="M837.8,477.7c0.2-0.1,0.6-0.2,0.7-0.1c3.1,1.9,6.1,3.8,8.8,6.1C843.6,482.5,839.9,481.3,837.8,477.7
			C837.9,477.6,837.8,477.7,837.8,477.7z"/>
		<path d="M803.6,839.4c0.1-2.5,0.3-4.9,0.4-7.4c0.2,0,0.4,0,0.6,0c0,2.5,0,4.9,0,7.4C804.3,839.4,803.9,839.4,803.6,839.4z"/>
		<path d="M903.6,825.1c0.9-1.5,1.7-2.6,2.4-3.8c0.3,0.1,0.6,0.3,0.9,0.4c-0.4,1.3-0.8,2.7-1.1,4
			C905.1,825.6,904.5,825.4,903.6,825.1z"/>
		<path d="M799.9,835.3c0.6,1.9,1.3,3.8-0.9,5.5C799.3,838.7,799.6,837,799.9,835.3z"/>
		<path class="st0" d="M843.7,527.3c1.4,4.9,4.6,6.6,9.3,7.7c-2.8,0.9-4.9,1.7-3,3.8c-1.7,5.1-3.3,9.9-4.9,14.6
			c-0.5,1.5-0.9,3.3-1.9,4.5c-1.7,2-4,1.2-5.8-0.1c-1.8-1.4-2.7-0.6-3.9,0.8c-1.3,1.5-2.8,2.8-4.4,4c-1.1,0.8-2.9,1.5-3.7-0.1
			c-0.7-1.3-1.1-3.2-0.7-4.6c0.7-2.5,2-4.9,3-7.3c0.2-0.6,0.3-1.3,0.1-1.9c-1-2.5-2.1-5-3.1-7.5c-0.3-0.7-0.5-1.8-0.1-2.3
			c0.4-0.5,1.5-0.6,2.2-0.6c1,0,2,0.2,3.4,0.3c-0.5-2.4-1-4.2-1.4-6c2.9-0.8,5.6-1.5,8.2-2.3c0-0.4-0.1-0.8-0.1-1.2
			c-1.6,0-3.3-0.5-4.7,0.1c-4.8,1.9-8.2,0.1-11.2-3.4c-2.5-2.9-2.7-6.1-1.3-9.5c1.3-3.1,1.2-3.2,5.5-1.7c3.2-1.8,2.2-5.2,2.1-7.7
			c-0.2-6-1.1-12-1.6-18.1c-0.1-0.8,0.5-2.3,1.1-2.5c1.4-0.4,1.5,0.9,1.8,2c0.9,4.1,1.9,8.2,3.3,12.2c-0.1-6.3-1.9-12.2-3.6-18.2
			c0.2-0.1,0.4-0.2,0.7-0.4c0.6,0.4,1.1,0.8,1.7,1.1c1.2,0.6,2.3,1.9,3.6-0.1c0.1-0.2,2.5,0.4,3.1,1.2c0.9,1.3,1.2,3,1.9,4.5
			c0.3,0.8,0.8,1.8,1.4,2c2.9,1.2,5.8,2.4,8.8,3.2c3.3,0.9,6.1-1.1,9.1-1.8c1.7-0.4,3.3-1.1,5-1.3c1.5-0.1,2.2,0.5,1.9,2.5
			c-0.5,3.5-2.9,5.9-4.5,8.7c-1.5,2.7-1.2,5.1-0.3,7.9c0.5,1.5,0.5,3.3,0.6,5c0.1,1.1-0.3,2.3-0.1,3.4c0.6,3.5,1.3,3.8,4.8,3.1
			c2.1-0.4,3.8,0.3,4.8,2.2c0.8,1.7,0.8,3.3-1,4.6c-2.5,1.8-4.7,3.9-7.3,5.5c-2.6,1.5-5.3,1.3-8.2,0.2c-3.3-1.3-6.3-2.8-8.5-5.6
			C845.5,527.8,844.8,527.7,843.7,527.3z M847.3,503.4c0.5-2.4-1.2-2.8-2.5-3.5c-0.2-0.1-0.7,0.4-1.1,0.7c0.8,0.9,1.6,1.8,2.4,2.7
			C846.3,503.5,846.8,503.4,847.3,503.4z"/>
		<path class="st0" d="M807.3,518.7c0.3-1.3,0.6-2.5,0.8-3.8c0.3,0.1,0.7,0.1,1,0.2c-0.1,1.4-0.4,2.7-0.4,4.1c0,0.9,0,1.9,0.4,2.6
			c0.8,1.5,2.1,2.8,2.7,4.3c0.6,1.3,1.1,1.4,2.2,0.9c1.5-0.7,3.4,0.4,3.4,2.1c0,0.5-0.9,1.5-1.3,1.4c-3.2-0.2-5.6-2-7.5-4.5
			c-1.2-1.6-2.8-3-3.8-4.7c-1.1-1.9-2.2-4.1-2.6-6.3c-0.4-2.4-0.2-5,0.2-7.4c0.3-2.1,0.6-4.5,3.5-5.3
			C804.6,507.9,805.4,513.3,807.3,518.7z"/>
		<path class="st0" d="M820.8,487c-1.3,2.3-2.6,4.5-3.8,6.8c-2.4,4.4-3.5,9-1.2,13.9c0.2,0.5,0.2,1.1,0.3,1.7c0.3,2,0.7,4,1,6
			c0.3,2,0.1,3.9-1.8,5.3c-5.5-9.6-4.4-19.3-0.2-28.6c0.8-1.9,2.1-5,5-5.6C820.3,486.6,820.6,486.8,820.8,487z"/>
		<path class="st0" d="M802.2,521.7c-3.2-0.5-4-2.9-4.2-5c-0.5-5-0.6-10.2,1.5-14.8c1.1-2.4,1.6-5.6,5-6.7
			C801.6,503.7,798,512.3,802.2,521.7z"/>
		<path class="st0" d="M803.3,525.2c2.4-0.7,3.8-0.3,4.7,1.7c1.1,2.4,3.2,3.9,5.7,4.7c0.6,0.2,1.4,0.8,1.4,1.2
			c0,0.6-0.7,1.3-1.2,1.5c-1.3,0.6-2.7,1-4.1,1.5c-0.1-0.2-0.3-0.5-0.4-0.7c0.7-0.4,1.4-0.8,1.9-1.2
			C808.7,531.2,806.1,528.4,803.3,525.2z"/>
		<path class="st0" d="M816.7,502.9c-1.1-4.1,2.1-11.5,6-14C821.8,494.2,819.9,498.8,816.7,502.9z"/>
		<path class="st0" d="M822.3,510c-0.7-1.2-1.5-2.1-1.8-3.1c-0.2-0.7-0.1-2,0.4-2.4c1.5-1.2,1.2-2.5,0.9-4c-0.3-1.5-0.2-3-0.3-4.8
			C824.8,497.4,825,504.2,822.3,510z"/>
		<path class="st0" d="M795,519.8c-2.8-3.3-1.6-13.8,1.5-15.6C796,509.5,795.5,514.6,795,519.8z"/>
		<path class="st0" d="M803.8,528.7c-0.4,0.2-0.9,0.7-1.3,0.7c-2.1,0-5.9-4.6-5.4-6.7c0.1-0.5,1.9-1.2,2-1.1c1.6,1.9,3,3.9,4.5,5.9
			C803.7,527.8,803.7,528.1,803.8,528.7z"/>
		<path class="st0" d="M860.5,727c-0.5,2.6-1.6,4.2-3.8,4.8c-0.4,0.1-1.3,0-1.5-0.3c-0.2-0.4,0-1.1,0.2-1.6c0.8-1.2,1.6-2.5,2.5-3.6
			c0.4-0.4,1.2-0.8,1.7-0.6C860.1,725.9,860.3,726.7,860.5,727z"/>
		<path class="st0" d="M838.5,472.3c3.6,0.1,6.6,0.2,9,2.4c0.3,0.2,0.4,0.9,0.3,1.2c-0.1,0.2-0.7,0.6-1,0.5c-2.5-0.9-5-1.8-7.4-2.8
			C839.2,473.6,839,473.2,838.5,472.3z"/>
		<path class="st0" d="M820.7,510.3c-0.7,0.6-1.3,1.5-2,1.7c-1.5,0.4-1.4-0.8-1.5-1.8c-0.1-1.1-0.6-2.2-0.6-3.3
			c0-0.6,0.4-1.2,0.6-1.8c0.6,0.3,1.4,0.5,1.6,0.9C819.5,507.2,820,508.6,820.7,510.3z"/>
		<path class="st0" d="M815.5,488c-1.5,2.6-2.6,4.8-3.9,6.9c-0.2,0.3-1.2,0.3-1.8,0.2c-0.1,0-0.4-0.7-0.4-1
			C809.7,492.3,812.9,488.7,815.5,488z"/>
		<path class="st0" d="M814.9,523.1c-3.8-1.3-5.7-4.6-4.8-7.4c0.1-0.3,1.2-0.5,1.3-0.5C812.6,517.7,813.6,520.2,814.9,523.1z"/>
		<path class="st0" d="M799,495.5c0.5,1.9-0.6,5.5-1.7,5.9c-0.5,0.2-1.3,0.1-1.6-0.2c-0.3-0.3-0.5-1.2-0.3-1.5
			C796.5,498.4,797.7,497.1,799,495.5z"/>
		<path class="st0" d="M822.5,532.7c-0.5-0.6-1.1-1.1-1.4-1.8c-0.3-0.7-0.4-1.5-0.6-2.2c0.8,0.4,1.8,0.7,2.3,1.3
			c0.4,0.5,0.3,1.5,0.5,2.2C823,532.4,822.7,532.5,822.5,532.7z"/>
		<path class="st0" d="M832.9,480c-1.2-0.4-2.3-0.9-3.5-1.3c0.1-0.3,0.1-0.7,0.2-1c1.1,0.1,2.3,0,3.4,0.3c0.3,0.1,0.4,1,0.6,1.5
			C833.3,479.7,833.1,479.8,832.9,480z"/>
		<path class="st0" d="M837.9,794.3c0.1,1,0.1,1.9,0.4,2.8c0.3,1,0.6,2.2,1.3,2.7c1.4,1,1.8,2.1,1.5,3.6c-0.8,4.8-1.8,9.6-2.5,14.4
			c-0.4,2.9-0.6,5.8-0.8,8.6c-2,0.5-4.1,1.1-6.2,1.5c-1.8,0.3-3.1-0.3-3.3-2.4c-0.5-4.8,1.5-8.9,3.2-13.1c1.5-3.5,2.7-7.2,3.8-10.9
			c0.7-2.4,1.1-4.9,1.7-7.3C837.4,794.3,837.7,794.3,837.9,794.3z"/>
		<path class="st0" d="M883.7,818.7c0.3,3.7-0.7,4-3.2,5.4c-5.3,2.9-10.4-0.4-15.6,0.5c-2,0.3-4,0.6-6,1c-3.1,0.7-4.7-0.4-5.3-3.5
			c-0.3-1.2-1-2.4-1.3-3.6c-0.2-0.8-0.3-1.9,0.1-2.6c0.3-0.5,1.6-0.7,2.2-0.5c3.4,1.1,7,2,10.2,3.6c2.5,1.3,4.8,1.3,7.3,0.5
			c1.6-0.5,3.3-0.7,5-0.8C879.2,818.6,881.3,818.7,883.7,818.7z"/>
		<path class="st0" d="M881.5,832.3c2.2-0.4,4.3-0.7,6.4-1.1c1.5-0.3,1.8,0.8,1.5,1.8c-0.7,2.2-2.7,1.8-4.4,1.9
			C883.5,835,881.7,835.2,881.5,832.3z"/>
		<path class="st0" d="M869.3,819.3c-0.9-0.9-1.5-1.4-2-2c0.5-0.5,1.1-1.3,1.5-1.3c0.8,0.1,1.5,0.8,2.2,1.2
			C870.6,817.8,870.1,818.3,869.3,819.3z"/>
		<path class="st0" d="M923,810c0.6,0.1,1.2,0.2,1.8,0.4c-0.2,0.6-0.3,1.2-0.7,1.7c-0.7,1-1.5,1.9-2.4,2.7c-0.5,0.4-1.3,0.5-1.9,0.8
			c-0.2-0.3-0.4-0.5-0.6-0.8c0.8-1,1.6-2,2.5-3C922.1,811.2,922.6,810.6,923,810C923,810,923,810,923,810z"/>
		<path d="M847.3,503.4c-0.5,0-1,0.1-1.1-0.1c-0.9-0.9-1.6-1.8-2.4-2.7c0.4-0.2,0.9-0.8,1.1-0.7C846.1,500.6,847.8,501,847.3,503.4z
			"/>
	</g>
</g>
</svg>
