<?xml version="1.0" encoding="utf-8"?>
<!-- Generator: Adobe Illustrator 22.1.0, SVG Export Plug-In . SVG Version: 6.00 Build 0)  -->
<svg version="1.1" id="Layer_1" xmlns="http://www.w3.org/2000/svg" xmlns:xlink="http://www.w3.org/1999/xlink" x="0px" y="0px"
	 viewBox="0 0 284.9 271.9" style="enable-background:new 0 0 284.9 271.9;" xml:space="preserve">
<style type="text/css">
	.st0{fill:#FFFFFF;}
</style>
<g>
	<g>
		<path class="st0" d="M0,271.9C0,181.3,0,90.6,0,0c94.9,0,189.9,0,284.9,0c0,90.6,0,181.3,0,271.9C190,271.9,95,271.9,0,271.9z
			 M91.6,94.9c0.2,0.1,0.4,0.2,0.6,0.3c-0.1,0.9,0.1,2-0.4,2.7c-1.1,1.8-2.2,3.6-3.7,5c-2.6,2.6-5.1,5.7-9.1,6.4
			c-1.8,0.3-3.6,0.4-5.3,0.6c-2.2,0.3-4.3,2.3-3.9,4.4c0.2,1.1,2,2,3.1,2.9c0.4,0.3,1,0.3,1.3,0.6c2.7,2,5.4,4,8,6.1
			c1.8,1.5,1.9,3.5,1.2,5.7c-0.2,0.7-0.6,1.4-0.7,2.1c-0.5,2.8,0.1,3.8,2.8,4.5c1.7,0.5,3.4,1.1,5.1,1.5c2.1,0.5,1.7,1.7,0.9,2.9
			c-0.5,0.8-1.3,1.5-2.1,2.1c-1.3,1.2-1.5,2.1,0,3.4c1.7,1.4,3.1,3,5.6,2.7c0.5-0.1,1.1,0.4,1.5,0.7c4.6,3.4,10,4.5,15.3,3.2
			c5.1-1.3,9.9-3.9,14.8-5.9c1.9-0.7,3-2.2,4.4-3.6c1.2-1.2,3.6-2.1,5.2-1.8c4.5,0.7,7,4,7.7,8.5c0.7,4.4,1.5,8.7,2.6,13
			c0.4,1.8,1.3,3.7,2.5,5.2c1.6,2,3.7,3.6,5.5,5.4c1.5,1.4,2.1,3.3,1.4,5.2c-0.7,2.1-2,3.9-3,5.9c-0.3,0.6-0.6,1.3-0.9,2
			c0.7,0.3,1.4,0.6,2.1,0.9c0.7,0.3,2.1,0.8,2.1,1c-0.1,1-0.5,2.2-1.2,3c-1.7,2.3-3.9,4.4-5.5,6.8c-3.3,5-5.3,10.8-9.4,15.3
			c-0.6,0.7-1.3,1.3-1.8,2.1c-2.2,3.6-4.2,4.1-8.4,3.9c-4.6-0.2-9.4-1.4-13.8,2.3c-3.4,2.9-3.8,2.7-1.9,6.6
			c2.6,5.5,6.7,8.9,13.1,8.9c0.7,0,1.6,0.1,2.1,0.5c4.4,3.2,9.2,4.2,14.5,3.7c0.6-0.1,1.3-0.1,1.6-0.5c1.7-1.8,3.9-3.5,4.9-5.7
			c2.5-5.5,6.1-10.6,6.9-16.8c0.1-0.8,0.6-1.5,1.1-2.2c4.1-6.1,8.2-12.1,12.2-18.2c2.2-3.4,2.6-3.5,5.6-0.6c1.3,1.3,2.7,1.3,4,0.4
			c2.4-1.6,5-1.3,7.1-0.1c3.5,2.1,6.9,2.4,10.8,1.7c0.7-0.1,1.7,0.3,2.4,0.8c4,2.9,7.8,6,11.8,9c0.2,0.1,0.4,0.2,0.7,0.3
			c4,1.3,8,2.7,12.1,3.8c1.5,0.4,3.3,0.5,4.7,0c2-0.8,4.5-1.9,5.3-3.6c1.5-3.4,2.3-7.2,2.9-10.9c0.4-2.6,0-5.3,0.2-8
			c0-0.7,0.4-1.8,0.9-2c0.7-0.2,1.8,0,2.4,0.4c2.2,1.4,4.4,3,6.5,4.5c2.8,1.9,5.7,2,8.7,0.5c2.6-1.3,2.7-5.2,0.3-8
			c-0.7-0.8-1.5-1.6-2.1-2.4c-3.1-4.1-4.1-9.8-9.6-12c-0.1,0-0.1-0.1-0.1-0.2c-2.8-2.4-5.5-4.9-8.4-7.3c-3.3-2.7-6.8-2.1-9,1.6
			c-1.9,3.3-3.7,6.8-5.1,10.4c-0.5,1.3,0,3.1,0.1,4.7c0,1.6-0.5,2.9-2.2,3c-1.9,0.2-3.5-1.3-3.4-3.1c0.2-3-0.9-5.6-3.5-6.8
			c-3.7-1.7-6.5-4.5-8.9-7.5c-1.4-1.8-2.1-4.2-2.8-6.4c-0.4-1.2,0.4-2.1,1.7-1.4c2.2,1.3,3.1-0.2,4.1-1.6c0.5-0.7,1.2-1.3,2-2.2
			c0.4,1.2,0.6,1.9,0.9,2.6c1.4,3.4,5.2,5,7.4,2.9c2.1-2,6.5-1.2,6.9-5.4c0-0.1,0.3-0.2,0.4-0.2c2.1-0.3,3.4-1.2,3.1-3.6
			c-0.2-1.8,0-3.8-0.6-5.4c-1.2-2.8-2.9-5.4-4.4-8.1c-0.5-0.8-1.1-1.6-1.7-2.3c-2.4-2.8-5.6-4.9-6.8-8.8c-1.3-4.3-4.5-7.8-4.8-12.5
			c-0.1-1.4-0.8-2.8-1.5-4.2c-1.6-3.2-3.5-6.3-5-9.5c-1.1-2.3-2.7-3.5-5.1-3.4c-2.6,0.1-5.1,0.8-7.6,0.8c-8.5,0-16.5,1.8-24,5.8
			c-1.4,0.7-3,1.2-4.5,1.3c-1.1,0-2.2-0.9-3.3-1.4c-0.6-6,0.9-12-1.2-18.2c-1.6-4.6-4.1-8.5-7.4-11.6c-1.9-1.8-5.4-2.6-8.2-2.8
			c-5.8-0.4-11.6-0.2-17.4-0.1c-2.3,0.1-4.6,0.7-6.8,1.2c-1.6,0.4-3.1,0.9-4.6,1.5c-2.1,0.8-4.9,1.2-6.1,2.7
			c-1.5,1.8-2.5,2.4-4.6,1.7c-0.6-0.2-1.3,0-2,0.1c-3,0.8-6.1,1.7-9.1,2.6c-0.2,0.1-0.3,0.5-0.5,1c4.9,0,9.7-0.3,13.9,2.4
			c-1,0.4-1.9,0.5-2.9,0.4c-1.5-0.1-3-0.7-4.4-0.5c-5.5,0.6-11,1.3-16.4,2.2c-1,0.2-1.9,1.2-2.9,1.8c0.1,0.3,0.2,0.6,0.3,0.8
			c1.4-0.1,2.8-0.4,4.3-0.4c0.6,0,1.2,0.4,1.8,0.6c-0.4,0.4-0.8,1-1.3,1.2c-1.8,0.8-3.6,1.4-5.4,2.1c0.1,0.2,0.1,0.5,0.2,0.7
			c3.3,0.5,6.2-1.9,9.6-2c-0.3,0.8-0.7,1.6-1.3,2c-1.2,0.8-2.7,1.1-3.8,2c-2.5,2.1-6.2,2.4-8.4,0c-2.9-3.1-7-5.2-8-10.2
			c-1.7,3.7-0.9,6.3,2,7.9c0.6,0.3,1,0.8,1.6,1.2c2.6,1.7,5.1,3.4,7.6,5.1c2.5-2.6,5.8-3.6,7.4-2.7c0,1.3-0.4,2.9,0.1,3.2
			c1.5,0.9,2.2-0.6,3-1.7C89.1,97.1,90.4,96.1,91.6,94.9z M65.2,84.3c1-8.2,1.3-16.3-3.5-23.4c-0.7-1.1-2.9-1.8-4.3-1.7
			c-1.5,0.1-2.4,1.6-2.2,3.4c0,0.6-0.2,1.2-0.4,2.3c-1.1-0.7-1.7-1.3-2.5-1.7c-0.9-0.5-1.8-1.3-2.8-1.4c-0.5,0-1.2,1.3-1.6,2.1
			c-1.2,3,0,5.8,1.7,8c1.5,2,1.5,3.1-0.1,4.8c-1.5,1.5-0.9,3.4,1.3,4.4c0.1-0.9,0.2-1.7,0.4-3.3c1.6,1.6,2.6,2.9,4,3.8
			c1.3,0.8,2.9,1.3,4.5,1.5c0.4,0,1.5-1.9,1.3-2.8c-0.5-2.8-1.8-5.5-2.3-8.2c-0.6-3.4-0.8-6.8-1-10.3c0-0.4,0.8-1.2,1.4-1.3
			c0.4-0.1,1.2,0.6,1.4,1c0.6,1.7,1,3.5,1.6,5.2c0.9,3,2.2,6,2.8,9.1C65.2,78.5,65.1,81.4,65.2,84.3z M54.3,85.7
			c0.2,1.7,0.3,3.2,0.5,4.8c0.3,2.3-0.2,4.8,2.3,6.6c3.4,2.4,6.3,5.5,9.5,8.2c0.5,0.4,1.4,0.2,2.1,0.3c-0.1-0.8,0-2-0.5-2.4
			c-1.9-1.5-4-2.9-6.1-4.2c-3.7-2.2-6.3-4.9-5.6-9.5C56.8,87.6,55.8,86.5,54.3,85.7z"/>
		<path d="M91.6,94.9c-1.2,1.2-2.5,2.2-3.5,3.5c-0.8,1.1-1.5,2.6-3,1.7c-0.4-0.3-0.1-1.9-0.1-3.2c-1.5-0.9-4.9,0-7.4,2.7
			c-2.5-1.7-5.1-3.4-7.6-5.1c-0.5-0.4-1-0.9-1.6-1.2c-2.9-1.6-3.7-4.2-2-7.9c1,4.9,5.1,7.1,8,10.2c2.2,2.4,5.9,2.2,8.4,0
			c1.1-0.9,2.6-1.2,3.8-2c0.6-0.4,1-1.2,1.3-2c-3.5,0.1-6.3,2.5-9.6,2c-0.1-0.2-0.1-0.5-0.2-0.7c1.8-0.7,3.6-1.3,5.4-2.1
			c0.5-0.2,0.9-0.8,1.3-1.2C84.2,89.4,83.6,89,83,89c-1.4,0-2.8,0.3-4.3,0.4c-0.1-0.3-0.2-0.6-0.3-0.8c1-0.6,1.9-1.6,2.9-1.8
			c5.5-0.9,10.9-1.6,16.4-2.2c1.4-0.2,2.9,0.4,4.4,0.5c0.9,0.1,1.9,0,2.9-0.4c-4.2-2.7-9-2.3-13.9-2.4c0.3-0.5,0.3-1,0.5-1
			c3-0.9,6.1-1.8,9.1-2.6c0.6-0.2,1.4-0.3,2-0.1c2.1,0.7,3.1,0.1,4.6-1.7c1.3-1.5,4-1.9,6.1-2.7c1.5-0.6,3-1.1,4.6-1.5
			c2.2-0.5,4.5-1.2,6.8-1.2c5.8-0.2,11.7-0.3,17.4,0.1c2.8,0.2,6.3,0.9,8.2,2.8c3.3,3.2,5.8,7,7.4,11.6c2.1,6.1,0.6,12.2,1.2,18.2
			c1.1,0.5,2.2,1.5,3.3,1.4c1.5,0,3.2-0.5,4.5-1.3c7.5-4,15.5-5.8,24-5.8c2.5,0,5.1-0.7,7.6-0.8c2.4-0.1,4,1.2,5.1,3.4
			c1.5,3.2,3.4,6.3,5,9.5c0.7,1.3,1.4,2.7,1.5,4.2c0.4,4.7,3.6,8.2,4.8,12.5c1.2,3.9,4.4,6,6.8,8.8c0.6,0.7,1.3,1.5,1.7,2.3
			c1.5,2.7,3.2,5.3,4.4,8.1c0.7,1.6,0.4,3.6,0.6,5.4c0.3,2.4-1,3.3-3.1,3.6c-0.2,0-0.4,0.1-0.4,0.2c-0.4,4.2-4.7,3.4-6.9,5.4
			c-2.2,2.1-6,0.5-7.4-2.9c-0.3-0.7-0.5-1.4-0.9-2.6c-0.8,0.9-1.5,1.5-2,2.2c-1.1,1.4-1.9,2.9-4.1,1.6c-1.3-0.8-2.1,0.2-1.7,1.4
			c0.7,2.2,1.4,4.7,2.8,6.4c2.4,3,5.2,5.8,8.9,7.5c2.7,1.2,3.8,3.8,3.5,6.8c-0.1,1.7,1.5,3.2,3.4,3.1c1.7-0.2,2.3-1.5,2.2-3
			c0-1.6-0.6-3.3-0.1-4.7c1.4-3.6,3.2-7.1,5.1-10.4c2.2-3.7,5.6-4.3,9-1.6c2.9,2.3,5.6,4.8,8.4,7.3c0.1,0.1,0.1,0.2,0.1,0.2
			c5.5,2.2,6.5,7.9,9.6,12c0.6,0.9,1.4,1.6,2.1,2.4c2.4,2.8,2.3,6.7-0.3,8c-3,1.5-5.9,1.5-8.7-0.5c-2.2-1.5-4.3-3.1-6.5-4.5
			c-0.7-0.4-1.8-0.7-2.4-0.4c-0.5,0.2-0.9,1.3-0.9,2c-0.1,2.7,0.3,5.4-0.2,8c-0.6,3.7-1.4,7.5-2.9,10.9c-0.8,1.7-3.3,2.8-5.3,3.6
			c-1.4,0.6-3.2,0.4-4.7,0c-4.1-1.1-8.1-2.5-12.1-3.8c-0.2-0.1-0.5-0.2-0.7-0.3c-3.9-3-7.8-6-11.8-9c-0.7-0.5-1.7-0.9-2.4-0.8
			c-3.8,0.7-7.3,0.4-10.8-1.7c-2-1.2-4.7-1.6-7.1,0.1c-1.3,0.9-2.7,0.9-4-0.4c-3-2.9-3.4-2.7-5.6,0.6c-4,6.1-8.1,12.1-12.2,18.2
			c-0.4,0.7-1,1.4-1.1,2.2c-0.8,6.2-4.4,11.3-6.9,16.8c-1,2.2-3.2,3.9-4.9,5.7c-0.3,0.4-1.1,0.4-1.6,0.5c-5.3,0.5-10.1-0.5-14.5-3.7
			c-0.5-0.4-1.4-0.5-2.1-0.5c-6.4-0.1-10.4-3.4-13.1-8.9c-1.9-3.9-1.4-3.7,1.9-6.6c4.3-3.7,9.1-2.5,13.8-2.3
			c4.2,0.2,6.1-0.4,8.4-3.9c0.5-0.8,1.2-1.4,1.8-2.1c4.1-4.5,6.1-10.3,9.4-15.3c1.6-2.4,3.7-4.5,5.5-6.8c0.6-0.8,1-2,1.2-3
			c0-0.3-1.4-0.7-2.1-1c-0.7-0.3-1.4-0.6-2.1-0.9c0.3-0.7,0.6-1.3,0.9-2c1-2,2.3-3.8,3-5.9c0.7-1.9,0-3.8-1.4-5.2
			c-1.8-1.8-3.9-3.4-5.5-5.4c-1.2-1.5-2-3.3-2.5-5.2c-1-4.3-1.9-8.7-2.6-13c-0.7-4.5-3.2-7.7-7.7-8.5c-1.6-0.3-4,0.6-5.2,1.8
			c-1.4,1.4-2.5,2.8-4.4,3.6c-5,2-9.7,4.6-14.8,5.9c-5.3,1.4-10.7,0.2-15.3-3.2c-0.4-0.3-1-0.7-1.5-0.7c-2.5,0.3-3.9-1.3-5.6-2.7
			c-1.6-1.3-1.3-2.2,0-3.4c0.7-0.7,1.5-1.3,2.1-2.1c0.8-1.2,1.2-2.4-0.9-2.9c-1.7-0.4-3.4-1-5.1-1.5c-2.7-0.8-3.3-1.8-2.8-4.5
			c0.1-0.7,0.5-1.4,0.7-2.1c0.7-2.1,0.6-4.2-1.2-5.7c-2.6-2.1-5.3-4.1-8-6.1c-0.4-0.3-1-0.3-1.3-0.6c-1.1-0.9-2.9-1.7-3.1-2.9
			c-0.4-2.1,1.7-4.1,3.9-4.4c1.8-0.2,3.6-0.3,5.3-0.6c4-0.7,6.4-3.8,9.1-6.4c1.5-1.5,2.6-3.3,3.7-5c0.4-0.7,0.3-1.8,0.4-2.7
			C92,95.1,91.8,95,91.6,94.9z M137.6,115.3c-0.8,1-1.7,1.5-2,2.3c-1.6,5-6.5,9-12,9.4c-0.7,0.1-2.1-0.7-2.2-1.1
			c-0.1-1.2,0.8-1.2,2-1.4c3.3-0.3,7-0.4,8.7-4.1c1.2-2.4,2.4-4.9,2.9-7.6c0.3-1.2-0.6-3-1.4-4.2c-0.7-1-2-1.6-3.1-2.5
			c-1,0.8-2.2,1.5-2.8,2.4c-1,1.5-2.1,1.7-3.5,0.9c-1.9-1.1-4.2-0.4-4.9,1c-1.3,2.8-3.7,2.3-5.2,3c-1.3-1.6-2.3-3.2-3.7-4.2
			c-5.4-3.9-7.3-9.2-6.3-15.6c0.1-0.7,1-1.2,1.3-1.9c0.5-0.9,0.9-1.8,1.1-2.7c0-0.2-1.4-0.9-2-0.8c-1.1,0.1-2.2,0.6-3.1,1.2
			c-2.2,1.4-3.9,3.1-4.7,5.8c-0.3,0.9-1.5,1.4-2.3,2.1c-0.8,0.8-1.7,1.7-2.4,2.7c-2.3,3.8-4.7,7.4-9.1,8.9c-1.2,0.4-3,0.2-3.6,0.9
			c-1.5,1.8-3.2,1.7-5.1,1.8c-0.5,0-1,0.8-1.3,1.3c-0.1,0.2,0.3,0.9,0.6,1.2c2.4,1.9,4.7,3.8,7.1,5.6c5.5,4.1,5.5,4.1,4.8,10.9
			c0,0.4-0.2,0.9,0,1.2c0.6,1,1.1,2.4,2,2.8c1.7,0.7,3.7,1,5.5,1.2c3.3,0.2,6.3-0.7,8.6-3.6c0.6,2.6-1.1,5.3-3.8,6.9
			c-2.1,1.2-4.1,2.7-5.8,4.3c-1,1,0.1,3.7,1.4,4c3.5,0.9,7,2,10.5,2.6c3.2,0.5,6.3,2,9.6,0.2c1.6-0.9,3.6-1.1,5.3-1.8
			c4.4-1.8,8.8-3.8,11.4-8.1c0.3-0.5,1.2-0.9,1.8-1c3-0.4,5.8-0.5,8.8,0.7c3,1.3,4.2,0,3.9-3.2c-0.1-1,0.1-2,0.1-3c0-3,0-6,0-9.1
			c-0.3-0.2-0.5-0.3-0.8-0.5c-1.2,1-2.4,1.9-3.5,2.9c-1.3,1.1-2.3,3.2-4.4,1.1c-1,0.9-2,1.7-2.9,2.5c-0.2-0.2-0.5-0.4-0.7-0.5
			c1.4-2.2,2.6-4.6,4.3-6.7C138.8,121.3,139.3,119.1,137.6,115.3z M170.1,146.7c0.1,1.3,0,2.2,0.2,3c0.7,2.2,0.1,3.9-1.5,5.4
			c-0.9,0.8-1.9,1.6-2.8,2.4c-2.2,1.9-4,1.8-5.8-0.3c-0.5-0.6-1.2-1-1.8-1.5c-1,1.7-1.9,3.1-2.7,4.5c-0.4,0.7-0.6,1.6-0.7,2.4
			c-0.2,1.4-0.1,3-0.6,4.3c-0.6,1.5-0.7,2.6,0.3,3.9c0.8,1,1.5,2.1,2.4,3.4c1.1-0.8,2.3-1.3,3-2.2c2.1-2.6,3.9-5.4,6-8
			c0.3-0.4,1.1-0.6,1.7-0.8c0.3,0.3,0.5,0.5,0.8,0.8c-2.2,3-4.1,6.2-6.5,8.9c-2.1,2.4-4.2,4.7-5,8.1c-1.3,5.1-1.3,4.6,3.5,5.2
			c2.1,0.3,4.6-0.1,6.3,1c3.2,1.9,6,4.6,8.9,7c1,0.8,2.1,2,3.4,0.9c1.1-0.9,1.8-2.2,2.8-3.3c2-2.1,3.8-4.7,6.2-6.2
			c3.9-2.4,8.1-4.2,9.9-8.9c0.1-0.4,0.6-0.6,0.8-0.9c2.2-3.3,2.6-6.7,1-10.6c-1.1-2.7-1.6-5.8-2-8.8c-0.4-2.7-0.6-5.6-3.1-7
			c-3.3-1.9-5.6-4.8-7.9-7.7c-1.1-1.3-2.2-2.6-3.4-4.1C179.6,144.7,175.9,149.5,170.1,146.7z M225.6,150.3c-0.2-0.6-0.3-1.4-0.7-1.8
			c-1.9-1.6-1.9-3.7-1.8-5.9c0.1-0.9,0.1-2.2-0.4-2.8c-1.6-1.8-3.5-3.4-5.3-5c-0.8-0.7-2.1-1.2-2.4-2.1c-1.9-5-5-9.6-5.8-15.1
			c-0.2-1.5-0.9-3-1.6-4.3c-1.7-3.3-3.6-6.4-5.3-9.7c-1.3-2.5-3.5-4-5.9-3.7c-5.4,0.6-10.8,1.3-16.2,1.9c-4.4,0.5-6.1,1.9-6.8,5.5
			c-0.4,1.9-1,3.8-1.4,5.7c-0.1,0.3-0.1,0.6,0,0.9c0.5,2.2,0.9,4.3,1.6,6.4c0.3,1,1.2,2.4,1.9,2.4c1.8,0.1,3.6-0.4,5.3-0.9
			c3.2-1,6.3-2.2,9.5-3.3c1.6-0.5,2.4,0.3,3.1,1.7c0.5,0.9,1.4,1.6,2.1,2.4c0.5,0.5,1.3,0.9,1.6,1.5c1.6,2.9,3.2,5.8,4.8,8.7
			c0.4,0.8,0.5,1.8,0.9,2.5c2.2,3.3,2.3,6.7,1.6,10.5c-0.5,2.7-0.7,5.6-0.8,8.4c0,0.5,0.6,1.5,1,1.6c0.6,0.1,1.5-0.4,1.8-0.9
			c0.6-1.3,0.9-2.8,1.5-4.2c0.3-0.8,0.9-1.6,1.4-2.5c1.5,3.5,2.7,6.6,4.2,9.5c0.5,0.9,1.7,1.5,2.5,2.2c0.4-1.2,1.1-2.5,1-3.7
			c-0.2-1.9-1-3.6-1.4-5.5c-0.1-0.5,0.5-1.1,0.8-1.7c0.5,0.3,1.2,0.6,1.4,1c0.5,1.2,0.8,2.5,1.2,3.8c0.6,1.7,1.5,2.7,4.1,1.9
			c-0.8-2.6-1.5-5.1-2.3-7.8C223.2,146.4,223,150.8,225.6,150.3z M227.8,192.5c-0.2,0.3-0.5,0.7-0.7,1c-0.9-0.5-2-0.9-2.6-1.7
			c-0.9-1.1-1.2-2.7-2.1-3.8c-2.2-2.4-5.3-2.5-8.2-2.5c-1.1,0-2.5,0.7-3.3,1.5c-2.7,2.9-5.1,6.1-7.7,9c-1.5,1.7-1.4,2.7,0.5,3.9
			s3.8,2.5,5.5,4c4.9,4.4,10,7.8,16.9,8.1c4.2,0.1,6.5-0.4,7.3-3.1c1.3-4.6,2.7-9.2,2.9-13.9c0.2-4-0.7-8.5-5.8-9.9
			c-0.8-0.2-1.5-1.1-2.3-1.4c-0.9-0.2-2.3-0.4-2.8,0c-0.9,0.8-1.7,2.2-1.7,3.4c0,1.1,0.9,2.3,1.7,3.3
			C226.1,191.3,227,191.8,227.8,192.5z M162.5,129.1c3-1.6,5.2-2.8,7.5-3.9c1.6-0.8,2.3-1.7,1.9-3.9c-0.7-4.1-2-8.2-0.5-12.5
			c0.3-0.8,0.3-1.9,0-2.7c-0.2-0.5-1.3-1.2-1.8-1.1c-4.6,1.6-9.2,3.6-13.9,4.9c-2.8,0.8-3,2.8-2.8,4.7c0.3,3.4,1.1,6.8,1.9,10.1
			c0.6,2.2,1.9,4.2,2.4,6.4c0.5,2.5,2.4,3.7,3.9,5.2c0.8,0.8,1.5,1.6,2.2,2.5c1.6,1.9,2.9,4.7,4.9,5.5c4.4,1.6,8.7-0.4,11.4-4.4
			c1.1-1.6,1.7-3.3,0.7-5.3c-0.9-1.9-1.4-4-2-6c-1-3.3-2.2-3.9-5.4-2.5c-0.6,0.3-1.3,0.4-1.9,0.5c-1.8,0.2-2.6,1.1-2.4,3
			c0.2,1.8-0.5,3.3-2.9,4.1C165.9,131.5,165.9,129.5,162.5,129.1z M204.3,170.3c-1.9,3.2-3.5,5.9-5,8.6c-2,3.5-4.9,6.1-8.7,7.4
			c-3.4,1.2-5.1,3.7-6.4,6.7c-0.2,0.5,0.5,1.6,1,2c2,1.2,4.2,2.2,6.2,3.4c1.7,1,5.3,1,6.6-0.4c3.8-3.7,7.5-7.5,11.2-11.3
			c1.5-1.5,3-3,4.5-4.5c1.6-1.7,1.4-3.4-0.3-4.8C210.5,175,207.4,172.7,204.3,170.3z M155.7,218.9c1-2.2,1.4-4.4,2.7-5.5
			c3.8-3.2,4.5-8.2,7.6-11.7c1.3-1.5,2.6-2.9,3.7-4.5c2.3-3.1,2-4.7-1.4-6.5c-2-1.1-4.1-2.1-6.3-2.6c-1.2-0.3-3.9,0.4-3.9,0.8
			c-0.2,3.5-2.9,5.4-4.6,8c-2.6,4-4.3,8.6-7.9,12.1c-1.5,1.4-0.7,3.1,1.2,3.9c0.8,0.3,1.5,1,2.2,1.5
			C151.1,215.9,153.3,217.3,155.7,218.9z M199.6,152.6c0.2,0,0.5-0.1,0.7-0.1c0.6-2.1,1.2-4.3,1.7-6.4c0.3-1.5,0.5-3.1,0.4-4.7
			c-0.1-2.3-0.9-4.3-2.4-6.3c-1.7-2.3-2.4-5.3-3.6-8.1c-1.5-3.5-6.6-6.2-10.1-5.3c-2.1,0.5-4.1,1.1-6.1,1.7
			c-1.4,0.4-1.9,1.2-0.7,2.5c1.1,1.1,2.6,2.3,2.9,3.6c0.6,3,1.9,5.4,4.4,7.1c0.5,0.3,0.9,0.8,1.1,1.3
			C190.3,144.1,196.9,146.7,199.6,152.6z M148.5,122.8c-0.4,0.5-1.7,1.4-1.7,2.2c0.4,3.4,1,6.8,1.8,10.1c0.5,2,1.3,4.1,2.2,6
			c1.1,2.3,2.5,4.4,3.8,6.5c0.7,1.1,1.7,1.9,2.6,2.9c1.6,1.8,3.2,3.7,4.8,5.5c0.2,0.3,0.9,0.6,1.1,0.4c1.8-1.3,3.8-2.4,5-4.1
			c0.5-0.8-0.4-2.9-1.1-4.2c-0.6-1.2-1.7-2.2-2.5-3.3c-1.6-2.3-2.8-5-4.8-6.8c-3.7-3.3-5-7.7-6.6-12
			C152.6,124.1,151.4,123,148.5,122.8z M241.8,184.7c0.3,1,0.3,2.3,1,2.9c2.4,2,4.9,3.8,7.6,5.4c1.8,1,3.9,0.7,5.3-0.9
			c1.3-1.5,0.4-3.2-0.6-4.7c-2-3.1-3.8-6.3-5.9-9.4c-0.9-1.4-2.2-2.7-3.5-3.8c-3.1-2.6-6.2-5.2-9.6-7.4c-1.2-0.8-3.4-1-4.7-0.5
			c-1,0.4-2.1,2.6-1.8,3.5c0.4,1.2,2,2.4,3.4,2.7C237.8,173.7,242.5,179.7,241.8,184.7z M120.2,224.2c-0.3,0-0.7-0.1-1,0
			c-1,0.2-2.6,0.3-2.8,0.8c-0.3,1,0.3,2.2,0.5,3.3c0.1,0.3,0.3,0.6,0.4,0.9c1.9,4.6,6.1,5.9,10.3,7.1c2.4,0.7,4.7,1.4,7.1,1.8
			c3,0.5,6,1,9,1.1c0.8,0,1.7-1.5,2.2-2.5c0.2-0.4-0.7-1.6-1.3-1.9c-2-1.1-4.2-1.9-6.3-2.8c-2.6-1.2-5.6-1.8-7.6-3.7
			C127.7,225.5,124.3,224.2,120.2,224.2z M229.8,173.2c-1.3,0.2-2.6,0.5-3.9,0.7c-2.2,0.3-1.9,2.2-1.9,3.5c0,0.9,0.8,2,1.6,2.6
			c2.1,1.5,4.3,2.7,6.5,4c1.2,0.8,2.4,1.8,3.7,2.4c1.9,0.9,4-0.5,3.8-2.7c-0.2-1.5-0.8-3-1.4-4.5
			C236.7,175.5,234.4,172.8,229.8,173.2z M138,222c4,1.6,7.7,3.1,11.4,4.4c2.3,0.8,3.9-0.6,4.3-2.5c0.3-1.2-0.5-3.1-1.4-4
			c-2.1-1.9-4.6-3.4-6.9-5.1c-1.6-1.1-2.8-0.7-3.7,0.8C140.5,217.6,139.4,219.6,138,222z M143,110.5c-0.2-3.5-0.1-6.5-0.6-9.3
			c-0.6-3.5-1.6-7.1-2.8-10.5c-0.3-1-1.8-1.5-2.8-2.3c-0.3,1.1-0.9,2.2-1,3.3c0,0.8,0.4,1.8,0.9,2.5c1.3,1.7,2.2,3.4,1.2,5.6
			c-0.2,0.4-0.1,0.8-0.1,1.2c0.5,4.4,1,8.8,1.6,13.3c0.1,0.5,0.8,1.2,1.2,1.2c0.5,0,1.3-0.5,1.4-1C142.6,113,142.8,111.4,143,110.5z
			 M148.1,234c0.7-1.1,1.9-2.1,1.8-3c0-0.9-1.1-2-1.9-2.7c-0.8-0.6-2.2-0.6-2.8-1.3c-3-3.2-7.7-2-11.1-4.4c-1.4-1-4-0.6-6-0.7
			c-0.6,0-1.3,0.4-1.9,0.7c0.4,0.4,0.8,1,1.3,1.2c2.5,1.1,5.2,2,7.6,3.3c3.3,1.7,6.6,3.6,9.8,5.4C145.7,232.9,146.6,233.3,148.1,234
			z M153.6,158.9c4.6-3.2,4.2-7.7-0.1-10.2c-1-0.6-2.1-1.5-2.6-2.5c-1.2-2.2-2.2-4.6-3.2-6.9c-0.2,0.1-0.4,0.2-0.6,0.2
			c0,1.6-0.4,3.4,0.1,4.9c1,3.2,2.4,6.4,3.8,9.5C151.6,155.5,152.6,157.1,153.6,158.9z M124,106.9c0-0.7,0-1.4,0-2
			c-0.3-4.2-0.6-8.3-0.9-12.5c0-0.4,0-1-0.2-1.2c-0.6-0.6-1.2-1.4-1.9-1.5c-0.4-0.1-1.4,0.9-1.4,1.5c-0.1,2.3-0.2,4.7,0.1,7.1
			c0.3,2.4,1.4,4.7,1.8,7.2C121.6,107,122.2,107.3,124,106.9z M112.6,95.2c0.7,0.3,1.6,0.7,2.5,1.2c0.2-1,0.6-2,0.6-2.9
			c-0.1-1.6-0.4-3.1-0.7-4.7c-0.2-1.2-0.8-1.5-2.1-1.3c-2.5,0.5-4,2.3-4.7,4.2c-0.4,1.1,0.6,2.9,1.4,4.1
			C109.7,96.1,111.4,95.5,112.6,95.2z M144.5,151.3c0.1,0.1,0.3,0.2,0.4,0.3c0,0.5-0.2,1.1,0,1.5c1.8,2.4,1.5,5.9,4.4,7.7
			c0.6,0.4,0.9,1.4,1.4,1.9s1.3,0.9,1.9,1.3c0.1-0.7,0.4-1.6,0.2-2.2c-1.5-3.6-3-7.2-4.7-10.7c-0.4-0.8-1.3-1.3-1.9-2
			C145.6,149.9,145,150.6,144.5,151.3z M144.3,87.3c-0.1,0.2-0.2,0.5-0.2,0.7c0.8,5.2,1.5,10.5,2.3,15.7c0.1,0.4,1.2,0.9,1.4,0.8
			c0.5-0.3,1-1.1,1-1.6c-0.2-2.7-0.3-5.5-0.8-8.1c-0.3-1.7-1.1-3.4-1.8-5C145.8,88.9,145,88.2,144.3,87.3z M127.2,104.1
			c0.3-0.1,0.6-0.2,0.9-0.4c0-3.1,0.1-6.2-0.1-9.3c0-0.6-1.2-1.1-1.9-1.6c-0.4,0.7-1.1,1.3-1.1,1.9c0,2.1,0.2,4.3,0.6,6.4
			C125.8,102.2,126.6,103.1,127.2,104.1z M129,102.2c1.7,1.4,2.8,2.4,4.1,3.2c0.4,0.3,1.2,0,1.8-0.1c-0.3-1-0.5-1.9-0.8-2.9
			c-0.1-0.4-0.1-0.9-0.3-1.2c-0.5-0.7-1.4-1.8-1.6-1.7C131.3,100.1,130.5,100.9,129,102.2z M142.5,84.5c-1.7-1.1-3-2.1-4.4-2.9
			c-0.6-0.3-1.5-0.1-2.3-0.2c0.1,1.2-0.1,2.4,0.3,3.5c0.2,0.5,1.3,1.1,1.9,1C139.3,85.8,140.6,85.1,142.5,84.5z M126.2,85.6
			c-0.3,0.8-0.9,1.6-0.7,2c0.6,1.1,1.5,2.1,2.4,3c0.3,0.2,1.1-0.2,1.7-0.4c-0.4-1.1-0.6-2.3-1.2-3.2C128,86.3,127.1,86.1,126.2,85.6
			z M117,83.6c-0.1,0.5-0.3,0.9-0.4,1.4c1.7,0.7,3.3,1.4,5,1.9c0.3,0.1,1.3-0.4,1.3-0.7c0-0.5-0.3-1.5-0.6-1.6
			C120.6,84.1,118.8,83.9,117,83.6z M108.5,87.7c0.9-0.9,1.5-1.5,2-2c-1-0.6-2-1.3-3.1-1.7c-0.3-0.1-1,0.5-1.5,0.8
			C106.7,85.7,107.5,86.5,108.5,87.7z M136.3,72.6c-0.1,0.3-0.3,0.5-0.4,0.8c0.7,0.8,1.4,1.8,2.2,2.5c0.4,0.3,1.5,0.2,1.8-0.1
			s0.3-1.6,0.1-1.8C138.8,73.4,137.5,73.1,136.3,72.6z M132.1,91.5c-0.3,0.1-0.6,0.1-0.8,0.2c0,1.2-0.2,2.4,0.1,3.5
			c0.1,0.5,1.1,0.9,1.7,1.3c0.3-0.7,1.1-1.5,0.9-1.9C133.6,93.4,132.8,92.5,132.1,91.5z M137.2,126.8c2.1,0.7,2.5-1.1,3.3-2.2
			C138.5,123.4,137.2,124.2,137.2,126.8z"/>
		<path d="M65.2,84.3c-0.1-2.8,0-5.7-0.5-8.5c-0.6-3.1-1.8-6.1-2.8-9.1c-0.5-1.7-0.9-3.5-1.6-5.2c-0.2-0.5-1-1.1-1.4-1
			c-0.6,0.1-1.4,0.9-1.4,1.3c0.2,3.4,0.4,6.9,1,10.3c0.5,2.8,1.7,5.5,2.3,8.2c0.2,0.9-1,2.9-1.3,2.8c-1.5-0.2-3.2-0.7-4.5-1.5
			c-1.4-0.9-2.4-2.2-4-3.8c-0.2,1.6-0.3,2.4-0.4,3.3c-2.1-1-2.7-2.9-1.3-4.4c1.6-1.7,1.6-2.9,0.1-4.8c-1.7-2.2-2.9-5-1.7-8
			c0.3-0.8,1.1-2.1,1.6-2.1c0.9,0,1.9,0.8,2.8,1.4c0.7,0.4,1.4,1,2.5,1.7c0.2-1.1,0.5-1.7,0.4-2.3c-0.1-1.8,0.7-3.3,2.2-3.4
			c1.4-0.1,3.6,0.6,4.3,1.7C66.6,68,66.2,76.1,65.2,84.3z M49.2,65.4c0.2,3,2.5,4.1,4.3,5.4c0.4,0.3,1.1,0.4,1.5,0.2
			c0.3-0.2,0.5-1.1,0.3-1.4c-1.1-1.7-2.2-3.3-3.4-4.8c-0.4-0.5-1.3-0.8-1.9-0.7C49.6,64,49.3,65.1,49.2,65.4z M59,78.1
			c-1.3-1.1-2.1-2-3.1-2.4c-0.4-0.1-1.3,1-1.9,1.6c0.9,0.8,1.8,1.7,2.8,2.4C57,80,57.8,79.1,59,78.1z"/>
		<path d="M54.3,85.7c1.5,0.8,2.5,1.9,2.2,3.9c-0.7,4.7,1.9,7.4,5.6,9.5c2.1,1.3,4.2,2.7,6.1,4.2c0.5,0.4,0.3,1.6,0.5,2.4
			c-0.7-0.1-1.7,0.1-2.1-0.3c-3.2-2.7-6.1-5.8-9.5-8.2c-2.5-1.8-2-4.3-2.3-6.6C54.6,88.9,54.5,87.3,54.3,85.7z"/>
		<path class="st0" d="M137.6,115.3c1.7,3.8,1.2,6-0.8,8.4c-1.7,2-2.9,4.4-4.3,6.7c0.2,0.2,0.5,0.4,0.7,0.5c1-0.8,1.9-1.6,2.9-2.5
			c2.1,2.1,3.1,0.1,4.4-1.1c1.1-1,2.4-1.9,3.5-2.9c0.3,0.2,0.5,0.3,0.8,0.5c0,3,0,6,0,9.1c0,1-0.2,2-0.1,3c0.4,3.2-0.8,4.5-3.9,3.2
			c-3-1.2-5.8-1.1-8.8-0.7c-0.6,0.1-1.5,0.5-1.8,1c-2.7,4.4-7,6.3-11.4,8.1c-1.7,0.7-3.7,0.9-5.3,1.8c-3.3,1.7-6.5,0.3-9.6-0.2
			c-3.6-0.6-7-1.7-10.5-2.6c-1.3-0.3-2.5-3-1.4-4c1.7-1.7,3.7-3.1,5.8-4.3c2.7-1.6,4.4-4.2,3.8-6.9c-2.3,2.8-5.3,3.8-8.6,3.6
			c-1.9-0.1-3.8-0.4-5.5-1.2c-0.9-0.4-1.4-1.8-2-2.8c-0.2-0.3,0-0.8,0-1.2c0.7-6.8,0.7-6.8-4.8-10.9c-2.4-1.8-4.8-3.7-7.1-5.6
			c-0.3-0.3-0.7-0.9-0.6-1.2c0.3-0.5,0.8-1.3,1.3-1.3c1.9-0.1,3.6,0,5.1-1.8c0.6-0.8,2.4-0.5,3.6-0.9c4.5-1.5,6.9-5.1,9.1-8.9
			c0.6-1,1.5-1.8,2.4-2.7c0.7-0.8,2-1.3,2.3-2.1c0.8-2.7,2.5-4.4,4.7-5.8c0.9-0.6,2-1,3.1-1.2c0.7-0.1,2.1,0.7,2,0.8
			c-0.2,0.9-0.6,1.9-1.1,2.7c-0.4,0.7-1.2,1.2-1.3,1.9c-0.9,6.4,0.9,11.6,6.3,15.6c1.4,1,2.3,2.6,3.7,4.2c1.6-0.7,4-0.2,5.2-3
			c0.7-1.4,3-2.1,4.9-1c1.5,0.8,2.5,0.7,3.5-0.9c0.6-1,1.8-1.6,2.8-2.4c1.1,0.8,2.4,1.4,3.1,2.5c0.8,1.2,1.7,2.9,1.4,4.2
			c-0.6,2.6-1.8,5.1-2.9,7.6c-1.7,3.7-5.4,3.8-8.7,4.1c-1.2,0.1-2.2,0.1-2,1.4c0.1,0.5,1.5,1.2,2.2,1.1c5.5-0.4,10.4-4.4,12-9.4
			C135.8,116.9,136.7,116.3,137.6,115.3z M91.6,111.7c1.5-1.2,2.7-2.2,3.9-3.4c0.3-0.3,0.3-1.1,0.2-1.5c-0.1-0.3-0.8-0.5-1.3-0.5
			C93.1,106.5,91.3,109.8,91.6,111.7z M110.9,115.3c-2.5-2.4-4.7-4.4-6.6-6.3C105.4,113,107.5,115.3,110.9,115.3z M100,98.6
			c-0.7,3.6,1.4,6.2,2.8,9.1c0.3-0.1,0.6-0.2,0.9-0.3C102.4,104.5,101.2,101.5,100,98.6z"/>
		<path class="st0" d="M170.1,146.7c5.7,2.8,9.5-2,13.3-9.2c1.2,1.4,2.3,2.7,3.4,4.1c2.3,2.9,4.6,5.8,7.9,7.7c2.5,1.4,2.8,4.3,3.1,7
			c0.4,3,0.8,6,2,8.8c1.6,3.9,1.2,7.2-1,10.6c-0.2,0.3-0.7,0.6-0.8,0.9c-1.8,4.7-6,6.6-9.9,8.9c-2.4,1.5-4.2,4-6.2,6.2
			c-1,1-1.7,2.4-2.8,3.3c-1.3,1-2.4-0.1-3.4-0.9c-2.9-2.4-5.7-5.1-8.9-7c-1.7-1-4.2-0.7-6.3-1c-4.8-0.6-4.7-0.2-3.5-5.2
			c0.8-3.3,2.9-5.6,5-8.1c2.4-2.8,4.4-5.9,6.5-8.9c-0.3-0.3-0.5-0.5-0.8-0.8c-0.6,0.3-1.3,0.4-1.7,0.8c-2,2.6-3.9,5.4-6,8
			c-0.7,0.9-1.9,1.4-3,2.2c-0.9-1.3-1.6-2.4-2.4-3.4c-1-1.3-0.9-2.4-0.3-3.9c0.5-1.3,0.4-2.9,0.6-4.3c0.1-0.8,0.3-1.7,0.7-2.4
			c0.8-1.4,1.7-2.8,2.7-4.5c0.6,0.5,1.3,0.9,1.8,1.5c1.8,2.1,3.6,2.2,5.8,0.3c0.9-0.8,1.9-1.6,2.8-2.4c1.6-1.5,2.2-3.2,1.5-5.4
			C170.1,148.9,170.2,148,170.1,146.7z"/>
		<path class="st0" d="M225.6,150.3c-2.5,0.6-2.4-3.9-4.8-2.5c0.8,2.7,1.5,5.2,2.3,7.8c-2.5,0.7-3.5-0.2-4.1-1.9
			c-0.4-1.3-0.7-2.6-1.2-3.8c-0.2-0.5-0.9-0.7-1.4-1c-0.3,0.6-0.9,1.2-0.8,1.7c0.4,1.9,1.2,3.6,1.4,5.5c0.1,1.2-0.6,2.5-1,3.7
			c-0.9-0.7-2.1-1.3-2.5-2.2c-1.5-2.9-2.6-5.9-4.2-9.5c-0.5,0.9-1.1,1.7-1.4,2.5c-0.5,1.4-0.8,2.9-1.5,4.2c-0.2,0.5-1.2,1-1.8,0.9
			c-0.4-0.1-1.1-1.1-1-1.6c0.2-2.8,0.3-5.6,0.8-8.4c0.7-3.7,0.6-7.2-1.6-10.5c-0.5-0.7-0.5-1.7-0.9-2.5c-1.5-2.9-3.1-5.9-4.8-8.7
			c-0.3-0.6-1.1-0.9-1.6-1.5c-0.8-0.8-1.7-1.5-2.1-2.4c-0.7-1.4-1.5-2.2-3.1-1.7c-3.2,1.1-6.3,2.3-9.5,3.3c-1.7,0.5-3.6,1-5.3,0.9
			c-0.7,0-1.6-1.5-1.9-2.4c-0.7-2.1-1.1-4.3-1.6-6.4c-0.1-0.3,0-0.6,0-0.9c0.5-1.9,1.1-3.8,1.4-5.7c0.7-3.5,2.4-5,6.8-5.5
			c5.4-0.6,10.8-1.3,16.2-1.9c2.4-0.3,4.7,1.2,5.9,3.7c1.7,3.3,3.6,6.5,5.3,9.7c0.7,1.4,1.4,2.8,1.6,4.3c0.8,5.5,3.9,10.1,5.8,15.1
			c0.3,0.9,1.6,1.4,2.4,2.1c1.8,1.6,3.7,3.2,5.3,5c0.5,0.6,0.5,1.9,0.4,2.8c-0.2,2.2-0.2,4.3,1.8,5.9
			C225.3,148.9,225.3,149.7,225.6,150.3z"/>
		<path class="st0" d="M227.8,192.5c-0.8-0.7-1.7-1.2-2.3-2c-0.7-1-1.7-2.2-1.7-3.3s0.8-2.5,1.7-3.4c0.5-0.5,1.9-0.3,2.8,0
			c0.8,0.2,1.5,1.1,2.3,1.4c5.2,1.4,6,5.9,5.8,9.9c-0.2,4.7-1.6,9.4-2.9,13.9c-0.8,2.8-3.1,3.2-7.3,3.1c-6.9-0.2-12.1-3.7-16.9-8.1
			c-1.7-1.5-3.6-2.8-5.5-4s-2-2.2-0.5-3.9c2.7-2.9,5-6.1,7.7-9c0.8-0.8,2.2-1.6,3.3-1.5c2.9,0,6,0.2,8.2,2.5c0.9,1,1.2,2.7,2.1,3.8
			c0.6,0.8,1.7,1.1,2.6,1.7C227.4,193.1,227.6,192.8,227.8,192.5z"/>
		<path class="st0" d="M162.5,129.1c3.5,0.4,3.5,2.4,3.4,4.6c2.4-0.7,3-2.2,2.9-4.1c-0.2-1.9,0.6-2.8,2.4-3c0.6-0.1,1.3-0.2,1.9-0.5
			c3.2-1.4,4.4-0.9,5.4,2.5c0.6,2,1.1,4.1,2,6c1,2.1,0.4,3.7-0.7,5.3c-2.7,4-7,6-11.4,4.4c-2-0.8-3.3-3.6-4.9-5.5
			c-0.7-0.8-1.4-1.7-2.2-2.5c-1.6-1.6-3.4-2.8-3.9-5.2c-0.5-2.2-1.8-4.2-2.4-6.4c-0.9-3.3-1.6-6.7-1.9-10.1c-0.2-1.9,0-3.9,2.8-4.7
			c4.7-1.3,9.2-3.3,13.9-4.9c0.4-0.2,1.6,0.6,1.8,1.1c0.3,0.8,0.3,1.9,0,2.7c-1.5,4.2-0.2,8.4,0.5,12.5c0.4,2.1-0.3,3.1-1.9,3.9
			C167.7,126.3,165.5,127.5,162.5,129.1z"/>
		<path class="st0" d="M204.3,170.3c3.1,2.4,6.2,4.7,9.2,7.1c1.7,1.4,1.9,3.1,0.3,4.8c-1.5,1.5-3,3-4.5,4.5
			c-3.7,3.8-7.5,7.5-11.2,11.3c-1.4,1.3-5,1.4-6.6,0.4c-2-1.2-4.2-2.2-6.2-3.4c-0.6-0.4-1.2-1.5-1-2c1.3-3,3-5.6,6.4-6.7
			c3.8-1.3,6.7-3.9,8.7-7.4C200.8,176.1,202.4,173.5,204.3,170.3z"/>
		<path class="st0" d="M155.7,218.9c-2.4-1.6-4.5-3.1-6.7-4.5c-0.7-0.5-1.4-1.1-2.2-1.5c-1.9-0.8-2.7-2.5-1.2-3.9
			c3.6-3.5,5.2-8.1,7.9-12.1c1.7-2.6,4.4-4.4,4.6-8c0-0.4,2.7-1.1,3.9-0.8c2.2,0.5,4.3,1.5,6.3,2.6c3.3,1.8,3.6,3.4,1.4,6.5
			c-1.1,1.6-2.4,3.1-3.7,4.5c-3.1,3.5-3.7,8.6-7.6,11.7C157,214.5,156.7,216.8,155.7,218.9z"/>
		<path class="st0" d="M199.6,152.6c-2.7-5.9-9.3-8.5-11.7-14.6c-0.2-0.5-0.7-1-1.1-1.3c-2.5-1.8-3.8-4.1-4.4-7.1
			c-0.3-1.3-1.8-2.5-2.9-3.6c-1.2-1.3-0.7-2.1,0.7-2.5c2-0.6,4.1-1.2,6.1-1.7c3.5-0.9,8.6,1.7,10.1,5.3c1.2,2.7,1.8,5.8,3.6,8.1
			c1.5,2,2.2,4,2.4,6.3c0.1,1.5-0.1,3.1-0.4,4.7c-0.4,2.2-1.1,4.3-1.7,6.4C200.1,152.5,199.8,152.6,199.6,152.6z"/>
		<path class="st0" d="M148.5,122.8c2.9,0.2,4,1.3,4.7,3.3c1.6,4.3,2.9,8.7,6.6,12c2,1.8,3.2,4.5,4.8,6.8c0.8,1.1,1.9,2.1,2.5,3.3
			c0.6,1.3,1.6,3.4,1.1,4.2c-1.2,1.7-3.2,2.8-5,4.1c-0.2,0.1-0.8-0.2-1.1-0.4c-1.6-1.8-3.2-3.7-4.8-5.5c-0.9-1-1.9-1.8-2.6-2.9
			c-1.4-2.1-2.7-4.3-3.8-6.5c-0.9-1.9-1.7-3.9-2.2-6c-0.8-3.3-1.4-6.7-1.8-10.1C146.8,124.2,148.1,123.3,148.5,122.8z M165.5,149.5
			c-0.6-1.4-1.6-2.6-3.5-2.1c-0.7,0.2-1.5,1.1-1.5,1.8c0,0.8,0.6,2.2,1.2,2.4C163.3,152,165,151.8,165.5,149.5z"/>
		<path class="st0" d="M241.8,184.7c0.7-5-4.1-11-8.9-12.2c-1.3-0.3-3-1.6-3.4-2.7c-0.3-1,0.9-3.2,1.8-3.5c1.4-0.5,3.5-0.3,4.7,0.5
			c3.4,2.2,6.5,4.8,9.6,7.4c1.3,1.1,2.5,2.4,3.5,3.8c2.1,3.1,3.9,6.3,5.9,9.4c1,1.6,1.9,3.2,0.6,4.7c-1.3,1.5-3.5,1.9-5.3,0.9
			c-2.7-1.6-5.2-3.4-7.6-5.4C242.2,187,242.1,185.6,241.8,184.7z"/>
		<path class="st0" d="M120.2,224.2c4.1,0,7.5,1.2,10.6,4.2c2,1.8,5,2.5,7.6,3.7c2.1,0.9,4.2,1.7,6.3,2.8c0.6,0.3,1.5,1.5,1.3,1.9
			c-0.5,1-1.5,2.6-2.2,2.5c-3-0.1-6-0.6-9-1.1c-2.4-0.4-4.8-1.1-7.1-1.8c-4.2-1.3-8.4-2.5-10.3-7.1c-0.1-0.3-0.3-0.6-0.4-0.9
			c-0.2-1.1-0.8-2.3-0.5-3.3c0.1-0.5,1.8-0.6,2.8-0.8C119.5,224.2,119.9,224.2,120.2,224.2z"/>
		<path class="st0" d="M229.8,173.2c4.6-0.4,6.9,2.3,8.4,6.1c0.6,1.4,1.2,2.9,1.4,4.5c0.2,2.1-1.9,3.6-3.8,2.7
			c-1.3-0.6-2.4-1.6-3.7-2.4c-2.1-1.3-4.4-2.5-6.5-4c-0.8-0.6-1.6-1.7-1.6-2.6c0-1.3-0.3-3.2,1.9-3.5
			C227.3,173.7,228.5,173.4,229.8,173.2z"/>
		<path class="st0" d="M138,222c1.4-2.4,2.5-4.4,3.7-6.4c0.9-1.5,2.2-1.9,3.7-0.8c2.3,1.7,4.8,3.2,6.9,5.1c0.9,0.9,1.7,2.8,1.4,4
			c-0.4,1.9-2,3.4-4.3,2.5C145.7,225.1,142.1,223.6,138,222z"/>
		<path class="st0" d="M143,110.5c-0.2,0.9-0.4,2.5-0.8,4c-0.1,0.5-1,1-1.4,1s-1.1-0.7-1.2-1.2c-0.6-4.4-1.1-8.8-1.6-13.3
			c0-0.4-0.1-0.9,0.1-1.2c1-2.2,0.1-3.9-1.2-5.6c-0.5-0.7-1-1.7-0.9-2.5c0.1-1.1,0.6-2.2,1-3.3c1,0.8,2.5,1.3,2.8,2.3
			c1.2,3.4,2.2,6.9,2.8,10.5C142.9,104,142.8,107,143,110.5z"/>
		<path class="st0" d="M148.1,234c-1.5-0.7-2.4-1.1-3.2-1.5c-3.3-1.8-6.5-3.7-9.8-5.4c-2.5-1.2-5.1-2.2-7.6-3.3
			c-0.5-0.2-0.9-0.8-1.3-1.2c0.6-0.2,1.3-0.7,1.9-0.7c2,0.1,4.6-0.4,6,0.7c3.4,2.4,8.1,1.2,11.1,4.4c0.7,0.7,2,0.6,2.8,1.3
			c0.9,0.7,1.9,1.8,1.9,2.7C150,231.9,148.8,232.9,148.1,234z"/>
		<path class="st0" d="M153.6,158.9c-1-1.8-2-3.4-2.7-5c-1.4-3.1-2.7-6.3-3.8-9.5c-0.5-1.5-0.1-3.2-0.1-4.9c0.2-0.1,0.4-0.2,0.6-0.2
			c1.1,2.3,2,4.7,3.2,6.9c0.6,1,1.6,1.9,2.6,2.5C157.8,151.2,158.2,155.7,153.6,158.9z"/>
		<path class="st0" d="M124,106.9c-1.8,0.5-2.4,0.1-2.6-1.5c-0.4-2.4-1.4-4.7-1.8-7.2c-0.3-2.3-0.2-4.7-0.1-7.1
			c0-0.6,1.1-1.6,1.4-1.5c0.7,0.2,1.4,0.9,1.9,1.5c0.2,0.3,0.1,0.8,0.2,1.2c0.3,4.2,0.6,8.3,0.9,12.5
			C124.1,105.5,124,106.2,124,106.9z"/>
		<path class="st0" d="M112.6,95.2c-1.2,0.3-2.9,0.9-3.1,0.7c-0.7-1.3-1.8-3.1-1.4-4.1c0.7-2,2.2-3.7,4.7-4.2
			c1.3-0.3,1.9,0.1,2.1,1.3c0.3,1.5,0.6,3.1,0.7,4.7c0,1-0.4,2-0.6,2.9C114.2,95.9,113.3,95.5,112.6,95.2z"/>
		<path class="st0" d="M144.5,151.3c0.6-0.7,1.1-1.4,1.7-2.1c0.7,0.6,1.6,1.2,1.9,2c1.7,3.5,3.2,7.1,4.7,10.7
			c0.2,0.6-0.1,1.4-0.2,2.2c-0.6-0.4-1.4-0.8-1.9-1.3c-0.6-0.6-0.8-1.5-1.4-1.9c-2.9-1.8-2.6-5.3-4.4-7.7c-0.2-0.3,0-1,0-1.5
			C144.8,151.5,144.6,151.4,144.5,151.3z"/>
		<path class="st0" d="M144.3,87.3c0.7,0.9,1.5,1.6,1.9,2.5c0.7,1.6,1.5,3.2,1.8,5c0.5,2.7,0.7,5.4,0.8,8.1c0,0.5-0.5,1.2-1,1.6
			c-0.2,0.1-1.3-0.5-1.4-0.8c-0.8-5.2-1.6-10.4-2.3-15.7C144.1,87.7,144.3,87.5,144.3,87.3z"/>
		<path class="st0" d="M127.2,104.1c-0.5-1-1.4-1.9-1.6-2.9c-0.4-2.1-0.6-4.3-0.6-6.4c0-0.6,0.7-1.3,1.1-1.9c0.7,0.5,1.9,1,1.9,1.6
			c0.2,3.1,0.1,6.2,0.1,9.3C127.8,103.9,127.5,104,127.2,104.1z"/>
		<path class="st0" d="M129,102.2c1.5-1.3,2.2-2.1,3.2-2.7c0.2-0.1,1.1,1.1,1.6,1.7c0.2,0.3,0.2,0.8,0.3,1.2c0.3,1,0.5,1.9,0.8,2.9
			c-0.6,0-1.4,0.3-1.8,0.1C131.9,104.6,130.7,103.5,129,102.2z"/>
		<path class="st0" d="M142.5,84.5c-1.9,0.6-3.1,1.3-4.5,1.5c-0.6,0.1-1.8-0.5-1.9-1c-0.3-1.1-0.2-2.3-0.3-3.5
			c0.8,0,1.7-0.2,2.3,0.2C139.5,82.4,140.8,83.4,142.5,84.5z"/>
		<path class="st0" d="M126.2,85.6c0.9,0.5,1.8,0.7,2.2,1.3c0.6,1,0.8,2.1,1.2,3.2c-0.6,0.1-1.5,0.6-1.7,0.4c-0.9-0.9-1.8-1.9-2.4-3
			C125.3,87.2,125.9,86.4,126.2,85.6z"/>
		<path class="st0" d="M117,83.6c1.8,0.3,3.6,0.5,5.3,0.9c0.4,0.1,0.7,1.1,0.6,1.6c0,0.3-0.9,0.8-1.3,0.7c-1.7-0.5-3.3-1.3-5-1.9
			C116.8,84.5,116.9,84.1,117,83.6z"/>
		<path class="st0" d="M108.5,87.7c-1.1-1.2-1.8-2.1-2.5-2.9c0.5-0.3,1.1-0.9,1.5-0.8c1.1,0.4,2.1,1.1,3.1,1.7
			C110,86.3,109.5,86.8,108.5,87.7z"/>
		<path class="st0" d="M136.3,72.6c1.2,0.4,2.5,0.8,3.7,1.4c0.3,0.1,0.3,1.5-0.1,1.8c-0.4,0.3-1.4,0.4-1.8,0.1
			c-0.9-0.7-1.5-1.6-2.2-2.5C136,73.2,136.2,72.9,136.3,72.6z"/>
		<path class="st0" d="M132.1,91.5c0.7,1,1.5,1.9,1.9,3c0.2,0.5-0.6,1.3-0.9,1.9c-0.6-0.4-1.6-0.7-1.7-1.3c-0.3-1.1-0.1-2.3-0.1-3.5
			C131.5,91.6,131.8,91.6,132.1,91.5z"/>
		<path class="st0" d="M137.2,126.8c0.1-2.6,1.3-3.4,3.3-2.2C139.7,125.7,139.3,127.6,137.2,126.8z"/>
		<path class="st0" d="M49.2,65.4c0.1-0.3,0.4-1.3,0.7-1.4c0.6,0,1.5,0.3,1.9,0.7c1.3,1.5,2.4,3.2,3.4,4.8c0.2,0.3,0,1.2-0.3,1.4
			s-1.1,0.1-1.5-0.2C51.6,69.4,49.4,68.4,49.2,65.4z"/>
		<path class="st0" d="M59,78.1c-1.1,0.9-2,1.8-2.1,1.7c-1-0.7-1.9-1.6-2.8-2.4c0.7-0.6,1.5-1.8,1.9-1.6
			C56.9,76.1,57.7,77.1,59,78.1z"/>
		<path d="M91.6,111.7c-0.3-1.9,1.6-5.3,2.8-5.4c0.4-0.1,1.1,0.2,1.3,0.5c0.2,0.4,0.1,1.2-0.2,1.5C94.3,109.5,93,110.5,91.6,111.7z"
			/>
		<path d="M110.9,115.3c-3.4-0.1-5.5-2.4-6.6-6.3C106.2,110.9,108.4,112.9,110.9,115.3z"/>
		<path d="M100,98.6c1.2,2.9,2.4,5.9,3.7,8.8c-0.3,0.1-0.6,0.2-0.9,0.3C101.4,104.8,99.3,102.2,100,98.6z"/>
		<path d="M165.5,149.5c-0.5,2.3-2.2,2.5-3.8,2c-0.6-0.2-1.2-1.5-1.2-2.4c0-0.6,0.9-1.6,1.5-1.8C163.9,146.8,164.9,148,165.5,149.5z
			"/>
	</g>
</g>
</svg>
