<?xml version="1.0" encoding="utf-8"?>
<!-- Generator: Adobe Illustrator 22.1.0, SVG Export Plug-In . SVG Version: 6.00 Build 0)  -->
<svg version="1.1" id="Layer_1" xmlns="http://www.w3.org/2000/svg" xmlns:xlink="http://www.w3.org/1999/xlink" x="0px" y="0px"
	 viewBox="0 0 62.8 65.4" style="enable-background:new 0 0 62.8 65.4;" xml:space="preserve">
<style type="text/css">
	.st0{fill:#347B3C;}
	.st1{fill:none;stroke:#000000;stroke-width:3;stroke-linecap:round;stroke-miterlimit:10;}
	.st2{fill:#347B3C;stroke:#000000;stroke-width:3;stroke-linecap:round;stroke-miterlimit:10;}
</style>
<g id="Layer_2_1_">
	<polygon class="st0" points="20.7,50 21.3,51.6 29.8,50.8 28.8,49.1 	"/>
</g>
<g id="Layer_1_1_">
	<path class="st1" d="M12.1,6.5c0,0-5.7,9.9-1.2,19.3"/>
	<path class="st2" d="M16,52.1c7.8,2.5,21.7-3.1,21.7-3.1s8.4-3.3,15.5-5.7c2.9-1-5.5,10.4-12.8,13.8s-17.8,0-17.8,0
		c-2-0.9-3.7-2.1-5.1-3.4c-9.8-9.5-6.6-27.9-6.6-27.9s6.3,6.9,8,11.8c1.8,4.9,6.8,11.8,14.8,11.5l2.8-0.2"/>
</g>
</svg>
