<?xml version="1.0" encoding="utf-8"?>
<!-- Generator: Adobe Illustrator 22.1.0, SVG Export Plug-In . SVG Version: 6.00 Build 0)  -->
<svg version="1.1" id="Layer_1" xmlns="http://www.w3.org/2000/svg" xmlns:xlink="http://www.w3.org/1999/xlink" x="0px" y="0px"
	 viewBox="0 0 129 315.8" style="enable-background:new 0 0 129 315.8;" xml:space="preserve">
<style type="text/css">
	.st0{fill:#4AA852;}
	.st1{fill:#EF414D;}
	.st2{fill:#4CA552;}
	.st3{fill:none;stroke:#000000;stroke-width:3;stroke-miterlimit:10;}
	.st4{fill:none;stroke:#000000;stroke-width:2;stroke-miterlimit:10;}
</style>
<path class="st0" d="M86.8,21c0,0,4.3-16.1-3.3-19.6S81.2,21,81.2,21l-1.7,3.3l-6.7-5.5l-1.1,17.5v4.2l0.7,5.7c0,0-4.9-8.5-12.6-3.2
	C52.1,48.3,73,55.4,73,55.4s-16.7,2-17.3,7.6s1.8,5.7,1.8,5.7l-7.1,11.9l-0.6,5.6l-6.5,8.4l1.2,2.9c0,0-12.9,9.9-6.8,14.9
	c6.1,5.1,0,0,0,0s-10.8,9.2-5,10.3c5.9,1.1-2.2,3.7-2.2,3.7s-12.6,10.3-4.2,10.9c8.3,0.6-2.9,7.4-2.9,7.4s-8.7,11.5,0,9.9
	s11.4-9.3,11.4-9.3l2.6,2.6c0,0,1.8,2.5,3.8-6.1s3.3-5.5,3.3-5.5s4.9-6.2,4.7-9.3c-0.1-3.1,1.6-1.9,1.6-1.9s4.5-1.8,5-9.3
	c0.6-7.4,0,0,0,0l4.8,1.9l2.9-13c0,0,2.4,2.2,4.4-5.4s0.4-9.7,0.4-9.7s1.9,3.7,4.4-2s5-15.1,5-15.1l-1.3-11.8l-2.9-9.1
	c0,0,2.7,4.9,8.4,4.2c5.7-0.7,12.3-5.9,12.3-5.9l0.7-4.9l3.7-5.9c0,0-5.7-4.3-9.5-2.2c-3.7,2-4.4,0.8-4.4,0.8s3.8-6.5,5.4-6.8
	c1.5-0.3,10.6-2.6,12.5-5.5s6.2-9.8,0.3-9.6C97.1,16,86.8,21,86.8,21"/>
<path class="st1" d="M59.2,157.4c0,0,14.2,9.6,13.5,22.9c-0.7,13.3-8.9,25.9-8.9,25.9l-8.1,8.9l-6-1.4c0,0,10.7,21.1,4.2,24.4
	c-6.5,3.2-17.4-2.6-17.4-2.6l-6-4.4c0,0,1.4,18.6,8.5,18.6s0-1.2,0-1.2l-2.3,2.4l0.3,5.8c0,0,16.8,7.6,21.6,5.2s26-13.5,26-13.5
	s-10.9-10.5-5.1-31.6s8.5-24.6,1.2-40.3c-7.2-15.7-15.3-21.2-15.3-21.2L59.2,157.4z"/>
<path class="st1" d="M31.3,211.1c0,0-5.5,6.1-2,19.2c0,0,3.7,7.6,7.3,5.2c0,0-2.2-13.2,1.1-16.7L31.3,211.1z"/>
<path class="st2" d="M57.2,156.3c0,0-18.7,12.9-16.6,18c0,0,14.5,5.4,14.4,8.6c-0.1,3.2-7.2,12.7-9.3,13.3s4,17.6,4,17.6h7.4
	c0,0,15.3-23.1,15.4-29.6S66.6,159.1,57.2,156.3z"/>
<path class="st2" d="M74.8,165.6c0,0,12.5,24.5,12.3,28.1s9.4-21-5-28.1C82.1,165.6,76.4,167.8,74.8,165.6z"/>
<path class="st3" d="M106.5,101.4c15.2-3.7,15.1-17.3,11.8-23s10.6-47.2,1.2-34.9s-23.3,9.9-23.3,9.9s1.6,4.1,1.2,8.8
	c-0.3,3.9-2.1,8.1-7.2,10.7"/>
<path class="st3" d="M67.9,139.2v18.4c0,0,8.9,12.1,12.9,8.1c0,0,4.1-27.8,18.4-33.9c0,0,31.6-3,20.1-41.3"/>
<path class="st3" d="M58.7,189.2c0,0-7.2-14.2-18.7-13.7c0,0,4.5-13.8,14.7-18.2c10.2-4.5,13.2,0.3,13.2,0.3"/>
<path class="st3" d="M55,183.7c0,0-4.2,11.2-10.7,13.1c0,0,2.9,9.6,5.3,18.9c2.4,9.3,8,19.6,3,23.3s-16.1-3.5-16.1-3.5
	s-3.4-7.1,0.4-15.1L38,218c-3.3-3.1-5.7-6-7.5-8.5c-6.9-10.2-3.5-16.2-3.5-16.2l12.9-17.7"/>
<path class="st3" d="M57.2,156.3c0,0,19.8,7.9,13.7,35.7c0,0-9.9,20.7-12.4,21.7s-9.4,0-9.4,0"/>
<path class="st3" d="M71.3,190.3c-0.6,4.9,10.2,17.1,13.9,6.7c3.7-10.5-11.6-33.2-11.6-33.2"/>
<path class="st3" d="M36.6,235.6c-3.9,0.7-7.3-5.2-7.3-5.2c2.8,30.4,24.7,17.8,24.7,17.8c-6.5,5.9,4.7,13.8,4.7,13.8l27-13.4
	c0,0-6.2-3.8-7.8-15.9c-1.6-12,1.5-13.8,9.7-37.4c8.2-23.7-6.8-29.7-6.8-29.7"/>
<path class="st3" d="M30.6,209.5c0,0-4,7.8-1.3,20.9"/>
<path class="st3" d="M37,248.5l-0.6,8c0,0,8,2.9,11.5,4.7c3.6,1.8,10.8,0.8,10.8,0.8"/>
<path class="st3" d="M63,259.9c0,0,6.1,14.2,11.8,18.2c0,0,2.4,4.9,3.1,9.6s4.5,12.5,11.1,13.5s11.5-1.7,11.5-1.7s2.4-6.7-1.9-16.5
	c-4.4-9.8-8.8-13.9-12.1-19c-3.2-5.1-3.9-9-4-13.8"/>
<path class="st3" d="M38.5,257.3c0,0-0.4,11.7-2.1,15.4c-1.7,3.7-1.6,16.2-1.6,16.2s5.9,12.4,19.3,2.6l0.9-13.3
	c0,0,10.7-12.6,9.3-15.4"/>
<path class="st3" d="M51,279.7c0,0,1.7-0.1,4-1.5"/>
<path class="st3" d="M32.2,306.4c-2.7,0-2.9,1.9-2.9,1.9c-0.5,5.2,11.4,3.7,15.9,3.6s10.7,3.9,14.6,3.9c3.9-0.1,19.3-7.7,5.9-10.8
	s-13.4-12.3-13.4-12.3"/>
<path class="st3" d="M34.8,288.8c0,0-8.6,5.9-3.3,15.4c0,0,17,8.4,21.5-3.8l0.4-3.7"/>
<path class="st3" d="M78.2,288.8c0,0,15.6,7.2,19.5-7.9"/>
<path class="st3" d="M99.6,285.3c0,0,6.9,7.9,14-4.4c7.2-12.3,12,5.5,2.5,15.1c-9.5,9.5-21.3,17.3-27.1,5.2"/>
<path class="st4" d="M70.2,33.6c0,0-6.8-8.3-10.9-8.3c0,0,5.8,6.7,5.7,11.8c0,0-5.7-8-9.3-9c0,0,1.1,5.2-1.1,9.6
	c-2.2,4.5-5.5-6.2-5.5-6.2l-3.4,7.3L42,38.1c0,0,0.2,5.1,2.4,8.1c0,0-4.4,1.9-3.8,10.1c0.6,8.1-10-4.4-2.5-10.9
	c0,0-8.4,2.9-5.1,10.9c0,0-8.3,0.5-5.4-4c0,0-3.3,3.7,0,6.7s4,1.8,4,1.8S6.8,70.9,14,79.5c0,0,0.1-10.9,18.7-12.2
	c0,0-13.4,6.8-10.1,10.6c0,0-18.3,10.4-11.9,18c0,0-0.1-8.8,9.9-11.9c0,0-13.7,20.8-7.8,20.8c5.9-0.1-2.7,23.8-2.7,23.8l7-10.6
	c0,0,4.2,0.3-1,20.4l5.3-15.5c0,0,1.1,4.1,1.1,9.3"/>
<path class="st4" d="M38.2,84c0,0-19.5,0.8-21.5,20.6C16.6,104.6,26,87.1,38.2,84z"/>
<path class="st4" d="M31.4,150.6c0,0-0.6,4.1,1.5,5.7c0,0,1.6-8.5,3.3-9.1"/>
<path class="st4" d="M39.1,149.1c0,0,2.7,3.2,10.7,3.4c0,0-5.5-5.7-1.6-13.4c0,0,4.4,10.6,6.9,10.6s3.4-2.9,3.4-2.9l3.7-0.6
	c0,0-3,0.3-3.7-6.2c0,0,11.9,4.9,17-11.5c0,0,6.2-5,3.1-11.9c0,0-9.9,13.9-17.9,2.3"/>
<path class="st4" d="M27.6,103.1c0,0-11.8,9.3-3.5,13.4C24.1,116.5,21.3,110.9,27.6,103.1z"/>
<g>
	<g>
		<path class="st3" d="M81.8,21.9c-7-10.1,0-21.9,0-21.9c10.7,4.4,5,20.9,5,20.9s8.1-5.1,18.4-4.1c0,0,1.8,5.5-5.8,11.5
			c0,0-7.4,3.7-11.2,2.9"/>
		<path class="st3" d="M80.3,43.4c4.4-2.9,1.9-8.5,1.9-8.5s-4.5-11.8,1.8-13s5.1,8,5.1,8l-7,11.5"/>
		<path class="st3" d="M80.9,25.2c0,0-5.5-7.6-9.1-7.6c0,0-1.6,16-0.5,24.6c0.5,3.9,1.6,6.3,3.6,4.9c8.5-5.8,21.2,1.8,21.2,1.8
			c-12,13.1-21.9,4.9-21.9,4.9L74,48.2"/>
		<path class="st3" d="M79.2,45.1c0,0,1-1.8,2.9-3.7c3.2-3.2,9.2-6.7,17.6-2.4c0,0-4.1,9-7.1,7.9"/>
	</g>
	<g>
		<g>
			<path class="st3" d="M71.5,43.4c-6.8-4.7-12.8-0.9-13.1-0.9c0,0,0.7,8.1,13.1,13.8c0,0,1.3,0.6,2.7,0.3c0.8-0.1,1.7-0.6,2.3-1.6"
				/>
			<path class="st3" d="M72.8,56.8c0,0-19-1.7-18.1,7.9c0.3,3.5,2.5,4.1,5.1,3.5c4.5-1.1,10.4-6,10.4-6s-3.5,13.4,2.5,15.3
				c6.1,1.9,6.6-8.3,1.4-21"/>
			<path class="st3" d="M70.3,62.2C58.9,80.8,70,91.7,70,91.7s5.8-3.1,5.4-14.1"/>
			<path class="st3" d="M65.5,74c-6.4,14.1-15.7,10.8-15.7,10.8s0-17.2,17.2-16.1"/>
		</g>
		<g>
			<g>
				<path class="st3" d="M67.4,88c0,0,3.1,14.4-2.3,18.2c0,0-1.2-0.2-2.5-1.4c-2.2-1.9-4.8-6.3-2.9-16.3c0,0-7.2,12.1-16.5,7.3
					c0,0-0.5-8.1,9.3-10.7"/>
				<path class="st3" d="M54.2,94.5c0,0-1.1,3.6-1.2,8.1c-0.1,5.5,1.2,12.5,7.6,16.2c0,0,3.3-3.5,2-14"/>
				<path class="st3" d="M53.1,102.6c-1.9,3-3.8,5.1-5.6,6.6c-6.6,5.4-11.9,2.2-11.9,2.2s-3-9.7,13.1-14.5"/>
				<path class="st3" d="M47.4,109.2c-5.4,13.8,3.9,16.9,3.9,16.9s5.3-2.1,4.5-11.9"/>
			</g>
			<g>
				<g>
					<path class="st3" d="M41.2,112.2c0,0-11.1,2.1-10.7,10.3c0,0,4.3,2.1,9.6,0.2c1.9-0.7,3.9-1.9,5.8-3.9"/>
					<path class="st3" d="M49.2,124.8c0.1,7.9-4.1,12.5-4.1,12.5s-6.8-3.1-5-14.6"/>
					<path class="st3" d="M40.6,131.8c-3.5,5.8-7.8,7.2-11.3,7.2c-3.7,0-6.6-1.7-6.6-1.7s-1-9.6,13.1-13.8"/>
				</g>
				<path class="st3" d="M29.3,139c-14.5,9.6-9.3,16.4-9.3,16.4s16.2,0.3,16.2-18.5"/>
				<path class="st3" d="M42,134.5c0,0-0.6,11.8-3.9,16.1c0,0-2.8-3.5-2.8-7"/>
			</g>
			<path class="st4" d="M49.8,128.4c0,0,1.3,4.4,6,6.1c0,0-6.4-7-4.5-8.5"/>
		</g>
	</g>
</g>
<path class="st4" d="M58,121.5c0,0,3.2,5.5,7.1,5.3C65.1,126.8,58.1,127.9,58,121.5z"/>
<path class="st4" d="M99.4,28.4l6-1.9c0,0-2.2,3.7-6,5c-3.8,1.3,7.9,0,7.9,0s-7.4,2.9-8.4,3s6.6,2.7,6.6,2.7l-5.8,2"/>
<path class="st4" d="M68,100.2c0,0,4.4-2.7,7.3,4.4c2.9,7.1-0.7-8.9-0.7-8.9l4.7,5.4c0,0,0.5-7.2-0.9-9.4c0,0,3.2,0.7,4.6-1.3
	c0,0-8.1-4.4-7.9-8.6"/>
<path class="st4" d="M77.1,75.6c0,0,1.9,3.5,1.7,6.1c0,0,6.1-4,4.4-14.2c0,0,0.8-10.4,4.6-12.5c0,0,7.7-2.5,9.6,7.1
	c0.9,4.5,1.2,7.8,1.2,7.8"/>
<path class="st3" d="M65.1,155.8c0,0-8.6-0.2-5.9,1.7c2.7,1.9,13.5,10.5,13.5,26.7s-17,31.1-17,31.1l-5-1.4l-1.1,1.9l4.3,11.7"/>
</svg>
