<?xml version="1.0" encoding="utf-8"?>
<!-- Generator: Adobe Illustrator 22.1.0, SVG Export Plug-In . SVG Version: 6.00 Build 0)  -->
<svg version="1.1" id="Layer_1" xmlns="http://www.w3.org/2000/svg" xmlns:xlink="http://www.w3.org/1999/xlink" x="0px" y="0px"
	 viewBox="0 0 1449 1354.1" style="enable-background:new 0 0 1449 1354.1;" xml:space="preserve">
<style type="text/css">
	.st0{fill:#4AA852;}
	.st1{fill:#EF414E;}
	.st2{fill:#4CA551;}
	.st3{fill:#56392B;}
	.st4{fill:#2F8B43;}
	.st5{fill:#2F8B43;stroke:#000000;stroke-width:2;stroke-miterlimit:10;}
	.st6{fill:#2F8B43;stroke:#000000;stroke-miterlimit:10;}
	.st7{fill:none;stroke:#000000;stroke-width:2;stroke-miterlimit:10;}
	.st8{fill:none;stroke:#000000;stroke-width:3;stroke-miterlimit:10;}
	.st9{fill:none;stroke:#000000;stroke-miterlimit:10;}
	.st10{fill:none;stroke:#000000;stroke-width:5;stroke-miterlimit:10;}
	.st11{fill:none;stroke:#000000;stroke-width:4;stroke-miterlimit:10;}
	.st12{fill:#00A651;}
</style>
<path class="st0" d="M1302.9,59.3l-114.6,17.6v75L1166,303.1l-32.7,197.8c0,0-14.3,120.3-24.2,145.9s-16.6,181.4-16.6,181.4
	l-8.1,42.4l-18.6,91.2l-8.7,70.8l-19.1,83.6l-7.4,27.7l-19.3,38.4c0,0-27,37.8-31.5,38.6c0,0-0.5,23.5,3.7,28.6
	c0,0-27,31.7-49.2,35.6s-48.2,23.6-48.2,23.6l6.7,5.2c0,0,76.9-5.5,87.4-7.9s16.3-5.6,16.3-5.6l2.2,0.3l1.8-20
	c0,0-6.6-10.3-17.1-13.3c0,0,11.4-3.2,18.7,2.7c0,0,4.7-23.9,9.3-24.1l-2.8,27.2c0,0,7.4,6.1,9.4,20.7l12.8-2.1
	c0,0,4.9-33.3,8.5-38.8c0,0-8.7-12.2-28.9-16c0,0,14-4.8,32.4,7.3c0,0,7.5-16.4,16.7-20c0,0-11,15.7-12,22.6
	c0,0,13.3,12.3,14.3,32.2l44.3-11.3l21.9,2.2l22.5,12.4l17.9,1.8c0,0,5.7-47.5,2.7-71.6c0,0,12.8,13.7,13.3,36c0,0,9.6-30.1,29-33
	c0,0-20.3,9.1-25.1,70.7l7.9,0.4c0,0,0.8-8.4,7.9-12.7c0,0-5.2,7.5-3.8,13.8l14.3,3.4c0,0,11-59.9,28.3-73.5c0,0-20.8-9.2-30.5-33
	s0.3-37.2,0.3-37.2s1.7-33.5,27.2-111.8s1.2-3.7,1.2-3.7l-2.4-20.3l10.5-27.7l8.4-97l15.4-95.7l17-61V678l14.3-91.6l28.4-129.9
	l15.3-94.2l-0.2-40.2l3.2-48.8l11-44.4l2.7-56l8.1-34.1l-3.4-61.8L1302.9,59.3z"/>
<path class="st0" d="M1234.3,1247.8c0,0-9.7,37.6-9.2,44.8l13.5,4.7c0,0,5-15.8,7-19.4l1.2-19.6c0,0-2.1-16.3-4-22
	c0,0,7.9,5.8,12.3,26.9l0.4,0.9c0,0,8.8-8.2,14.7-10.9s11.6-4.7,11.6-4.7l-24.1-19.6l-10.6-9.6c0,0-9,15.3-11,23.2
	C1234.1,1250.4,1234.3,1247.8,1234.3,1247.8z"/>
<path class="st0" d="M1261.3,1270.2c0,0-11.6,23.1-10.2,32.8c0,0,2.7,2,8.4,1.2c5.7-0.8,18.4,6.2,18.4,6.2l19,2.6l1.1-4.4
	L1261.3,1270.2z"/>
<path class="st0" d="M1264.6,1265.1l40.5-0.7l-21.1-15l-2.9,0.5C1281.1,1250,1271,1256.3,1264.6,1265.1z"/>
<path class="st0" d="M966.9,1222.6c0,0,3.5,7,3.5,9.8s0.4,12.9,0.4,12.9l-46.8,2.8l-1.3-1.7l39.9-20.5L966.9,1222.6z"/>
<path class="st0" d="M1043.9,1259.7c0,0-4.1,23.3-3.5,29.5l9-2.2C1049.4,1287,1046.6,1265.5,1043.9,1259.7z"/>
<path class="st1" d="M488.6,970.3c0,0-1.9,33.2,4.4,45.1c6.3,12,9,16.3,22.5,22.7c13.5,6.5,9.1,52.4,9.1,52.4s-7.4,45.4-14.1,67.1
	c-6.7,21.7-2.4,47.2,8.6,45.6c0,0,5.5,13.9,8.9,13.8c3.5,0,28.6-3,35.4-21.5c6.8-18.6,5-24.6,5-24.6s-5.5-5.7-4-11.7
	s10.6-63.5,10.6-63.5s4-22,0-45.7s-3.1-58.7-3.1-58.7l-7.6,1.6l-3,59l1,33.3l-1.4,10.9l-10.5,6.2l-4.3-0.4l-1.8-4.7l-7.8-3.6l1-3.1
	l10.3-3.2l3.3-12.7l-6.8-12l0.9-40.6c0,0-3.1-22-5.4-22.6c-2.3-0.6-7.6,3.1-20.5-8l-14.4-0.5l-10-6.7l-6.3-18.3L488.6,970.3z"/>
<path class="st2" d="M494.3,809.4c0,0-20.1,87.2-9.9,131.1c10.2,43.9,10.4,51.1,20.2,50.6s12.8-2.6,20.6,5.1
	c7.9,7.7,14.3,3.3,14.3,3.3s-19.6-35.1-20.5-47.1s0.9-57.3,0.9-57.3l-9.1-5.4l20.5-1.9c0,0,21.1-1.1,26.3,2.6c0,0-5.5-60.3-12.7-74
	l-16.8-7.7l-12.5-7l-6.3,7.7l-9.7,2.8L494.3,809.4z"/>
<path class="st2" d="M556.3,903.4c0,0,14,29.3,19.4,72.3c0,0,0.7,15.9-11.3,17.3L556.3,903.4z"/>
<path class="st3" d="M498.7,679c0,0,6.6,24.8,4.7,35.9s-1.8,11.1-1.8,11.1h-9.8l-3.4,12.1l4.6,15.3l24.3,1.9l-11.8,5.8l2,9.2
	l-14.5-1.8c0,0-18.1,2.5-28.8-3.2s-16.4-15.2-16.4-15.2l1.5,16c0,0-8.6-9.9-6.1-22.7c0,0-7.9-27.2,4.9-44.3
	c12.8-17.1,19.4-18.4,19.4-18.4s4.9-8.7,19.1-8.7c0,0,6.1-19.9,9.5-20.3l-1.9,17c0,0,10.2-15.6,17.6-17c7.4-1.5,19.9-2,30.4,8.4
	c0,0-10.5-0.3-18.2,2.5l12,12.1c0,0-8.2-5.1-17.3-5s-5,5.4-5,5.4l-8-3.4l-4.7,0.8c0,0,9.9,6.4,10,20.9
	C510.9,693.3,504.8,681.4,498.7,679z"/>
<path class="st4" d="M22,41l21.2,30l2.2,8.2l19.2-0.9l4.7-4.9l7.3,7.9l-37.3,60.4l7.1,28.2l15.7,0.4l6.7-6.7l8.8-53.3l14.7-29.2
	l16.3,6l-7.1,14.2l39.9,10.9l13-29l38.5-21.5l50.5-18.3l4.9,22.6l-64.1,55.6L160,170.3l-9,25.9l-0.9,26.6l5.8,16.2l13.1-16.2
	l17-46.2l10-37.3l20.8-3.9l2.9,10.5l13.3,2.6l11.7-10.5l8.8-25.6l19.9-7.2l4.9,16.4l12.6-15L323,80.4l25,13.8l-9.6,24.5l3.5,11.2
	l33.5-25.5l13.1-4.4l7.6-8.2l6.8,4.1l20.2-26.6l11.5,9.3l-6.3,22.4l9.1,5.5l18.9,9l20.5,4.9l10.2,6.5l10.9-10.3l25.8-36.1l24.5-31.4
	l23.4,15.6l6.2-0.6l14.3-8.2l-0.9,23.4l4.5,7l-13.2,11.5l-4.7,26.9l29-15.7l-4.6,9.7l19.4-5.2l4.6-20.7h20.5l-1.7,22l15.9-1.3
	l34.6-31.9l12.5,3.6l-7.9,31.8l21.6,17l13.4-26l21.7-16.9l40.5-27.3l13.9-7.9l11.9,6.8L811.2,83l26.4-20l29.3-4.6l9.3,5.5
	c0,0,5.3-16.6,8.5-15.8s20.9-1.3,20.9-1.3l7,11.7l5.5,2.6v15.2l4.5,24.7l5.4,5.6l10.5,18.3l20.1,12.3l-3.3,31.6l10.9,3.3l2.4,30.1
	l20.8-13.1l31.4-6.1l13-5.4l28.4,7.4l38-0.9l12.9,21.5l11.4,30.3c0,0-2.3,38,10.9,30.5s13.2-7.5,13.2-7.5l8.6-4v22.5l9.9,1.4
	c0,0,5.1-23.5,7.6-42.6s11.8-80.4,11.8-80.4l6.6-12.4l14.6-13.7l9.8-4.5l3.4,6.7l17.8-7.4l26.3-25.8l9.9-5.6l2.1-16.9l17.4-10.1
	l13.1,20l9.3,14.9l25.9-13.9l4.1,11.6l20.4-15.5l6.3,27.5l-3.2,35.6l20.4-9.8l1.3,17.1l-4.2,8.3l2.9,14.8l1.7,7.9l7.6,10.1l3.5,15.4
	l-5.5,1.2l-7.6,19.4l4.1,4.6l13.3,0.4l19-17.4l0.3,18.5l5.8-3.4l3-105.1l-7.2-55.2l-8.6-20.2l-42.3-9L22,41z"/>
<path class="st5" d="M1188.9,64.8c0,0-22.1-11-38,13.8s-18.8,20-6.3,18.8s24.7-3.8,29.2-8.5"/>
<path class="st5" d="M1161.1,145.9c0,0-21.1,11-22.7,33.4c-0.6,8.4,1,8.7,3.6,5.7c4.4-5.1,11.7-19.7,16.7-22.4c8-4.3,5-3.9,5-3.9"/>
<path class="st5" d="M1145.3,180.3c0,0,1.4,4.4-3.7,18s-9.8,23.8-9.8,23.8s-0.1,7.4,11.9-8.8c0.6-0.8,1.2-1.6,1.8-2.5
	c13.7-19.4,34.1-56.1,41.5-57.4"/>
<path class="st6" d="M1174.6,191.3c0,0-20.9,26.6-30.9,22"/>
<path class="st5" d="M1179.8,202.6c0,0-7.3-9.6-22.4,27.3c0,0-2.9,9.5-14.8,17.5s-10,34,0,22c4.4-5.3,9-7.8,13.2-10.6
	c5.4-3.6,10.2-7.8,13.4-18.9c0,0-0.8-6.1,7.1-13.1"/>
<path class="st5" d="M1155.8,258.7c-1.7,18.1-14.4,39.1-14.4,39.1s-7.3,9.9,8.5,0s19.3-21.3,19.3-21.3"/>
<path class="st5" d="M1131.9,222.1c0,0-4.4,3.5-2,16.3s7.4,4.5,28.8-11.6"/>
<path class="st5" d="M1134.4,265.1c-0.4,4.4-8.5,8.5-8.5,8.5c-17.8,11.1-4.3,2.3-6.3-22.3s6.3-29.3,6.3-29.3s7.7-2.6,12.5-15.4"/>
<path class="st5" d="M1138.4,179.3c0,0-22.8,10.7-16.2,47.8"/>
<path class="st5" d="M1125.4,193.5c0,0-15.7,0.2-16.3,20.4s-4.9,32.5,1,28.7s10.8-12,10.8-12"/>
<path class="st5" d="M1162.1,45.6c-1.8,36.5-44,34.9-44,34.9s-11.5,3.2,0-11.1c11.5-14.4,39.4-22.1,40.5-29.7
	C1158.6,39.6,1160.1,42,1162.1,45.6c2.6,4.7,6.1,11.3,8.5,16.8"/>
<path class="st5" d="M1123.4,40.8c0,0-13.3,17.9-10.4,20.4s17.7-2.6,17.7-2.6"/>
<path class="st5" d="M1141,76.1c0,0-12.8,17.4-10.2,19.5c2.5,2.1,11.1-3.9,11.1-3.9"/>
<path class="st7" d="M1146.7,73.1c0,0,7.2-3.6,5.9,3"/>
<path class="st5" d="M1114.1,80.5c0,0-16,15.7-20.8,28.8c-4.8,13.2,18.8,0.5,26-4c3.1-1.9,5.6-3.9,7.4-5.7c2.6-2.3,3.9-4.1,3.9-4.1"
	/>
<path class="st5" d="M1149.7,96.7c0,0-2.2,5.9-7,11.5c-3.6,4.2-8.6,8.2-15.3,9.3c-15.5,2.6-5.5-5.6-3.1-11.8s2.4-6.2,2.4-6.2"/>
<path class="st5" d="M1159.4,121.6c0,0-3.5,27.8-23.5,29.5c-19.9,1.7-6.8-6.3-6.8-6.3s7.5-4.3,7.7-16.5c0.2-12.3,5.9-20.1,5.9-20.1
	s17.3,8.4,21.4-14.4"/>
<path class="st5" d="M1136.8,128.3c-25.9-13.9-51.7,32.5-51.7,32.5s-9.1,4.7,9.6-1.4c2.1-0.7,4.1-1.3,6-2
	c15.2-5.2,24.7-9.4,24.7-9.4"/>
<path class="st5" d="M1104.3,192.1c1.3,9.5-9.3,19.8-9.3,19.8s1.4,3.5,9.4-3.6c8.1-7.1,8.1-7.1,8.1-7.1"/>
<path class="st5" d="M1096,145.3c0,0-12.2-3-17.6,9.2c-0.8,1.8-1.5,3.9-1.9,6.5c-3.4,19.6-9.5,23.6,1.3,19.3s20.7-14.7,19.8-21.7
	c0,0,0.7-2,2,7.8s-22.6,30.9-22.6,30.9s-12.4,7.6,8.4,3.3c5.7-1.2,12.4-4.2,19.1-8.3c17.4-10.7,34.6-28.9,33.9-41.4"/>
<path class="st5" d="M1078.4,154.5c-11.2-1-25.4,24.9-25.4,24.9s-23.5,54.4,12.1,16.3c0,0,1.5-2.1,5-3.4c3.5-1.3,24.9-6.4,19.2-19.1
	"/>
<path class="st5" d="M1041.9,159.3c0,0-12.6,4.9-18.9,32.8c-6.3,27.9-2.7,11.9,5,6.6s19.6-7.8,25-19.4"/>
<path class="st5" d="M1075.5,138.2c0,0-35.4,1.9-38.1,36.4c0,0,0,7.3,4,2.1s17.5-5.1,21-11.2"/>
<path class="st5" d="M1124.4,105.8c0,0-20.5,2.4-26.6,26.5c0,0-2.6,7.6,5.1,2s11.3-5.1,11.3-5.1"/>
<path class="st5" d="M1129.7,117.1c0,0-2.3,4.2-2.3,8.6"/>
<path class="st5" d="M1093.4,109.3c0,0-9,5.2-13,15c-3,7.4-5.5,13.4-3,14.3c0.8,0.3,2.2,0,4.3-1c8.4-4.1,14.2-8.6,17.1-8.7"/>
<path class="st5" d="M1078.9,153.4c0,0-6.7,2.7-1.8-11.3c0,0,0.5-2.3,1.8-3.9"/>
<path class="st5" d="M1110.8,83.9c0,0-17.1-1-22.4,11.7c-0.4,0.9-0.7,1.9-0.9,2.9c-3.7,15.8,6.9,1.1,12.5-1.3"/>
<path class="st5" d="M1088.5,95.6c-23.8-1.7-24.5,21-24.5,21s-3.1,20.3,1.5,23.6"/>
<path class="st5" d="M1079.3,126.9c0,0-7.1,5.2-9.3,11.8"/>
<path class="st5" d="M1114.7,74.1c0,0-21.3-8.5-46.9,11.4s-5.7,13.6,7.5,11.9"/>
<path class="st5" d="M1063,62c0,0-21,11.8-22.2,47.3c0,0-0.7,6.4,1.1,9.1c1,1.6,3,1.9,6.4-1.3c0,0,5.2-6.6,16.2-3.9"/>
<path class="st5" d="M1041.8,118.4c-2.8,5.8,4.8,13.7,4.8,13.7s6.8,5.2-2.7,9.9s-2.8,8.8,7.4,5.4"/>
<path class="st5" d="M1103.6,40.8c0,0-16.5,5.3-25.9,29.3c0,0-4.4,10.1,3.6,7.1"/>
<path class="st5" d="M1101.5,72.3c0,0,9.3-2.9,11.5-11"/>
<path class="st5" d="M1089,51.4c2.3-4.7-1.5-10.1-1.5-10.1s-3.2-7.7-14,0.9s-8.1-1.8-12.4,10.8c-2.5,7.3,3,13.3,8.3,16.2
	c3.8,2.1,7.6,2.6,8.3,0.9"/>
<path class="st5" d="M1071,83.1c0,0,1.4-9.7-1.6-14"/>
<path class="st5" d="M1062.1,50.2c0,0-1.1-0.5-2.9,0.3c-3.2,1.3-8.6,6.3-15.1,23.2c-3.8,9.9-12,15.1-20.7,17.5
	c-15,4.2-31.5,0.2-30.1-1.8c2.3-3.1,12.9-3,17.5-9.5s-0.8-18.4,33.4-25.3c0,0,6.5-0.8,8.4-1.5"/>
<path class="st5" d="M1040.7,109.3c0,0-18.4,4.4-17.4-18.1"/>
<path class="st5" d="M1002.4,92.7c0,0,4.2,37.6,11,25.7c6.8-11.9,11.3-15.7,10.7-18.7"/>
<path class="st5" d="M1033.2,109.2c0,0,4.7,14.9-19.2,21.7c-1.2,0.3-2.4,0.7-3.5,1c-22.1,6.8-38.3,17-34,10.8
	c4.6-6.4,27.8-24.4,28.4-34.4"/>
<path class="st5" d="M1009.1,132.3c-5.1,7.1-5.4,21.3-5.4,21.3s-2.7,24.6,2.7,17.3c1.6-2.1,4.6-4.1,8-6.4
	c8.3-5.6,19.2-12.8,18.4-27.6c-1.2-20.9-2-16.3-2-16.3"/>
<path class="st5" d="M1014.4,164.5c0,0,2.6,11.7-4.4,19.2s0,6,0,6s2.3-1.1,5.4-2.9c5.2-3.1,12.6-8.3,14.3-13.7"/>
<path class="st5" d="M1002.9,170.8c0,0-27.8,15.1-15.8,39.5s10.6,27.4,19.8,8c9.2-19.4,8.5-31.5,8.5-31.5"/>
<path class="st5" d="M1004.7,133.8c0,0-14.9,27.3-28.9,37.1s-10,9.1-10-7.3s2.9-23.2,6-25.4"/>
<path class="st5" d="M954,156.9c-8.8,15.6-2.7,46.8-2.3,53.7c0,0,3.6,16.6,9.6-4.8c1.1-4,2.7-7,4.5-9.4c7.8-10.5,19.4-9.9,14.9-29.7
	"/>
<path class="st5" d="M965.8,196.4c-0.3,7,2.6,12.7,2.6,12.7s0,3.4,3.6-5.4s12.7-9.4,13.7-13.9"/>
<path class="st5" d="M981,179.9c0,0,3.6,5.7,13.5-2.6"/>
<path class="st5" d="M954.7,74.5c0,0,16.1,17-6.8,37.9c-2.7,2.5-4.9,4.5-6.7,6c-13.1,11.6-2.5-0.5-3.6-11.7
	c-1.2-12.7-2.9-14.8,2.5-18.2S954.7,74.5,954.7,74.5z"/>
<path class="st5" d="M941.3,118.4c-8.3,6.3-13.6,32-13.6,32s-0.3,3.1,6.8-5.4c7.1-8.5,14.2-16.6,14.2-16.6c0,2.7-1.3,7.4-1.3,7.4
	c-11.6,30.8-1.5,25.2-1.5,25.2c2.9-1.1,5.6-2.5,8.1-4c22.6-14.5,26.7-46.3,26.7-46.3s1.1,15.1-1.4,22.9s0,5.9,0,5.9"/>
<path class="st5" d="M956,76.1c0,0,13.3-5.8,13.4,9.8c0,3.1,0,5.9-0.3,8.6c-1.1,11.2-5.6,20.2-20.5,33.8"/>
<path class="st5" d="M968.2,100.4c7.1-11.7,19.9-14.5,19.9-14.5s8.4,18.6-32,35.1"/>
<path class="st5" d="M964.4,75.6c0,0,21.4-4.7,23.2-19.8s0-16.4,0-16.4"/>
<path class="st5" d="M999.6,41.2c0,0-0.6,12.4-7.8,19.8s-12.3,30.2,0,20.6s28.3-13.9,28.1-40.4"/>
<path class="st5" d="M970.6,41.2c0,0-18.8,28.9-15.9,33.3"/>
<path class="st5" d="M954.4,47.6c0,0,6.5,2.9,6.4,10"/>
<path class="st5" d="M954.4,41.2c0,0,4,19.2-21.3,33.3c-2.8,1.5-5.9,3-9.4,4.4c-35.6,14.1,18.6-37.8,18.6-37.8"/>
<path class="st5" d="M937.6,90.8c0,0-14.2,7.2-4.4-8.6c0,0,3.6-5.5,3.2-9.6"/>
<path class="st5" d="M930.1,91.6c0,0-2.7,3.4-5.2-0.3"/>
<path class="st5" d="M925.1,99.6c0,0,6.8,13.3,5.9,21.1s4.9-2.3,4.9-2.3"/>
<path class="st5" d="M908.1,41.2c0,0-14.8,13-18.4,33.3s3.7,11,15.8,1.2c0,0-2.5,6.1,3.6,22.2c6.1,16.1,11.6,25.5,14.6,14.3
	c1.5-5.6,1.5-13.9,1.1-20.8s-1.1-12.3-1.1-12.3"/>
<path class="st5" d="M924.1,41.2c1.4,3.9-8.9,30.8-18.6,34.4"/>
<path class="st5" d="M931.5,52.2c0,0,1.6-4.3-7.3-8.9"/>
<path class="st5" d="M872.2,42.2c0,0,2.6,6.7,5.1,12.4c1.6,3.6,4.9-2.2,7.2-7c1.3-2.9,2.3-5.4,2.3-5.4"/>
<path class="st5" d="M905.5,43.8c0,0-9.2,7.7-20.9,3.8"/>
<path class="st5" d="M864.2,42.2c0,0-3.1,6.2-7.5,14.1c-9.6,17.3-25.1,42.7-26.2,27.5c-1.7-22-5.5-37.9,5-42.7"/>
<path class="st5" d="M856.7,56.3c-1.3,2.3,5.6,9.4,5.6,9.4s1.6,2.5,3.7,3.4s4.8,0.3,7-5.9c4.4-12.5,0.9-16.9,0.9-16.9"/>
<path class="st5" d="M866,69.2c1.2,17.1-13.9,26.7-13.9,26.7s-7.3,5,9.5,0s18.5-34.6,18.8-41.3"/>
<path class="st5" d="M828.4,56.2c0,0-6.2-0.3-12.7,12s-28.6,21.4-15.1,21.3s28.7-18.3,28.7-18.3"/>
<path class="st5" d="M811.1,42.2c0,0,1.5,4.7-0.9,12.3c-2.2,7-7.9,16.4-21.2,26.9c-27.8,21.7,2.3-28.9,3.4-39.2"/>
<path class="st5" d="M820.3,61.3c0,0-4.5-2.3-10.1-6.8"/>
<path class="st5" d="M782.7,41.2c0,0,0.3,21.4-28.5,30.5c-1.3,0.4-2.6,0.8-4,1.1c-32.9,8.3,0.3-10.4,6.5-22.4s4.5-9.3,4.5-9.3"/>
<path class="st5" d="M770.2,63.6c0,0,0.7,15.6,8.9,12.2c0,0,2.5-0.3-20.8,17.4c-23.3,17.7-16,4.8-16,4.8s13-14.6,11.9-26.3"/>
<path class="st5" d="M740.4,42.2c0,0-6.6,32.3,3.5,22.3"/>
<path class="st5" d="M711.8,78.9c-11.5,10-9.8,20.8-9.9,21.4c0,0,0.6,18.1,19.9-6.6s13.7-29.7,7.6-24.9
	C725.1,72.2,719.3,75.9,711.8,78.9c-1.2,0.5-2.4,0.9-3.6,1.3c-21,7,17.6-38,17.6-38"/>
<path class="st5" d="M721.7,93.7c0.1,4.5-8.7,23.3-15.9,31.9s14.5-5.3,14.5-5.3s22-13.2,22-17.8"/>
<path class="st5" d="M703.4,105.3c0,0-23.6,18.3,11.7,43.2c0,0,10.2,8.4,5.1-5.4s0.1-22.8,0.1-22.8"/>
<path class="st5" d="M727.6,115.7c0,0,23.2,41.1,11.4,33s-17.2-13.2-20.7-13.2"/>
<path class="st5" d="M707,84c0,0-33.9,16.2-19.9-1.9c14.1-18.1,11.6-13.9,11.6-13.9"/>
<path class="st5" d="M683.7,77.6c0,0,0.3,27.7-15.1,38.1c-15.4,10.4-11.9,5.2-10.5-1.6s1.4-19.5,1.4-19.5"/>
<path class="st5" d="M714.2,42.2c0,0-3.4,27.1-37.6,38.1c-34.2,11.1,22.4-32.8,18.2-38.1c0,0,0,1.8-7.4,7.9c-2,1.7-3.5,1.8-4.6,1
	c-0.4-0.3-0.7-0.6-1-1.1c-1.9-2.8-2.1-8.6-2.1-8.6s-17.2-5.7-39.9,33c0,0-7.4,6.7,5.5,4.8c0,0,6.8-0.1,11.4-4.8
	c6.6-6.6-10.1,10.8-13.4,19.2s-7.9,11.1,1.1,11.6S669.5,82,669.5,82"/>
<path class="st5" d="M683,52.5"/>
<path class="st5" d="M642.7,105.1c0,0-1.5,5.7-8,16.5s-2.9,27.5,3,17s17.3-22.7,20.6-26.1"/>
<path class="st5" d="M645.9,42.2c0,0-8.7,17.9-4.6,19.1s11.7-5.4,11.7-5.4"/>
<path class="st5" d="M647.6,62.6c0,0-16.1-2.6-24.7,18.4s-8.1,33.1,2.3,23.5s20.2-14.7,21.4-16.4"/>
<path class="st5" d="M642,41.2c0,0-26.2,8-24.6,36.5c0,0,1.1,14.4,6.8,0.4"/>
<path class="st5" d="M616.8,41.2c0,0-3,13.6-1.9,19.1c0.6,2.7,2.1,3.5,5.6-0.4"/>
<path class="st5" d="M615,60.3c-29.1,8.7-24,28.9-24,28.9s2.9,7.6,6.1,3.3s11.7-8.8,21.3-9.8"/>
<path class="st5" d="M617.6,106.9c0,0-8.4-3.5-17.2,7.4s-32.3,8.5-20.6,1.6s17.3-23.4,17.3-23.4"/>
<path class="st5" d="M622.3,106.7c0,0-0.7,28.8-17.7,31s-5.2-2.1-3.4-7.9c1.8-5.8-0.6-15.6-0.6-15.6"/>
<path class="st5" d="M602.7,137.9c0,0-2.4,23.2,5,14.5c0,0,10-8.1,7.6-21.7"/>
<path class="st5" d="M602.3,41.2c0,0-5.2,5.9-10.9,11.9c-8.8,9-19.1,18.1-14.7,6.2c7.2-19.8,4.2-18,4.2-18"/>
<path class="st5" d="M592.5,77.1c0,0-8.9,6.7-4.7-4.6s3.7-19.4,3.7-19.4"/>
<path class="st5" d="M570.5,42.2c0,0-6.7,5.8-13.7,11.1c-7.7,5.8-15.8,11.1-16,7.5c-0.3-6.9,3.8-19.7,3.8-19.7"/>
<path class="st5" d="M556.8,53.3c2.1,8.2-8.6,23.7-8.6,23.7s-12,12.7-3.8,13.4s27.9-6.2,32.2-25.5"/>
<path class="st5" d="M522.9,41.2c0,0-17.4,21.9-0.8,46.2c16.6,24.3,7.2-23.1,19.5-34.3"/>
<path class="st5" d="M502.4,41.2c0,0-3.4,14.2-5.4,29.1c-1.9,14-2.5,28.6,2.1,33c9.5,8.9-4.9-10.5,8.4-30l7.6-10.7"/>
<path class="st5" d="M496.9,70.3c-15.2,11.5-12,28.3-7.8,38.7c2.2,5.6,4.8,9.4,4.8,9.4s5.9,10.1,7.3-0.8s20.7-19.4,17.8-35.7"/>
<path class="st5" d="M466.6,119.5c-6.6,26.1,3.8,15.3,3.8,15.3s21.2-13.1,18.7-25.7"/>
<path class="st5" d="M472.5,67.7c-12.4,6.8-7.6,18.4-10,36c-2.4,17.6,23.5-6.5,23.5-6.5"/>
<path class="st5" d="M499.9,52.4c0,0-29.8,21.3-42.1,17.2s3.2-2.3,11.6-13.3S476,44,485.6,41.1"/>
<path class="st5" d="M445.4,41.2c0,0-9.9,7.4-9.6,15.9s2.4-4.6,16.3-6.8S471,52,480.6,43"/>
<path class="st5" d="M473.1,107.2c0,0-5.5,25.6-40.3,31.8c0,0-7.6,2.3,1.5-7.9s10.9-18.4,10.9-18.4"/>
<path class="st5" d="M463.4,88.9c0,0-1.6,26.7-27.6,24.6c0,0-8.8-0.8-2.2-7.3S430,75.4,430,75.4"/>
<path class="st5" d="M456.1,49.8c0,0-11.4,33.6-44.6,25.6c0,0-11.3-4.1,1-8.5s15.6-24.8,15.6-24.8"/>
<path class="st5" d="M431.7,80.3c0,0,4,10.2-11.2,22c-15.2,11.8-15.3,26.9-19.1,30.6s-8.6,3.9-10.3,4c-1.6,0.1,5.1,4.1,13.6,0
	c8.6-4.1,28.6-9.3,29.8-23.3"/>
<path class="st5" d="M406.7,136c-12.9,9-12.7,26.7-12.7,26.7s1-3.4,6.9-4.9s28.8-7.6,22.6-29.5"/>
<path class="st5" d="M421.6,76.7c0,0,5.5,13.5-21.1,29.8c0,0-3.3,1.9-4.1,10.9c-0.8,9-5.4-27,9.3-34.5c0,0,6.2-3.3,4-8.2"/>
<path class="st5" d="M412.7,41.7c0,0-4.9,9.9-14.6,24.6c0,0-4.4,3.9-2.3,7c2.1,3.1-9.4,0.8-11.6-12.5s5.8-19.7,5.8-19.7"/>
<path class="st5" d="M422.7,143.5c0,0,4.1,7.5-4.3,16.9c-2.5,2.9-6.2,5.9-11.6,9c0,0-3.5,0.3-3.6,4.4s-3.1-9.6,0-16.5"/>
<path class="st5" d="M421.1,156.7c0,0,11.7,25.6,15.2,29.4c0,0-20.7,3.8-17.9-25.7"/>
<path class="st5" d="M481,126.2c0,0-4.1,20.2-1.1,30.5s-3.7,7.5-1.8,10.5s26.8-10.6,19.6-37c0,0-1-6.8-3.9-11.9"/>
<path class="st5" d="M403.5,57.8c0,0,5.3,3.2,9,9.1"/>
<path class="st5" d="M385,63.9c0,0-9.7,0.6-5.6,27.9c4.1,27.3,6,21.6,8.3,15.5s5.2-13.8,10.6-14.7"/>
<path class="st5" d="M383.8,55.6c0,0-12.1,8.8-23.4,33.2c-11.3,24.4-17.4,22.4-8.1,22.4s15.9-18.6,19.9-21.4s6.6-1.8,6.6-1.8"/>
<path class="st5" d="M380.9,100.8c0,0-15.9,24.6-29.1,30.7c-13.2,6.1-17.8,11.3-14.8,5.9s10-24,14.1-26.1"/>
<path class="st5" d="M354.6,42.2c0,0-2.1,17.3-7.8,21.1c-5.7,3.8,3.3,2.1,6.4,0.5c3.1-1.6,19.6-13.7,24-22.7"/>
<path class="st5" d="M349.5,111.3c0,0-7.9,7.5-5.5-0.5s0.6-22.1,6.5-25.3"/>
<path class="st5" d="M356.6,61.7c0,0-1.3,24.1-17.6,35.5s-23.8,17.8-42.4,13.1c0,0-2.1-3-9.4,6.8c-7.3,9.8-9.3,9.5-3.7-14.6
	c5.7-24,18-29.8,32.5-35.9s24.5-24.9,24.5-24.9"/>
<path class="st5" d="M341.5,41.2"/>
<path class="st5" d="M345.5,99.9c0,0-13.6,4.9-10.5,15.9c3.1,11,6.3,12.6,4.1,17.1"/>
<path class="st5" d="M288,41.7c0,0-20.9,68.6-7.4,50.1c13.5-18.5,22-22.4,29.3-22.5"/>
<path class="st5" d="M280.3,121.6c0,0-10.7,9.7-11.4,6.9c-0.7-2.8,1.2-29.3,7.5-34.4"/>
<path class="st5" d="M286.2,41.7c0,0-14.8,51.3-19.3,44.3c-4.6-7,3-43.9,3-43.9"/>
<path class="st5" d="M271.8,103.3c0,0-9,13.5-21.5,13.7c-12.5,0.2-7.5-2.4-2.3-7.4s7.7-23.5,18.3-25.1"/>
<path class="st5" d="M266.5,62.7c0,0-15.3,2.1-17.5,16.4s-4.1,21.3-13.5,25.5c-9.4,4.2-9.3,5.9-1.8,4.5c7.5-1.4,17.6-6,19.2-8.3"/>
<path class="st5" d="M247.9,41.7c0,0-25.5,30-19.7,39.7c0,0,13,5.1,23.6-9.7"/>
<path class="st5" d="M214.1,104.3c0,0-1.1,40.1,3.1,36.6s-0.6-6.3,10.1-16.3c10.7-10,13.4-17.5,13.4-17.5"/>
<path class="st5" d="M251.7,117c0,0,8.3,46.4-1.3,42.7c-9.6-3.7-30.5-25.1-27.8-30"/>
<path class="st5" d="M215.4,138.8c0,0-15.5,24.5,2.5,46.1c14.6,17.6,9.3-11.6,12.6-28.3c0.8-3.9,2-7.1,4.1-8.9"/>
<path class="st5" d="M225.2,190.3c-4.2,16.3,16.7,29,16.7,29s5.8,3.3,7.3,6.7s7.2-44.2-18.7-69.4"/>
<path class="st5" d="M222.2,189.3c0,0-17.8,23.1-8.7,52.7c9,29.7,5.3-1.2,13.2-13.2s4.6-18.6,4.6-18.6"/>
<path class="st5" d="M235.6,58.4c0,0-12.4-4-21.6,19.5c-9.1,23.5-32.2,25-32,28.1s54.7,4.8,54.4-23.9"/>
<path class="st5" d="M214.6,133.5c0,0-19,19.6-24.6,29.8s-7.5,10.4-6.3-1c0.9-8.8,0.3-36.7,7.4-49c2.1-3.7,4.9-6,8.7-6"/>
<path class="st5" d="M189.4,164.3c4.4,10.6,0.2,16.9-7.8,35.2s-8.8,19.3-9.6,1.4c-0.8-17.8,7-27.7,8.1-29.7c0,0,3.4-3.6,3.7-10.5"/>
<path class="st5" d="M172.7,211.3c0,0-8.2,5.7-7,14.5c0,0,7.8-3.4,7.8,13.3s23.3,14.1,20,11.5s-6.4-4.7-8.4-17.2s-3.6-26.4-8.6-23"
	/>
<path class="st5" d="M190.5,114c0,0-15.8-2.3-28.4,21.7c-12.7,24-21.3,19.6-20.8,23.8s20.3,3.1,20.3,3.1"/>
<path class="st5" d="M184.3,149.9c0,0-14.7,13.7-22.8,30.7c-0.6,1.2-18.3,3.8-10.1-1.9c8.2-5.7,9.4-12.8,9.4-12.8
	c3.6-22.9,24.3-27.8,24.3-27.8"/>
<path class="st5" d="M172.2,192.7c0,0-11.2,8.1-16.4,29.2s-4.3-24.4,5.7-41.4"/>
<path class="st5" d="M152.7,219.3c-21.1,34.6,23.9,69.1,23.9,69.1c-2.5-1.6-13.6-25.3-12.7-48.8c1-23.6-4.9-24.1-4.9-24.1h-1.4"/>
<path class="st5" d="M176.6,288.4c0,0,26,15.4,39.9-12.4c0,0-17.5,14.9-29.3,1.4c0,0-10.7-14.9-21.7-18.9"/>
<path class="st5" d="M155.2,264.5c0,0-4,0.5-4.6,15.2s-4,22.5-8.9,22.6c-5,0,6.4,5.6,13.9-5.5s9.5-17.6,9.1-19.6"/>
<path class="st5" d="M155.9,181.9c0,0-7,6.3-7.8,13.9s0.9,31.6,0.9,31.6"/>
<path class="st5" d="M246,41.7c0,0-18.6,12.8-28,9.7c0,0,5.5-2.4,5.5-9.7"/>
<path class="st5" d="M198.9,41.7c0,0-20.2,23.1-36.2,23.2c-9.7,0,6.1,2.5,24.5,0c11.9-1.6,24.8-5.3,32.8-13.1"/>
<path class="st5" d="M188.9,64.6c-6.5,19.2-19.5,22.2-53.7,23.4c-34.2,1.2-30,3.3-12.8-10.3c17.2-13.6,61.7-28.8,61.7-28.8
	s8.2-3.3,11.8-3.9"/>
<path class="st5" d="M121,121.5c-5.3,15,6.9,31.3,7.3,26s4.4-7.8,4.4-7.8s21.8-13.5,19.4-52.7"/>
<path class="st5" d="M131.4,88.1c0,0,5.3,19.4-9.2,32.9s-2.3,23.1-5.6,25.3c-3.3,2.2-23.5-26-14.9-49.9"/>
<path class="st5" d="M111.5,88.8c0,0-20.2,14.5-23.2,20.6c-3,6,1.4-21.9,3.6-24.7c0,0,1.8-5.3,4.6-6.4"/>
<path class="st5" d="M141.5,66.4c0,0-31.3-6.1-38.1-5.9s41.8-32.5,61.2-4.2"/>
<path class="st5" d="M107.3,41.3c0,0-30.4,29.9-33.2,44.1s32.3-16.6,48.8-22.4"/>
<path class="st5" d="M74,87.1c0,0-15.8,0.8-18.8,25.8s-6.7,25.2-6.7,25.2s39-13.8,38-53.3"/>
<path class="st5" d="M48.4,138c-9.7,4.2-12.5,13.8-12.5,13.8s1.9-33.1,19.3-39.7"/>
<path class="st5" d="M64.9,128.6c0,0-8.9,30.3,5,40.4c0,0-0.7-10.8,4.8-27.4s2.8-26.3,2.8-26.3"/>
<path class="st5" d="M54.7,135.2c0,0,1.5,16.4-9.9,30.2c-11.3,13.8-5.2,18-5.2,18s-11.3-6.3-1.5-36.3"/>
<path class="st5" d="M70.2,163.8c0,0,7.7,26.6,23.9,26.2c0,0-39.5,8.9-43.8-33.4"/>
<path class="st5" d="M45.6,164.4c0,0-7.3,16.5,6.2,30.1c0,0,5.8,4.1,2.9-15c0,0-1.5-6.9-1.2-9"/>
<path class="st5" d="M47.2,41.3c0,0-5.9,27.6-1.8,40.2c0,0,1.9,4.7,3.1-10.8s30.1-29.3,30.1-29.3s1.5,22.7-5.9,27.9
	S60.4,81,75.9,80.5"/>
<path class="st5" d="M21.9,40.6c0,0,6.7,25.6,22,30.1"/>
<path class="st5" d="M44.7,78.9c0,0-7.1,9.9-19.7,13.9s21.4,5.5,40.6-15.4"/>
<path class="st5" d="M591,89.2c0,0-26.5-2.4-41.8,37.7c0,0-12.2,12.9,7.4,12.3s27.8-7.9,26.3-17.5"/>
<path class="st5" d="M1189.3,64.9c0,0-22.1-11-38,13.8s-18.8,20-6.3,18.8s24.7-3.8,29.2-8.5"/>
<path class="st5" d="M1162.5,45.6c-1.8,36.5-44,34.9-44,34.9s-11.5,3.2,0-11.1s39.4-22.1,40.5-29.7
	C1159.1,39.6,1160.5,42.1,1162.5,45.6c2.6,4.7,6.1,11.3,8.5,16.8"/>
<path class="st5" d="M1123.8,40.9c0,0-13.3,17.9-10.4,20.4s17.7-2.6,17.7-2.6"/>
<path class="st5" d="M1141.4,76.1c0,0-12.8,17.4-10.2,19.5s11.1-3.9,11.1-3.9"/>
<path class="st7" d="M1147.1,73.1c0,0,7.2-3.6,5.9,3"/>
<path class="st5" d="M1114.6,80.5c0,0-16,15.7-20.8,28.8c-4.8,13.2,18.8,0.5,26-4c3.1-1.9,5.6-3.9,7.4-5.7c2.6-2.3,3.9-4.1,3.9-4.1"
	/>
<path class="st5" d="M1150.2,96.8c0,0-2.2,5.9-7,11.5c-3.6,4.2-8.6,8.2-15.3,9.3c-15.5,2.6-5.5-5.6-3.1-11.8s2.4-6.2,2.4-6.2"/>
<path class="st5" d="M1159.9,121.6c0,0-3.5,27.8-23.5,29.5c-19.9,1.7-6.8-6.3-6.8-6.3s7.5-4.3,7.7-16.5c0.2-12.3,5.9-20.1,5.9-20.1
	s17.3,8.4,21.4-14.4"/>
<path class="st5" d="M1137.2,128.4c-25.9-13.9-51.7,32.5-51.7,32.5s-9.1,4.7,9.6-1.4c2.1-0.7,4.1-1.3,6-2
	c15.2-5.2,24.7-9.4,24.7-9.4"/>
<path class="st5" d="M1124.8,105.9c0,0-20.5,2.4-26.6,26.5c0,0-2.6,7.6,5.1,2s11.3-5.1,11.3-5.1"/>
<path class="st5" d="M1130.1,117.1c0,0-2.3,4.2-2.3,8.6"/>
<path class="st5" d="M1093.8,109.3c0,0-9,5.2-13,15c-3,7.4-5.5,13.4-3,14.3c0.8,0.3,2.2,0,4.3-1c8.4-4.1,14.2-8.6,17.1-8.7"/>
<path class="st5" d="M1111.3,83.9c0,0-17.1-1-22.4,11.7c-0.4,0.9-0.7,1.9-0.9,2.9c-3.7,15.8,6.9,1.1,12.5-1.3"/>
<path class="st5" d="M1088.9,95.7c-23.8-1.7-24.5,21-24.5,21s-3.1,20.3,1.5,23.6"/>
<path class="st5" d="M1115.1,74.1c0,0-21.3-8.5-46.9,11.4s-5.7,13.6,7.5,11.9"/>
<path class="st5" d="M1104,40.9c0,0-16.5,5.3-25.9,29.3c0,0-4.4,10.1,3.6,7.1"/>
<path class="st5" d="M1101.9,72.3c0,0,9.3-2.9,11.5-11"/>
<path class="st5" d="M1089.4,51.5c2.3-4.7-1.5-10.1-1.5-10.1s-3.2-7.7-14,0.9s-8.1-1.8-12.4,10.8c-2.5,7.3,3,13.3,8.3,16.2
	c3.8,2.1,7.6,2.6,8.3,0.9"/>
<path class="st5" d="M1217.4,124.7c0,0-11.4,16.9-10.8,48.8s10.9-18.8,23.5-25.8"/>
<path class="st5" d="M1249.7,126.5c4.9,20.4-4.5,47-9,38.8s-8-13.3-8-13.3c-21.1-18.3-6.5-56.3-6.5-56.3s11.9,4.4,19,19"/>
<path class="st5" d="M1252.4,89.7c0,0-9.4,43.1-17.8,45c0,0,45.3-14.4,40.3-45"/>
<path class="st5" d="M1286.4,42c0,0-10.5,11.8-12.3,27s-10.3,21-4.8,21c4.6,0,20.1-11.3,27.1-27.5c1.4-3.3,2.5-6.8,3.1-10.5
	c0,0,1-5.1,0-8.3c0,0,12.5-2,17.5,13.8"/>
<path class="st5" d="M1296.6,62.6c-2.6,7.7,1.6,33.5,1.6,33.5s2.9,4.4-5.5,11.3s10.6,6.4,21-11.3c0,0,5.1-6.4,5.3-16.3"/>
<path class="st5" d="M1339.7,43.8c0,0-18.4-1-30.3,28.5c0,0-10.8,7.8-3.8,7.5s30.1-5.3,37-21.3"/>
<path class="st5" d="M1344.4,43.8c0,0-0.4,13.6-1.8,17c-0.9,2.1,2.4,0.8,5.9-1.5c2-1.3,4-2.9,5.3-4.2c3.6-3.8,9.8-9.8,9.8-11.3"/>
<path class="st5" d="M1348.6,59.3c-5.3,4.2-17.4,29-17.4,29s1.8,2.2,5.5,2.8c3.6,0.6,9.1-0.4,16.5-6.8
	c14.7-12.9,16.3-37.5,16.3-37.5"/>
<path class="st5" d="M1315.6,92.9c0,0-1.7,12.4-5.7,14.6c-4,2.2,14.8,10.5,29.8-16.3"/>
<path class="st5" d="M1345.5,89.5c0,0-2.5,21.4-5.8,25.8s-3.1,12.4,10.6,1.8c0,0,25.4-28.8,18.3-64.2c0,0-0.1,41,29.1,37.2
	c0,0,13.5-1.5,0-10.2s-19.8-36-19.8-36"/>
<path class="st5" d="M1279.9,51.4c0,0-12.2-6.6-20.7,19.6c0,0-1.9,10-13.5,13.5s-6.1,5.8,3,5.3s18.9-9.8,22.1-8.4"/>
<path class="st5" d="M1265,58.3c0,0-11.8-12.8-28.9,10.4c-17.1,23.3-33.7,21.6-26.2,25s26.8,1.4,31.3-3.9"/>
<path class="st5" d="M1221.2,115.2c-11.9,15.4-5.2,27.8-16.3-1.3s6.8-52.5,6.8-52.5s8.6,6.5,12.8,19.9"/>
<path class="st5" d="M1195.4,89.7c0,0-18.9,58.2-12,60.4s5.5-6.4,17.9-13.5s8.4-10.2,8.4-10.2"/>
<path class="st5" d="M1175.9,40.5c0,0,16,29.4,41.5,19.8c0,0,8.5-4.6,2-18.5"/>
<path class="st5" d="M1255,43.5c0,0-14,26.6-24.8,26.7s3.9-11.1-3.3-28.5"/>
<path class="st5" d="M1188.7,77c0,0-14,10.8-23.5,25.5c-8.6,13.4-16.2,12.4-2.5,13c1.4,0.1,3,0.1,4.8,0.2
	c20,1.2,21.3-13.3,21.3-13.3"/>
<path class="st5" d="M1162.6,115.5c-5.9,15.3-0.3,29.7,0.5,34.7c0,0,0.2,21.7,8.7,1.8s10.5-22.1,8.2-38.2"/>
<path class="st7" d="M1190.2,65.7c0,0-22.1-11-38,13.8s-18.8,20-6.3,18.8s24.7-3.8,29.2-8.5"/>
<path class="st7" d="M1163.4,46.5c-1.8,36.5-44,34.9-44,34.9s-11.5,3.2,0-11.1s39.4-22.1,40.5-29.7
	C1160,40.5,1161.4,42.9,1163.4,46.5c2.6,4.7,6.1,11.3,8.5,16.8"/>
<path class="st7" d="M1124.7,41.7c0,0-13.3,17.9-10.4,20.4c3,2.6,17.7-2.6,17.7-2.6"/>
<path class="st7" d="M1142.3,77c0,0-12.8,17.4-10.2,19.5c2.5,2.1,11.1-3.9,11.1-3.9"/>
<path class="st7" d="M1148,74c0,0,7.2-3.6,5.9,3"/>
<path class="st7" d="M1115.5,81.4c0,0-16,15.7-20.8,28.8c-4.8,13.2,18.8,0.5,26-4c3.1-1.9,5.6-3.9,7.4-5.7c2.6-2.3,3.9-4.1,3.9-4.1"
	/>
<path class="st7" d="M1151,97.6c0,0-2.2,5.9-7,11.5c-3.6,4.2-8.6,8.2-15.3,9.3c-15.5,2.6-5.5-5.6-3.1-11.8s2.4-6.2,2.4-6.2"/>
<path class="st7" d="M1160.8,122.5c0,0-3.5,27.8-23.5,29.5c-19.9,1.7-6.8-6.3-6.8-6.3s7.5-4.3,7.7-16.5s5.9-20.1,5.9-20.1
	s17.3,8.4,21.4-14.4"/>
<path class="st7" d="M1138.1,129.2c-25.9-13.9-51.7,32.5-51.7,32.5s-9.1,4.7,9.6-1.4c2.1-0.7,4.1-1.3,6-2
	c15.2-5.2,24.7-9.4,24.7-9.4"/>
<path class="st7" d="M1125.7,106.7c0,0-20.5,2.4-26.6,26.5c0,0-2.6,7.6,5.1,2s11.3-5.1,11.3-5.1"/>
<path class="st7" d="M1131,118c0,0-2.3,4.2-2.3,8.6"/>
<path class="st7" d="M1094.7,110.2c0,0-9,5.2-13,15c-3,7.4-5.5,13.4-3,14.3c0.8,0.3,2.2,0,4.3-1c8.4-4.1,14.2-8.6,17.1-8.7"/>
<path class="st7" d="M1112.2,84.8c0,0-17.1-1-22.4,11.7c-0.4,0.9-0.7,1.9-0.9,2.9c-3.7,15.8,6.9,1.1,12.5-1.3"/>
<path class="st7" d="M1089.8,96.5c-23.8-1.7-24.5,21-24.5,21s-3.1,20.3,1.5,23.6"/>
<path class="st7" d="M1116,75c0,0-21.3-8.5-46.9,11.4s-5.7,13.6,7.5,11.9"/>
<path class="st7" d="M1104.9,41.7c0,0-16.5,5.3-25.9,29.3c0,0-4.4,10.1,3.6,7.1"/>
<path class="st7" d="M1102.8,73.2c0,0,9.3-2.9,11.5-11"/>
<path class="st7" d="M1090.3,52.3c2.3-4.7-1.5-10.1-1.5-10.1s-3.2-7.7-14,0.9s-8.1-1.8-12.4,10.8c-2.5,7.3,3,13.3,8.3,16.2
	c3.8,2.1,7.6,2.6,8.3,0.9"/>
<path class="st5" d="M1344.2,89.2c0,0-2.5,21.4-5.8,25.8s-3.1,12.4,10.6,1.8c0,0,25.4-28.8,18.3-64.2c0,0-0.1,41,29.1,37.2
	c0,0,13.5-1.5,0-10.2s-19.8-36-19.8-36"/>
<path class="st5" d="M1343.8,89.1c0,0-2.5,21.4-5.8,25.8s-3.1,12.4,10.6,1.8c0,0,25.4-28.8,18.3-64.2c0,0-0.1,41,29.1,37.2
	c0,0,13.5-1.5,0-10.2s-19.8-36-19.8-36"/>
<path class="st6" d="M1369,105.9c0,0,5.4,7.8,12.2-2.5c1.7-2.6,2.2-5.2,2.1-7.6c-0.4-7.3-7-13.4-7-13.4"/>
<path class="st5" d="M1383.2,95.8c6.1,2.8,11.9,19.6,11.9,19.6s2.8,5.9,2,10.8c-0.8,4.9,8.3,1.1,14-13c5.8-14.1,3.5-31.8-7-37.5
	s-19.8-10.4-20.9-12.7"/>
<path class="st5" d="M1378.8,52.2c0,0,34.2-7.8,43.8,3.7s20.8,19.8,23.5,20.5s6.6,9.5-36.2,4.7"/>
<path class="st5" d="M1377.3,107.6c0,0-3.9,32.5-8.7,36.6s10.8,3.8,19.6-9.8c8.7-13.6,7-19,7-19"/>
<path class="st5" d="M1423.9,82.4c0,0-12,29.5,7,45.8s-11.3-8.9,5.2-45.8"/>
<path class="st5" d="M1409.5,116.8c0,0,6.8,5.7,3.8,12.8c-1.2,2.7-3.8,5.7-8.9,8.6c-18.1,10.4-19,11.3-16.3-3.8"/>
<path class="st5" d="M1431.7,134.4c0,0-14.6,7.9-18.4-4.8"/>
<path class="st5" d="M1391.5,145.1c0,0-5.6,10.8-8.3,13.3c-2.7,2.5,5.8,2.5,12.1-2.5c6.2-5,7.6-15.3,6.6-16.3"/>
<path class="st5" d="M1432.7,136.8c0,0-10.8,13.7-11.3,28.1c-0.1,3.4-22.1,11.3-28.9,6s8.8-0.6,14.2-16.9s12.5-17.7,12.5-17.7"/>
<path class="st5" d="M1432.7,185.8c0,0-19.1,16.3-19.4,9.9c-0.3-6.4,7.1-9.5,8.1-30.8"/>
<path class="st5" d="M1400.9,172.6c0,0-0.7,9.8-6.9,11.9s9.7,4.3,12.8,1.4s12.2-8,12.8-8"/>
<path class="st5" d="M1386.2,160c0,0,1.1,12-4.7,17.7c-5.7,5.7-5.2,6.4,2.4,5.3c7.6-1.1,12.5-10.6,12.5-10.6"/>
<path class="st5" d="M1401.9,187.3c0,0-4.4,10.7-23.1,13.4c0,0-6.9,3.6,2.7-6.1c9.6-9.8,8.8-14.6,8.8-14.6"/>
<path class="st5" d="M1414.9,197.1c0,0-11.9,7.5-9.5,31.4s8.4,0.6,18.5-5.9s10.8-18.8,10.8-18.8"/>
<path class="st7" d="M1432.7,231.9c0,0-7.2,7.9-7.1,3.3s1.1-14.6,1.1-14.6"/>
<path class="st5" d="M1399.7,190.6c0,0,2.6,5.7-4.4,10s-1.2,8.2,4.9,9.6c6.1,1.4,6.4,0.4,6.4,0.4"/>
<path class="st5" d="M1405.1,224.4c0,0-19.7,2.1-15.1-1.9s8.6-12.7,8.6-12.7"/>
<path class="st5" d="M1406.6,235.1c0,0-16.9,18.1-15.8,10.5s2.3-0.8,6-20.7"/>
<path class="st5" d="M1390.7,224.6c0,0,0.2,7.8-3.2,9.6s2.8,3.4,7,1"/>
<path class="st8" d="M532.3,750.7c0,0,7.2,9.5,17.6,12c10.4,2.5,14.8,0,14.8,0c25.3-12.7,16.5-25.2,9-24s-11-2.3-11.3-5.7
	c-0.3-3.3,3.7-11,3.7-11c-8.7-4.7-5.5-12.3-1.3-21.3s9.3-20.3,0-15.3s-35.3,8.7-38.3,0s-8-16-8-16s10.7-1.5,19.7,9.7
	c0,0-4.1-11.5-15.9-15.7c0,0,10.9-6.3,23.2,0c0,0-28.3-32.3-51,4.3c0,0-0.8-20.2,14.3-20.3c0,0-14.5-6.2-22.3,25
	c0,0-12.5-3.8-19,8.3c0,0-37.3,18.8-24.3,62.7c0,0-3.3,16.5,6.3,22c0,0-2.2-9.5-1.7-15.3c0,0,12.8,24.8,46.7,19c0,0,8,14,8.7,17.7
	s-8.7,22.7-8.7,22.7s11.3,9.8,21.3-7.7c0,0,11.7,7.2,17.3,9c0,0-1.6-24,16.9-48"/>
<path class="st8" d="M531.3,702.4c0,0,6.7-0.2,6.7,8C538,710.4,533.8,708.2,531.3,702.4z"/>
<path class="st8" d="M522.8,677c-3.6-8.3-10.4-7.3-10.4-7.3c2.8,5.5,0,7.3,0,7.3c-5.2-8.7-11.3-4.3-11.3-4.3s17.2,9.8,7.7,41
	c0,0,5.9-27.5-10-34.7c0,0,9.5,23.8,2.3,49c0,0-17-12.8-11.7,18c0,0,4,15.5,29,6.7c0,0,2.2,3.5-12.8,6.7c0,0-1.5,7.8,2.8,10.7
	c0,0,1.3,2.7-14-1"/>
<path class="st8" d="M533,810.7c0,0,8.8,0.7,12,5.7s13.5,60.2,12.7,74c0,0-17.4-7.7-46.8,1.7c0,0-4-55.8,4.8-66"/>
<path class="st8" d="M510.9,892c0,0,6.6,1.3,9.1,1.7"/>
<path class="st8" d="M520,889.6v61.1c0,0,0.7,19.7,19,47.3c0,0-6.3,4.7-14.7-2.7c-8.3-7.3-6.8-3.2-18.8-4.7s-13.2-16-13.2-16
	c-24.3-72.3,2-165.3,2-165.3"/>
<path class="st8" d="M537.3,1095.7c4.8,0.6,7.7,0.8,9.9,0.3c3.7-0.9,5.3-3.6,10.5-9.3c8.2-9,3.3-25.7,3.3-25.7s-0.7-39.2,2.3-55.7
	c0.1-0.7-0.1-5.5-0.6-12.4c-1.5-21.6-5-63.6-5-63.6s-0.8-14.4-1.5-25.9c-0.1-1.3-0.1-2.5-0.2-3.7c-0.3-5.2-0.5-9.2-0.5-10.1"/>
<path class="st8" d="M539,998c6,14.7,7.3,25.2,6,50.7s6,26,6,26s-4.3,7.7-3.3,12.7c0,0-10.3-0.3-10.3,4s0,4.3,0,4.3"/>
<path class="st8" d="M562.7,993c24.2-0.2,6.9-45,6.9-45s-6.1-36.7-13.6-48.3"/>
<path class="st8" d="M489.1,963.9c0,0-6.6,61.3,19.6,70.1c8.2,2.8,12.9,10.6,15.1,21.1c5,23-1.7,58.8-8.5,81.3
	c-9.8,32.7-12.5,70.3,6.3,66.7"/>
<path class="st8" d="M523.8,1055.1c10.4,18.7,4.9,49.9,4.9,49.9s0.1,25-4.9,41.3s-10.8,76.3,9.9,70.3s34.2-15.7,34.7-45.7
	c0,0-5.1,0.7-2.5-17.7c2.6-18.3,14.6-72.2,9.8-98.3S572,989,572,989"/>
<path class="st8" d="M529.3,1217c0,0-4.8,32.2-6.3,48.1c-0.4,4-7,0.7-7,0.7c-21.6,7.2-12.4-14-12.4-14
	c16.3-29.5,11.8-49.2,11.8-49.2"/>
<path class="st8" d="M545.5,1212.4c0,0-1.8,33.7-1.3,38.7s3.5,24,50.8,25c0,0,25.7-0.5,0,11.3c0,0-5.7,6.7-18.2,2.7
	s-28.9,0.7-28.9,0.7s-26.8,11.9-25.6-9.7c1.2-21.5,1.7-25,1.7-25"/>
<path class="st8" d="M544.3,1237.4c0,0,17.7,7,24,11.3s32.8-1.2,33.7,1.3s0.8,6.2-11.7,11s-24.7-3.4-41.4,1.1"/>
<path class="st8" d="M561.8,1078.3c0,0,2.2,16.5-2.5,20s-15,6.8-15.2,2.3s3.1-4.7,3.1-4.7"/>
<path class="st9" d="M476,737.4"/>
<path class="st9" d="M606.4,1251.4c0,0,0.8-17.5-2.4-28.3c0,0,7.3,17.5,7.7,25"/>
<path class="st9" d="M620,1230.2c1.7-10.3-5.3-15.5-5.3-15.5s7.9,1.4,10.5,8.3"/>
<path class="st9" d="M614.7,1260.7l4.7-7.5c2.8-24.9,25.3-42.5,25.3-42.5c-10.9,2-18.9,10.3-24.7,19.5
	c-8.8,14.1-12.2,30.5-12.2,30.5"/>
<line class="st9" x1="619.9" y1="1265.4" x2="619.3" y2="1253.2"/>
<path class="st9" d="M626.3,1262.6c0,0,2.8-6.6,2.3-21.3c-0.1-3.3-0.4-7-0.9-11.1"/>
<path class="st9" d="M628.5,1241.3c9-16.7,25.8-13.6,25.8-13.6s-15.7,3-26.9,30.6"/>
<path class="st9" d="M637.3,1273.7c0,0,3.2-22,2.7-36.3"/>
<path class="st9" d="M638.7,1230.2c0,0,0.8-3-3.7-7.8c0,0,6.8,4,7.5,6.5"/>
<path class="st9" d="M644.7,1233c0,0,3.8,20.7,0,34.2"/>
<path class="st9" d="M628.6,1277c0,0,1.1-15.8,11.2-27"/>
<path class="st9" d="M646.4,1242.9c0,0,21.3-15.1,36.6-9.9c0,0-19.8-2.1-36.6,22.6"/>
<path class="st9" d="M653,1267.2c0,0-1.5-8.9,1.3-21.3"/>
<path class="st9" d="M656.2,1237.2c0,0,3.6-17,12.8-20.1c0,0-3.6,4.2-6.4,17.4"/>
<path class="st9" d="M661.2,1240.2c0,0-3.8,17,0,25.2"/>
<path class="st9" d="M685.7,1273.7c0,0,1.6-27.6-5.3-33.5c0,0,11.7,1,12.3,31.5"/>
<path class="st9" d="M674.3,1270c0,0,6.9-15.4,10.5-18.7"/>
<path class="st9" d="M688.4,1248.1c0,0,8.4-12.4,26.9-10.8c0,0-20.8,7.5-24.2,19.6"/>
<path class="st9" d="M685.8,1263.5c0,0-3,7.7-2.8,13.5"/>
<path class="st9" d="M671.3,1267.2c0,0,5.6-23.5-5.3-30c0,0,13.3,2.2,12.8,23.5"/>
<path class="st9" d="M659.7,1250.1c0,0,0.5-2.1,6.3-3"/>
<path class="st9" d="M455.7,1286.7c0,0-0.1-18.7,10.7-27.2c2.5-2,5.6-3.4,9.3-3.9c0,0-14.8,7.2-11.7,33.2"/>
<path class="st9" d="M466.3,1259.5c1.7-12.4-5.3-19.3-5.3-19.3s8.7,4.5,9.6,16.8"/>
<path class="st9" d="M466.9,1265.4c0,0,0,9.6-3.2,20.4"/>
<path class="st9" d="M470.9,1259.5c0,0,1.6,13.6-0.3,24.6"/>
<path class="st9" d="M497,1273.7c0,0-8.8-26.2,2.1-38.9c0,0-16.3,8.5-10.9,47.9"/>
<path class="st9" d="M459.7,1268.2c0,0-3.6-11.7-12.3-11.1c0,0,8.5-5.2,16.3,4.9"/>
<path class="st9" d="M471.5,1265.4c0,0,2.2-13.7,11.9-17.2c0,0-11.9,11.9-4.8,33.9"/>
<path class="st9" d="M997.3,1313.9c0,0,2.5-60.8,13.8-67.9c0,0-7,52-1.8,67.9"/>
<path class="st9" d="M1000.2,1281.2c-4.4-10-17-14-17-14s12.4-2.7,18.7,2.9"/>
<path class="st9" d="M1008.3,1273.9c0,0,5.9,2.9,9.4,20c1.1,5.2,1.9,11.8,2.3,20"/>
<path class="st8" d="M1030.5,1292c0,0-6.5,3.6-12.8,1.9"/>
<path class="st9" d="M1029.5,1302.5c0,0,3.4-64.3,29.8-78.2c0,0-23.9,26.3-18,85.3"/>
<path class="st9" d="M1050.8,1302.4c0,0-2.1-30.5-7-43.4"/>
<path class="st9" d="M1039,1253c0,0-11.4-14.8-30-15.7c0,0,13-5.8,33.6,7"/>
<path class="st9" d="M1047.1,1247.7c0,0,19.3,12.9,14.1,52.7"/>
<path class="st8" d="M1040.4,1289.2c0,0,6,0.6,9-1.5"/>
<path class="st10" d="M1062.1,1281.2c0,0,50.4-23.8,69.4-9s36.8,12.8,36.8,12.8"/>
<path class="st9" d="M1166.3,1300.4c0,0,9-64.3,4.2-89c0,0,13.6,15.7,13.8,38.7"/>
<path class="st9" d="M1175.3,1298.7c0,0,5.8-79.6,38-83.2c0,0-21.3,10.9-25.7,71.2c-0.5,7-0.8,14.6-0.8,23"/>
<path class="st11" d="M1195.8,1287.7c0,0-4.4,0.6-8.2-1"/>
<path class="st9" d="M1195.8,1297c0,0-2.6-17.6,9-23c0,0-4.9,3.4-5.6,12.9c-0.2,3.2,0,7,1,11.6"/>
<path class="st11" d="M1214.5,1292c0,0-4-0.4-9.7-2.8c-5.6-2.4-5.6-2.4-5.6-2.4"/>
<path class="st9" d="M1213.3,1298.5c0,0,11.3-80.3,42-89c0,0-21.9,15.4-30.2,83.1c-0.8,6.6-1.5,13.6-2,21.2"/>
<path class="st11" d="M1239.2,1297.7c0,0-8-5.5-14-5"/>
<path class="st9" d="M1237.7,1316.9c0,0-5.3-58.3,51-70c0,0-30.9,6.6-37.8,55.7c-0.9,6.5-1.4,13.8-1.3,21.8"/>
<g>
	<path d="M1251.1,1302.5c0.1,0.3,0.5,0.6,0.9,0.7c0.4,0.2,0.8,0.3,1.2,0.4c0.9,0.2,1.7,0.2,2.6,0.2s1.8-0.1,2.7-0.2
		c0.9-0.1,1.9-0.1,2.8,0c1.9,0.2,3.7,0.6,5.5,1.3c1.8,0.6,3.5,1.4,5.1,2.4l-0.2-0.1c3.3,1,6.8,2,10.2,2.8c3.4,0.8,6.9,1.5,10.2,1.7
		c0.8,0,1.6,0,2.4,0c0.7-0.1,1.5-0.2,1.9-0.5c0.2-0.1,0.3-0.2,0.3-0.2s0-0.1,0-0.2c0-0.3-0.2-1-0.6-1.6c-1.5-2.8-3.9-5.2-6.4-7.5
		c-5.2-4.4-11-8.7-16.1-13.9c-5.1-5.1-9.5-11.2-12.2-17.9l0.4-0.3c4.6,5.5,9.4,10.4,14.9,14.8c5.3,4.5,11.1,8.5,16.3,13.8
		c2.6,2.6,5.1,5.6,6.8,9.1c0.4,1,0.9,2,0.8,3.5c0,0.7-0.2,1.6-0.7,2.3c-0.5,0.7-1.2,1.2-1.7,1.4c-1.2,0.6-2.3,0.6-3.3,0.7
		c-1,0-2,0-2.9-0.1c-3.7-0.4-7.2-1.3-10.7-2.4c-3.4-1-6.8-2.2-10.2-3.5l-0.2-0.1l-0.1-0.1c-1.4-1-2.9-1.9-4.5-2.6s-3.3-1.2-5-1.5
		c-0.9-0.2-1.7-0.2-2.6-0.2s-1.8,0-2.8,0c-0.9-0.1-1.9-0.2-2.8-0.5c-0.5-0.1-0.9-0.3-1.3-0.6c-0.4-0.3-0.8-0.5-1.1-1.1
		L1251.1,1302.5z"/>
</g>
<path class="st9" d="M1244.5,1280.4c0,0,6.4-20.8-1.6-44c0,0,6.8,2.7,12.5,28"/>
<g>
	<path d="M1247.2,1219.2c7.7,6.2,15.3,12.3,23.2,18.1c3.9,2.9,7.9,5.8,12,8.3c0.5,0.3,1,0.6,1.5,0.9s1,0.6,1.6,0.8
		c1.1,0.6,2.2,1.1,3.3,1.7c2.2,1.2,4.4,2.5,6.5,3.8c2.1,1.4,4.2,2.8,6.2,4.4s3.9,3.3,5.7,5.6c0.4,0.6,0.9,1.2,1.2,2.4
		c0,0.2,0.1,0.4,0.1,0.6v0.3c0,0.1,0,0.3,0,0.4c0,0.3,0,0.5-0.2,1c-0.2,0.4-0.4,0.7-0.7,1c-0.1,0.1-0.3,0.3-0.5,0.4
		c-0.1,0.1-0.2,0.1-0.3,0.2l-0.2,0.1c-0.3,0.1-0.6,0.2-0.9,0.3c-0.4,0-0.9,0.1-1.1,0c-0.6-0.1-1-0.2-1.4-0.3l-0.6-0.2
		c-0.2-0.1-0.2-0.1-0.4-0.1c-0.5-0.1-0.9-0.3-1.4-0.3c-2.2-0.4-4.6-0.6-7-0.9c-9.6-0.9-19.5-1.3-29.3-2.5v-0.5
		c4.9-0.9,9.8-1.4,14.7-1.7c4.9-0.3,9.9-0.5,14.9-0.3c2.5,0.1,5,0.2,7.7,0.8c0.6,0.1,1.4,0.3,2.1,0.6l0.5,0.2l0.3,0.1
		c0.2,0.1,0.3,0.1,0.3,0.1c0.1,0-0.1,0-0.2,0s-0.3,0.1-0.4,0.1l-0.3,0.2c-0.1,0.1-0.2,0.2-0.3,0.3c-0.2,0.2-0.3,0.4-0.4,0.7
		c-0.1,0.3-0.1,0.3-0.1,0.5c0,0.1,0,0.1,0,0.2c0,0,0,0,0,0.1v0.1c0,0-0.2-0.5-0.4-0.9c-1.1-1.7-2.8-3.4-4.5-5s-3.6-3.1-5.5-4.5
		s-3.9-2.7-6-4c-1-0.6-2.1-1.2-3.1-1.8c-0.5-0.3-1.1-0.6-1.6-1c-0.6-0.3-1.1-0.7-1.6-1c-4.2-2.9-8-6-11.8-9.1
		c-7.5-6.4-14.8-13-22-19.7L1247.2,1219.2z"/>
</g>
<g>
	<path d="M1202,1228.8c2.3,0.9,4.6,2,6.9,3s4.5,2.1,6.8,3.3c1.1,0.6,2.3,1.1,3.4,1.6s2.2,1.2,3.2,2s2,1.6,2.9,2.6
		c0.5,0.5,0.9,1,1.3,1.5c0.4,0.6,0.8,1.1,1,1.9l-0.4,0.1c-1.1-0.4-2.4-0.8-3.5-1.2c-1.2-0.4-2.3-0.9-3.4-1.5s-2.2-1.2-3.1-2
		c-1-0.8-2-1.5-3-2.2l-3.1-2.1l-3.1-2.2c-2-1.5-4.1-2.9-6.1-4.4L1202,1228.8z"/>
</g>
<g>
	<path class="st12" d="M1234.3,1247.8c0,0,11.3,9.9,12.5,11.7"/>
	<path d="M1234.5,1247.7c1.3,0.7,2.5,1.5,3.7,2.2c1.2,0.8,2.4,1.6,3.6,2.4c0.6,0.4,1.2,0.8,1.8,1.2c0.6,0.4,1.2,0.9,1.6,1.5
		s0.8,1.2,1.2,1.9c0.3,0.7,0.6,1.5,0.6,2.5l-0.3,0.2c-1.7-0.3-3-0.9-4.2-1.7c-1.2-0.7-1.9-2.1-2.8-3.2s-1.9-2.2-2.8-3.3
		c-0.9-1.2-1.8-2.3-2.7-3.4L1234.5,1247.7z"/>
</g>
<g>
	<path d="M1198.1,1164.6c4.3,4.4,8,9.1,11.5,13.7c3.6,4.6,7,9.3,10.4,14c3.4,4.6,6.8,9.2,10.4,13.6c0.9,1.1,1.9,2.1,2.8,3.2l1.4,1.6
		l1.5,1.5c2,2,4.2,3.8,6.8,5.3h0.1c0.1,0.1,0.2,0.2,0.1,0.3c-0.1,0.1-0.2,0.1-0.3,0.1c-3-0.6-5.7-1.9-8.2-3.5s-4.8-3.6-6.9-5.7
		c-4.3-4.1-8.1-8.7-11.6-13.5s-6.7-9.8-9.8-14.9c-1.5-2.5-3-5.1-4.5-7.7c-1.4-2.6-2.8-5.2-4.1-7.9c-0.1-0.1,0-0.3,0.1-0.3
		C1197.8,1164.4,1197.9,1164.5,1198.1,1164.6L1198.1,1164.6z"/>
</g>
<path class="st9" d="M1220.3,1200.1c0,0,16.2-32.5,41.4-34.9c0,0-30,15.8-34.1,43"/>
<path class="st9" d="M1238.6,1215.5c0,0,3.7-19.1,2-33.3"/>
<path class="st9" d="M1239.8,1175.3c0,0-2.1-8.9-7.6-12.1c0,0,3.5,7.7,2.1,16.6"/>
<path class="st9" d="M1234.3,1191.2c0,0-0.1,13.7-4.2,19.3"/>
<path class="st9" d="M1255.3,1226.5c0,0,18.3-28.2,41.8-37.4c0,0-34.3,29.2-34,43.9"/>
<path class="st9" d="M1275.1,1242.5c0,0,2.2-22,1.1-32.8"/>
<path class="st9" d="M1275.1,1202.7c0,0-1.7-6.1-12-11.5c0,0,5.9,7.8,6,17.6"/>
<path class="st9" d="M1269.2,1218.6c0,0-2,11.4-4.5,15.7"/>
<path class="st9" d="M1275.7,1235.5c0,0,19.3-22.4,37.6-20.5c0,0-23.5,9.3-34.7,30.2"/>
<path class="st9" d="M1292.8,1253.7c0,0,3.8-14.6,1.3-26.8"/>
<path class="st9" d="M1292.3,1221.3c-2.7-7-7-10.8-7-10.8s4.1,8.5,3,13.6"/>
<path class="st9" d="M1288.7,1231.8c0,0,0.4,5.2-5.9,16.1"/>
<path class="st10" d="M1210,1185.6c0,0-4.4-22.1,0-30.4s3.4-24.9,8.5-46.5s22.7-67.6,21.3-80.3c-1.3-12.6,2-27.8,7.7-43.5
	s8.6-97.6,11.8-112.5s12-91.6,25.5-124.8s0.3-59.8,10.8-114.8s23.1-129.1,29.8-147.8s25.6-114.1,23-141.3s3.8-80.3,10.3-98.3
	s5-61.8,6-71.3s12-44,5-82.5c0,0-1.8-8.3-1-12.5"/>
<path class="st10" d="M1188.3,152c0,0-17.9,121-23.3,158.3s-20.8,102.3-24.8,135.5s-15.8,124.9-19,147.3s-17.3,42-26.5,189.8
	c0,0-9.1,102.5-21.8,146.5s-5.5,46.1-12.3,84.5s-13.9,53-15.8,64.6c0,0-2.5,18.1-8.4,43.4c-11.7,50.5-36.8,129.9-82.1,152
	c-68,33.3-108.8,45.8-13,38c0,0,46.3-5,57-11"/>
<g>
	<path d="M980.8,1219.9c5.8-6.1,11.1-12.4,16.1-18.9c5-6.6,9.7-13.3,14-20.3s8.3-14.2,11.8-21.6c1.9-3.7,3.5-7.5,5.1-11.3
		c0.9-1.9,1.6-3.8,2.4-5.8c0.8-1.9,1.6-3.9,2.4-5.8c-0.3,2.1-0.7,4.1-1.1,6.2s-0.8,4.1-1.4,6.2l-1.8,6.1l-0.5,1.5l-0.6,1.5l-1.1,3
		c-2.9,7.9-6.8,15.5-11.2,22.7c-4.4,7.2-9.5,14-15.2,20.2C994.2,1209.6,988,1215.4,980.8,1219.9z"/>
</g>
<g>
	<path d="M967.1,1222.8c-3.4,2.8-7,5.4-10.7,7.9c-1.8,1.2-3.7,2.5-5.6,3.6s-3.9,2.2-6,3.1c-1,0.5-2.2,0.8-3.3,1.1c-1,0.3-2,0.6-3,1
		c-2,0.7-4,1.6-6,2.5s-3.9,1.9-5.7,3c-0.9,0.5-1.8,1.1-2.6,1.7c-0.4,0.3-0.8,0.6-1.1,0.9c-0.3,0.3-0.6,0.7-0.6,0.7s0,0,0.1-0.2
		c0-0.1,0.1-0.5-0.1-0.8c-0.1-0.3-0.3-0.5-0.4-0.6s-0.1-0.1-0.1-0.1c0.1,0,0.5,0.1,1,0.1c0.4,0,1,0,1.5-0.1c0.5,0,1,0,1.6-0.1
		c2.1-0.2,4.3-0.4,6.5-0.7c4.3-0.6,8.7-1,13.2-1.3c4.4-0.3,8.9-0.5,13.3-0.4c4.5,0.1,9,0.3,13.4,1.5l-0.1,0.5
		c-4.4,0.2-8.7,0.9-13.1,1.5l-6.5,1l-6.5,0.9c-4.4,0.6-8.8,1.1-13.2,1.3c-2.2,0.1-4.5,0.2-6.7,0.2c-0.6,0-1.1,0-1.7,0
		s-1.1,0-1.8-0.1c-0.7-0.1-1.3-0.1-2.3-0.5c-0.2-0.1-0.5-0.2-0.8-0.5c-0.3-0.2-0.7-0.6-0.9-1.2c-0.2-0.6-0.2-1.2-0.1-1.6
		s0.2-0.7,0.4-1c0.6-0.9,1.1-1.3,1.6-1.7c0.5-0.4,1-0.7,1.5-1.1c1-0.6,2-1.2,3-1.7c2-1,4.1-1.9,6.2-2.8c2.1-0.8,4.2-1.6,6.4-2.2
		c1.1-0.3,2.2-0.6,3.3-0.9c1.1-0.2,2-0.5,3-0.9c2-0.7,4-1.6,5.9-2.6c2-1,3.9-2,5.8-3.1c3.8-2.2,7.5-4.6,11.2-7L967.1,1222.8z"/>
</g>
<path class="st9" d="M942.5,1279.5c0,0,0.4-17.6-28.8-12.5c0,0,17.5,2.4,17.9,17.6"/>
<path class="st9" d="M971.1,1262.4c0,0-0.7-11.4,0-24.9c0.9-16.8,4.1-36.8,13.7-42.6c0,0-10.8,29.7-1.6,54.8"/>
<path class="st9" d="M971.1,1237.5c-1.1-18.5-17.3-35.1-17.3-35.1s11.1,4.4,19.5,15.6"/>
<path class="st9" d="M950.9,1233.5c0,0-3.7-19.5-13.9-20.5c0,0,13.1-2.1,23.5,14.3"/>
<path class="st9" d="M939,1239c0,0-6.9-44.9,13.3-51c0,0-9.3,6.4-7.2,25.5"/>
<path class="st9" d="M945.1,1218.7c0,0,2.2,15.1,3.7,16"/>
<path class="st9" d="M1217,126.5"/>
<path class="st7" d="M1217,124.7c0,0-11.4,16.9-10.8,48.8s10.9-18.8,23.5-25.8"/>
<path class="st7" d="M1249.3,126.5c4.9,20.4-4.5,47-9,38.8s-8-13.3-8-13.3c-21.1-18.3-6.5-56.3-6.5-56.3s11.9,4.4,19,19"/>
<path class="st7" d="M1252,89.7c0,0-9.4,43.1-17.8,45c0,0,45.3-14.4,40.3-45"/>
<path class="st7" d="M1286,42c0,0-10.5,11.8-12.3,27s-10.3,21-4.8,21c4.6,0,20.1-11.3,27.1-27.5c1.4-3.3,2.5-6.8,3.1-10.5
	c0,0,1-5.1,0-8.3c0,0,12.5-2,17.5,13.8"/>
<path class="st7" d="M1296.1,62.5c-2.6,7.7,1.6,33.5,1.6,33.5s2.9,4.4-5.5,11.3c-8.4,6.9,10.6,6.4,21-11.3c0,0,5.1-6.4,5.3-16.3"/>
<path class="st7" d="M1339.3,43.7c0,0-18.4-1-30.3,28.5c0,0-10.8,7.8-3.8,7.5s30.1-5.3,37-21.3"/>
<path class="st7" d="M1344,43.7c0,0-0.4,13.6-1.8,17c-0.9,2.1,2.4,0.8,5.9-1.5c2-1.3,4-2.9,5.3-4.2c3.6-3.8,9.8-9.8,9.8-11.3"/>
<path class="st7" d="M1348.2,59.2c-5.3,4.2-17.4,29-17.4,29s1.8,2.2,5.5,2.8c3.6,0.6,9.1-0.4,16.5-6.8
	c14.7-12.9,16.3-37.5,16.3-37.5"/>
<path class="st7" d="M1315.2,92.9c0,0-1.7,12.4-5.7,14.6c-4,2.2,14.8,10.5,29.8-16.3"/>
<path class="st7" d="M1345.1,89.4c0,0-2.5,21.4-5.8,25.8s-3.1,12.4,10.6,1.8c0,0,25.4-28.8,18.3-64.2c0,0-0.1,41,29.1,37.2
	c0,0,13.5-1.5,0-10.2s-19.8-36-19.8-36"/>
<path class="st7" d="M1279.5,51.3c0,0-12.2-6.6-20.7,19.6c0,0-1.9,10-13.5,13.5s-6.1,5.8,3,5.3s18.9-9.8,22.1-8.4"/>
<path class="st9" d="M1370.3,106.2c0,0,5.4,7.8,12.2-2.5c1.7-2.6,2.2-5.2,2.1-7.6c-0.4-7.3-7-13.4-7-13.4"/>
<path class="st7" d="M1384.6,96.1c6.1,2.8,11.9,19.6,11.9,19.6s2.8,5.9,2,10.8c-0.8,4.9,8.3,1.1,14-13s3.5-31.8-7-37.5
	s-19.8-10.4-20.9-12.7"/>
<path class="st7" d="M1380.2,52.5c0,0,34.2-7.8,43.8,3.7s20.8,19.8,23.5,20.5s6.6,9.5-36.2,4.7"/>
<path class="st7" d="M1378.6,107.9c0,0-3.9,32.5-8.7,36.6s10.8,3.8,19.6-9.8s7-19,7-19"/>
<path class="st7" d="M1425.3,82.7c0,0-12,29.5,7,45.8s-11.3-8.9,5.2-45.8"/>
<path class="st7" d="M1410.8,117.1c0,0,6.8,5.7,3.8,12.8c-1.2,2.7-3.8,5.7-8.9,8.6c-18.1,10.4-19,11.3-16.3-3.8"/>
<path class="st7" d="M1433,134.7c0,0-14.6,7.9-18.4-4.8"/>
<path class="st7" d="M1392.8,145.4c0,0-5.6,10.8-8.3,13.3c-2.7,2.5,5.8,2.5,12.1-2.5c6.2-5,7.6-15.3,6.6-16.3"/>
<path class="st7" d="M1264.6,58.2c0,0-11.8-12.8-28.9,10.4c-17.1,23.3-33.7,21.6-26.2,25s26.8,1.4,31.3-3.9"/>
<path class="st7" d="M1220.8,115.2c-11.9,15.4-5.2,27.8-16.3-1.3s6.8-52.5,6.8-52.5s8.6,6.5,12.8,19.9"/>
<path class="st7" d="M1195,89.7c0,0-18.9,58.2-12,60.4s5.5-6.4,17.9-13.5s8.4-10.2,8.4-10.2"/>
<path class="st7" d="M1175.5,40.5c0,0,16,29.4,41.5,19.8c0,0,8.5-4.6,2-18.5"/>
<path class="st7" d="M1254.6,43.4c0,0-14,26.6-24.8,26.7s3.9-11.1-3.3-28.5"/>
<path class="st7" d="M1188.3,77c0,0-14,10.8-23.5,25.5c-8.6,13.4-16.2,12.4-2.5,13c1.4,0.1,3,0.1,4.8,0.2
	c20,1.2,21.3-13.3,21.3-13.3"/>
<path class="st7" d="M1162.2,115.5c-5.9,15.3-0.3,29.7,0.5,34.7c0,0,0.2,21.7,8.7,1.8s10.5-22.1,8.2-38.2"/>
<path class="st7" d="M1189.8,65.7c0,0-22.1-11-38,13.8s-18.8,20-6.3,18.8s24.7-3.8,29.2-8.5"/>
<path class="st7" d="M1162,146.8c0,0-21.1,11-22.7,33.4c-0.6,8.4,1,8.7,3.6,5.7c4.4-5.1,11.7-19.7,16.7-22.4c8-4.3,5-3.9,5-3.9"/>
<path class="st7" d="M1146.2,181.2c0,0,1.4,4.4-3.7,18s-9.8,23.8-9.8,23.8s-0.1,7.4,11.9-8.8c0.6-0.8,1.2-1.6,1.8-2.5
	c13.7-19.4,34.1-56.1,41.5-57.4"/>
<path class="st9" d="M1175.5,192.2c0,0-20.9,26.6-30.9,22"/>
<path class="st7" d="M1180.7,203.4c0,0-7.3-9.6-22.4,27.3c0,0-2.9,9.5-14.8,17.5c-11.9,8-10,34,0,22c4.4-5.3,9-7.8,13.2-10.6
	c5.4-3.6,10.2-7.8,13.4-18.9c0,0-0.8-6.1,7.1-13.1"/>
<path class="st7" d="M1156.7,259.6c-1.7,18.1-14.4,39.1-14.4,39.1s-7.3,9.9,8.5,0s19.3-21.3,19.3-21.3"/>
<path class="st7" d="M1132.8,223c0,0-4.4,3.5-2,16.3s7.4,4.5,28.8-11.6"/>
<path class="st7" d="M1135.3,266c-0.4,4.4-8.5,8.5-8.5,8.5c-17.8,11.1-4.3,2.3-6.3-22.3s6.3-29.3,6.3-29.3s7.7-2.6,12.5-15.4"/>
<path class="st7" d="M1139.3,180.2c0,0-22.8,10.7-16.2,47.8"/>
<path class="st7" d="M1126.3,194.3c0,0-15.7,0.2-16.3,20.4s-4.9,32.5,1,28.7s10.8-12,10.8-12"/>
<path class="st9" d="M1186.4,164.5c0,0-13,24.5-12.5,39.6"/>
<path class="st7" d="M1163,46.4c-1.8,36.5-44,34.9-44,34.9s-11.5,3.2,0-11.1s39.4-22.1,40.5-29.7C1159.5,40.5,1161,42.9,1163,46.4
	c2.6,4.7,6.1,11.3,8.5,16.8"/>
<path class="st7" d="M1124.3,41.7c0,0-13.3,17.9-10.4,20.4c3,2.6,17.7-2.6,17.7-2.6"/>
<path class="st7" d="M1141.9,77c0,0-12.8,17.4-10.2,19.5c2.5,2.1,11.1-3.9,11.1-3.9"/>
<path class="st7" d="M1147.6,74c0,0,7.2-3.6,5.9,3"/>
<path class="st7" d="M1115,81.3c0,0-16,15.7-20.8,28.8c-4.8,13.2,18.8,0.5,26-4c3.1-1.9,5.6-3.9,7.4-5.7c2.6-2.3,3.9-4.1,3.9-4.1"/>
<path class="st7" d="M1150.6,97.6c0,0-2.2,5.9-7,11.5c-3.6,4.2-8.6,8.2-15.3,9.3c-15.5,2.6-5.5-5.6-3.1-11.8s2.4-6.2,2.4-6.2"/>
<path class="st7" d="M1160.3,122.5c0,0-3.5,27.8-23.5,29.5c-19.9,1.7-6.8-6.3-6.8-6.3s7.5-4.3,7.7-16.5c0.2-12.3,5.9-20.1,5.9-20.1
	s17.3,8.4,21.4-14.4"/>
<path class="st7" d="M1137.7,129.2c-25.9-13.9-51.7,32.5-51.7,32.5s-9.1,4.7,9.6-1.4c2.1-0.7,4.1-1.3,6-2
	c15.2-5.2,24.7-9.4,24.7-9.4"/>
<path class="st7" d="M1105.2,193c1.3,9.5-9.3,19.8-9.3,19.8s1.4,3.5,9.4-3.6s8.1-7.1,8.1-7.1"/>
<path class="st7" d="M1096.9,146.1c0,0-12.2-3-17.6,9.2c-0.8,1.8-1.5,3.9-1.9,6.5c-3.4,19.6-9.5,23.6,1.3,19.3s20.7-14.7,19.8-21.7
	c0,0,0.7-2,2,7.8s-22.6,30.9-22.6,30.9s-12.4,7.6,8.4,3.3c5.7-1.2,12.4-4.2,19.1-8.3c17.4-10.7,34.6-28.9,33.9-41.4"/>
<path class="st7" d="M1079.3,155.3c-11.2-1-25.4,24.9-25.4,24.9s-23.5,54.4,12.1,16.3c0,0,1.5-2.1,5-3.4s24.9-6.4,19.2-19.1"/>
<path class="st7" d="M1042.8,160.2c0,0-12.6,4.9-18.9,32.8s-2.7,11.9,5,6.6s19.6-7.8,25-19.4"/>
<path class="st7" d="M1076.4,139.1c0,0-35.4,1.9-38.1,36.4c0,0,0,7.3,4,2.1s17.5-5.1,21-11.2"/>
<path class="st7" d="M1125.3,106.7c0,0-20.5,2.4-26.6,26.5c0,0-2.6,7.6,5.1,2s11.3-5.1,11.3-5.1"/>
<path class="st7" d="M1130.5,118c0,0-2.3,4.2-2.3,8.6"/>
<path class="st7" d="M1094.3,110.2c0,0-9,5.2-13,15c-3,7.4-5.5,13.4-3,14.3c0.8,0.3,2.2,0,4.3-1c8.4-4.1,14.2-8.6,17.1-8.7"/>
<path class="st7" d="M1079.8,154.3c0,0-6.7,2.7-1.8-11.3c0,0,0.5-2.3,1.8-3.9"/>
<path class="st7" d="M1111.7,84.8c0,0-17.1-1-22.4,11.7c-0.4,0.9-0.7,1.9-0.9,2.9c-3.7,15.8,6.9,1.1,12.5-1.3"/>
<path class="st7" d="M1089.4,96.5c-23.8-1.7-24.5,21-24.5,21s-3.1,20.3,1.5,23.6"/>
<path class="st7" d="M1080.2,127.8c0,0-7.1,5.2-9.3,11.8"/>
<path class="st7" d="M1115.6,75c0,0-21.3-8.5-46.9,11.4s-5.7,13.6,7.5,11.9"/>
<path class="st7" d="M1063.9,62.8c0,0-21,11.8-22.2,47.3c0,0-0.7,6.4,1.1,9.1c1,1.6,3,1.9,6.4-1.3c0,0,5.2-6.6,16.2-3.9"/>
<path class="st7" d="M1042.7,119.2c-2.8,5.8,4.8,13.7,4.8,13.7s6.8,5.2-2.7,9.9s-2.8,8.8,7.4,5.4"/>
<path class="st7" d="M1104.5,41.7c0,0-16.5,5.3-25.9,29.3c0,0-4.4,10.1,3.6,7.1"/>
<path class="st7" d="M1102.4,73.2c0,0,9.3-2.9,11.5-11"/>
<path class="st7" d="M1089.9,52.3c2.3-4.7-1.5-10.1-1.5-10.1s-3.2-7.7-14,0.9s-8.1-1.8-12.4,10.8c-2.5,7.3,3,13.3,8.3,16.2
	c3.8,2.1,7.6,2.6,8.3,0.9"/>
<path class="st7" d="M1071.9,84c0,0,1.4-9.7-1.6-14"/>
<path class="st7" d="M1063,51.1c0,0-1.1-0.5-2.9,0.3c-3.2,1.3-8.6,6.3-15.1,23.2c-3.8,9.9-12,15.1-20.7,17.5
	c-15,4.2-31.5,0.2-30.1-1.8c2.3-3.1,12.9-3,17.5-9.5s-0.8-18.4,33.4-25.3c0,0,6.5-0.8,8.4-1.5"/>
<path class="st7" d="M1041.6,110.2c0,0-18.4,4.4-17.4-18.1"/>
<path class="st7" d="M1003.3,93.5c0,0,4.2,37.6,11,25.7c6.8-11.9,11.3-15.7,10.7-18.7"/>
<path class="st7" d="M1034.1,110c0,0,4.7,14.9-19.2,21.7c-1.2,0.3-2.4,0.7-3.5,1c-22.1,6.8-38.3,17-34,10.8
	c4.6-6.4,27.8-24.4,28.4-34.4"/>
<path class="st7" d="M1009.9,133.2c-5.1,7.1-5.4,21.3-5.4,21.3s-2.7,24.6,2.7,17.3c1.6-2.1,4.6-4.1,8-6.4
	c8.3-5.6,19.2-12.8,18.4-27.6c-1.2-20.9-2-16.3-2-16.3"/>
<path class="st7" d="M1015.3,165.4c0,0,2.6,11.7-4.4,19.2s0,6,0,6s2.3-1.1,5.4-2.9c5.2-3.1,12.6-8.3,14.3-13.7"/>
<path class="st7" d="M1003.8,171.7c0,0-27.8,15.1-15.8,39.5s10.6,27.4,19.8,8c9.2-19.4,8.5-31.5,8.5-31.5"/>
<path class="st7" d="M1005.6,134.6c0,0-14.9,27.3-28.9,37.1s-10,9.1-10-7.3s2.9-23.2,6-25.4"/>
<path class="st7" d="M954.9,157.8c-8.8,15.6-2.7,46.8-2.3,53.7c0,0,3.6,16.6,9.6-4.8c1.1-4,2.7-7,4.5-9.4
	c7.8-10.5,19.4-9.9,14.9-29.7"/>
<path class="st7" d="M966.7,197.3c-0.3,7,2.6,12.7,2.6,12.7s0,3.4,3.6-5.4s12.7-9.4,13.7-13.9"/>
<path class="st7" d="M981.8,180.7c0,0,3.6,5.7,13.5-2.6"/>
<path class="st7" d="M955.6,75.3c0,0,16.1,17-6.8,37.9c-2.7,2.5-4.9,4.5-6.7,6c-13.1,11.6-2.5-0.5-3.6-11.7
	c-1.2-12.7-2.9-14.8,2.5-18.2S955.6,75.3,955.6,75.3z"/>
<path class="st7" d="M942.2,119.2c-8.3,6.3-13.6,32-13.6,32s-0.3,3.1,6.8-5.4s14.2-16.6,14.2-16.6c0,2.7-1.3,7.4-1.3,7.4
	c-11.6,30.8-1.5,25.2-1.5,25.2c2.9-1.1,5.6-2.5,8.1-4c22.6-14.5,26.7-46.3,26.7-46.3s1.1,15.1-1.4,22.9c-2.5,7.9,0,5.9,0,5.9"/>
<path class="st7" d="M956.9,77c0,0,13.3-5.8,13.4,9.8c0,3.1,0,5.9-0.3,8.6c-1.1,11.2-5.6,20.2-20.5,33.8"/>
<path class="st7" d="M969.1,101.3c7.1-11.7,19.9-14.5,19.9-14.5s8.4,18.6-32,35.1"/>
<path class="st7" d="M965.3,76.5c0,0,21.4-4.7,23.2-19.8s0-16.4,0-16.4"/>
<path class="st7" d="M1000.5,42.1c0,0-0.6,12.4-7.8,19.8s-12.3,30.2,0,20.6s28.3-13.9,28.1-40.4"/>
<path class="st7" d="M971.5,42.1c0,0-18.8,28.9-15.9,33.3"/>
<path class="st7" d="M955.3,48.5c0,0,6.5,2.9,6.4,10"/>
<path class="st7" d="M955.3,42.1c0,0,4,19.2-21.3,33.3c-2.8,1.5-5.9,3-9.4,4.4C889,93.9,943.2,42,943.2,42"/>
<path class="st7" d="M938.4,91.6c0,0-14.2,7.2-4.4-8.6c0,0,3.6-5.5,3.2-9.6"/>
<path class="st7" d="M931,92.5c0,0-2.7,3.4-5.2-0.3"/>
<path class="st7" d="M926,100.5c0,0,6.8,13.3,5.9,21.1s4.9-2.3,4.9-2.3"/>
<path class="st7" d="M909,42.1c0,0-14.8,13-18.4,33.3s3.7,11,15.8,1.2c0,0-2.5,6.1,3.6,22.2s11.6,25.5,14.6,14.3
	c1.5-5.6,1.5-13.9,1.1-20.8S924.6,80,924.6,80"/>
<path class="st7" d="M925,42.1c1.4,3.9-8.9,30.8-18.6,34.4"/>
<path class="st7" d="M932.4,53c0,0,1.6-4.3-7.3-8.9"/>
<path class="st7" d="M873.1,43.1c0,0,2.6,6.7,5.1,12.4c1.6,3.6,4.9-2.2,7.2-7c1.3-2.9,2.3-5.4,2.3-5.4"/>
<path class="st7" d="M906.4,44.7c0,0-9.2,7.7-20.9,3.8"/>
<path class="st7" d="M865.1,43.1c0,0-3.1,6.2-7.5,14.1c-9.6,17.3-25.1,42.7-26.2,27.5c-1.7-22-5.5-37.9,5-42.7"/>
<path class="st7" d="M857.6,57.2c-1.3,2.3,5.6,9.4,5.6,9.4s1.6,2.5,3.7,3.4s4.8,0.3,7-5.9c4.4-12.5,0.9-16.9,0.9-16.9"/>
<path class="st7" d="M866.9,70c1.2,17.1-13.9,26.7-13.9,26.7s-7.3,5,9.5,0s18.5-34.6,18.8-41.3"/>
<path class="st7" d="M829.3,57.1c0,0-6.2-0.3-12.7,12S788,90.5,801.5,90.4s28.7-18.3,28.7-18.3"/>
<path class="st7" d="M812,43.1c0,0,1.5,4.7-0.9,12.3c-2.2,7-7.9,16.4-21.2,26.9c-27.8,21.7,2.3-28.9,3.4-39.2"/>
<path class="st7" d="M821.2,62.2c0,0-4.5-2.3-10.1-6.8"/>
<path class="st7" d="M783.6,42.1c0,0,0.3,21.4-28.5,30.5c-1.3,0.4-2.6,0.8-4,1.1c-32.9,8.3,0.3-10.4,6.5-22.4s4.5-9.3,4.5-9.3"/>
<path class="st7" d="M771.1,64.5c0,0,0.7,15.6,8.9,12.2c0,0,2.5-0.3-20.8,17.4s-16,4.8-16,4.8s13-14.6,11.9-26.3"/>
<path class="st7" d="M741.3,43.1c0,0-6.6,32.3,3.5,22.3"/>
<path class="st7" d="M712.6,79.8c-11.5,10-9.8,20.8-9.9,21.4c0,0,0.6,18.1,19.9-6.6s13.7-29.7,7.6-24.9
	C726,73.1,720.2,76.8,712.6,79.8c-1.2,0.5-2.4,0.9-3.6,1.3c-21,7,17.6-38,17.6-38"/>
<path class="st7" d="M722.6,94.6c0.1,4.5-8.7,23.3-15.9,31.9s14.5-5.3,14.5-5.3s22-13.2,22-17.8"/>
<path class="st7" d="M704.3,106.1c0,0-23.6,18.3,11.7,43.2c0,0,10.2,8.4,5.1-5.4s0.1-22.8,0.1-22.8"/>
<path class="st7" d="M728.5,116.6c0,0,23.2,41.1,11.4,33s-17.2-13.2-20.7-13.2"/>
<path class="st7" d="M707.9,84.8c0,0-33.9,16.2-19.9-1.9S699.6,69,699.6,69"/>
<path class="st7" d="M684.6,78.5c0,0,0.3,27.7-15.1,38.1c-15.4,10.4-11.9,5.2-10.5-1.6s1.4-19.5,1.4-19.5"/>
<path class="st7" d="M715.1,43.1c0,0-3.4,27.1-37.6,38.1s22.4-32.8,18.3-38.1c0,0,0,1.8-7.4,7.9c-2,1.7-3.5,1.8-4.6,1
	c-0.4-0.3-0.7-0.6-1-1.1c-1.9-2.8-2.1-8.6-2.1-8.6s-17.3-5.7-39.9,33c0,0-7.4,6.7,5.5,4.8c0,0,6.8-0.1,11.4-4.8
	c6.6-6.6-10.1,10.8-13.4,19.2s-7.9,11.1,1.1,11.6c9.1,0.4,25.1-23.2,25.1-23.2"/>
<path class="st7" d="M683.9,53.3"/>
<path class="st7" d="M643.6,106c0,0-1.5,5.7-8,16.5s-2.9,27.5,3,17s17.3-22.7,20.6-26.1"/>
<path class="st7" d="M646.8,43.1c0,0-8.7,17.9-4.6,19.1s11.7-5.4,11.7-5.4"/>
<path class="st7" d="M648.5,63.5c0,0-16.1-2.6-24.7,18.4s-8.1,33.1,2.3,23.5s20.2-14.7,21.4-16.4"/>
<path class="st7" d="M642.9,42c0,0-26.2,8-24.6,36.5c0,0,1.1,14.5,6.8,0.4"/>
<path class="st7" d="M617.7,42c0,0-3,13.6-1.9,19.1c0.6,2.7,2.1,3.5,5.6-0.4"/>
<path class="st7" d="M615.9,61.1c-29.1,8.7-24,28.9-24,28.9s2.9,7.6,6.1,3.3s11.7-8.8,21.3-9.8"/>
<path class="st7" d="M618.5,107.7c0,0-8.4-3.5-17.2,7.4s-32.3,8.5-20.6,1.6S598,93.3,598,93.3"/>
<path class="st7" d="M623.2,107.6c0,0-0.7,28.8-17.7,31s-5.2-2.1-3.4-7.9c1.8-5.8-0.6-15.6-0.6-15.6"/>
<path class="st7" d="M603.6,138.8c0,0-2.4,23.2,5,14.5c0,0,10-8.1,7.6-21.7"/>
<path class="st7" d="M603.2,42c0,0-5.2,5.9-10.9,11.9c-8.8,9-19.1,18.1-14.7,6.2c7.2-19.8,4.2-18,4.2-18"/>
<path class="st7" d="M593.4,77.9c0,0-8.9,6.7-4.7-4.6s3.7-19.4,3.7-19.4"/>
<path class="st7" d="M571.4,43.1c0,0-6.7,5.8-13.7,11.1c-7.7,5.8-15.8,11.1-16,7.5c-0.3-6.9,3.8-19.7,3.8-19.7"/>
<path class="st7" d="M557.7,54.2c2.1,8.2-8.6,23.7-8.6,23.7s-12,12.7-3.8,13.4s27.9-6.2,32.2-25.5"/>
<path class="st7" d="M523.8,42c0,0-17.4,21.9-0.8,46.2c16.6,24.3,7.2-23.1,19.5-34.3"/>
<path class="st7" d="M503.3,42c0,0-3.4,14.2-5.4,29.1c-1.9,14-2.5,28.6,2.1,33c9.5,8.9-4.9-10.5,8.4-30l7.6-10.7"/>
<path class="st7" d="M497.8,71.1c-15.2,11.5-12,28.3-7.8,38.7c2.2,5.6,4.8,9.4,4.8,9.4s5.9,10.1,7.3-0.8s20.7-19.4,17.8-35.7"/>
<path class="st7" d="M467.5,120.3c-6.6,26.1,3.8,15.3,3.8,15.3s21.2-13.1,18.7-25.7"/>
<path class="st7" d="M473.4,68.5c-12.4,6.8-7.6,18.4-10,36c-2.4,17.6,23.5-6.5,23.5-6.5"/>
<path class="st7" d="M500.8,53.2c0,0-29.8,21.3-42.1,17.2s3.2-2.3,11.6-13.3s6.6-12.3,16.2-15.2"/>
<path class="st7" d="M446.3,42c0,0-9.9,7.4-9.6,15.9s2.4-4.6,16.3-6.8s18.9,1.7,28.5-7.3"/>
<path class="st7" d="M474,108.1c0,0-5.5,25.6-40.3,31.8c0,0-7.6,2.3,1.5-7.9s10.9-18.4,10.9-18.4"/>
<path class="st7" d="M464.3,89.8c0,0-1.6,26.7-27.6,24.6c0,0-8.8-0.8-2.2-7.3s-3.6-30.8-3.6-30.8"/>
<path class="st7" d="M457,50.7c0,0-11.4,33.6-44.6,25.6c0,0-11.3-4.1,1-8.5S429,43,429,43"/>
<path class="st7" d="M432.6,81.2c0,0,4,10.2-11.2,22s-15.3,26.9-19.1,30.6s-8.6,3.9-10.3,4s5.1,4.1,13.6,0s28.6-9.3,29.8-23.3"/>
<path class="st7" d="M407.6,136.9c-12.9,9-12.7,26.7-12.7,26.7s1-3.4,6.9-4.9s28.8-7.6,22.6-29.5"/>
<path class="st7" d="M422.5,77.5c0,0,5.5,13.5-21.1,29.8c0,0-3.3,1.9-4.1,10.9s-5.4-27,9.3-34.5c0,0,6.2-3.3,4-8.2"/>
<path class="st7" d="M413.6,42.6c0,0-4.9,9.9-14.6,24.6c0,0-4.4,3.9-2.3,7s-9.4,0.8-11.6-12.5s5.8-19.7,5.8-19.7"/>
<path class="st7" d="M423.6,144.4c0,0,4.1,7.5-4.3,16.9c-2.5,2.9-6.2,5.9-11.6,9c0,0-3.5,0.3-3.6,4.4s-3.1-9.6,0-16.5"/>
<path class="st7" d="M422,157.6c0,0,11.7,25.6,15.2,29.4c0,0-20.7,3.8-17.9-25.7"/>
<path class="st7" d="M481.9,127.1c0,0-4.1,20.2-1.1,30.5s-3.7,7.5-1.8,10.5s26.8-10.6,19.6-37c0,0-1-6.8-3.9-11.9"/>
<path class="st7" d="M404.4,58.7c0,0,5.3,3.2,9,9.1"/>
<path class="st7" d="M385.8,64.7c0,0-9.7,0.6-5.6,27.9c4.1,27.3,6,21.6,8.3,15.5s5.2-13.8,10.6-14.7"/>
<path class="st7" d="M384.7,56.5c0,0-12.1,8.8-23.4,33.2s-17.4,22.4-8.1,22.4s15.9-18.6,19.9-21.4s6.6-1.8,6.6-1.8"/>
<path class="st7" d="M381.7,101.7c0,0-15.9,24.6-29.1,30.7c-13.2,6.1-17.8,11.3-14.8,5.9s10-24,14.1-26.1"/>
<path class="st7" d="M355.5,43.1c0,0-2.1,17.3-7.8,21.1c-5.7,3.8,3.3,2.1,6.4,0.5c3.1-1.6,19.6-13.7,24-22.7"/>
<path class="st7" d="M350.4,112.1c0,0-7.9,7.5-5.5-0.5s0.6-22.1,6.5-25.3"/>
<path class="st7" d="M357.5,62.6c0,0-1.3,24.1-17.6,35.5s-23.8,17.8-42.4,13.1c0,0-2.1-3-9.4,6.8c-7.3,9.8-9.3,9.5-3.7-14.6
	c5.7-24,18-29.8,32.5-35.9s24.5-24.9,24.5-24.9"/>
<path class="st7" d="M342.4,42"/>
<path class="st7" d="M346.4,100.8c0,0-13.6,4.9-10.5,15.9s6.3,12.6,4.1,17.1"/>
<path class="st7" d="M288.9,42.5c0,0-20.9,68.6-7.4,50.1c13.5-18.5,22-22.4,29.3-22.5"/>
<path class="st7" d="M281.2,122.4c0,0-10.7,9.7-11.4,6.9c-0.7-2.8,1.2-29.3,7.5-34.4"/>
<path class="st7" d="M287.1,42.5c0,0-14.8,51.3-19.3,44.3c-4.6-7,3-43.9,3-43.9"/>
<path class="st7" d="M272.7,104.2c0,0-9,13.5-21.5,13.7c-12.5,0.2-7.5-2.4-2.3-7.4s7.7-23.5,18.3-25.1"/>
<path class="st7" d="M267.4,63.5c0,0-15.3,2.1-17.5,16.4s-4.1,21.3-13.5,25.5c-9.4,4.2-9.3,5.9-1.8,4.5c7.5-1.4,17.6-6,19.2-8.3"/>
<path class="st7" d="M248.8,42.5c0,0-25.5,30-19.7,39.7c0,0,13,5.1,23.6-9.7"/>
<path class="st7" d="M215,105.2c0,0-1.1,40.1,3.1,36.6c4.2-3.5-0.6-6.3,10.1-16.3s13.4-17.5,13.4-17.5"/>
<path class="st7" d="M252.6,117.9c0,0,8.3,46.4-1.3,42.7c-9.6-3.8-30.5-25.1-27.8-30"/>
<path class="st7" d="M216.3,139.7c0,0-15.5,24.5,2.5,46.1c14.6,17.6,9.3-11.6,12.6-28.3c0.8-3.9,2-7.1,4.1-8.9"/>
<path class="st7" d="M226.1,191.2c-4.2,16.3,16.7,29,16.7,29s5.8,3.3,7.3,6.7c1.6,3.3,7.2-44.2-18.7-69.4"/>
<path class="st7" d="M223.1,190.1c0,0-17.8,23.1-8.7,52.7c9,29.7,5.3-1.2,13.2-13.2s4.6-18.6,4.6-18.6"/>
<path class="st7" d="M236.4,59.2c0,0-12.4-4-21.6,19.5c-9.1,23.5-32.2,25-32,28.1c0.2,3,54.7,4.8,54.4-23.9"/>
<path class="st7" d="M215.5,134.3c0,0-19,19.6-24.6,29.8c-5.7,10.2-7.5,10.4-6.3-1c0.9-8.8,0.3-36.7,7.4-49c2.1-3.7,4.9-6,8.7-6"/>
<path class="st7" d="M190.3,165.2c4.4,10.6,0.2,16.9-7.8,35.2s-8.8,19.3-9.6,1.4c-0.8-17.8,7-27.7,8.1-29.7c0,0,3.4-3.6,3.7-10.5"/>
<path class="st7" d="M173.6,212.1c0,0-8.2,5.7-7,14.5c0,0,7.8-3.4,7.8,13.3s23.3,14.1,20,11.5s-6.4-4.7-8.4-17.2s-3.6-26.4-8.6-23"
	/>
<path class="st7" d="M191.4,114.9c0,0-15.8-2.3-28.4,21.7c-12.7,24-21.3,19.6-20.8,23.8s20.3,3.1,20.3,3.1"/>
<path class="st7" d="M185.2,150.7c0,0-14.7,13.7-22.8,30.7c-0.6,1.2-18.3,3.8-10.1-1.9s9.4-12.8,9.4-12.8
	c3.6-22.9,24.3-27.8,24.3-27.8"/>
<path class="st7" d="M173.1,193.5c0,0-11.2,8.1-16.4,29.2c-5.2,21.2-4.3-24.4,5.7-41.4"/>
<path class="st7" d="M153.6,220.2c-21.1,34.6,23.9,69.1,23.9,69.1c-2.5-1.6-13.6-25.3-12.7-48.8c1-23.6-4.9-24.1-4.9-24.1h-1.4"/>
<path class="st7" d="M177.5,289.3c0,0,26,15.4,39.9-12.4c0,0-17.5,14.9-29.3,1.4c0,0-10.7-14.9-21.7-18.9"/>
<path class="st7" d="M156.1,265.3c0,0-4,0.5-4.6,15.2s-4,22.5-8.9,22.6c-5,0,6.4,5.6,13.9-5.5s9.5-17.6,9.1-19.6"/>
<path class="st7" d="M156.7,182.8c0,0-7,6.3-7.8,13.9c-0.8,7.6,0.9,31.6,0.9,31.6"/>
<path class="st7" d="M246.9,42.5c0,0-18.6,12.8-28,9.7c0,0,5.5-2.4,5.5-9.7"/>
<path class="st7" d="M199.8,42.5c0,0-20.2,23.1-36.2,23.2c-9.7,0,6.1,2.5,24.5,0c11.9-1.6,24.8-5.3,32.8-13.1"/>
<path class="st7" d="M189.8,65.5c-6.5,19.2-19.5,22.2-53.7,23.4c-34.2,1.2-30,3.3-12.8-10.3C140.5,65,185,49.7,185,49.7
	s8.2-3.3,11.8-3.9"/>
<path class="st7" d="M121.9,122.4c-5.3,15,6.9,31.3,7.3,26c0.3-5.3,4.4-7.8,4.4-7.8s21.8-13.5,19.4-52.7"/>
<path class="st7" d="M132.3,89c0,0,5.3,19.4-9.2,32.9c-14.5,13.5-2.3,23.1-5.6,25.3c-3.3,2.2-23.5-26-14.9-49.9"/>
<path class="st7" d="M112.4,89.7c0,0-20.2,14.5-23.2,20.6c-3,6,1.4-21.9,3.6-24.7c0,0,1.8-5.3,4.6-6.4"/>
<path class="st7" d="M142.4,67.2c0,0-31.3-6.1-38.1-5.9s41.8-32.5,61.2-4.2"/>
<path class="st7" d="M108.2,42.2c0,0-30.4,29.9-33.2,44.1c-2.8,14.2,32.3-16.6,48.8-22.4"/>
<path class="st7" d="M74.8,87.9c0,0-15.8,0.8-18.8,25.8s-6.7,25.2-6.7,25.2s39-13.8,38-53.3"/>
<path class="st7" d="M49.3,138.9c-9.7,4.2-12.5,13.8-12.5,13.8s1.9-33.1,19.3-39.7"/>
<path class="st7" d="M65.8,129.4c0,0-8.9,30.3,5,40.4c0,0-0.7-10.8,4.8-27.4s2.8-26.3,2.8-26.3"/>
<path class="st7" d="M55.5,136c0,0,1.5,16.4-9.9,30.2c-11.3,13.8-5.2,18-5.2,18s-11.3-6.3-1.5-36.3"/>
<path class="st7" d="M71.1,164.7c0,0,7.7,26.6,23.9,26.2c0,0-39.5,8.9-43.8-33.4"/>
<path class="st7" d="M46.5,165.3c0,0-7.3,16.5,6.2,30.1c0,0,5.8,4.1,2.9-15c0,0-1.5-6.9-1.2-9"/>
<path class="st7" d="M48.1,42.2c0,0-5.9,27.6-1.8,40.2c0,0,1.9,4.7,3.1-10.8s30.1-29.3,30.1-29.3S81,65,73.6,70.2
	s-12.3,11.7,3.2,11.2"/>
<path class="st7" d="M22.8,41.5c0,0,6.7,25.6,22,30.1"/>
<path class="st7" d="M45.6,79.7c0,0-7.1,9.9-19.7,13.9s21.4,5.5,40.6-15.4"/>
<path class="st7" d="M591.9,90.1c0,0-26.5-2.4-41.8,37.7c0,0-12.2,12.9,7.4,12.3s27.8-7.9,26.3-17.5"/>
<path class="st7" d="M1434,137.1c0,0-10.8,13.7-11.3,28.1c-0.1,3.4-22.1,11.3-28.9,6s8.8-0.6,14.2-16.9
	c5.4-16.3,12.5-17.7,12.5-17.7"/>
<path class="st7" d="M1434,186.1c0,0-19.1,16.3-19.4,9.9c-0.3-6.4,7.1-9.5,8.1-30.8"/>
<path class="st7" d="M1402.3,172.9c0,0-0.7,9.8-6.9,11.9s9.7,4.3,12.8,1.4s12.2-8,12.8-8"/>
<path class="st7" d="M1387.5,160.3c0,0,1.1,12-4.7,17.7c-5.7,5.7-5.2,6.4,2.4,5.3c7.6-1.1,12.5-10.6,12.5-10.6"/>
<path class="st7" d="M1403.3,187.6c0,0-4.4,10.7-23.1,13.4c0,0-6.9,3.6,2.7-6.1c9.6-9.8,8.8-14.6,8.8-14.6"/>
<path class="st7" d="M1416.3,197.4c0,0-11.9,7.5-9.5,31.4s8.4,0.6,18.5-5.9s10.8-18.8,10.8-18.8"/>
<path class="st7" d="M1434,232.2c0,0-7.2,7.9-7.1,3.3s1.1-14.6,1.1-14.6"/>
<path class="st7" d="M1401,190.9c0,0,2.6,5.7-4.4,10s-1.2,8.2,4.9,9.6c6.1,1.4,6.4,0.4,6.4,0.4"/>
<path class="st7" d="M1406.5,224.7c0,0-19.7,2.1-15.1-1.9s8.6-12.7,8.6-12.7"/>
<path class="st7" d="M1407.9,235.5c0,0-16.9,18.1-15.8,10.5s2.3-0.8,6-20.7"/>
<path class="st7" d="M1392.1,224.9c0,0,0.2,7.8-3.2,9.6s2.8,3.4,7,1"/>
</svg>
