<?xml version="1.0" encoding="utf-8"?>
<!-- Generator: Adobe Illustrator 22.1.0, SVG Export Plug-In . SVG Version: 6.00 Build 0)  -->
<svg version="1.1" id="Layer_1" xmlns="http://www.w3.org/2000/svg" xmlns:xlink="http://www.w3.org/1999/xlink" x="0px" y="0px"
	 viewBox="0 0 360 53" style="enable-background:new 0 0 360 53;" xml:space="preserve">
<style type="text/css">
	.st0{fill:none;stroke:#000000;stroke-width:2;stroke-linecap:round;stroke-miterlimit:10;}
</style>
<path id="b" class="st0" d="M108.9,16l0.6,17.5c0,0,8.3-0.6,6.6-8.2c0,0-2-4.5-6.5-0.5l-0.3,0.2"/>
<path id="y" class="st0" d="M116.4,38.9c0,0,3.7-5.5,4-8.6l4.6-8.4c-1.6,0.5-4.7,8.4-4.7,8.4l-2.8-9.8"/>
<path id="s_2_" class="st0" d="M145.3,22.2c0,0,0.7-4.5-4.5-3.6s-3.4,5.3-3.4,5.3l5.8,6.4c0,0,2.6,6.6-4.4,5.1c0,0-3.3-1.9-0.3-5.3"
	/>
<path id="h" class="st0" d="M153.3,38c0,0,0-19.5-4.8-10.1l-0.8,0.5c0.3-9.5,3-16,3-16l-0.8,0.7L145.7,39"/>
<path id="e_2_" class="st0" d="M157.8,30.4l5.3-2.5c0,0-0.3-5.4-3.8-2.9s-2.4,9.7,1.3,9.2c0,0,2,0.1,2.4-2.4"/>
<path id="l_1_" class="st0" d="M168.7,11.8c0,0-0.8,0.9-0.9,2.4s0.1,21.3,0.1,21.3"/>
<path id="s_1_" class="st0" d="M194.6,16.1c0,0-0.6-4.8-4.8-3.6s-5.7,5.3-4.5,8.6s4.5,6.2,4.5,6.2s2.4,2.5,0.2,6.4
	s-10.8-1.1-5.3-4.8"/>
<path id="i_3_" class="st0" d="M196.3,26.2c0,0-1-0.3-1.2,1.3s-0.7,8.3-0.7,8.3"/>
<line id="i_2_" class="st0" x1="196.3" y1="20.9" x2="196.3" y2="22.1"/>
<path id="l" class="st0" d="M203.8,8.6c0,0-1-0.5-1.5,4.3s-3,23.8-3.3,23.8"/>
<path id="v" class="st0" d="M204.8,24.9c0,0-0.7,0.4-0.8,1.3s0.2,14.1,0.2,14.1s3.6-4,7.8-13.8c0,0,0.4-0.5,0.7-0.4"/>
<path id="e_1_" class="st0" d="M217.9,34.1c0,0-3.4,1.7-4.4-1.5s0.9-9.1,3.9-9.3s2.3,3.7,2.3,3.7l-6.3,3.3"/>
<path id="r" class="st0" d="M227.8,26.5c0,0-0.5-6.2-5,1.3c0.1-2,0.2-3.6,0.2-3.8c0-0.5-0.5-0.7-0.5-0.7l-0.2,14
	c0,0,0.3-5.6,0.5-9.5"/>
<path id="s" class="st0" d="M228.2,30.2c0,0-1.3,0.3-1.3,1.6c-0.1,1.3,0.7,3.4,3.5,3.2c2.9-0.2,3.9-3.2,3.4-4.4s-3.1-8.6-3.1-8.6
	s-2.6-6,3.2-7.2c0,0,4.2-1.5,3.2,4.1"/>
<path id="t" class="st0" d="M234.9,25l9.6,0.2c-1.2,2.2-6.4-1.7-5-6.5l-2.2,14.8c0,0-1.1,3.4,2.6,3.6"/>
<path id="e" class="st0" d="M243.6,28.6c0,0,5.8-0.8,6.3-1.1c0,0,0.7-4.8-2.8-4s-4.3,5.1-3.3,9.2c0,0,2.1,4.6,4.9,0"/>
<path id="i_1_" class="st0" d="M253.3,27.1c0,0-0.9,0.2-1,0.8s-1,7.5-1.9,9.8"/>
<path id="i" class="st0" d="M253.2,21.3c0,0-0.3,0.2,0,0.4C253.5,21.8,253.6,21.3,253.2,21.3z"/>
<path id="n" class="st0" d="M260.1,37.2c0,0,1.6-10.6,1.7-11.3c0.2-0.8,0.9-5.6-5.7,0.6v-4c0,0,0,7.7-1.3,12.7"/>
</svg>
