<?xml version="1.0" encoding="utf-8"?>
<!-- Generator: Adobe Illustrator 22.1.0, SVG Export Plug-In . SVG Version: 6.00 Build 0)  -->
<svg version="1.1" id="Layer_1" xmlns="http://www.w3.org/2000/svg" xmlns:xlink="http://www.w3.org/1999/xlink" x="0px" y="0px"
	 viewBox="0 0 720 720" style="enable-background:new 0 0 720 720;" xml:space="preserve">
<style type="text/css">
	.st0{fill:#2F8B42;}
	.st1{fill:#2F8B42;stroke:#000000;stroke-width:2;stroke-miterlimit:10;}
	.st2{fill:none;stroke:#000000;stroke-width:2;stroke-miterlimit:10;}
	.st3{fill:#18753B;stroke:#000000;stroke-width:2;stroke-miterlimit:10;}
</style>
<rect x="432.3" y="199.9" transform="matrix(0.8126 0.5828 -0.5828 0.8126 243.6567 -209.3201)" class="st0" width="30.2" height="148.8"/>
<path class="st0" d="M442.7,258.9h-13.4c-4.7,0-8.5,3.8-8.5,8.5v13.4c0,4.7,3.8,8.5,8.5,8.5h13.4c4.7,0,8.5-3.8,8.5-8.5v-13.4
	C451.2,262.7,447.4,258.9,442.7,258.9z"/>
<path class="st0" d="M460.1,272.5H436c-2.8,0-5.1-2.3-5.1-5.1v-35.2c0-2.8,2.3-5.1,5.1-5.1h24.1c2.8,0,5.1,2.3,5.1,5.1v35.2
	C465.2,270.2,462.9,272.5,460.1,272.5z"/>
<path class="st0" d="M391.8,333.2h-34.2c-6.6,0-12,5.4-12,12v19c0,6.6,5.4,12,12,12h34.2c6.6,0,12-5.4,12-12v-19
	C403.8,338.6,398.4,333.2,391.8,333.2z"/>
<path class="st0" d="M387,354.3h18.4c6.4,0,11.6-5.2,11.6-11.6v-26.9c0-6.4-5.2-11.6-11.6-11.6H387c-6.4,0-11.6,5.2-11.6,11.6v26.9
	C375.4,349,380.6,354.3,387,354.3z"/>
<path class="st0" d="M412.4,350.3h15.1c4.7,0,8.6-3.9,8.6-8.6v-15.1c0-4.7-3.9-8.6-8.6-8.6h-15.1c-4.7,0-8.6,3.9-8.6,8.6v15.1
	C403.8,346.4,407.7,350.3,412.4,350.3z"/>
<path class="st0" d="M421.5,345.2l-10.7-7.7c-1.5-1.1-3.6-0.7-4.6,0.8L379.9,375c-1.1,1.5-0.7,3.6,0.8,4.6l10.7,7.7
	c1.5,1.1,3.6,0.7,4.6-0.8l26.3-36.6C423.3,348.4,423,346.3,421.5,345.2z"/>
<path class="st0" d="M362.3,365.6l-96.1,68.2c-3.7,2.6-4.6,7.8-2,11.6l7.6,10.7c2.6,3.7,7.8,4.6,11.6,2l96.1-68.2
	c3.7-2.6,4.6-7.8,2-11.6l-7.6-10.7C371.2,363.8,366,362.9,362.3,365.6z"/>
<path class="st0" d="M351.6,400.2l-31.8,20.9c-2.4,1.6-3.1,4.8-1.5,7.2l11.7,17.9c1.6,2.4,4.8,3.1,7.2,1.5l31.8-20.9
	c2.4-1.6,3.1-4.8,1.5-7.2l-11.7-17.9C357.3,399.3,354,398.6,351.6,400.2z"/>
<path class="st0" d="M317.4,446.2h-16.2c-2.6,0-4.7-2.1-4.7-4.7v-7.4c0-2.6,2.1-4.7,4.7-4.7h16.2c2.6,0,4.7,2.1,4.7,4.7v7.4
	C322.1,444.1,320,446.2,317.4,446.2z"/>
<path class="st0" d="M437.3,318.1h-10.7c-3.7,0-6.8-3-6.8-6.8v-28.7c0-3.7,3-6.8,6.8-6.8h10.7c3.7,0,6.8,3,6.8,6.8v28.7
	C444.1,315.1,441,318.1,437.3,318.1z"/>
<path class="st0" d="M418.5,294l-18,9.4c-0.5,0.3-0.8,1-0.5,1.5l1.9,3.7c0.3,0.5,1,0.8,1.5,0.5l18-9.4c0.5-0.3,0.8-1,0.5-1.5
	l-1.9-3.7C419.8,293.9,419.1,293.7,418.5,294z"/>
<path class="st0" d="M379.1,330.2h-7.7c-1.3,0-2.3,1.1-2.3,2.3v3.7c0,1.3,1.1,2.3,2.3,2.3h7.7c1.3,0,2.3-1.1,2.3-2.3v-3.7
	C381.4,331.3,380.4,330.2,379.1,330.2z"/>
<path class="st0" d="M345.7,386h-6.1c-2.1,0-3.9-1.7-3.9-3.9V372c0-2.1,1.7-3.9,3.9-3.9h6.1c2.1,0,3.9,1.7,3.9,3.9v10.1
	C349.5,384.3,347.8,386,345.7,386z"/>
<path class="st0" d="M299.9,443.1h-26c-1.6,0-3,1.3-3,3v5.2c0,1.6,1.3,3,3,3h26c1.6,0,3-1.3,3-3V446
	C302.8,444.4,301.5,443.1,299.9,443.1z"/>
<path class="st0" d="M273.3,436l-39.5,22.8c-1.9,1.1-2.5,3.5-1.4,5.3l4.1,7.2c1.1,1.9,3.5,2.5,5.3,1.4l39.5-22.8
	c1.9-1.1,2.5-3.5,1.4-5.3l-4.1-7.2C277.5,435.5,275.1,434.9,273.3,436z"/>
<path class="st0" d="M276.6,456.5h33.8c3.2,0,5.7-2.6,5.7-5.7v-9.1c0-3.2-2.6-5.7-5.7-5.7h-33.8c-3.2,0-5.7,2.6-5.7,5.7v9.1
	C270.9,453.9,273.5,456.5,276.6,456.5z"/>
<path class="st0" d="M278.4,458.2h-19.7c-0.6,0-1.1-0.5-1.1-1.1v-1.7c0-0.6,0.5-1.1,1.1-1.1h19.7c0.6,0,1.1,0.5,1.1,1.1v1.7
	C279.4,457.7,279,458.2,278.4,458.2z"/>
<path class="st0" d="M332.3,449.2h-11.7c-2.4,0-4.3-2-4.3-4.3V438c0-2.4,2-4.3,4.3-4.3h11.7c2.4,0,4.3,2,4.3,4.3v6.9
	C336.6,447.3,334.7,449.2,332.3,449.2z"/>
<path class="st0" d="M369.3,435.9h-3.6c-1.3,0-2.3-1-2.3-2.3v-22.7c0-1.3,1-2.3,2.3-2.3h3.6c1.3,0,2.3,1,2.3,2.3v22.7
	C371.6,434.9,370.6,435.9,369.3,435.9z"/>
<path class="st0" d="M360.2,437.6H353c-1.9,0-3.4-1.5-3.4-3.4v-5.3c0-1.9,1.5-3.4,3.4-3.4h7.2c1.9,0,3.4,1.5,3.4,3.4v5.3
	C363.6,436.1,362.1,437.6,360.2,437.6z"/>
<path class="st1" d="M388.3,406.4l3.5,19.1c0,0,0.4,3-3.5-0.6c-3.9-3.6-12.4-16.3-12.4-16.3s0.9-12.3,5.5-11.7
	S388.3,406.4,388.3,406.4"/>
<path class="st2" d="M252.6,473.8c0,0,7.3-1.2,8.4-7"/>
<path class="st2" d="M227.1,486.8"/>
<path class="st1" d="M250.8,474.1c0,0,10.2-0.5,10.2-7.2"/>
<path class="st1" d="M239.5,486.8c0,0,19.7,11.3,16.4,43.3c0,0-13.1-3.6-18.8-17.3c0,0,11.1,27.4,9.6,39.7c0,0-16.4-7.5-16.7-20.6
	c0,0-1.5,14.8-3.9,22.1c0,0-13.6-26.5-9.2-39.1c0,0-9.1,13.3-4.5,21.8c0,0-28.5-28.8,19.7-71.6c0,0,1.2,0,3.2-0.1
	c5.8-0.3,18.2-1.7,24-7.3c7.8-7.5,9.2-17.6,9.2-17.6s13.7-16.4,30.4-9.8c0,0,6.1,13-12.8,17.3c-18.9,4.3-10.9,25.4-25.4,17
	c0,0,0.3,1,0.3,2.4c-0.2,2.4-1.6,5.9-8.3,7c-3,0.5-7.1,0.6-12.5-0.2L239.5,486.8z"/>
<path class="st1" d="M327.8,426.2c0,0-15.7,9.5-21.8,28.3c-6.1,18.8-15.2,17.6-15.2,17.6s14.6-0.6,22.7-11.6
	c8.1-11,14.3-14.3,14.3-14.3V426.2z"/>
<path class="st1" d="M353.8,416.4c0,0-23.4,24.2-17,53.4c0,0,24.2-27.9,26.8-49.5C363.6,420.3,355.1,425.9,353.8,416.4z"/>
<path class="st1" d="M375.5,397c0,0,7.3,14.1-11.9,23.3C344.3,429.5,362.4,390,375.5,397z"/>
<path class="st2" d="M230,531.8c0,0,5.9-51.4-1.4-48.2"/>
<path class="st3" d="M239.5,486.8c0,0-5.7,16.9-2.4,26"/>
<path class="st1" d="M303.7,413.4c0,0-19.5,0.3-28,10.4s-18.1,2.1-23.7,12.5c0,0,14.8,3.2,21.3-0.9
	C279.7,431.3,292,418.5,303.7,413.4z"/>
<path class="st1" d="M331.7,379.4c0,0-6.1,12.6-28,16.7s-35.2,20.2-35.2,20.2s16-8.8,33.4-10.7c17.4-1.9,38.2-13.4,38.2-13.4v-16.1
	L331.7,379.4z"/>
<path class="st1" d="M349.6,351.1c0,0-10.3,12.8-29.3,16.7c-18.9,3.9-20.5,18.2-20.5,18.2s23.5-9.8,31.9-6.6s41.8-28.3,41.8-28.3
	s-34.7,0.1-36.8,2.7s11.2-21.3,42.8-23.6h11.3c0,0-6.9,3.4-9.8,9.8c0,0,9.9,0.7,17.8-1.5c4.9-1.4,9-3.9,9.4-8.4
	c1-11.8,0-16.4,0-16.4s-7.5-3.7-13.4,9.5c-6,13.3-28.6,1.8-28.6,1.8s17.1-8.4,25.6-7.5"/>
<path class="st1" d="M288.2,428.7c0,0,37.4,6.1,49.8-19.8c0,0-26.5,0.1-34.3,4.5"/>
<path class="st1" d="M376.9,382.1c0,0-14.6,0.6-24.9,10.1c-10.3,9.5-29.8,13.7-29.8,13.7s32.7,3.5,38.8-2.3c0,0,4.4-6,7.8-6.7"/>
<path class="st1" d="M216.8,514.8c4.5-21.8,22.2-50.3,22.2-50.3l1,9.1"/>
<path class="st1" d="M255.5,473.1c0,0,14.1,8.6,21.3-20.7"/>
<path class="st1" d="M315.6,426.9c0,0-7.6,14.7-17,18.7s-6,10.1-6,10.1s9.1,2.6,13.4-1.2c0,0,2.8-14.6,21.8-28.3"/>
<path class="st1" d="M274.1,461.1c0,0,12.4-8,18.5-5.3"/>
<path class="st1" d="M327.8,446.2c0,0-4.8,2.9-3,14.9c0,0,10.8-4,12.6-14.9"/>
<path class="st1" d="M353.1,406.4c0,0-25.3,8.1-25.3,19.8s15,6,15,6"/>
<path class="st1" d="M373.8,412.5c0,0,0.7,18.1-2.9,25.1c-3.6,7-13.2,20.6-13.2,20.6c-5.7-3.7-4.6-11.3-4.6-11.3"/>
<path class="st1" d="M369.8,439.7c-7.6,9.8,7.1,28.4,7.1,28.4c-1-11.2,11.7-26.3,11.7-26.3s7-21.7-14.7-17.9
	C373.9,423.9,371.3,437.6,369.8,439.7z"/>
<path class="st1" d="M392.8,377.5c0,0-16,9,0,38.9C392.8,416.4,411.4,393.8,392.8,377.5z"/>
<path class="st1" d="M368.3,383.6c0,0,3.2-1.9,6.6-6.5c2.5-3.4,5.1-8.4,6.6-15.2c0,0-12.7-5.8-24.5,3.7
	c-19.8,15.9-16.9,26.8-16.9,26.8c5.1-7.8,24.4-7.4,24.4-7.4L368.3,383.6z"/>
<path class="st1" d="M373.5,351.1c0,0,21.8,1.1,25.2-12.5"/>
<path class="st1" d="M406.4,334.3c0,0,5,9.7-3.4,18.1c-3.8,3.8-10.4,7.3-21.5,9.5"/>
<path class="st1" d="M439.1,245.3c0,0-22.9,16.8-32.2,21.5c0,0,23.5,4.9,29.4-9"/>
<path class="st1" d="M424.8,266.6c0,0-19,13.5-17.9,30.3c0,0,8.8-0.2,13.2-3.2"/>
<path class="st1" d="M375.4,321.2c0,0-1.5-12.7,12.5-15.7c14-3,26-8.5,26-8.5"/>
<path class="st1" d="M459.8,282.7c0,0-10.5,40-20.7,21.4c0,0,9.5-7.2,8.7-15.2"/>
<path class="st1" d="M422.8,313.3c0,0,11-3.7,16.3-9.2"/>
<path class="st1" d="M423,317.3c0,0,13.1,9.1,11.4,23.1c0,0,14.4-13.4,10.4-31.3"/>
<path class="st1" d="M417,342.1c0,0,1.7,4.5,3.8,10.7c1.3,3.9,2.8,8.5,4,13c3.3,11.7,9.7-25.5,9.7-25.5"/>
<path class="st1" d="M396.1,380.9c0,0,11.2,4.1,24.7-28.1"/>
<path class="st1" d="M394.2,365c0,0-18.4,2.4-15.4,32l7.2,0.6"/>
<path class="st3" d="M464.9,264.5c0,0,7,3.8,6,12.5c-1,8.7,21.7-12.1,10.4-40.2c0,0,5,26.7,12.5,24.3c3.7-1.2,4.9-9.9,5-18.3
	c0.2-8.4-0.6-16.4-0.6-16.4s-3.8-6-9.3-2"/>
<path class="st1" d="M483.2,219.4c0,0,4.7,8.9,5.6,12.9c3,13.5,8.1-40.3,6-49.9s-15.7,5.1-15.7,5.1c-3.2-7.9-1.3-20.1-1.3-20.1
	c-8.6,6.3-11.9,11.6-11.9,20.1c0,8.5,9.2,17,16.1,29.1c6.9,12.1-10.5,41.6-10.5,41.6c-4.5-5.3-8.3-14.8-6.7-21.3
	c1.6-6.5-0.7-33.1-0.7-33.1c-2,20.9-20.2,32.7-25.1,41.4c-2.5,4.6-2.9,9.1-2.8,12.5c0.1,3,0.5,5.3-0.1,6c-1.2,1.7,0.7,11.4,0.7,11.4
	c0.7-7.6,25.3-27.5,25.3-27.5s1,7.6,3.8,22.6c2.8,15-27.7,21.5-27.7,21.5l-2-8.9c-25.5,5.5-20.4,36.2-20.4,36.2
	c5.4-7.2,6.9-5.8,6.9-5.8c2.1,26.2-8.9,34.5-19.8,39s-10.1,25.1-10.1,25.1"/>
<path class="st1" d="M495.3,223.8c0,0,20.8,5.5,14.5,32.6c0,0-5.6-12.6-11.1-13.5"/>
<path class="st2" d="M227.4,486.2c0,0,4.2-8.3,4.5,3.5"/>
<path class="st1" d="M285.1,409.4c0,0-20.5,15.8-0.7,8.1s20.5-12.3,20.5-12.3L285.1,409.4z"/>
<path class="st1" d="M286.1,447.4c0,0-8.7-2-17.6,18.2c0,0-2.3,3.8-7.8-1.2c0,0-4-1.8,1.5-10.3c5.5-8.5,6.2-14.2,6.2-14.2
	s-20.7-4.8-36.4,25.1"/>
<path class="st1" d="M252.6,473.8c0,0,7.6-1,8.3-7"/>
<line class="st1" x1="239.7" y1="470.3" x2="240" y2="475.4"/>
<path class="st1" d="M510.7,209.7c0,0,2,9.7,2.2,13.5c0,0,1.4,46.9,9.7,33.3c8.4-13.6,8.4-13.6,8.4-13.6s2.1-3.4,4.2-13"/>
<path class="st1" d="M469.5,487.3"/>
</svg>
