<?xml version="1.0" encoding="utf-8"?>
<!-- Generator: Adobe Illustrator 22.1.0, SVG Export Plug-In . SVG Version: 6.00 Build 0)  -->
<svg version="1.1" id="Layer_1" xmlns="http://www.w3.org/2000/svg" xmlns:xlink="http://www.w3.org/1999/xlink" x="0px" y="0px"
	 viewBox="0 0 222 294" style="enable-background:new 0 0 222 294;" xml:space="preserve">
<style type="text/css">
	.st0{fill:#4AA853;}
	.st1{fill:none;stroke:#030407;stroke-width:2;stroke-miterlimit:10;}
</style>
<path class="st0" d="M192.4,4.9c0,8.8,0,50.4,0,50.4s-1.6,32.1-1.6,33.3s-2.9,58.3-2.9,58.3s-1.2,5.1-4.4,17.8
	c-3.1,12.7-1.8,29.3-1.8,29.3l-3.6,34.3l-106.4-2c0,0,1.3-6.2,2.8-14.1c1.9-9.7,4.3-21.9,5.3-28.1l4.3-12.5L86,151l-1.8-12l0.7-12.7
	l8.9-24.6l-0.3-8l3.8-18.8l1.1-12.1c0,0,0.5-8.6-2.3-26.4"/>
<path class="st0" d="M70.2,238.1c0,0-7.3,10.8-12.1,11.8c-4.8,1-16.3,2.9-16.3,2.9l-11.7,3L5.2,267.2c0,0-5.2,2.1,13.5,1.7
	c18.7-0.5,12.3,0.2,12.3,0.2l-10,6.5L4.5,285l13,0.6c0,0,6.3-1.9,18.6-1.3c0,0,11.3-0.4,13.1-6.4c1.8-6,9.3-9.6,9.3-9.6l-0.4-8.6
	c0,0,3-2.4,4.5,4c0,0,3.9-3.8,10.3-4.3c6.5-0.5-8.8,8.9-8.8,8.9l0.2,5.8l11.7-1.8l-5.1,3.3l17.6-0.5c0,0,9.8-8.5,14.2-10.3
	c0,0-3.9-8.4-7.8-10.8c-3.9-2.4,12.7,3,13.6,6.8l6.3-3.3c0,0,19.6-2.4-5.4,7c0,0,4.5,6.9,2.9,10.7c0,0,2.5-2.1,8.3,4.6
	c0,0,2.9,1.8,10.6,1.1c0,0,4.9,0.4,9.1,3.5c4.2,3.2,18.2,3.8,20.4,2.1l-9-6l-2.9-6.5c0,0,13.4-3.1,21.4-1.4c0,0,1.4-14,4.6-15
	c3.2-1.1,0,14.5,0,14.5l6.9-0.2l14.5,4.2l13-0.8l8,2.9c0,0-1.9-10.4-11.1-14.7c-9.2-4.3-16-7.5-16-7.5s-0.6-4.2-8-10l-2.2-7.3
	l-2-11.5l-106.6-2.8l0.2,10.7L70.2,238.1z"/>
<path class="st0" d="M206.4,244.5"/>
<polygon class="st0" points="73.7,258.6 64.8,266.9 75.9,269 80.9,258.6 "/>
<g>
	<path class="st1" d="M149.6,274.3c0,0,13.7-4.1,20.9-1.9l0.5,1.9c0,0-0.3-6.3,0.8-11.2c0.5-2.5,1.4-4.6,2.9-5.3
		c4.3-2-1.4,11.2,1.7,15c0,0,2.1-1.3,5.7-1.3s6.3,2.8,12.4,3.6c6.1,0.7,12.3-0.6,16.5,0.8c4.3,1.3,6.4,2,6.4,2s-0.4-7.3-11.9-15.3
		c-2.2-1.5-8.3-3.7-13-5.5c-3.1-1.2-5.6-2.1-5.9-2.4c-3.6-4.7-7.5-3-11.6-5.1s-9.2,0.4-16.5-4.7c-7.4-5.1-18-4.5-19.6-11.4"/>
	<path class="st1" d="M191.6,256.8c-3.6-8.7-9.7-9-9.4-12.4s-4-12.2-4-16.9c0,0,3.8-12.8,3.6-41.3s6.4-33,6.1-40.1
		c-0.3-7.1,2.7-34.3,2.8-53.6c0.1-19.4,1.7-36.3,1.7-36.3V23.9V4.2"/>
	<path class="st1" d="M96.1,35.7c6.5,34.7-2.5,49.3-2.9,60.4s-8.6,27.7-8.6,31.3s-1,15.1,0.3,19.1s-0.1,21.8-0.6,24.5
		c-0.6,2.6-5.1,13.2-5.1,16.5S76,204.7,76,204.7s-4.6,20.7-4.3,22.6c0.3,2,1.1,9.1-4.5,14.8c-5.5,5.7-8.6,8.6-14,8.7
		s-5.8,1.9-11.5,1.9s-20,6.1-32.6,12.1s4.5,3.9,4.5,3.9l17.3,0.4c0,0-8.6,4.6-10,6.5c-1.4,2-5.5,0.9-8.3,3.5s-10.3,5.1-8.2,6
		s7.2,0.4,7.2,0.4s-0.7,1.7,5.8,0.1C24,284,36,284.3,36,284.3s9.2-0.3,11.7-3.9c2.4-3.6,2.5-7.8,10.7-12.2l-0.4-8.6c0,0,3.3-2,4.5,4
		c0,0,5.8-4.4,10.3-4.3c0,0-8.6,6.5-8.8,8.9c-0.2,2.3,0.2,5.8,0.2,5.8s8-2.1,11.7-1.8c0,0-6,2.6-5.1,3.3c0.9,0.7,17.6-0.5,17.6-0.5
		s8.5-7.6,14.2-10.3c0,0-3.2-8.2-7.8-10.8c-4.6-2.6,11.1,3.5,13.6,6.8l6.3-3.3c0,0,11.1-0.9,4.3,2.3c-6.8,3.3-9.6,4.7-9.6,4.7
		s2.9,4.7,2.9,10.7c0,0,2.9-0.2,4.3,0.9c1.4,1,3.3,5.4,10.1,4.9c6.8-0.6,9.3,0.7,13.6,3.5s22.4,3.9,20.4,2.1
		c-1.9-1.8-8.8-4.6-10.3-7.7c-0.5-1-0.8-2.2-1-3.4c-0.3-2.4-0.1-4.7,0.4-4.8c0.7-0.3,7.2-6.6,14.8-6s-0.5-4.2-9.6-1.8
		c0,0-3.7,1.3-4.7,2.7c-1,1.4-1.5-11.3-1.5-11.3s-3.6,2.2-4.4,5.7c-0.8,3.6-0.8,3.6-0.8,3.6s-24.3-14.5-23.5-17.7"/>
	<path class="st1" d="M164.9,264.3"/>
</g>
</svg>
